<svg xmlns="http://www.w3.org/2000/svg" xmlns:xlink="http://www.w3.org/1999/xlink" width="840" height="602.75"><rect width="840" height="602.75" rx="5" ry="5" class="a"/><svg y="0%" x="0%"><circle cx="20" cy="20" r="6" fill="#ff5f58"/><circle cx="40" cy="20" r="6" fill="#ffbd2e"/><circle cx="60" cy="20" r="6" fill="#18c132"/></svg><svg height="542.75" viewBox="0 0 80 54.275" width="800" x="15" xmlns="http://www.w3.org/2000/svg" xmlns:xlink="http://www.w3.org/1999/xlink" y="50"><style>@keyframes m{0%{transform:translateX(0)}24.1%{transform:translateX(-80px)}24.7%{transform:translateX(-240px)}39.2%{transform:translateX(-320px)}40.9%{transform:translateX(-400px)}43.3%{transform:translateX(-480px)}45.5%{transform:translateX(-560px)}47.7%{transform:translateX(-640px)}49%{transform:translateX(-720px)}51.5%{transform:translateX(-800px)}53.6%{transform:translateX(-880px)}57.7%{transform:translateX(-960px)}62.4%{transform:translateX(-1120px)}62.5%{transform:translateX(-1200px)}72.4%{transform:translateX(-1360px)}72.5%{transform:translateX(-1440px)}73.5%{transform:translateX(-1680px)}74.1%{transform:translateX(-1840px)}89.4%{transform:translateX(-2080px)}90.1%{transform:translateX(-2240px)}to{transform:translateX(-2320px)}}.a{fill:#282d35}.f,.g{fill:#a8cc8c;font-weight:700}.g{fill:#66c2cd}.h,.i{fill:#b9c0cb}.i{font-weight:700}</style><g font-size="1.67" font-family="Monaco,Consolas,Menlo,'Bitstream Vera Sans Mono','Powerline Symbols',monospace"><defs><symbol id="1"><text y="1.67" class="f">➜</text><text x="3.006" y="1.67" class="g">Bearer</text></symbol><symbol id="2"><text y="1.67" class="f">➜</text><text x="3.006" y="1.67" class="g">Bearer</text><text x="10.02" y="1.67" class="h">bearer</text></symbol><symbol id="3"><text y="1.67" class="f">➜</text><text x="3.006" y="1.67" class="g">Bearer</text><text x="10.02" y="1.67" class="h">bearer</text><text x="17.034" y="1.67" class="h">-h</text></symbol><symbol id="4"><text y="1.67" class="h">Bearer</text><text x="7.014" y="1.67" class="h">CLI</text></symbol><symbol id="5"><text y="1.67" class="i">VERSION</text></symbol><symbol id="6"><text x="2.004" y="1.67" class="h">@bearer/cli/0.105.1</text><text x="22.044" y="1.67" class="h">darwin-x64</text><text x="33.066" y="1.67" class="h">node-v10.15.0</text></symbol><symbol id="7"><text y="1.67" class="i">USAGE</text></symbol><symbol id="8"><text x="2.004" y="1.67" class="h">$</text><text x="4.008" y="1.67" class="h">bearer</text><text x="11.022" y="1.67" class="h">[COMMAND]</text></symbol><symbol id="9"><text y="1.67" class="i">COMMANDS</text></symbol><symbol id="10"><text x="2.004" y="1.67" class="h">autocomplete</text><text x="16.032" y="1.67" class="h">display</text><text x="24.048" y="1.67" class="h">autocomplete</text><text x="37.074" y="1.67" class="h">installation</text><text x="50.1" y="1.67" class="h">instructions</text></symbol><symbol id="11"><text x="2.004" y="1.67" class="h">encrypt</text><text x="16.032" y="1.67" class="h">Encrypt</text><text x="24.048" y="1.67" class="h">using</text><text x="30.06" y="1.67" class="h">bearer</text><text x="37.074" y="1.67" class="h">security</text></symbol><symbol id="12"><text x="2.004" y="1.67" class="h">generate</text><text x="16.032" y="1.67" class="h">Generate</text><text x="25.05" y="1.67" class="h">Function</text><text x="34.068" y="1.67" class="h">or</text><text x="37.074" y="1.67" class="h">Component</text></symbol><symbol id="13"><text x="2.004" y="1.67" class="h">help</text><text x="16.032" y="1.67" class="h">display</text><text x="24.048" y="1.67" class="h">help</text><text x="29.058" y="1.67" class="h">for</text><text x="33.066" y="1.67" class="h">bearer</text></symbol><symbol id="14"><text x="2.004" y="1.67" class="h">invoke</text><text x="16.032" y="1.67" class="h">Invoke</text><text x="23.046" y="1.67" class="h">Function</text><text x="32.064" y="1.67" class="h">locally</text></symbol><symbol id="15"><text x="2.004" y="1.67" class="h">link</text><text x="16.032" y="1.67" class="h">Link</text><text x="21.042" y="1.67" class="h">your</text><text x="26.052" y="1.67" class="h">local</text><text x="32.064" y="1.67" class="h">integration</text><text x="44.088" y="1.67" class="h">to</text><text x="47.094" y="1.67" class="h">a</text><text x="49.098" y="1.67" class="h">remote</text><text x="56.112" y="1.67" class="h">one</text></symbol><symbol id="16"><text x="2.004" y="1.67" class="h">login</text><text x="16.032" y="1.67" class="h">Login</text><text x="22.044" y="1.67" class="h">to</text><text x="25.05" y="1.67" class="h">Bearer</text><text x="32.064" y="1.67" class="h">platform</text></symbol><symbol id="17"><text x="2.004" y="1.67" class="h">new</text><text x="16.032" y="1.67" class="h">Generate</text><text x="25.05" y="1.67" class="h">a</text><text x="27.054" y="1.67" class="h">new</text><text x="31.062" y="1.67" class="h">integration</text></symbol><symbol id="18"><text x="2.004" y="1.67" class="h">push</text><text x="16.032" y="1.67" class="h">Deploy</text><text x="23.046" y="1.67" class="h">Integration</text><text x="35.07" y="1.67" class="h">to</text><text x="38.076" y="1.67" class="h">Bearer</text><text x="45.09" y="1.67" class="h">Platform</text></symbol><symbol id="19"><text x="2.004" y="1.67" class="h">start</text><text x="16.032" y="1.67" class="h">Start</text><text x="22.044" y="1.67" class="h">local</text><text x="28.056" y="1.67" class="h">development</text><text x="40.08" y="1.67" class="h">environment</text></symbol><symbol id="20"><text y="1.67" fill="#e88388" font-weight="700">➜</text><text x="3.006" y="1.67" class="g">Bearer</text></symbol><symbol id="a"><path fill="transparent" d="M0 0h80v25H0z"/></symbol><symbol id="b"><path fill="#6f7683" d="M0 0h1.102v2.171H0z"/></symbol></defs><path class="a" d="M0 0h80v54.275H0z"/><g style="animation-duration:5.063131s;animation-iteration-count:infinite;animation-name:m;animation-timing-function:steps(1,end)"><svg width="2400"><svg><use xlink:href="#a"/><use xlink:href="#b" x="-.004"/></svg><svg x="80"><use xlink:href="#a"/><use xlink:href="#b" x="-.004"/></svg><svg x="160"><use xlink:href="#a"/><use xlink:href="#b" x="9.996"/><use xlink:href="#1"/></svg><svg x="240"><use xlink:href="#a"/><use xlink:href="#b" x="9.996"/><use xlink:href="#1"/></svg><svg x="320"><use xlink:href="#a"/><use xlink:href="#b" x="10.996"/><text y="1.67" class="f">➜</text><text x="3.006" y="1.67" class="g">Bearer</text><text x="10.02" y="1.67" class="h">b</text></svg><svg x="400"><use xlink:href="#a"/><use xlink:href="#b" x="11.996"/><text y="1.67" class="f">➜</text><text x="3.006" y="1.67" class="g">Bearer</text><text x="10.02" y="1.67" class="h">be</text></svg><svg x="480"><use xlink:href="#a"/><use xlink:href="#b" x="12.996"/><text y="1.67" class="f">➜</text><text x="3.006" y="1.67" class="g">Bearer</text><text x="10.02" y="1.67" class="h">bea</text></svg><svg x="560"><use xlink:href="#a"/><use xlink:href="#b" x="13.996"/><text y="1.67" class="f">➜</text><text x="3.006" y="1.67" class="g">Bearer</text><text x="10.02" y="1.67" class="h">bear</text></svg><svg x="640"><use xlink:href="#a"/><use xlink:href="#b" x="14.996"/><text y="1.67" class="f">➜</text><text x="3.006" y="1.67" class="g">Bearer</text><text x="10.02" y="1.67" class="h">beare</text></svg><svg x="720"><use xlink:href="#a"/><use xlink:href="#b" x="15.996"/><use xlink:href="#2"/></svg><svg x="800"><use xlink:href="#a"/><use xlink:href="#b" x="16.996"/><use xlink:href="#2"/></svg><svg x="880"><use xlink:href="#a"/><use xlink:href="#b" x="17.996"/><text y="1.67" class="f">➜</text><text x="3.006" y="1.67" class="g">Bearer</text><text x="10.02" y="1.67" class="h">bearer</text><text x="17.034" y="1.67" class="h">-</text></svg><svg x="960"><use xlink:href="#a"/><use xlink:href="#b" x="18.996"/><use xlink:href="#3"/></svg><svg x="1040"><use xlink:href="#a"/><use xlink:href="#b" x="18.996"/><use xlink:href="#3"/></svg><svg x="1120"><use xlink:href="#a"/><use xlink:href="#b" x="-.004" y="2.146"/><use xlink:href="#3"/></svg><svg x="1200"><use xlink:href="#a"/><use xlink:href="#b" x="-.004" y="2.146"/><use xlink:href="#3"/></svg><svg x="1280"><use xlink:href="#a"/><use xlink:href="#b" x="-.004" y="17.343"/><use xlink:href="#3"/><use xlink:href="#4" y="2.171"/><use xlink:href="#5" y="6.513"/><use xlink:href="#6" y="8.684"/><use xlink:href="#7" y="13.026"/><use xlink:href="#8" y="15.197"/></svg><svg x="1360"><use xlink:href="#a"/><use xlink:href="#b" x="-.004" y="19.514"/><use xlink:href="#3"/><use xlink:href="#4" y="2.171"/><use xlink:href="#5" y="6.513"/><use xlink:href="#6" y="8.684"/><use xlink:href="#7" y="13.026"/><use xlink:href="#8" y="15.197"/></svg><svg x="1440"><use xlink:href="#a"/><use xlink:href="#b" x="-.004" y="45.566"/><use xlink:href="#3"/><use xlink:href="#4" y="2.171"/><use xlink:href="#5" y="6.513"/><use xlink:href="#6" y="8.684"/><use xlink:href="#7" y="13.026"/><use xlink:href="#8" y="15.197"/><use xlink:href="#9" y="19.539"/><use xlink:href="#10" y="21.71"/><use xlink:href="#11" y="23.881"/><use xlink:href="#12" y="26.052"/><use xlink:href="#13" y="28.223"/><use xlink:href="#14" y="30.394"/><use xlink:href="#15" y="32.565"/><use xlink:href="#16" y="34.736"/><use xlink:href="#17" y="36.907"/><use xlink:href="#18" y="39.078"/><use xlink:href="#19" y="41.249"/></svg><svg x="1520"><use xlink:href="#a"/><use xlink:href="#b" x="-.004" y="45.566"/><use xlink:href="#3"/><use xlink:href="#4" y="2.171"/><use xlink:href="#5" y="6.513"/><use xlink:href="#6" y="8.684"/><use xlink:href="#7" y="13.026"/><use xlink:href="#8" y="15.197"/><use xlink:href="#9" y="19.539"/><use xlink:href="#10" y="21.71"/><use xlink:href="#11" y="23.881"/><use xlink:href="#12" y="26.052"/><use xlink:href="#13" y="28.223"/><use xlink:href="#14" y="30.394"/><use xlink:href="#15" y="32.565"/><use xlink:href="#16" y="34.736"/><use xlink:href="#17" y="36.907"/><use xlink:href="#18" y="39.078"/><use xlink:href="#19" y="41.249"/></svg><svg x="1600"><use xlink:href="#a"/><use xlink:href="#b" x="-.004" y="45.566"/><use xlink:href="#3"/><use xlink:href="#4" y="2.171"/><use xlink:href="#5" y="6.513"/><use xlink:href="#6" y="8.684"/><use xlink:href="#7" y="13.026"/><use xlink:href="#8" y="15.197"/><use xlink:href="#9" y="19.539"/><use xlink:href="#10" y="21.71"/><use xlink:href="#11" y="23.881"/><use xlink:href="#12" y="26.052"/><use xlink:href="#13" y="28.223"/><use xlink:href="#14" y="30.394"/><use xlink:href="#15" y="32.565"/><use xlink:href="#16" y="34.736"/><use xlink:href="#17" y="36.907"/><use xlink:href="#18" y="39.078"/><use xlink:href="#19" y="41.249"/></svg><svg x="1680"><use xlink:href="#a"/><use xlink:href="#b" x="-.004" y="45.566"/><use xlink:href="#3"/><use xlink:href="#4" y="2.171"/><use xlink:href="#5" y="6.513"/><use xlink:href="#6" y="8.684"/><use xlink:href="#7" y="13.026"/><use xlink:href="#8" y="15.197"/><use xlink:href="#9" y="19.539"/><use xlink:href="#10" y="21.71"/><use xlink:href="#11" y="23.881"/><use xlink:href="#12" y="26.052"/><use xlink:href="#13" y="28.223"/><use xlink:href="#14" y="30.394"/><use xlink:href="#15" y="32.565"/><use xlink:href="#16" y="34.736"/><use xlink:href="#17" y="36.907"/><use xlink:href="#18" y="39.078"/><use xlink:href="#19" y="41.249"/></svg><svg x="1760"><use xlink:href="#a"/><use xlink:href="#b" x="9.996" y="45.566"/><use xlink:href="#3"/><use xlink:href="#4" y="2.171"/><use xlink:href="#5" y="6.513"/><use xlink:href="#6" y="8.684"/><use xlink:href="#7" y="13.026"/><use xlink:href="#8" y="15.197"/><use xlink:href="#9" y="19.539"/><use xlink:href="#10" y="21.71"/><use xlink:href="#11" y="23.881"/><use xlink:href="#12" y="26.052"/><use xlink:href="#13" y="28.223"/><use xlink:href="#14" y="30.394"/><use xlink:href="#15" y="32.565"/><use xlink:href="#16" y="34.736"/><use xlink:href="#17" y="36.907"/><use xlink:href="#18" y="39.078"/><use xlink:href="#19" y="41.249"/><use xlink:href="#1" y="45.591"/></svg><svg x="1840"><use xlink:href="#a"/><use xlink:href="#b" x="9.996" y="45.566"/><use xlink:href="#3"/><use xlink:href="#4" y="2.171"/><use xlink:href="#5" y="6.513"/><use xlink:href="#6" y="8.684"/><use xlink:href="#7" y="13.026"/><use xlink:href="#8" y="15.197"/><use xlink:href="#9" y="19.539"/><use xlink:href="#10" y="21.71"/><use xlink:href="#11" y="23.881"/><use xlink:href="#12" y="26.052"/><use xlink:href="#13" y="28.223"/><use xlink:href="#14" y="30.394"/><use xlink:href="#15" y="32.565"/><use xlink:href="#16" y="34.736"/><use xlink:href="#17" y="36.907"/><use xlink:href="#18" y="39.078"/><use xlink:href="#19" y="41.249"/><use xlink:href="#1" y="45.591"/></svg><svg x="1920"><use xlink:href="#a"/><use xlink:href="#b" x="-.004" y="47.737"/><use xlink:href="#3"/><use xlink:href="#4" y="2.171"/><use xlink:href="#5" y="6.513"/><use xlink:href="#6" y="8.684"/><use xlink:href="#7" y="13.026"/><use xlink:href="#8" y="15.197"/><use xlink:href="#9" y="19.539"/><use xlink:href="#10" y="21.71"/><use xlink:href="#11" y="23.881"/><use xlink:href="#12" y="26.052"/><use xlink:href="#13" y="28.223"/><use xlink:href="#14" y="30.394"/><use xlink:href="#15" y="32.565"/><use xlink:href="#16" y="34.736"/><use xlink:href="#17" y="36.907"/><use xlink:href="#18" y="39.078"/><use xlink:href="#19" y="41.249"/><use xlink:href="#1" y="45.591"/></svg><svg x="2000"><use xlink:href="#a"/><use xlink:href="#b" x="-.004" y="47.737"/><use xlink:href="#3"/><use xlink:href="#4" y="2.171"/><use xlink:href="#5" y="6.513"/><use xlink:href="#6" y="8.684"/><use xlink:href="#7" y="13.026"/><use xlink:href="#8" y="15.197"/><use xlink:href="#9" y="19.539"/><use xlink:href="#10" y="21.71"/><use xlink:href="#11" y="23.881"/><use xlink:href="#12" y="26.052"/><use xlink:href="#13" y="28.223"/><use xlink:href="#14" y="30.394"/><use xlink:href="#15" y="32.565"/><use xlink:href="#16" y="34.736"/><use xlink:href="#17" y="36.907"/><use xlink:href="#18" y="39.078"/><use xlink:href="#19" y="41.249"/><use xlink:href="#1" y="45.591"/></svg><svg x="2080"><use xlink:href="#a"/><use xlink:href="#b" x="-.004" y="47.737"/><use xlink:href="#3"/><use xlink:href="#4" y="2.171"/><use xlink:href="#5" y="6.513"/><use xlink:href="#6" y="8.684"/><use xlink:href="#7" y="13.026"/><use xlink:href="#8" y="15.197"/><use xlink:href="#9" y="19.539"/><use xlink:href="#10" y="21.71"/><use xlink:href="#11" y="23.881"/><use xlink:href="#12" y="26.052"/><use xlink:href="#13" y="28.223"/><use xlink:href="#14" y="30.394"/><use xlink:href="#15" y="32.565"/><use xlink:href="#16" y="34.736"/><use xlink:href="#17" y="36.907"/><use xlink:href="#18" y="39.078"/><use xlink:href="#19" y="41.249"/><use xlink:href="#1" y="45.591"/></svg><svg x="2160"><use xlink:href="#a"/><use xlink:href="#b" x="9.996" y="47.737"/><use xlink:href="#3"/><use xlink:href="#4" y="2.171"/><use xlink:href="#5" y="6.513"/><use xlink:href="#6" y="8.684"/><use xlink:href="#7" y="13.026"/><use xlink:href="#8" y="15.197"/><use xlink:href="#9" y="19.539"/><use xlink:href="#10" y="21.71"/><use xlink:href="#11" y="23.881"/><use xlink:href="#12" y="26.052"/><use xlink:href="#13" y="28.223"/><use xlink:href="#14" y="30.394"/><use xlink:href="#15" y="32.565"/><use xlink:href="#16" y="34.736"/><use xlink:href="#17" y="36.907"/><use xlink:href="#18" y="39.078"/><use xlink:href="#19" y="41.249"/><use xlink:href="#1" y="45.591"/><use xlink:href="#20" y="47.762"/></svg><svg x="2240"><use xlink:href="#a"/><use xlink:href="#b" x="9.996" y="47.737"/><use xlink:href="#3"/><use xlink:href="#4" y="2.171"/><use xlink:href="#5" y="6.513"/><use xlink:href="#6" y="8.684"/><use xlink:href="#7" y="13.026"/><use xlink:href="#8" y="15.197"/><use xlink:href="#9" y="19.539"/><use xlink:href="#10" y="21.71"/><use xlink:href="#11" y="23.881"/><use xlink:href="#12" y="26.052"/><use xlink:href="#13" y="28.223"/><use xlink:href="#14" y="30.394"/><use xlink:href="#15" y="32.565"/><use xlink:href="#16" y="34.736"/><use xlink:href="#17" y="36.907"/><use xlink:href="#18" y="39.078"/><use xlink:href="#19" y="41.249"/><use xlink:href="#1" y="45.591"/><use xlink:href="#20" y="47.762"/></svg><svg x="2320"><use xlink:href="#a"/><use xlink:href="#b" x="-.004" y="49.908"/><use xlink:href="#3"/><use xlink:href="#4" y="2.171"/><use xlink:href="#5" y="6.513"/><use xlink:href="#6" y="8.684"/><use xlink:href="#7" y="13.026"/><use xlink:href="#8" y="15.197"/><use xlink:href="#9" y="19.539"/><use xlink:href="#10" y="21.71"/><use xlink:href="#11" y="23.881"/><use xlink:href="#12" y="26.052"/><use xlink:href="#13" y="28.223"/><use xlink:href="#14" y="30.394"/><use xlink:href="#15" y="32.565"/><use xlink:href="#16" y="34.736"/><use xlink:href="#17" y="36.907"/><use xlink:href="#18" y="39.078"/><use xlink:href="#19" y="41.249"/><use xlink:href="#1" y="45.591"/><use xlink:href="#20" y="47.762"/></svg></svg></g></g></svg></svg>