<?xml version="1.0" encoding="UTF-8"?>
<svg width="456px" height="311px" viewBox="0 0 456 311" version="1.1" xmlns="http://www.w3.org/2000/svg" xmlns:xlink="http://www.w3.org/1999/xlink">
    <!-- Generator: Sketch 53.2 (72643) - https://sketchapp.com -->
    <title>Group 23</title>
    <desc>Created with Sketch.</desc>
    <g id="Hub" stroke="none" stroke-width="1" fill="none" fill-rule="evenodd">
        <g id="hub-howItWorks" transform="translate(-215.000000, -1709.000000)">
            <g id="Group-3" transform="translate(215.000000, 1709.000000)">
                <g id="Group-14">
                    <g id="Group-20">
                        <g id="Group-23">
                            <path d="M153,41 L153,200.184528" id="Line-2" stroke="#FFC400" stroke-width="2" stroke-linecap="square" fill-rule="nonzero"></path>
                            <polyline id="Fill-7786" fill="#384889" points="26.4202178 186.5 57.0961174 169 99.9583333 193.583333 69.2824337 211.083333"></polyline>
                            <polygon id="Fill-7787" fill="#6373B3" points="26.8404356 204.039171 69.2824337 228.166667 69.2824337 210.666667 26.8404356 186.5"></polygon>
                            <polyline id="Fill-7788" fill="#030D36" points="99.9583333 210.705838 99.9583333 193.166667 69.2824337 210.705838 69.2824337 228.245009"></polyline>
                            <polyline id="Fill-7786" fill="#384889" points="275 212.70625 318 188 361 212.70625 318 237.4125 275 212.70625"></polyline>
                            <polyline id="Fill-7787" fill="#6373B3" points="275 212.2875 275 229.914367 318 255 318 237.373133 275 212.2875"></polyline>
                            <polyline id="Fill-7788" fill="#030D36" points="318 255 361 229.914367 361 212.2875 318 237.373133 318 255"></polyline>
                            <polyline id="Fill-7786" fill="#384889" points="131 252.70625 174 228 217 252.70625 174 277.4125 131 252.70625"></polyline>
                            <polygon id="Fill-7787" fill="#6373B3" points="131 252.414367 131 285.914367 174 311 174 277.5"></polygon>
                            <polygon id="Fill-7788" fill="#030D36" points="217 285.914367 217 252 174 277.085633 174 311"></polygon>
                            <polygon id="Fill-7786" fill="#B3BEEA" points="228 1.13686838e-13 456 129.562874 228 264.173653 1.98951966e-13 132.086826"></polygon>
                            <polygon id="Rectangle" fill="#FFFFFF" fill-rule="nonzero" points="263.335793 28.6047904 444.642066 130.404192 432.02214 137.134731 249.874539 36.1766467"></polygon>
                            <path d="M221.214604,14.537382 C223.224061,15.3849634 226.309147,14.9893384 228.105336,13.653729 C229.901525,12.3181195 229.728637,10.5482936 227.71918,9.7007122 C225.709723,8.8531308 222.624637,9.24875573 220.828448,10.5843652 C219.032259,11.9199747 219.205147,13.6898006 221.214604,14.537382 Z" id="Oval" fill="#DC4C4C" fill-rule="nonzero"></path>
                            <path d="M231.310545,20.4266035 C233.320002,21.2741849 236.405088,20.87856 238.201277,19.5429505 C239.997466,18.207341 239.824578,16.4375152 237.815121,15.5899338 C235.805664,14.7423524 232.720578,15.1379773 230.924389,16.4735868 C229.128199,17.8091962 229.301087,19.5790221 231.310545,20.4266035 Z" id="Oval" fill="#FFC400" fill-rule="nonzero"></path>
                            <path d="M242.247814,27.1571424 C244.257271,28.0047238 247.342357,27.6090989 249.138546,26.2734894 C250.934736,24.93788 250.761848,23.1680541 248.75239,22.3204727 C246.742933,21.4728913 243.657847,21.8685162 241.861658,23.2041257 C240.065469,24.5397352 240.238357,26.309561 242.247814,27.1571424 Z" id="Oval" fill="#00C682" fill-rule="nonzero"></path>
                            <polygon id="Fill-7787" fill="#E3E7F7" points="9.9475983e-14 146.600136 228 281 228 263.962739 1.00267017e-13 129.562874"></polygon>
                            <polyline id="Fill-7788" fill="#9BA2BF" points="228 281 456 146.600136 456 129.562874 228 263.962739"></polyline>
                            <polygon id="Fill-7786" fill="#FFC400" points="267.878049 38.4191426 311 63.1485569 250.121951 98.3565365 207 73.6271222"></polygon>
                            <polyline id="Fill-7787" fill="#FFE388" points="207 73.2079796 207 90.8513733 250.121951 115.960526 250.121951 98.3171326 207 73.2079796"></polyline>
                            <polygon id="Fill-7788" fill="#C89C0A" points="311 80.7919505 311 63.1485569 250.121951 98.3171326 250.121951 115.960526"></polygon>
                            <polyline id="Fill-7786" fill="#FFC400" points="85 113.70625 128 89 171 113.70625 128 138.4125 85 113.70625"></polyline>
                            <polyline id="Fill-7787" fill="#FFE388" points="85 113.2875 85 130.914367 128 156 128 138.373133 85 113.2875"></polyline>
                            <polyline id="Fill-7788" fill="#C89C0A" points="128 156 171 130.914367 171 113.2875 128 138.373133 128 156"></polyline>
                            <polyline id="Fill-7786" fill="#FFC400" points="235 155.70625 278 131 321 155.70625 278 180.4125 235 155.70625"></polyline>
                            <polyline id="Fill-7787" fill="#FFE388" points="235 155.2875 235 172.914367 278 198 278 180.373133 235 155.2875"></polyline>
                            <polyline id="Fill-7788" fill="#C89C0A" points="278 198 321 172.914367 321 155.2875 278 180.373133 278 198"></polyline>
                        </g>
                    </g>
                </g>
            </g>
        </g>
    </g>
</svg>