<?xml version="1.0" encoding="UTF-8"?>
<svg width="379px" height="261px" viewBox="0 0 379 261" version="1.1" xmlns="http://www.w3.org/2000/svg" xmlns:xlink="http://www.w3.org/1999/xlink">
    <!-- Generator: Sketch 53.2 (72643) - https://sketchapp.com -->
    <title>Group 22</title>
    <desc>Created with Sketch.</desc>
    <defs>
        <linearGradient x1="96.5817188%" y1="50%" x2="24.5304463%" y2="63.1478285%" id="linearGradient-1">
            <stop stop-color="#9BA2BF" offset="0%"></stop>
            <stop stop-color="#E3E7F7" offset="100%"></stop>
        </linearGradient>
        <circle id="path-2" cx="345" cy="177" r="2"></circle>
        <filter x="-150.0%" y="-150.0%" width="400.0%" height="400.0%" filterUnits="objectBoundingBox" id="filter-3">
            <feOffset dx="0" dy="0" in="SourceAlpha" result="shadowOffsetOuter1"></feOffset>
            <feGaussianBlur stdDeviation="2" in="shadowOffsetOuter1" result="shadowBlurOuter1"></feGaussianBlur>
            <feColorMatrix values="0 0 0 0 0.34334895   0 0 0 0 0.479898393   0 0 0 0 1  0 0 0 1 0" type="matrix" in="shadowBlurOuter1"></feColorMatrix>
        </filter>
        <circle id="path-4" cx="303" cy="131" r="2"></circle>
        <filter x="-150.0%" y="-150.0%" width="400.0%" height="400.0%" filterUnits="objectBoundingBox" id="filter-5">
            <feOffset dx="0" dy="0" in="SourceAlpha" result="shadowOffsetOuter1"></feOffset>
            <feGaussianBlur stdDeviation="2" in="shadowOffsetOuter1" result="shadowBlurOuter1"></feGaussianBlur>
            <feColorMatrix values="0 0 0 0 0.34334895   0 0 0 0 0.479898393   0 0 0 0 1  0 0 0 1 0" type="matrix" in="shadowBlurOuter1"></feColorMatrix>
        </filter>
        <circle id="path-6" cx="307" cy="207" r="2"></circle>
        <filter x="-150.0%" y="-150.0%" width="400.0%" height="400.0%" filterUnits="objectBoundingBox" id="filter-7">
            <feOffset dx="0" dy="0" in="SourceAlpha" result="shadowOffsetOuter1"></feOffset>
            <feGaussianBlur stdDeviation="2" in="shadowOffsetOuter1" result="shadowBlurOuter1"></feGaussianBlur>
            <feColorMatrix values="0 0 0 0 0.34334895   0 0 0 0 0.479898393   0 0 0 0 1  0 0 0 1 0" type="matrix" in="shadowBlurOuter1"></feColorMatrix>
        </filter>
        <circle id="path-8" cx="263" cy="160" r="2"></circle>
        <filter x="-150.0%" y="-150.0%" width="400.0%" height="400.0%" filterUnits="objectBoundingBox" id="filter-9">
            <feOffset dx="0" dy="0" in="SourceAlpha" result="shadowOffsetOuter1"></feOffset>
            <feGaussianBlur stdDeviation="2" in="shadowOffsetOuter1" result="shadowBlurOuter1"></feGaussianBlur>
            <feColorMatrix values="0 0 0 0 0.34334895   0 0 0 0 0.479898393   0 0 0 0 1  0 0 0 1 0" type="matrix" in="shadowBlurOuter1"></feColorMatrix>
        </filter>
        <circle id="path-10" cx="293" cy="178" r="2"></circle>
        <filter x="-150.0%" y="-150.0%" width="400.0%" height="400.0%" filterUnits="objectBoundingBox" id="filter-11">
            <feOffset dx="0" dy="0" in="SourceAlpha" result="shadowOffsetOuter1"></feOffset>
            <feGaussianBlur stdDeviation="2" in="shadowOffsetOuter1" result="shadowBlurOuter1"></feGaussianBlur>
            <feColorMatrix values="0 0 0 0 0.34334895   0 0 0 0 0.479898393   0 0 0 0 1  0 0 0 1 0" type="matrix" in="shadowBlurOuter1"></feColorMatrix>
        </filter>
        <circle id="path-12" cx="251" cy="235" r="2"></circle>
        <filter x="-150.0%" y="-150.0%" width="400.0%" height="400.0%" filterUnits="objectBoundingBox" id="filter-13">
            <feOffset dx="0" dy="0" in="SourceAlpha" result="shadowOffsetOuter1"></feOffset>
            <feGaussianBlur stdDeviation="2" in="shadowOffsetOuter1" result="shadowBlurOuter1"></feGaussianBlur>
            <feColorMatrix values="0 0 0 0 0.34334895   0 0 0 0 0.479898393   0 0 0 0 1  0 0 0 1 0" type="matrix" in="shadowBlurOuter1"></feColorMatrix>
        </filter>
        <circle id="path-14" cx="216" cy="183" r="2"></circle>
        <filter x="-150.0%" y="-150.0%" width="400.0%" height="400.0%" filterUnits="objectBoundingBox" id="filter-15">
            <feOffset dx="0" dy="0" in="SourceAlpha" result="shadowOffsetOuter1"></feOffset>
            <feGaussianBlur stdDeviation="2" in="shadowOffsetOuter1" result="shadowBlurOuter1"></feGaussianBlur>
            <feColorMatrix values="0 0 0 0 0.34334895   0 0 0 0 0.479898393   0 0 0 0 1  0 0 0 1 0" type="matrix" in="shadowBlurOuter1"></feColorMatrix>
        </filter>
        <circle id="path-16" cx="240" cy="203" r="2"></circle>
        <filter x="-150.0%" y="-150.0%" width="400.0%" height="400.0%" filterUnits="objectBoundingBox" id="filter-17">
            <feOffset dx="0" dy="0" in="SourceAlpha" result="shadowOffsetOuter1"></feOffset>
            <feGaussianBlur stdDeviation="2" in="shadowOffsetOuter1" result="shadowBlurOuter1"></feGaussianBlur>
            <feColorMatrix values="0 0 0 0 0.34334895   0 0 0 0 0.479898393   0 0 0 0 1  0 0 0 1 0" type="matrix" in="shadowBlurOuter1"></feColorMatrix>
        </filter>
        <circle id="path-18" cx="362.5" cy="126.5" r="1.5"></circle>
        <filter x="-200.0%" y="-200.0%" width="500.0%" height="500.0%" filterUnits="objectBoundingBox" id="filter-19">
            <feOffset dx="0" dy="0" in="SourceAlpha" result="shadowOffsetOuter1"></feOffset>
            <feGaussianBlur stdDeviation="2" in="shadowOffsetOuter1" result="shadowBlurOuter1"></feGaussianBlur>
            <feColorMatrix values="0 0 0 0 0.34334895   0 0 0 0 0.479898393   0 0 0 0 1  0 0 0 1 0" type="matrix" in="shadowBlurOuter1"></feColorMatrix>
        </filter>
        <circle id="path-20" cx="317.5" cy="101.5" r="1.5"></circle>
        <filter x="-200.0%" y="-200.0%" width="500.0%" height="500.0%" filterUnits="objectBoundingBox" id="filter-21">
            <feOffset dx="0" dy="0" in="SourceAlpha" result="shadowOffsetOuter1"></feOffset>
            <feGaussianBlur stdDeviation="2" in="shadowOffsetOuter1" result="shadowBlurOuter1"></feGaussianBlur>
            <feColorMatrix values="0 0 0 0 0.34334895   0 0 0 0 0.479898393   0 0 0 0 1  0 0 0 1 0" type="matrix" in="shadowBlurOuter1"></feColorMatrix>
        </filter>
        <circle id="path-22" cx="349.5" cy="109.5" r="1.5"></circle>
        <filter x="-200.0%" y="-200.0%" width="500.0%" height="500.0%" filterUnits="objectBoundingBox" id="filter-23">
            <feOffset dx="0" dy="0" in="SourceAlpha" result="shadowOffsetOuter1"></feOffset>
            <feGaussianBlur stdDeviation="2" in="shadowOffsetOuter1" result="shadowBlurOuter1"></feGaussianBlur>
            <feColorMatrix values="0 0 0 0 0.34334895   0 0 0 0 0.479898393   0 0 0 0 1  0 0 0 1 0" type="matrix" in="shadowBlurOuter1"></feColorMatrix>
        </filter>
    </defs>
    <g id="Hub" stroke="none" stroke-width="1" fill="none" fill-rule="evenodd">
        <g id="hub-howItWorks" transform="translate(-268.000000, -1298.000000)">
            <g id="Group-2" transform="translate(239.000000, 1287.000000)">
                <g id="Group-4">
                    <g id="Group-13">
                        <g id="Group" transform="translate(29.000000, 11.000000)">
                            <g id="Group-22">
                                <path d="M32.4182428,162.194824 C82.7663795,192.730353 175.777039,190.981865 240.163366,158.289467 C263.734138,146.321319 280.201181,131.865282 289.136571,116.848726 C292.375693,111.405151 295.353027,104.25009 296.5,94 C297.459605,85.4243542 296.889213,73.6090683 296.5,69.0875 C295.132207,53.1975547 285.226658,55.7195688 265.581757,43.8051764 C215.233621,13.2696471 122.222961,15.0181349 57.8366341,47.7105332 C24.577362,64.5980532 4.77860445,70.6203466 1.00903097,92 C0.495723469,94.911294 0.950194711,113.632723 1.00903097,116.513236 C1.35457032,133.430196 11.6193442,149.580546 32.4182428,162.194824 Z" id="Oval" fill="url(#linearGradient-1)" fill-rule="nonzero"></path>
                                <path d="M32.4182428,144.194824 C82.7663795,174.730353 175.777039,172.981865 240.163366,140.289467 C304.549692,107.597068 315.929894,56.3407057 265.581757,25.8051764 C215.233621,-4.7303529 122.222961,-2.9818651 57.8366341,29.7105332 C-6.54969248,62.4029316 -17.9298939,113.659294 32.4182428,144.194824 Z" id="Oval" fill="#B3BEEA" fill-rule="nonzero"></path>
                                <path d="M277,123 L345.014458,144.413793 L345.014458,182" id="Line-16" stroke="#898B92" stroke-linecap="square" stroke-dasharray="2" fill-rule="nonzero"></path>
                                <g id="Oval" fill-rule="nonzero">
                                    <use fill="black" fill-opacity="1" filter="url(#filter-3)" xlink:href="#path-2"></use>
                                    <use fill="#5D7DFF" xlink:href="#path-2"></use>
                                </g>
                                <g id="Oval" fill-rule="nonzero">
                                    <use fill="black" fill-opacity="1" filter="url(#filter-5)" xlink:href="#path-4"></use>
                                    <use fill="#5D7DFF" xlink:href="#path-4"></use>
                                </g>
                                <path d="M241.533545,149 L307,185.413793 L307,223" id="Line-16" stroke="#898B92" stroke-linecap="square" stroke-dasharray="2" fill-rule="nonzero"></path>
                                <g id="Oval" fill-rule="nonzero">
                                    <use fill="black" fill-opacity="1" filter="url(#filter-7)" xlink:href="#path-6"></use>
                                    <use fill="#5D7DFF" xlink:href="#path-6"></use>
                                </g>
                                <g id="Oval" fill-rule="nonzero">
                                    <use fill="black" fill-opacity="1" filter="url(#filter-9)" xlink:href="#path-8"></use>
                                    <use fill="#5D7DFF" xlink:href="#path-8"></use>
                                </g>
                                <g id="Oval" fill-rule="nonzero">
                                    <use fill="black" fill-opacity="1" filter="url(#filter-11)" xlink:href="#path-10"></use>
                                    <use fill="#5D7DFF" xlink:href="#path-10"></use>
                                </g>
                                <path d="M195.686119,166 L251,212.413793 L251,250" id="Line-16" stroke="#898B92" stroke-linecap="square" stroke-dasharray="2" fill-rule="nonzero"></path>
                                <g id="Oval" fill-rule="nonzero">
                                    <use fill="black" fill-opacity="1" filter="url(#filter-13)" xlink:href="#path-12"></use>
                                    <use fill="#5D7DFF" xlink:href="#path-12"></use>
                                </g>
                                <g id="Oval" fill-rule="nonzero">
                                    <use fill="black" fill-opacity="1" filter="url(#filter-15)" xlink:href="#path-14"></use>
                                    <use fill="#5D7DFF" xlink:href="#path-14"></use>
                                </g>
                                <g id="Oval" fill-rule="nonzero">
                                    <use fill="black" fill-opacity="1" filter="url(#filter-17)" xlink:href="#path-16"></use>
                                    <use fill="#5D7DFF" xlink:href="#path-16"></use>
                                </g>
                                <path d="M264.514589,242.27144 L264.514589,242.27144 C268.530495,244.670597 269.841128,249.871033 267.441971,253.886938 C266.723336,255.089848 265.717499,256.095684 264.514589,256.814319 L264.514589,256.814319 C257.018173,261.292782 247.667946,261.292782 240.17153,256.814319 L240.17153,256.814319 C236.155624,254.415162 234.844991,249.214726 237.244148,245.198821 C237.962783,243.995911 238.96862,242.990075 240.17153,242.27144 L240.17153,242.27144 C247.667946,237.792977 257.018173,237.792977 264.514589,242.27144 Z" id="Fill-7786" fill="#CCD6FF" opacity="0.277925037"></path>
                                <path d="M294,95 L362,112.139224 L362,144.0875" id="Line-16" stroke="#898B92" stroke-linecap="square" stroke-dasharray="2" fill-rule="nonzero"></path>
                                <g id="Oval" fill-rule="nonzero">
                                    <use fill="black" fill-opacity="1" filter="url(#filter-19)" xlink:href="#path-18"></use>
                                    <use fill="#5D7DFF" xlink:href="#path-18"></use>
                                </g>
                                <g id="Oval" fill-rule="nonzero">
                                    <use fill="black" fill-opacity="1" filter="url(#filter-21)" xlink:href="#path-20"></use>
                                    <use fill="#5D7DFF" xlink:href="#path-20"></use>
                                </g>
                                <g id="Oval" fill-rule="nonzero">
                                    <use fill="black" fill-opacity="1" filter="url(#filter-23)" xlink:href="#path-22"></use>
                                    <use fill="#5D7DFF" xlink:href="#path-22"></use>
                                </g>
                                <path d="M374.5,140.25 L374.5,140.25 C377.95178,142.304631 379.084393,146.768458 377.029762,150.220238 C376.410283,151.260963 375.540725,152.130521 374.5,152.75 L374.5,152.75 C368.029744,156.601343 359.970256,156.601343 353.5,152.75 L353.5,152.75 C350.04822,150.695369 348.915607,146.231542 350.970238,142.779762 C351.589717,141.739037 352.459275,140.869479 353.5,140.25 L353.5,140.25 C359.970256,136.398657 368.029744,136.398657 374.5,140.25 Z" id="Fill-7786" fill="#CCD6FF" opacity="0.277925037"></path>
                                <path d="M358.514589,175.27144 L358.514589,175.27144 C362.530495,177.670597 363.841128,182.871033 361.441971,186.886938 C360.723336,188.089848 359.717499,189.095684 358.514589,189.814319 L358.514589,189.814319 C351.018173,194.292782 341.667946,194.292782 334.17153,189.814319 L334.17153,189.814319 C330.155624,187.415162 328.844991,182.214726 331.244148,178.198821 C331.962783,176.995911 332.96862,175.990075 334.17153,175.27144 L334.17153,175.27144 C341.667946,170.792977 351.018173,170.792977 358.514589,175.27144 Z" id="Fill-7786" fill="#CCD6FF" opacity="0.277925037"></path>
                                <path d="M319.514589,213.27144 L319.514589,213.27144 C323.530495,215.670597 324.841128,220.871033 322.441971,224.886938 C321.723336,226.089848 320.717499,227.095684 319.514589,227.814319 L319.514589,227.814319 C312.018173,232.292782 302.667946,232.292782 295.17153,227.814319 L295.17153,227.814319 C291.155624,225.415162 289.844991,220.214726 292.244148,216.198821 C292.962783,214.995911 293.96862,213.990075 295.17153,213.27144 L295.17153,213.27144 C302.667946,208.792977 312.018173,208.792977 319.514589,213.27144 Z" id="Fill-7786" fill="#CCD6FF" opacity="0.277925037"></path>
                                <polyline id="Fill-7786" fill="#384889" points="70 25.54375 104 6 138 25.54375 104 45.0875 70 25.54375"></polyline>
                                <polyline id="Fill-7787" fill="#6373B3" points="70 25.2125 70 39.156141 104 59 104 45.056359 70 25.2125"></polyline>
                                <polyline id="Fill-7788" fill="#030D36" points="104 59 138 39.156141 138 25.2125 104 45.056359 104 59"></polyline>
                                <polygon id="Fill-7786" fill="#384889" points="65 29 99 48.54375 65 68.0875 31 48.54375"></polygon>
                                <polyline id="Fill-7787" fill="#6373B3" points="31 48.2125 31 62.156141 65 82 65 68.056359 31 48.2125"></polyline>
                                <polyline id="Fill-7788" fill="#030D36" points="65 82 99 62.156141 99 48.2125 65 68.056359 65 82"></polyline>
                                <polygon id="Fill-7786" fill="#384889" points="198 0.327956989 232 19.6774194 184 47.2258065 150 27.8763441"></polygon>
                                <polyline id="Fill-7787" fill="#6373B3" points="150 27.5483871 150 41.3534121 184 61 184 47.194975 150 27.5483871"></polyline>
                                <polygon id="Fill-7788" fill="#030D36" points="232 33.4824443 232 19.6774194 184 47.194975 184 61"></polygon>
                                <polyline id="Fill-7786" fill="#384889" points="112 49.54375 146 30 180 49.54375 146 69.0875 112 49.54375"></polyline>
                                <polyline id="Fill-7787" fill="#6373B3" points="112 49.2125 112 63.156141 146 83 146 69.056359 112 49.2125"></polyline>
                                <polyline id="Fill-7788" fill="#030D36" points="146 83 180 63.156141 180 49.2125 146 69.056359 146 83"></polyline>
                                <polyline id="Fill-7786" fill="#FFC400" points="199.335227 46.873494 223.806818 33 258 52.4889558 233.528409 66.3624498"></polyline>
                                <polygon id="Fill-7787" fill="#FFE388" points="199.670455 60.7780417 233.528409 79.9056225 233.528409 66.0321285 199.670455 46.873494"></polygon>
                                <polyline id="Fill-7788" fill="#C89C0A" points="258 66.0631822 258 52.1586345 233.528409 66.0631822 233.528409 79.9677299"></polyline>
                                <polygon id="Fill-7786" fill="#384889" points="107 53 141 72.54375 107 92.0875 73 72.54375"></polygon>
                                <polyline id="Fill-7787" fill="#6373B3" points="73 72.2125 73 86.156141 107 106 107 92.056359 73 72.2125"></polyline>
                                <polyline id="Fill-7788" fill="#030D36" points="107 106 141 86.156141 141 72.2125 107 92.056359 107 106"></polyline>
                                <polygon id="Fill-7786" fill="#FFC400" points="193.924812 49.3265306 227.669173 68.5918367 173.744361 99.2857143 140 80.0204082"></polygon>
                                <polyline id="Fill-7787" fill="#FFE388" points="140 79.6938776 140 93.4388606 173.744361 113 173.744361 99.2550169 140 79.6938776"></polyline>
                                <polygon id="Fill-7788" fill="#C89C0A" points="227.669173 82.3061224 227.669173 68.5611394 173.744361 99.2550169 173.744361 113"></polygon>
                                <polyline id="Fill-7786" fill="#FFC400" points="157 124.54375 191 105 225 124.54375 191 144.0875 157 124.54375"></polyline>
                                <polyline id="Fill-7787" fill="#FFE388" points="157 124.2125 157 138.156141 191 158 191 144.056359 157 124.2125"></polyline>
                                <polyline id="Fill-7788" fill="#C89C0A" points="191 158 225 138.156141 225 124.2125 191 144.056359 191 158"></polyline>
                            </g>
                        </g>
                    </g>
                </g>
            </g>
        </g>
    </g>
</svg>