<?xml version="1.0" encoding="UTF-8"?>
<svg width="391px" height="304px" viewBox="0 0 391 304" version="1.1" xmlns="http://www.w3.org/2000/svg" xmlns:xlink="http://www.w3.org/1999/xlink">
    <!-- Generator: Sketch 53.2 (72643) - https://sketchapp.com -->
    <title>Group 17</title>
    <desc>Created with Sketch.</desc>
    <g id="Hub" stroke="none" stroke-width="1" fill="none" fill-rule="evenodd">
        <g id="hub-howItWorks" transform="translate(-233.000000, -471.000000)">
            <g id="Group-5" transform="translate(184.000000, 471.000000)">
                <g id="Group-11" transform="translate(49.000000, 0.000000)">
                    <g id="Group-17">
                        <g id="Group" transform="translate(137.000000, 0.000000)">
                            <polygon id="Fill-7786" fill="#CCD6FF" points="84.2926829 0.586021505 144 35.1612903 59.7073171 84.3870968 0 49.811828"></polygon>
                            <polyline id="Fill-7787" fill="#E3E8FF" points="0 49.2258065 0 73.8938019 59.7073171 109 59.7073171 84.3320045 0 49.2258065"></polyline>
                            <polygon id="Fill-7788" fill="#909ED9" points="144 59.8292858 144 35.1612903 59.7073171 84.3320045 59.7073171 109"></polygon>
                        </g>
                        <g id="Group" transform="translate(69.000000, 54.000000)">
                            <polyline id="Fill-7786" fill="#CCD6FF" points="0 34.6625 59.5 0 119 34.6625 59.5 69.325 0 34.6625"></polyline>
                            <polyline id="Fill-7787" fill="#E3E8FF" points="0 34.075 0 58.8052312 59.5 94 59.5 69.2697688 0 34.075"></polyline>
                            <polyline id="Fill-7788" fill="#909ED9" points="59.5 94 119 58.8052312 119 34.075 59.5 69.2697688 59.5 94"></polyline>
                        </g>
                        <g id="Group" transform="translate(222.000000, 59.000000)">
                            <polyline id="Fill-7786" fill="#CCD6FF" points="0.585227273 24.5 43.3068182 0 103 34.4166667 60.2784091 58.9166667"></polyline>
                            <polygon id="Fill-7787" fill="#E3E8FF" points="1.17045455 49.0548395 60.2784091 82.8333333 60.2784091 58.3333333 1.17045455 24.5"></polygon>
                            <polyline id="Fill-7788" fill="#909ED9" points="103 58.3881729 103 33.8333333 60.2784091 58.3881729 60.2784091 82.9430124"></polyline>
                        </g>
                        <g id="Group" transform="translate(0.000000, 94.000000)">
                            <polyline id="Fill-7786" fill="#CCD6FF" points="0 34.6625 59.5 0 119 34.6625 59.5 69.325 0 34.6625"></polyline>
                            <polyline id="Fill-7787" fill="#E3E8FF" points="0 34.075 0 58.8052312 59.5 94 59.5 69.2697688 0 34.075"></polyline>
                            <polyline id="Fill-7788" fill="#909ED9" points="59.5 94 119 58.8052312 119 34.075 59.5 69.2697688 59.5 94"></polyline>
                        </g>
                        <g id="Group" transform="translate(117.000000, 87.000000)">
                            <polygon id="Fill-7786" fill="#CCD6FF" points="94.981203 0.586734694 154.417293 35.2040816 59.4360902 90.3571429 0 55.7397959"></polygon>
                            <polyline id="Fill-7787" fill="#E3E8FF" points="0 55.1530612 0 79.8510777 59.4360902 115 59.4360902 90.3019836 0 55.1530612"></polyline>
                            <polygon id="Fill-7788" fill="#909ED9" points="154.417293 59.8469388 154.417293 35.1489223 59.4360902 90.3019836 59.4360902 115"></polygon>
                        </g>
                        <path d="M218.514589,285.27144 L218.514589,285.27144 C222.530495,287.670597 223.841128,292.871033 221.441971,296.886938 C220.723336,298.089848 219.717499,299.095684 218.514589,299.814319 L218.514589,299.814319 C211.018173,304.292782 201.667946,304.292782 194.17153,299.814319 L194.17153,299.814319 C190.155624,297.415162 188.844991,292.214726 191.244148,288.198821 C191.962783,286.995911 192.96862,285.990075 194.17153,285.27144 L194.17153,285.27144 C201.667946,280.792977 211.018173,280.792977 218.514589,285.27144 Z" id="Fill-7786" fill="#CCD6FF" opacity="0.277925037"></path>
                        <path d="M378.514589,86.2714398 L378.514589,86.2714398 C382.530495,88.670597 383.841128,93.8710326 381.441971,97.8869379 C380.723336,99.0898479 379.717499,100.095684 378.514589,100.814319 L378.514589,100.814319 C371.018173,105.292782 361.667946,105.292782 354.17153,100.814319 L354.17153,100.814319 C350.155624,98.4151621 348.844991,93.2147264 351.244148,89.1988211 C351.962783,87.9959111 352.96862,86.9900748 354.17153,86.2714398 L354.17153,86.2714398 C361.667946,81.7929772 371.018173,81.7929772 378.514589,86.2714398 Z" id="Fill-7786" fill="#CCD6FF" opacity="0.277925037"></path>
                        <path d="M386.514589,189.27144 L386.514589,189.27144 C390.530495,191.670597 391.841128,196.871033 389.441971,200.886938 C388.723336,202.089848 387.717499,203.095684 386.514589,203.814319 L386.514589,203.814319 C379.018173,208.292782 369.667946,208.292782 362.17153,203.814319 L362.17153,203.814319 C358.155624,201.415162 356.844991,196.214726 359.244148,192.198821 C359.962783,190.995911 360.96862,189.990075 362.17153,189.27144 L362.17153,189.27144 C369.667946,184.792977 379.018173,184.792977 386.514589,189.27144 Z" id="Fill-7786" fill="#CCD6FF" opacity="0.277925037"></path>
                        <g id="Group" transform="translate(47.000000, 148.000000)">
                            <polyline id="Fill-7786" fill="#CCD6FF" points="0 34.6625 59.5 0 119 34.6625 59.5 69.325 0 34.6625"></polyline>
                            <polyline id="Fill-7787" fill="#E3E8FF" points="0 34.075 0 58.8052312 59.5 94 59.5 69.2697688 0 34.075"></polyline>
                            <polyline id="Fill-7788" fill="#909ED9" points="59.5 94 119 58.8052312 119 34.075 59.5 69.2697688 59.5 94"></polyline>
                        </g>
                        <g id="Group" transform="translate(219.000000, 130.000000)">
                            <polyline id="Fill-7786" fill="#CCD6FF" points="0 34.6625 59.5 0 119 34.6625 59.5 69.325 0 34.6625"></polyline>
                            <polyline id="Fill-7787" fill="#E3E8FF" points="0 34.075 0 58.8052312 59.5 94 59.5 69.2697688 0 34.075"></polyline>
                            <polyline id="Fill-7788" fill="#909ED9" points="59.5 94 119 58.8052312 119 34.075 59.5 69.2697688 59.5 94"></polyline>
                        </g>
                        <path d="M308,59.0061439 L367,96 L367,47" id="Line-16" stroke="#898B92" stroke-linecap="square" stroke-dasharray="2" fill-rule="nonzero" transform="translate(337.500000, 71.500000) scale(1, -1) translate(-337.500000, -71.500000) "></path>
                        <circle id="Oval" fill="#6F84D9" fill-rule="nonzero" transform="translate(337.500000, 65.500000) scale(1, -1) translate(-337.500000, -65.500000) " cx="337.5" cy="65.5" r="3.5"></circle>
                        <circle id="Oval" fill="#6F84D9" fill-rule="nonzero" transform="translate(367.500000, 67.500000) scale(1, -1) translate(-367.500000, -67.500000) " cx="367.5" cy="67.5" r="3.5"></circle>
                        <path d="M135,211 L207,252 L207,291" id="Line-16" stroke="#898B92" stroke-linecap="square" stroke-dasharray="2" fill-rule="nonzero"></path>
                        <circle id="Oval" fill="#6F84D9" fill-rule="nonzero" cx="207.5" cy="268.5" r="3.5"></circle>
                        <circle id="Oval" fill="#6F84D9" fill-rule="nonzero" cx="183.5" cy="239.5" r="3.5"></circle>
                        <circle id="Oval" fill="#6F84D9" fill-rule="nonzero" cx="152.5" cy="221.5" r="3.5"></circle>
                        <path d="M303,117 L375,158 L375,197" id="Line-16" stroke="#898B92" stroke-linecap="square" stroke-dasharray="2" fill-rule="nonzero"></path>
                        <circle id="Oval" fill="#6F84D9" fill-rule="nonzero" cx="375.5" cy="174.5" r="3.5"></circle>
                        <circle id="Oval" fill="#6F84D9" fill-rule="nonzero" cx="351.5" cy="145.5" r="3.5"></circle>
                        <circle id="Oval" fill="#6F84D9" fill-rule="nonzero" cx="320.5" cy="127.5" r="3.5"></circle>
                    </g>
                </g>
            </g>
        </g>
    </g>
</svg>