<?xml version="1.0" encoding="UTF-8"?>
<svg width="456px" height="303px" viewBox="0 0 456 303" version="1.1" xmlns="http://www.w3.org/2000/svg" xmlns:xlink="http://www.w3.org/1999/xlink">
    <!-- Generator: Sketch 53.2 (72643) - https://sketchapp.com -->
    <title>Group 19</title>
    <desc>Created with Sketch.</desc>
    <g id="Hub" stroke="none" stroke-width="1" fill="none" fill-rule="evenodd">
        <g id="hub-howItWorks" transform="translate(-215.000000, -2629.000000)">
            <g id="Group-3" transform="translate(215.000000, 1709.000000)">
                <g id="Group-16" transform="translate(0.000000, 920.000000)">
                    <g id="Group-19">
                        <g id="Group" transform="translate(50.000000, 185.000000)">
                            <polyline id="Fill-7786" fill="#384889" points="0.420217803 17.5 31.0961174 0 73.9583333 24.5833333 43.2824337 42.0833333"></polyline>
                            <polygon id="Fill-7787" fill="#6373B3" points="0.840435606 35.0391711 43.2824337 59.1666667 43.2824337 41.6666667 0.840435606 17.5"></polygon>
                            <polyline id="Fill-7788" fill="#030D36" points="73.9583333 41.7058378 73.9583333 24.1666667 43.2824337 41.7058378 43.2824337 59.2450088"></polyline>
                        </g>
                        <g id="Group" transform="translate(299.000000, 164.000000)">
                            <polyline id="Fill-7786" fill="#384889" points="0 24.70625 43 0 86 24.70625 43 49.4125 0 24.70625"></polyline>
                            <polyline id="Fill-7787" fill="#6373B3" points="0 24.2875 0 41.9143669 43 67 43 49.3731331 0 24.2875"></polyline>
                            <polyline id="Fill-7788" fill="#030D36" points="43 67 86 41.9143669 86 24.2875 43 49.3731331 43 67"></polyline>
                        </g>
                        <g id="Group" transform="translate(203.000000, 220.000000)">
                            <polyline id="Fill-7786" fill="#384889" points="0 24.70625 43 0 86 24.70625 43 49.4125 0 24.70625"></polyline>
                            <polygon id="Fill-7787" fill="#6373B3" points="0 24.4143669 5.42736303e-28 57.9143669 43 83 43 49.5"></polygon>
                            <polygon id="Fill-7788" fill="#030D36" points="86 57.9143669 86 24 43 49.0856331 43 83"></polygon>
                        </g>
                        <path d="M153,41 L153,200.184528" id="Line-2" stroke="#FFC400" stroke-width="2" stroke-linecap="square" fill-rule="nonzero"></path>
                        <g id="Group">
                            <polygon id="Fill-7786" fill="#B3BEEA" points="228 0 456 129.562874 228 264.173653 0 132.086826"></polygon>
                            <polygon id="Rectangle" fill="#FFFFFF" fill-rule="nonzero" points="263.335793 28.6047904 444.642066 130.404192 432.02214 137.134731 249.874539 36.1766467"></polygon>
                            <path d="M221.214604,14.537382 C223.224061,15.3849634 226.309147,14.9893384 228.105336,13.653729 C229.901525,12.3181195 229.728637,10.5482936 227.71918,9.7007122 C225.709723,8.8531308 222.624637,9.24875573 220.828448,10.5843652 C219.032259,11.9199747 219.205147,13.6898006 221.214604,14.537382 Z" id="Oval" fill="#DC4C4C" fill-rule="nonzero"></path>
                            <path d="M231.310545,20.4266035 C233.320002,21.2741849 236.405088,20.87856 238.201277,19.5429505 C239.997466,18.207341 239.824578,16.4375152 237.815121,15.5899338 C235.805664,14.7423524 232.720578,15.1379773 230.924389,16.4735868 C229.128199,17.8091962 229.301087,19.5790221 231.310545,20.4266035 Z" id="Oval" fill="#FFC400" fill-rule="nonzero"></path>
                            <path d="M242.247814,27.1571424 C244.257271,28.0047238 247.342357,27.6090989 249.138546,26.2734894 C250.934736,24.93788 250.761848,23.1680541 248.75239,22.3204727 C246.742933,21.4728913 243.657847,21.8685162 241.861658,23.2041257 C240.065469,24.5397352 240.238357,26.309561 242.247814,27.1571424 Z" id="Oval" fill="#00C682" fill-rule="nonzero"></path>
                            <polygon id="Fill-7787" fill="#E3E7F7" points="0 146.600136 228 281 228 263.962739 7.91033905e-16 129.562874"></polygon>
                            <polyline id="Fill-7788" fill="#9BA2BF" points="228 281 456 146.600136 456 129.562874 228 263.962739"></polyline>
                        </g>
                        <g id="Group" transform="translate(135.000000, 110.000000)">
                            <polygon id="Fill-7786" fill="#FFC400" points="60.8780488 0.419142615 104 25.1485569 43.1219512 60.3565365 0 35.6271222"></polygon>
                            <polyline id="Fill-7787" fill="#FFE388" points="0 35.2079796 0 52.8513733 43.1219512 77.9605263 43.1219512 60.3171326 0 35.2079796"></polyline>
                            <polygon id="Fill-7788" fill="#C89C0A" points="104 42.7919505 104 25.1485569 43.1219512 60.3171326 43.1219512 77.9605263"></polygon>
                        </g>
                        <g id="Group" transform="translate(149.000000, 17.000000)">
                            <polyline id="Fill-7786" fill="#FFC400" points="0 24.70625 43 0 86 24.70625 43 49.4125 0 24.70625"></polyline>
                            <polyline id="Fill-7787" fill="#FFE388" points="0 24.2875 0 41.9143669 43 67 43 49.3731331 0 24.2875"></polyline>
                            <polyline id="Fill-7788" fill="#C89C0A" points="43 67 86 41.9143669 86 24.2875 43 49.3731331 43 67"></polyline>
                        </g>
                        <g id="Group" transform="translate(187.000000, 179.000000)">
                            <polyline id="Fill-7786" fill="#FFC400" points="0 24.70625 43 0 86 24.70625 43 49.4125 0 24.70625"></polyline>
                            <polyline id="Fill-7787" fill="#FFE388" points="0 24.2875 0 41.9143669 43 67 43 49.3731331 0 24.2875"></polyline>
                            <polyline id="Fill-7788" fill="#C89C0A" points="43 67 86 41.9143669 86 24.2875 43 49.3731331 43 67"></polyline>
                        </g>
                    </g>
                </g>
            </g>
        </g>
    </g>
</svg>