<?xml version="1.0" encoding="UTF-8"?>
<svg width="338px" height="242px" viewBox="0 0 338 242" version="1.1" xmlns="http://www.w3.org/2000/svg" xmlns:xlink="http://www.w3.org/1999/xlink">
    <!-- Generator: Sketch 53.2 (72643) - https://sketchapp.com -->
    <title>Group 21</title>
    <desc>Created with Sketch.</desc>
    <g id="Hub" stroke="none" stroke-width="1" fill="none" fill-rule="evenodd">
        <g id="hub-howItWorks" transform="translate(-233.000000, -871.000000)">
            <g id="Group-5" transform="translate(184.000000, 471.000000)">
                <g id="Group-12" transform="translate(49.000000, 400.000000)">
                    <g id="Group-21">
                        <path d="M85.5145892,208.27144 L85.5145892,208.27144 C89.5304945,210.670597 90.8411278,215.871033 88.4419706,219.886938 C87.7233355,221.089848 86.7174993,222.095684 85.5145892,222.814319 L85.5145892,222.814319 C78.0181728,227.292782 68.6679462,227.292782 61.1715297,222.814319 L61.1715297,222.814319 C57.1556245,220.415162 55.8449912,215.214726 58.2441484,211.198821 C58.9627834,209.995911 59.9686197,208.990075 61.1715297,208.27144 L61.1715297,208.27144 C68.6679462,203.792977 78.0181728,203.792977 85.5145892,208.27144 Z" id="Fill-7786" fill="#CCD6FF" opacity="0.277925037"></path>
                        <g id="Group" transform="translate(137.000000, 0.000000)"></g>
                        <polygon id="Fill-7786" fill="#384889" points="221.292683 0.586021505 281 35.1612903 196.707317 84.3870968 137 49.811828"></polygon>
                        <polyline id="Fill-7787" fill="#6373B3" points="137 49.2258065 137 73.8938019 196.707317 109 196.707317 84.3320045 137 49.2258065"></polyline>
                        <polygon id="Fill-7788" fill="#030D36" points="281 59.8292858 281 35.1612903 196.707317 84.3320045 196.707317 109"></polygon>
                        <polyline id="Fill-7786" fill="#FFC400" points="222.585227 83.5 265.306818 59 325 93.4166667 282.278409 117.916667"></polyline>
                        <polygon id="Fill-7787" fill="#FFE388" points="223.170455 108.05484 282.278409 141.833333 282.278409 117.333333 223.170455 83.5"></polygon>
                        <polyline id="Fill-7788" fill="#C89C0A" points="325 117.388173 325 92.8333333 282.278409 117.388173 282.278409 141.943012"></polyline>
                        <polygon id="Fill-7786" fill="#384889" points="59.5 94 119 128.6625 59.5 163.325 0 128.6625"></polygon>
                        <polyline id="Fill-7787" fill="#6373B3" points="-3.55271368e-15 128.075 -3.55271368e-15 152.805231 59.5 188 59.5 163.269769 -3.55271368e-15 128.075"></polyline>
                        <polyline id="Fill-7788" fill="#030D36" points="59.5 188 119 152.805231 119 128.075 59.5 163.269769 59.5 188"></polyline>
                        <polygon id="Fill-7786" fill="#FFC400" points="211.981203 87.5867347 271.417293 122.204082 176.43609 177.357143 117 142.739796"></polygon>
                        <polyline id="Fill-7787" fill="#FFE388" points="117 142.153061 117 166.851078 176.43609 202 176.43609 177.301984 117 142.153061"></polyline>
                        <polygon id="Fill-7788" fill="#C89C0A" points="271.417293 146.846939 271.417293 122.148922 176.43609 177.301984 176.43609 202"></polygon>
                        <polyline id="Fill-7786" fill="#FFC400" points="47 182.6625 106.5 148 166 182.6625 106.5 217.325 47 182.6625"></polyline>
                        <polyline id="Fill-7787" fill="#FFE388" points="47 182.075 47 206.805231 106.5 242 106.5 217.269769 47 182.075"></polyline>
                        <polyline id="Fill-7788" fill="#C89C0A" points="106.5 242 166 206.805231 166 182.075 106.5 217.269769 106.5 242"></polyline>
                        <polyline id="Fill-7786" fill="#FFC400" points="219 164.6625 278.5 130 338 164.6625 278.5 199.325 219 164.6625"></polyline>
                        <polyline id="Fill-7787" fill="#FFE388" points="219 164.075 219 188.805231 278.5 224 278.5 199.269769 219 164.075"></polyline>
                        <polyline id="Fill-7788" fill="#C89C0A" points="278.5 224 338 188.805231 338 164.075 278.5 199.269769 278.5 224"></polyline>
                    </g>
                </g>
            </g>
        </g>
    </g>
</svg>