<?xml version="1.0" encoding="UTF-8"?>
<svg width="1440px" height="427px" viewBox="0 0 1440 427" version="1.1" xmlns="http://www.w3.org/2000/svg" xmlns:xlink="http://www.w3.org/1999/xlink">
    <!-- Generator: Sketch 53.2 (72643) - https://sketchapp.com -->
    <title>Path 3</title>
    <desc>Created with Sketch.</desc>
    <g id="Hub" stroke="none" stroke-width="1" fill="none" fill-rule="evenodd">
        <g id="home" transform="translate(-0.000000, -2985.000000)" fill="#F2F5FF" fill-rule="nonzero">
            <path d="M-22.0463754,3110.92604 C-12.7042288,3095.63497 -70.2650733,3060.83176 229.458992,3036.85785 C308.23044,3030.55719 427.39212,3045.14234 494.938604,3024.815 C594.361575,2994.8948 636.524745,2982.68006 719.915995,2985.3595 C795.440449,2987.78617 866.85026,3035.70822 936.387949,3034.26412 C1105.40259,3030.75416 1378.74213,3054.75032 1439.84365,3047.08081 C1480.57799,3041.96781 1491.07484,3142.02111 1471.33419,3347.24072 C1034.38745,3385.4082 783.914713,3406.78764 719.915995,3411.37904 C623.917916,3418.26614 99.6005796,3365.55911 31.478888,3367.12598 C-253.016334,3373.66966 -41.9119793,3143.44175 -22.0463754,3110.92604 Z" id="Path-3"></path>
        </g>
    </g>
</svg>