<?xml version="1.0" encoding="UTF-8"?>
<svg width="568px" height="419px" viewBox="0 0 568 419" version="1.1" xmlns="http://www.w3.org/2000/svg" xmlns:xlink="http://www.w3.org/1999/xlink">
    <!-- Generator: Sketch 53.2 (72643) - https://sketchapp.com -->
    <title>Group 4</title>
    <desc>Created with Sketch.</desc>
    <g id="Hub" stroke="none" stroke-width="1" fill="none" fill-rule="evenodd">
        <g id="home" transform="translate(-659.000000, -149.000000)">
            <g id="Group-4" transform="translate(658.000000, 147.000000)">
                <path d="" id="Line-7" stroke="#FFC400" stroke-width="2" stroke-linecap="square"></path>
                <path d="M520,148.478219 L205.5,148.478219" id="Line-7" stroke="#FFC400" stroke-width="2" stroke-linecap="square"></path>
                <path d="M115.288084,11 L113.692084,11 L113.104084,9.452 L109.432084,9.452 L108.844084,11 L107.248084,11 L110.392084,2.996 L112.144084,2.996 L115.288084,11 Z M112.708084,8.216 L111.268084,4.4 L109.828084,8.216 L112.708084,8.216 Z M117.971469,11 L116.567469,11 L116.567469,2.996 L120.095469,2.996 C121.775469,2.996 122.699469,4.136 122.699469,5.504 C122.699469,6.86 121.763469,8 120.095469,8 L117.971469,8 L117.971469,11 Z M119.903469,6.764 C120.695469,6.764 121.259469,6.26 121.259469,5.504 C121.259469,4.736 120.695469,4.232 119.903469,4.232 L117.971469,4.232 L117.971469,6.764 L119.903469,6.764 Z M125.694853,11 L124.290853,11 L124.290853,2.996 L125.694853,2.996 L125.694853,11 Z" id="API" fill="#999DAE" fill-rule="nonzero"></path>
                <path d="M33.0743085,105 L29.0303085,105 L29.0303085,96.996 L32.9663085,96.996 C34.4423085,96.996 35.2463085,97.908 35.2463085,99.036 C35.2463085,100.032 34.5983085,100.716 33.8543085,100.872 C34.7183085,101.004 35.4023085,101.856 35.4023085,102.828 C35.4023085,104.076 34.5863085,105 33.0743085,105 Z M32.6903085,100.296 C33.3983085,100.296 33.8063085,99.876 33.8063085,99.264 C33.8063085,98.676 33.3983085,98.232 32.6903085,98.232 L30.4343085,98.232 L30.4343085,100.296 L32.6903085,100.296 Z M32.7503085,103.764 C33.5063085,103.764 33.9623085,103.344 33.9623085,102.648 C33.9623085,102.048 33.5423085,101.532 32.7503085,101.532 L30.4343085,101.532 L30.4343085,103.764 L32.7503085,103.764 Z M42.717693,105 L37.233693,105 L37.233693,96.996 L42.717693,96.996 L42.717693,98.232 L38.637693,98.232 L38.637693,100.296 L42.633693,100.296 L42.633693,101.532 L38.637693,101.532 L38.637693,103.764 L42.717693,103.764 L42.717693,105 Z M51.7850775,105 L50.1890775,105 L49.6010775,103.452 L45.9290775,103.452 L45.3410775,105 L43.7450775,105 L46.8890775,96.996 L48.6410775,96.996 L51.7850775,105 Z M49.2050775,102.216 L47.7650775,98.4 L46.3250775,102.216 L49.2050775,102.216 Z M59.268462,105 L57.636462,105 L55.872462,102.012 L54.468462,102.012 L54.468462,105 L53.064462,105 L53.064462,96.996 L56.580462,96.996 C58.164462,96.996 59.208462,98.016 59.208462,99.504 C59.208462,100.92 58.272462,101.7 57.300462,101.856 L59.268462,105 Z M56.400462,100.776 C57.192462,100.776 57.768462,100.272 57.768462,99.492 C57.768462,98.724 57.192462,98.232 56.400462,98.232 L54.468462,98.232 L54.468462,100.776 L56.400462,100.776 Z M66.5118465,105 L61.0278465,105 L61.0278465,96.996 L66.5118465,96.996 L66.5118465,98.232 L62.4318465,98.232 L62.4318465,100.296 L66.4278465,100.296 L66.4278465,101.532 L62.4318465,101.532 L62.4318465,103.764 L66.5118465,103.764 L66.5118465,105 Z M74.571231,105 L72.939231,105 L71.175231,102.012 L69.771231,102.012 L69.771231,105 L68.367231,105 L68.367231,96.996 L71.883231,96.996 C73.467231,96.996 74.511231,98.016 74.511231,99.504 C74.511231,100.92 73.575231,101.7 72.603231,101.856 L74.571231,105 Z M71.703231,100.776 C72.495231,100.776 73.071231,100.272 73.071231,99.492 C73.071231,98.724 72.495231,98.232 71.703231,98.232 L69.771231,98.232 L69.771231,100.776 L71.703231,100.776 Z M83.694,105.156 C81.366,105.156 79.494,103.512 79.494,101.004 C79.494,98.484 81.366,96.864 83.694,96.864 C85.254,96.864 86.274,97.608 86.91,98.52 L85.77,99.18 C85.338,98.58 84.582,98.112 83.694,98.112 C82.11,98.112 80.934,99.312 80.934,101.004 C80.934,102.672 82.11,103.896 83.694,103.896 C84.51,103.896 85.23,103.524 85.59,103.176 L85.59,101.94 L83.19,101.94 L83.19,100.704 L86.982,100.704 L86.982,103.692 C86.202,104.568 85.074,105.156 83.694,105.156 Z M96.0133845,105 L94.4173845,105 L93.8293845,103.452 L90.1573845,103.452 L89.5693845,105 L87.9733845,105 L91.1173845,96.996 L92.8693845,96.996 L96.0133845,105 Z M93.4333845,102.216 L91.9933845,98.4 L90.5533845,102.216 L93.4333845,102.216 Z M99.824769,105 L98.420769,105 L98.420769,98.232 L95.996769,98.232 L95.996769,96.996 L102.248769,96.996 L102.248769,98.232 L99.824769,98.232 L99.824769,105 Z M109.336153,105 L103.852153,105 L103.852153,96.996 L109.336153,96.996 L109.336153,98.232 L105.256153,98.232 L105.256153,100.296 L109.252153,100.296 L109.252153,101.532 L105.256153,101.532 L105.256153,103.764 L109.336153,103.764 L109.336153,105 Z M118.811538,105 L117.311538,105 L115.763538,99.084 L114.203538,105 L112.703538,105 L110.423538,96.996 L111.983538,96.996 L113.543538,103.152 L115.199538,96.996 L116.315538,96.996 L117.971538,103.152 L119.531538,96.996 L121.103538,96.996 L118.811538,105 Z M129.114922,105 L127.518922,105 L126.930922,103.452 L123.258922,103.452 L122.670922,105 L121.074922,105 L124.218922,96.996 L125.970922,96.996 L129.114922,105 Z M126.534922,102.216 L125.094922,98.4 L123.654922,102.216 L126.534922,102.216 Z M133.298307,105 L131.894307,105 L131.894307,101.676 L128.786307,96.996 L130.394307,96.996 L132.590307,100.416 L134.786307,96.996 L136.394307,96.996 L133.298307,101.676 L133.298307,105 Z" id="BEARERGATEWAY" fill="#999DAE" fill-rule="nonzero"></path>
                <path d="M5.8624635,296 L1.8184635,296 L1.8184635,287.996 L5.7544635,287.996 C7.2304635,287.996 8.0344635,288.908 8.0344635,290.036 C8.0344635,291.032 7.3864635,291.716 6.6424635,291.872 C7.5064635,292.004 8.1904635,292.856 8.1904635,293.828 C8.1904635,295.076 7.3744635,296 5.8624635,296 Z M5.4784635,291.296 C6.1864635,291.296 6.5944635,290.876 6.5944635,290.264 C6.5944635,289.676 6.1864635,289.232 5.4784635,289.232 L3.2224635,289.232 L3.2224635,291.296 L5.4784635,291.296 Z M5.5384635,294.764 C6.2944635,294.764 6.7504635,294.344 6.7504635,293.648 C6.7504635,293.048 6.3304635,292.532 5.5384635,292.532 L3.2224635,292.532 L3.2224635,294.764 L5.5384635,294.764 Z M15.505848,296 L10.021848,296 L10.021848,287.996 L15.505848,287.996 L15.505848,289.232 L11.425848,289.232 L11.425848,291.296 L15.421848,291.296 L15.421848,292.532 L11.425848,292.532 L11.425848,294.764 L15.505848,294.764 L15.505848,296 Z M24.5732325,296 L22.9772325,296 L22.3892325,294.452 L18.7172325,294.452 L18.1292325,296 L16.5332325,296 L19.6772325,287.996 L21.4292325,287.996 L24.5732325,296 Z M21.9932325,293.216 L20.5532325,289.4 L19.1132325,293.216 L21.9932325,293.216 Z M32.056617,296 L30.424617,296 L28.660617,293.012 L27.256617,293.012 L27.256617,296 L25.852617,296 L25.852617,287.996 L29.368617,287.996 C30.952617,287.996 31.996617,289.016 31.996617,290.504 C31.996617,291.92 31.060617,292.7 30.088617,292.856 L32.056617,296 Z M29.188617,291.776 C29.980617,291.776 30.556617,291.272 30.556617,290.492 C30.556617,289.724 29.980617,289.232 29.188617,289.232 L27.256617,289.232 L27.256617,291.776 L29.188617,291.776 Z M39.3000015,296 L33.8160015,296 L33.8160015,287.996 L39.3000015,287.996 L39.3000015,289.232 L35.2200015,289.232 L35.2200015,291.296 L39.2160015,291.296 L39.2160015,292.532 L35.2200015,292.532 L35.2200015,294.764 L39.3000015,294.764 L39.3000015,296 Z M47.359386,296 L45.727386,296 L43.963386,293.012 L42.559386,293.012 L42.559386,296 L41.155386,296 L41.155386,287.996 L44.671386,287.996 C46.255386,287.996 47.299386,289.016 47.299386,290.504 C47.299386,291.92 46.363386,292.7 45.391386,292.856 L47.359386,296 Z M44.491386,291.776 C45.283386,291.776 45.859386,291.272 45.859386,290.492 C45.859386,289.724 45.283386,289.232 44.491386,289.232 L42.559386,289.232 L42.559386,291.776 L44.491386,291.776 Z M56.482155,296.144 C54.118155,296.144 52.282155,294.464 52.282155,292.004 C52.282155,289.532 54.118155,287.864 56.482155,287.864 C58.090155,287.864 59.098155,288.692 59.686155,289.652 L58.498155,290.276 C58.114155,289.604 57.334155,289.112 56.482155,289.112 C54.898155,289.112 53.722155,290.312 53.722155,292.004 C53.722155,293.672 54.898155,294.896 56.482155,294.896 C57.334155,294.896 58.114155,294.392 58.498155,293.732 L59.698155,294.332 C59.086155,295.292 58.090155,296.144 56.482155,296.144 Z M64.9735395,296.144 C62.5735395,296.144 60.8815395,294.392 60.8815395,292.004 C60.8815395,289.616 62.5735395,287.864 64.9735395,287.864 C67.3615395,287.864 69.0655395,289.616 69.0655395,292.004 C69.0655395,294.392 67.3615395,296.144 64.9735395,296.144 Z M64.9735395,294.896 C66.5815395,294.896 67.6255395,293.648 67.6255395,292.004 C67.6255395,290.348 66.5815395,289.112 64.9735395,289.112 C63.3535395,289.112 62.3215395,290.348 62.3215395,292.004 C62.3215395,293.648 63.3535395,294.896 64.9735395,294.896 Z M79.140924,296 L77.736924,296 L77.736924,289.82 L75.288924,296 L74.688924,296 L72.228924,289.82 L72.228924,296 L70.824924,296 L70.824924,287.996 L72.804924,287.996 L74.988924,293.492 L77.160924,287.996 L79.140924,287.996 L79.140924,296 Z M82.6643085,296 L81.2603085,296 L81.2603085,287.996 L84.7883085,287.996 C86.4683085,287.996 87.3923085,289.136 87.3923085,290.504 C87.3923085,291.86 86.4563085,293 84.7883085,293 L82.6643085,293 L82.6643085,296 Z M84.5963085,291.764 C85.3883085,291.764 85.9523085,291.26 85.9523085,290.504 C85.9523085,289.736 85.3883085,289.232 84.5963085,289.232 L82.6643085,289.232 L82.6643085,291.764 L84.5963085,291.764 Z M92.727693,296.144 C90.327693,296.144 88.635693,294.392 88.635693,292.004 C88.635693,289.616 90.327693,287.864 92.727693,287.864 C95.115693,287.864 96.819693,289.616 96.819693,292.004 C96.819693,294.392 95.115693,296.144 92.727693,296.144 Z M92.727693,294.896 C94.335693,294.896 95.379693,293.648 95.379693,292.004 C95.379693,290.348 94.335693,289.112 92.727693,289.112 C91.107693,289.112 90.075693,290.348 90.075693,292.004 C90.075693,293.648 91.107693,294.896 92.727693,294.896 Z M105.515078,296 L104.159078,296 L99.9830775,290.276 L99.9830775,296 L98.5790775,296 L98.5790775,287.996 L100.019078,287.996 L104.111078,293.54 L104.111078,287.996 L105.515078,287.996 L105.515078,296 Z M113.118462,296 L107.634462,296 L107.634462,287.996 L113.118462,287.996 L113.118462,289.232 L109.038462,289.232 L109.038462,291.296 L113.034462,291.296 L113.034462,292.532 L109.038462,292.532 L109.038462,294.764 L113.118462,294.764 L113.118462,296 Z M121.909847,296 L120.553847,296 L116.377847,290.276 L116.377847,296 L114.973847,296 L114.973847,287.996 L116.413847,287.996 L120.505847,293.54 L120.505847,287.996 L121.909847,287.996 L121.909847,296 Z M127.341231,296 L125.937231,296 L125.937231,289.232 L123.513231,289.232 L123.513231,287.996 L129.765231,287.996 L129.765231,289.232 L127.341231,289.232 L127.341231,296 Z M134.056616,296.144 C132.580616,296.144 131.512616,295.616 130.792616,294.872 L131.584616,293.78 C132.124616,294.368 133.000616,294.896 134.116616,294.896 C135.268616,294.896 135.712616,294.332 135.712616,293.792 C135.712616,292.112 131.056616,293.156 131.056616,290.216 C131.056616,288.884 132.208616,287.864 133.972616,287.864 C135.208616,287.864 136.228616,288.272 136.960616,288.992 L136.168616,290.036 C135.532616,289.4 134.680616,289.112 133.840616,289.112 C133.024616,289.112 132.496616,289.52 132.496616,290.108 C132.496616,291.608 137.152616,290.684 137.152616,293.66 C137.152616,294.992 136.204616,296.144 134.056616,296.144 Z" id="BEARERCOMPONENTS" fill="#999DAE" fill-rule="nonzero"></path>
                <path d="M205.5,133 L205.5,147" id="Line-7" stroke="#FFC400" stroke-width="2" stroke-linecap="square"></path>
                <g id="Group-20" transform="translate(191.000000, 201.000000)">
                    <g id="Group-2">
                        <path d="M120,33 L120,158.357816" id="Line-2" stroke="#FFC400" stroke-width="2" stroke-linecap="square" fill-rule="nonzero"></path>
                        <g id="Group">
                            <polygon id="Fill-7786" fill="#B3BEEA" points="179.5 0 359 101.437126 179.5 206.826347 0 103.413174"></polygon>
                            <polygon id="Rectangle" fill="#FFFFFF" fill-rule="nonzero" points="207.319188 22.3952096 350.058118 102.095808 340.122694 107.365269 196.721402 28.3233533"></polygon>
                            <path d="M174.157989,11.3815802 C175.739995,12.045167 178.168824,11.7354251 179.582929,10.6897522 C180.997034,9.64407931 180.860923,8.2584505 179.278916,7.59486364 C177.696909,6.93127679 175.26808,7.24101872 173.853975,8.28669162 C172.43987,9.33236452 172.575982,10.7179933 174.157989,11.3815802 Z" id="Oval" fill="#DC4C4C" fill-rule="nonzero"></path>
                            <path d="M182.106328,15.9923586 C183.688335,16.6559455 186.117164,16.3462036 187.531269,15.3005307 C188.945374,14.2548578 188.809262,12.8692289 187.227255,12.2056421 C185.645248,11.5420552 183.21642,11.8517972 181.802315,12.8974701 C180.38821,13.943143 180.524321,15.3287718 182.106328,15.9923586 Z" id="Oval" fill="#FFC400" fill-rule="nonzero"></path>
                            <path d="M190.717029,21.2618197 C192.299036,21.9254066 194.727865,21.6156646 196.14197,20.5699917 C197.556075,19.5243188 197.419963,18.13869 195.837956,17.4751032 C194.25595,16.8115163 191.827121,17.1212582 190.413016,18.1669311 C188.998911,19.212604 189.135022,20.5982328 190.717029,21.2618197 Z" id="Oval" fill="#00C682" fill-rule="nonzero"></path>
                            <polygon id="Fill-7787" fill="#E3E7F7" points="0 114.775907 179.5 220 179.5 206.661219 6.22765728e-16 101.437126"></polygon>
                            <polyline id="Fill-7788" fill="#9BA2BF" points="179.5 220 359 114.775907 359 101.437126 179.5 206.661219"></polyline>
                        </g>
                        <g id="Group" transform="translate(154.000000, 30.000000)">
                            <path d="M6.10607596,78.325162 C12.8318317,81.5069891 23.4918744,80.6086463 29.9159478,76.3186573 C36.3400211,72.0286682 36.0954593,65.9715644 29.3697035,62.7897373 C22.6439478,59.6079103 11.9839051,60.506253 5.55983171,64.7962421 C-0.864241652,69.0862311 -0.619679772,75.1433349 6.10607596,78.325162 Z" id="Oval" fill="#FFF9E5" opacity="0.639950707"></path>
                            <polygon id="Fill-7786" fill="#8494D5" points="56.0841287 0.331319966 90 19.8791979 42.1187699 47.7100751 8.20289855 28.1621971"></polygon>
                            <polyline id="Fill-7787" fill="#CED4EF" points="8.20289855 27.8308771 8.20289855 41.7774633 42.1187699 61.6255136 42.1187699 47.6789275 8.20289855 27.8308771"></polyline>
                            <polygon id="Fill-7788" fill="#6679CB" points="90 33.8257841 90 19.8791979 42.1187699 47.6789275 42.1187699 61.6255136"></polygon>
                        </g>
                        <g id="Group" transform="translate(68.000000, 70.000000)">
                            <polyline id="Fill-7786" fill="#8494D5" points="0 19.54375 33.5 0 67 19.54375 33.5 39.0875 0 19.54375"></polyline>
                            <polyline id="Fill-7787" fill="#CED4EF" points="0 19.2125 0 33.156141 33.5 53 33.5 39.056359 0 19.2125"></polyline>
                            <polyline id="Fill-7788" fill="#6679CB" points="33.5 53 67 33.156141 67 19.2125 33.5 39.056359 33.5 53"></polyline>
                        </g>
                        <g id="Group" transform="translate(183.000000, 96.000000)">
                            <polyline id="Fill-7786" fill="#8494D5" points="0 25.9482759 44.5 0 89 25.9482759 44.5 51.8965517 0 25.9482759"></polyline>
                            <polyline id="Fill-7787" fill="#CED4EF" points="0 25.3448276 0 43.773409 44.5 70 44.5 51.5714186 0 25.3448276"></polyline>
                            <polyline id="Fill-7788" fill="#6679CB" points="44.5 70 89 43.773409 89 25.3448276 44.5 51.5714186 44.5 70"></polyline>
                        </g>
                    </g>
                </g>
                <path d="M311,3 L311,148.478219" id="Line-3" stroke="#FFC400" stroke-width="2" stroke-linecap="square"></path>
                <path d="M206,3 L206,71" id="Line-3" stroke="#FFC400" stroke-width="2" stroke-linecap="square"></path>
                <path d="M416,3 L416,148.478219" id="Line-3" stroke="#FFC400" stroke-width="2" stroke-linecap="square"></path>
                <path d="M520,3 L520,148.478219" id="Line-3" stroke="#FFC400" stroke-width="2" stroke-linecap="square"></path>
                <g id="Group" transform="translate(158.000000, 58.000000)">
                    <polygon id="Fill-7786" fill="#8494D5" points="47.5 0 95 26.3043478 47.5 55 0 26.3043478"></polygon>
                    <polyline id="Fill-7787" fill="#CED4EF" points="0 26 0 45.8089462 48 74 48 54.1910538 0 26"></polyline>
                    <polygon id="Fill-7788" fill="#6679CB" points="47 73.4 95 45.8089462 95 26 47 53.6 47 74"></polygon>
                </g>
                <g id="Group" transform="translate(263.000000, 58.000000)">
                    <polygon id="Fill-7786" fill="#8494D5" points="47.5 0 95 26.3043478 47.5 55 0 26.3043478"></polygon>
                    <polyline id="Fill-7787" fill="#CED4EF" points="0 26 0 45.8089462 48 74 48 54.1910538 0 26"></polyline>
                    <polygon id="Fill-7788" fill="#6679CB" points="47 73.4 95 45.8089462 95 26 47 53.6 47 74"></polygon>
                </g>
                <g id="Group" transform="translate(369.000000, 58.000000)">
                    <polygon id="Fill-7786" fill="#8494D5" points="47.5 0 95 26.3043478 47.5 55 0 26.3043478"></polygon>
                    <polyline id="Fill-7787" fill="#CED4EF" points="0 26 0 45.8089462 48 74 48 54.1910538 0 26"></polyline>
                    <polygon id="Fill-7788" fill="#6679CB" points="47 73.4 95 45.8089462 95 26 47 53.6 47 74"></polygon>
                </g>
                <g id="Group" transform="translate(474.000000, 58.000000)">
                    <polygon id="Fill-7786" fill="#8494D5" points="47.5 0 95 26.3043478 47.5 55 0 26.3043478"></polygon>
                    <polyline id="Fill-7787" fill="#CED4EF" points="0 26 0 45.8089462 48 74 48 54.1910538 0 26"></polyline>
                    <polygon id="Fill-7788" fill="#6679CB" points="47 73.4 95 45.8089462 95 26 47 53.6 47 74"></polygon>
                </g>
                <circle id="Oval" fill="#E9B300" cx="311" cy="55" r="4"></circle>
                <circle id="Oval" fill="#E9B300" cx="473" cy="148" r="4"></circle>
                <circle id="Oval" fill="#E9B300" cx="416" cy="37" r="4"></circle>
                <circle id="Oval" fill="#E9B300" cx="520" cy="14" r="4"></circle>
                <circle id="Oval" fill="#E9B300" cx="265" cy="148" r="4"></circle>
                <circle id="Oval" fill="#E9B300" cx="520" cy="54" r="4"></circle>
                <circle id="Oval" fill="#E9B300" cx="362" cy="149" r="4"></circle>
                <circle id="Oval" fill="#E9B300" cx="206" cy="34" r="4"></circle>
                <circle id="Oval" fill="#E9B300" cx="311" cy="18" r="4"></circle>
                <path d="M355.529643,305.37805 C359.124044,307.022976 364.821021,306.558555 368.254196,304.340737 C371.687371,302.122919 371.556671,298.991545 367.96227,297.346619 C364.367869,295.701693 358.670892,296.166114 355.237717,298.383933 C351.804542,300.601751 351.935242,303.733124 355.529643,305.37805 Z" id="Oval" fill="#FFF9E5"></path>
                <path d="M361.691083,149 L361.691083,301.362335" id="Line-6" stroke="#FFC400" stroke-width="2" stroke-linecap="square"></path>
                <path d="M146,7 L186,7" id="Line-11" stroke="#DCDFEC" stroke-linecap="square"></path>
                <path d="M146,101 L152,101" id="Line-11" stroke="#DCDFEC" stroke-linecap="square"></path>
                <path d="M146,293 L253,293" id="Line-11" stroke="#DCDFEC" stroke-linecap="square"></path>
                <circle id="Oval" fill="#E9B300" cx="362" cy="189" r="4"></circle>
                <circle id="Oval" fill="#E9B300" cx="362" cy="293" r="4"></circle>
            </g>
        </g>
    </g>
</svg>