<svg width="568" height="419" xmlns="http://www.w3.org/2000/svg"><g transform="translate(-1 -2)" fill="none" fill-rule="evenodd"><path d="M520 148.478H205.5" stroke="#FFC400" stroke-width="2" stroke-linecap="square"/><path d="M115.288 11h-1.596l-.588-1.548h-3.672L108.844 11h-1.596l3.144-8.004h1.752L115.288 11zm-2.58-2.784l-1.44-3.816-1.44 3.816h2.88zM117.971 11h-1.404V2.996h3.528c1.68 0 2.604 1.14 2.604 2.508 0 1.356-.936 2.496-2.604 2.496h-2.124v3zm1.932-4.236c.792 0 1.356-.504 1.356-1.26 0-.768-.564-1.272-1.356-1.272h-1.932v2.532h1.932zM125.695 11h-1.404V2.996h1.404V11zm-92.621 94H29.03v-8.004h3.936c1.476 0 2.28.912 2.28 2.04 0 .996-.648 1.68-1.392 1.836.864.132 1.548.984 1.548 1.956 0 1.248-.816 2.172-2.328 2.172zm-.384-4.704c.708 0 1.116-.42 1.116-1.032 0-.588-.408-1.032-1.116-1.032h-2.256v2.064h2.256zm.06 3.468c.756 0 1.212-.42 1.212-1.116 0-.6-.42-1.116-1.212-1.116h-2.316v2.232h2.316zM42.718 105h-5.484v-8.004h5.484v1.236h-4.08v2.064h3.996v1.236h-3.996v2.232h4.08V105zm9.067 0H50.19l-.588-1.548H45.93L45.341 105h-1.596l3.144-8.004h1.752L51.785 105zm-2.58-2.784l-1.44-3.816-1.44 3.816h2.88zM59.268 105h-1.632l-1.764-2.988h-1.404V105h-1.404v-8.004h3.516c1.584 0 2.628 1.02 2.628 2.508 0 1.416-.936 2.196-1.908 2.352L59.268 105zm-2.868-4.224c.792 0 1.368-.504 1.368-1.284 0-.768-.576-1.26-1.368-1.26h-1.932v2.544H56.4zM66.512 105h-5.484v-8.004h5.484v1.236h-4.08v2.064h3.996v1.236h-3.996v2.232h4.08V105zm8.06 0h-1.633l-1.764-2.988h-1.404V105h-1.404v-8.004h3.516c1.584 0 2.628 1.02 2.628 2.508 0 1.416-.936 2.196-1.908 2.352L74.571 105zm-2.869-4.224c.792 0 1.368-.504 1.368-1.284 0-.768-.576-1.26-1.368-1.26h-1.932v2.544h1.932zm11.991 4.38c-2.328 0-4.2-1.644-4.2-4.152 0-2.52 1.872-4.14 4.2-4.14 1.56 0 2.58.744 3.216 1.656l-1.14.66a2.583 2.583 0 0 0-2.076-1.068c-1.584 0-2.76 1.2-2.76 2.892 0 1.668 1.176 2.892 2.76 2.892.816 0 1.536-.372 1.896-.72v-1.236h-2.4v-1.236h3.792v2.988a4.325 4.325 0 0 1-3.288 1.464zm12.32-.156h-1.597l-.588-1.548h-3.672L89.57 105h-1.596l3.144-8.004h1.752L96.013 105zm-2.58-2.784l-1.44-3.816-1.44 3.816h2.88zm6.39 2.784h-1.403v-6.768h-2.424v-1.236h6.252v1.236h-2.424V105zm9.512 0h-5.484v-8.004h5.484v1.236h-4.08v2.064h3.996v1.236h-3.996v2.232h4.08V105zm9.476 0h-1.5l-1.548-5.916-1.56 5.916h-1.5l-2.28-8.004h1.56l1.56 6.156 1.656-6.156h1.116l1.656 6.156 1.56-6.156h1.572L118.812 105zm10.303 0h-1.596l-.588-1.548h-3.672L122.67 105h-1.596l3.144-8.004h1.752l3.144 8.004zm-2.58-2.784l-1.44-3.816-1.44 3.816h2.88zm6.763 2.784h-1.404v-3.324l-3.108-4.68h1.608l2.196 3.42 2.196-3.42h1.608l-3.096 4.68V105zM5.862 296H1.818v-8.004h3.936c1.476 0 2.28.912 2.28 2.04 0 .996-.648 1.68-1.392 1.836.864.132 1.548.984 1.548 1.956 0 1.248-.816 2.172-2.328 2.172zm-.384-4.704c.708 0 1.116-.42 1.116-1.032 0-.588-.408-1.032-1.116-1.032H3.222v2.064h2.256zm.06 3.468c.756 0 1.212-.42 1.212-1.116 0-.6-.42-1.116-1.212-1.116H3.222v2.232h2.316zM15.506 296h-5.484v-8.004h5.484v1.236h-4.08v2.064h3.996v1.236h-3.996v2.232h4.08V296zm9.067 0h-1.596l-.588-1.548h-3.672L18.13 296h-1.596l3.144-8.004h1.752L24.573 296zm-2.58-2.784l-1.44-3.816-1.44 3.816h2.88zM32.057 296h-1.632l-1.764-2.988h-1.404V296h-1.404v-8.004h3.516c1.584 0 2.628 1.02 2.628 2.508 0 1.416-.936 2.196-1.908 2.352L32.057 296zm-2.868-4.224c.792 0 1.368-.504 1.368-1.284 0-.768-.576-1.26-1.368-1.26h-1.932v2.544h1.932zM39.3 296h-5.484v-8.004H39.3v1.236h-4.08v2.064h3.996v1.236H35.22v2.232h4.08V296zm8.06 0h-1.633l-1.764-2.988H42.56V296h-1.404v-8.004h3.516c1.584 0 2.628 1.02 2.628 2.508 0 1.416-.936 2.196-1.908 2.352L47.36 296zm-2.869-4.224c.792 0 1.368-.504 1.368-1.284 0-.768-.576-1.26-1.368-1.26H42.56v2.544h1.932zm11.991 4.368c-2.364 0-4.2-1.68-4.2-4.14 0-2.472 1.836-4.14 4.2-4.14 1.608 0 2.616.828 3.204 1.788l-1.188.624a2.366 2.366 0 0 0-2.016-1.164c-1.584 0-2.76 1.2-2.76 2.892 0 1.668 1.176 2.892 2.76 2.892.852 0 1.632-.504 2.016-1.164l1.2.6c-.612.96-1.608 1.812-3.216 1.812zm8.492 0c-2.4 0-4.092-1.752-4.092-4.14s1.692-4.14 4.092-4.14c2.388 0 4.092 1.752 4.092 4.14s-1.704 4.14-4.092 4.14zm0-1.248c1.608 0 2.652-1.248 2.652-2.892 0-1.656-1.044-2.892-2.652-2.892-1.62 0-2.652 1.236-2.652 2.892 0 1.644 1.032 2.892 2.652 2.892zM79.14 296h-1.404v-6.18L75.289 296h-.6l-2.46-6.18V296h-1.404v-8.004h1.98l2.184 5.496 2.172-5.496h1.98V296zm3.523 0H81.26v-8.004h3.528c1.68 0 2.604 1.14 2.604 2.508 0 1.356-.936 2.496-2.604 2.496h-2.124v3zm1.932-4.236c.792 0 1.356-.504 1.356-1.26 0-.768-.564-1.272-1.356-1.272h-1.932v2.532h1.932zm8.132 4.38c-2.4 0-4.092-1.752-4.092-4.14s1.692-4.14 4.092-4.14c2.388 0 4.092 1.752 4.092 4.14s-1.704 4.14-4.092 4.14zm0-1.248c1.608 0 2.652-1.248 2.652-2.892 0-1.656-1.044-2.892-2.652-2.892-1.62 0-2.652 1.236-2.652 2.892 0 1.644 1.032 2.892 2.652 2.892zM105.515 296h-1.356l-4.176-5.724V296H98.58v-8.004h1.44l4.092 5.544v-5.544h1.404V296zm7.603 0h-5.484v-8.004h5.484v1.236h-4.08v2.064h3.996v1.236h-3.996v2.232h4.08V296zm8.792 0h-1.356l-4.176-5.724V296h-1.404v-8.004h1.44l4.092 5.544v-5.544h1.404V296zm5.431 0h-1.404v-6.768h-2.424v-1.236h6.252v1.236h-2.424V296zm6.716.144c-1.476 0-2.544-.528-3.264-1.272l.792-1.092a3.439 3.439 0 0 0 2.532 1.116c1.152 0 1.596-.564 1.596-1.104 0-1.68-4.656-.636-4.656-3.576 0-1.332 1.152-2.352 2.916-2.352 1.236 0 2.256.408 2.988 1.128l-.792 1.044c-.636-.636-1.488-.924-2.328-.924-.816 0-1.344.408-1.344.996 0 1.5 4.656.576 4.656 3.552 0 1.332-.948 2.484-3.096 2.484z" fill="#999DAE" fill-rule="nonzero"/><path d="M205.5 133v14M311 234v125.358" stroke="#FFC400" stroke-width="2" stroke-linecap="square"/><path fill="#B3BEEA" d="M370.5 201L550 302.437l-179.5 105.39L191 304.412z"/><path fill="#FFF" fill-rule="nonzero" d="M398.32 223.395l142.738 79.7-9.935 5.27-143.402-79.042z"/><path d="M365.158 212.382c1.582.663 4.01.353 5.425-.692 1.414-1.046 1.278-2.432-.304-3.095-1.582-.664-4.01-.354-5.425.692-1.414 1.045-1.278 2.431.304 3.095z" fill="#DC4C4C" fill-rule="nonzero"/><path d="M373.106 216.992c1.582.664 4.011.354 5.425-.691 1.414-1.046 1.278-2.432-.304-3.095-1.582-.664-4.01-.354-5.425.691-1.414 1.046-1.278 2.432.304 3.095z" fill="#FFC400" fill-rule="nonzero"/><path d="M381.717 222.262c1.582.663 4.01.354 5.425-.692 1.414-1.046 1.278-2.431-.304-3.095-1.582-.663-4.01-.354-5.425.692-1.414 1.046-1.278 2.431.304 3.095z" fill="#00C682" fill-rule="nonzero"/><path fill="#E3E7F7" d="M191 315.776L370.5 421v-13.339L191 302.437z"/><path fill="#9BA2BF" d="M370.5 421L550 315.776v-13.339L370.5 407.661"/><path d="M351.106 309.325c6.726 3.182 17.386 2.284 23.81-2.006 6.424-4.29 6.18-10.347-.546-13.53-6.726-3.181-17.386-2.283-23.81 2.007-6.424 4.29-6.18 10.347.546 13.53z" fill="#FFF9E5" opacity=".64"/><path fill="#8494D5" d="M401.084 231.331L435 250.88l-47.881 27.831-33.916-19.548z"/><path fill="#CED4EF" d="M353.203 258.83v13.947l33.916 19.849v-13.947l-33.916-19.848"/><path fill="#6679CB" d="M435 264.826v-13.947l-47.881 27.8v13.947z"/><path fill="#8494D5" d="M259 290.544L292.5 271l33.5 19.544-33.5 19.544-33.5-19.544"/><path fill="#CED4EF" d="M259 290.212v13.944L292.5 324v-13.944L259 290.213"/><path fill="#6679CB" d="M292.5 324l33.5-19.844v-13.944l-33.5 19.844V324"/><path fill="#8494D5" d="M374 322.948L418.5 297l44.5 25.948-44.5 25.949-44.5-25.949"/><path fill="#CED4EF" d="M374 322.345v18.428L418.5 367v-18.429L374 322.345"/><path fill="#6679CB" d="M418.5 367l44.5-26.227v-18.428l-44.5 26.226V367"/><path d="M311 3v145.478M206 3v68M416 3v145.478M520 3v145.478" stroke="#FFC400" stroke-width="2" stroke-linecap="square"/><path fill="#8494D5" d="M205.5 58L253 84.304 205.5 113 158 84.304z"/><path fill="#CED4EF" d="M158 84v19.809L206 132v-19.809L158 84"/><path fill="#6679CB" d="M205 131.4l48-27.591V84l-48 27.6V132z"/><path fill="#8494D5" d="M310.5 58L358 84.304 310.5 113 263 84.304z"/><path fill="#CED4EF" d="M263 84v19.809L311 132v-19.809L263 84"/><path fill="#6679CB" d="M310 131.4l48-27.591V84l-48 27.6V132z"/><path fill="#8494D5" d="M416.5 58L464 84.304 416.5 113 369 84.304z"/><path fill="#CED4EF" d="M369 84v19.809L417 132v-19.809L369 84"/><path fill="#6679CB" d="M416 131.4l48-27.591V84l-48 27.6V132z"/><path fill="#8494D5" d="M521.5 58L569 84.304 521.5 113 474 84.304z"/><path fill="#CED4EF" d="M474 84v19.809L522 132v-19.809L474 84"/><path fill="#6679CB" d="M521 131.4l48-27.591V84l-48 27.6V132z"/><circle fill="#E9B300" cx="311" cy="55" r="4"/><circle fill="#E9B300" cx="473" cy="148" r="4"/><circle fill="#E9B300" cx="416" cy="37" r="4"/><circle fill="#E9B300" cx="520" cy="14" r="4"/><circle fill="#E9B300" cx="265" cy="148" r="4"/><circle fill="#E9B300" cx="520" cy="54" r="4"/><circle fill="#E9B300" cx="362" cy="149" r="4"/><circle fill="#E9B300" cx="206" cy="34" r="4"/><circle fill="#E9B300" cx="311" cy="18" r="4"/><path d="M355.53 305.378c3.594 1.645 9.291 1.18 12.724-1.037 3.433-2.218 3.303-5.35-.292-6.994-3.594-1.645-9.291-1.18-12.724 1.037-3.433 2.218-3.303 5.35.292 6.994z" fill="#FFF9E5"/><path d="M361.691 149v152.362" stroke="#FFC400" stroke-width="2" stroke-linecap="square"/><path d="M146 7h40m-40 94h6m-6 192h107" stroke="#DCDFEC" stroke-linecap="square"/><circle fill="#E9B300" cx="362" cy="189" r="4"/><circle fill="#E9B300" cx="362" cy="293" r="4"/></g></svg>