<svg width="492" height="311" xmlns="http://www.w3.org/2000/svg" xmlns:xlink="http://www.w3.org/1999/xlink"><defs><linearGradient x1="76.203%" y1="16.717%" x2="23.797%" y2="100%" id="a"><stop stop-color="#FFCE00" offset="0%"/><stop stop-color="#FBBB18" offset="100%"/></linearGradient><linearGradient x1="30.245%" y1="100%" x2="69.755%" y2="16.717%" id="b"><stop stop-color="#FFCE00" offset="0%"/><stop stop-color="#CB9203" offset="100%"/></linearGradient><linearGradient x1="38.745%" y1="100%" x2="61.255%" y2="16.717%" id="c"><stop stop-color="#FFCE00" offset="0%"/><stop stop-color="#FBBB18" offset="100%"/></linearGradient><path d="M.575 12.889L22.3.065a.44.44 0 0 1 .661.39v16.738a.98.98 0 0 1-.478.846L.756 30.863a.44.44 0 0 1-.662-.39V13.736c0-.35.184-.673.481-.846" id="d"/><path d="M15.062 13.615c-.138 0-.275-.014-.406-.045a1.83 1.83 0 0 1-.415-.156l-.064-.034L.407 5.395.38 5.378a.64.64 0 0 1-.115-.094.538.538 0 0 1-.095-.119.926.926 0 0 1-.053-.105.435.435 0 0 1-.026-.08.383.383 0 0 1-.014-.053L.07 4.892c0-.008-.003-.014-.003-.02 0-.005-.003-.01-.003-.016l-.002-.017v-.015C.058 4.82.058 4.813.058 4.807c0-.005 0-.011-.003-.017v-.017c0-.005 0-.011-.003-.017v-.155c0-.006.003-.011.003-.017v-.017c.02-.264.1-.477.1-.477a.453.453 0 0 0 .225.429l13.797 7.999a1.762 1.762 0 0 0 1.775-.003L31.359 3.49l.394.068c.258.042.515.08.773.11l-16.574 9.706c-.034.02-.067.037-.104.054-.117.06-.24.105-.364.136a1.83 1.83 0 0 1-.392.051h-.03M36.448.85c-.16-.014-.322-.034-.487-.054l.517-.304c-.014.12-.022.239-.03.358" id="f"/><path id="h" d="M.12 14.748v-2.933l2.243-3.234 1.172.875 2.371-4.774.863 1.537h1.256l2.03-3.047 1.187-.741h2.455L15.26.122l1.78.815 1.88-.085v3.007L.12 14.749"/><linearGradient x1="0%" y1="50%" y2="24.976%" id="i"><stop stop-color="#5EB3F2" offset="0%"/><stop stop-color="#A262EA" offset="100%"/></linearGradient><linearGradient x1="-174.462%" y1="-27.968%" x2="15.083%" y2="37.755%" id="k"><stop stop-color="#C1669B" offset="0%"/><stop stop-color="#F7C061" offset="100%"/></linearGradient><linearGradient x1="-177.839%" y1="-29.174%" x2="11.706%" y2="36.577%" id="l"><stop stop-color="#C1669B" offset="0%"/><stop stop-color="#F7C061" offset="100%"/></linearGradient><linearGradient x1="-289.42%" y1="-67.884%" x2="-99.87%" y2="-2.131%" id="m"><stop stop-color="#C1669B" offset="0%"/><stop stop-color="#F7C061" offset="100%"/></linearGradient><linearGradient x1="49.509%" y1="100%" x2="50.491%" y2="16.717%" id="n"><stop stop-color="#A99027" offset="0%"/><stop stop-color="#FBBB18" offset="100%"/></linearGradient><linearGradient x1="37.497%" y1="100%" x2="62.503%" y2="16.717%" id="o"><stop stop-color="#B3951A" offset="0%"/><stop stop-color="#FBBB18" offset="100%"/></linearGradient><linearGradient x1="48.637%" y1="100%" x2="51.363%" y2="16.717%" id="p"><stop stop-color="#FAD53A" offset="0%"/><stop stop-color="#FBBB18" offset="100%"/></linearGradient><linearGradient x1="0%" y1="60.365%" y2="43.1%" id="q"><stop stop-color="#FAD53A" offset="0%"/><stop stop-color="#FBBB18" offset="100%"/></linearGradient><linearGradient x1="0%" y1="59.866%" y2="43.432%" id="r"><stop stop-color="#FAD53A" offset="0%"/><stop stop-color="#FBBB18" offset="100%"/></linearGradient><linearGradient x1="0%" y1="63.824%" y2="40.798%" id="s"><stop stop-color="#FAD53A" offset="0%"/><stop stop-color="#FBBB18" offset="100%"/></linearGradient><linearGradient x1="58.952%" y1="16.717%" x2="41.048%" y2="100%" id="t"><stop stop-color="#FAD53A" offset="0%"/><stop stop-color="#FBBB18" offset="100%"/></linearGradient></defs><g fill="none" fill-rule="evenodd"><path d="M134.52 279.976C71.989 250.71 18.607 199.066 2.527 148.852c-4.864-15.188-1.47-41.732 0-52.987 2.375-18.198 13.49-2.038 35.813-13.047 81.774-40.327 110.161-21.284 186.85-40.327 65.056-16.155 245.947-29.883 264.957 14.19 3.4 7.882 2.535 44.936-6.078 54.703-31.222 35.406-14.342 59.684-10.255 90.455 3.344 25.183-2.279 60.24-46.52 63.014-98.298 6.16-180.748 67.552-292.774 15.123z" fill="#E3E8FF" fill-rule="nonzero"/><path d="M134.442 253.969C22.611 201.522-43.2 97.089 38.431 56.748c81.63-40.34 109.969-21.291 186.524-40.34 76.555-19.05 315.103 4.51 258.427 68.915-56.676 64.404 41.45 147.355-56.676 153.518-98.126 6.163-180.432 67.574-292.264 15.128z" fill="#FFF" fill-rule="nonzero"/><path d="M34.875 84c-.193 0-.386-.005-.582-.018l-.975-.06a5.19 5.19 0 0 1-2.205-.648l-7.69-4.295-2.711-1.512-15.53-8.675a7.851 7.851 0 0 1-1.448-1.045C1.584 65.826 0 62.668 0 59.997V29.953c0-.94.35-1.85.985-2.553a12.74 12.74 0 0 1 9.458-4.18c2.127 0 4.274.53 6.23 1.623l22.145 12.364C41.668 38.802 44 42.762 44 46.003V74.96c0 5.019-4.123 9.04-9.125 9.04" fill="url(#a)" transform="translate(61 1)"/><path d="M.677 30.99c0-3.25 2.303-4.6 5.115-3l24.97 14.2c2.812 1.604 5.115 5.57 5.115 8.82v28.635c0 3.25-2.303 4.598-5.115 2.998l-24.97-14.2c-2.812-1.6-5.115-5.57-5.115-8.82V30.99" fill="url(#b)" transform="translate(61 1)"/><path d="M79.277 45.462c-2.978-1.745-5.415-.36-5.415 3.08s2.437 7.789 5.415 9.669c2.978 1.877 5.415.492 5.415-3.08 0-3.571-2.437-7.923-5.415-9.669m15.569-6.234V26.144c0-12.642-2.767-20.663-8.225-23.841-2.833-1.65-5.93-1.737-8.503-.238-2.097 1.22-5.61 4.6-5.61 13.556v12.83h.065c.018.328.236.65.662.9.896.52 2.36.52 3.254 0 .427-.25.644-.572.665-.9h.063v-12.83c0-4.727 1.218-8.259 3.257-9.444 1.395-.813 2.832-.319 3.79.238 3.789 2.204 5.872 9.211 5.872 19.73v13.054c-.018.364.207.734.684 1.01.919.534 2.421.534 3.34 0 .464-.268.691-.625.686-.981" fill="#030D36"/><path fill="#030D36" d="M75.892 48.805v14.75l6.77 3.689V52.49l-6.77-3.686"/><path fill="#CCD6FF" d="M240.186 44.92L318.093 0 396 44.92l-77.907 44.919-77.907-44.92"/><path fill="#E3E8FF" d="M240.866 44.92v31.738l77.567 45.169V90.088L240.866 44.92"/><path fill="#909ED9" d="M317.753 121.827l77.567-45.169V44.92l-77.567 45.17v31.738"/><path fill="#CCD6FF" d="M66 145.648l77.907-44.92 77.907 44.92-77.907 44.92L66 145.647"/><path fill="#E3E8FF" d="M66.68 145.648v31.738l77.567 45.17v-31.74L66.68 145.649"/><path fill="#909ED9" d="M143.567 222.555l77.567-45.169v-31.738l-77.567 45.169v31.738"/><path fill="#CCD6FF" d="M153.093 63.976L231 19.056l77.907 44.92L231 108.896l-77.907-44.92"/><path fill="#E3E8FF" d="M153.773 63.976v31.739l77.567 45.169v-31.74l-77.567-45.168"/><path fill="#909ED9" d="M308.227 95.715V63.976l-77.567 45.169v31.739z"/><path fill="#CCD6FF" d="M234.742 151.093l77.907-44.92 77.908 44.92-77.908 44.919-77.907-44.92"/><path fill="#E3E8FF" d="M235.423 151.093v31.738L312.99 228v-31.739l-77.567-45.168"/><path fill="#909ED9" d="M312.31 228l77.566-45.169v-31.738L312.31 196.26V228"/><path d="M124.218 136.12a1.076 1.076 0 0 1-1.063-1.088v-15.977c0-7.538 3.977-14.542 10.378-18.276l7.086-4.673a1.052 1.052 0 0 1 1.448.405c.29.523.114 1.185-.397 1.485l-7.086 4.674c-5.741 3.348-9.303 9.627-9.303 16.385v15.977c0 .6-.477 1.087-1.063 1.087m15.649 9.529a1.072 1.072 0 0 1-1.063-1.084v-15.977c0-7.542 3.977-14.543 10.377-18.277l7.085-4.673a1.05 1.05 0 0 1 1.451.405 1.1 1.1 0 0 1-.4 1.481l-7.081 4.678c-5.74 3.348-9.306 9.623-9.306 16.386v15.977c0 .6-.476 1.084-1.063 1.084" fill="url(#c)" transform="translate(66)"/><path d="M189.537 136.12a1.076 1.076 0 0 1-1.063-1.088v-15.977c0-7.538 3.978-14.542 10.378-18.276l7.087-4.673a1.052 1.052 0 0 1 1.447.405c.29.523.115 1.185-.396 1.485l-7.086 4.674c-5.742 3.348-9.304 9.627-9.304 16.385v15.977c0 .6-.476 1.087-1.063 1.087" fill="url(#c)" transform="matrix(-1 0 0 1 462 0)"/><path d="M205.186 126.591a1.072 1.072 0 0 1-1.062-1.084V109.53c0-7.542 3.977-14.542 10.376-18.276l7.085-4.674a1.05 1.05 0 0 1 1.452.406 1.1 1.1 0 0 1-.4 1.48l-7.082 4.678c-5.74 3.348-9.306 9.624-9.306 16.386v15.977c0 .6-.476 1.084-1.063 1.084" fill="url(#c)" transform="matrix(-1 0 0 1 493.299 0)"/><path d="M316.51 23.512c1.124-.674 2.97-.683 4.1-.024l31.542 18.406c1.13.66 1.13 1.74 0 2.402L321.059 62.44c-1.13.66-2.983.66-4.114 0l-31.093-18.144c-1.13-.661-1.137-1.752-.013-2.425l30.67-18.359" fill="#526EE1"/><path d="M316.51 25.578c1.124-.674 2.97-.684 4.1-.024l31.542 18.405c1.13.661 1.13 1.741 0 2.402l-31.093 18.144c-1.13.66-2.983.66-4.114 0l-31.093-18.144c-1.13-.66-1.137-1.751-.013-2.424l30.67-18.36" fill="#4864D6"/><path d="M320.061 26.93c.399-.268.399-.706 0-.974-.399-.27-1.047-.27-1.444 0-.396.268-.396.706 0 .975.397.267 1.045.267 1.444 0m2.72 1.376c.399-.269.399-.707 0-.975-.398-.268-1.048-.268-1.444 0-.396.268-.396.706 0 .975.396.268 1.046.268 1.444 0m2.72 1.378c.399-.269.399-.708 0-.975-.398-.269-1.048-.269-1.444 0-.396.267-.396.706 0 .975.396.267 1.046.267 1.444 0M306.08 35.32l.833-1.304 7.327 1.913-.894 1.399-4.82-1.294 2.994 4.148-.9 1.408-4.54-6.27m15.293 3.516l1.707 1.161-10.546 5.036-1.694-1.152 10.533-5.045m6.467 9.024l-.833 1.304-7.327-1.913.9-1.408 4.845 1.256-3.018-4.11.894-1.399 4.539 6.27" fill="#FFFFFE"/><g transform="translate(316 124)"><mask id="e" fill="#fff"><use xlink:href="#d"/></mask><path d="M.575 12.889L22.3.065a.44.44 0 0 1 .661.39v16.738a.98.98 0 0 1-.478.846L.756 30.863a.44.44 0 0 1-.662-.39V13.736c0-.35.184-.673.481-.846" mask="url(#e)"/></g><path d="M317.158 137.46l21.826-12.718a.442.442 0 0 1 .665.386v16.602a.972.972 0 0 1-.48.84l-21.83 12.718a.442.442 0 0 1-.663-.386V138.3c0-.347.184-.665.482-.84" fill="#030D36"/><path fill="#D3D9E5" d="M317.351 138.096l20.946-12.052v15.208l-20.946 12.052v-15.208"/><g transform="translate(316.676 151.26)"><mask id="g" fill="#fff"><use xlink:href="#f"/></mask><path d="M15.062 13.615c-.138 0-.275-.014-.406-.045a1.83 1.83 0 0 1-.415-.156l-.064-.034L.407 5.395.38 5.378a.64.64 0 0 1-.115-.094.538.538 0 0 1-.095-.119.926.926 0 0 1-.053-.105.435.435 0 0 1-.026-.08.383.383 0 0 1-.014-.053L.07 4.892c0-.008-.003-.014-.003-.02 0-.005-.003-.01-.003-.016l-.002-.017v-.015C.058 4.82.058 4.813.058 4.807c0-.005 0-.011-.003-.017v-.017c0-.005 0-.011-.003-.017v-.155c0-.006.003-.011.003-.017v-.017c.02-.264.1-.477.1-.477a.453.453 0 0 0 .225.429l13.797 7.999a1.762 1.762 0 0 0 1.775-.003L31.359 3.49l.394.068c.258.042.515.08.773.11l-16.574 9.706c-.034.02-.067.037-.104.054-.117.06-.24.105-.364.136a1.83 1.83 0 0 1-.392.051h-.03M36.448.85c-.16-.014-.322-.034-.487-.054l.517-.304c-.014.12-.022.239-.03.358" mask="url(#g)"/></g><path d="M340.364 141.956l13.921 7.986c.303.173.305.61.003.785l-21.674 12.558c-.553.32-1.237.32-1.79.003l-13.921-7.983a.457.457 0 0 1-.003-.788l21.677-12.555a1.783 1.783 0 0 1 1.787-.006" fill="#030D36"/><path fill="#50597E" d="M341.953 152.622l3.774 2.04.003.2-5.877 3.21-.485.002-3.773-2.042v-.2l5.873-3.21h.485m-2.763-9.418l-1.15.668v.12l.57.33h.15l1.145-.668v-.12l-.57-.33h-.146m-2.027 1.362l-1.148.668v.12l.57.332h.148l1.146-.668v-.12l-.57-.332h-.146m-2.028.681l-1.149.668v.12l.57.333h.15l1.148-.671v-.117l-.57-.333h-.15m-1.349 1.365l-1.149.667v.12l.57.33h.15l1.145-.668v-.12l-.57-.33h-.146m-2.027.681l-1.149.668v.12l.57.332.149-.003 1.146-.668v-.12l-.57-.33h-.146m-1.352 1.365l-1.148.668v.12l.57.33h.149l1.146-.668v-.12l-.57-.33h-.147m-2.027.681l-1.148.668v.12l.57.33h.149l1.146-.668v-.12l-.57-.33h-.147m-1.352 1.363l-1.149.668v.12l.57.33h.149l1.149-.668-.003-.12-.568-.33h-.148m-2.029.68l-1.146.671v.117l.57.333h.147l1.148-.67v-.118l-.57-.332h-.149m-2.025 1.364l-1.149.668v.12l.57.33h.149l1.149-.668v-.12l-.57-.33h-.15"/><path fill="#50597E" d="M321.62 153.426l-1.148.668v.12l.57.33h.149l1.148-.668v-.12l-.57-.33h-.149m19.64-8.436l-.779-.461h-.327l-.76.442-.005.28.757.466.332.006.779-.453.002-.28m-2.028.678l-.776-.458h-.327l-.76.442-.004.28.756.467.333.005.778-.452v-.284m-1.351 1.365l-.779-.458-.327-.003-.76.444-.002.281.754.466.333.006.78-.453v-.283m-2.025.683l-.778-.461h-.327l-.76.441-.005.281.757.47.332.002.778-.453.003-.28m-1.353 1.361l-.775-.458-.327-.003-.76.445-.005.278.757.469.332.005.778-.452v-.284m-2.027.683l-.778-.458-.327-.003-.76.442-.002.28.754.47.332.002.779-.452.002-.281m-1.351 1.363l-.776-.46h-.327l-.76.44-.005.282.757.469.333.002.778-.452v-.281m-2.027.681l-.778-.46h-.327l-.76.441-.003.281.754.469.333.003.778-.453.003-.28m-2.027 1.36l-.778-.458h-.327l-.76.441-.003.281.757.466.333.006.778-.453v-.283m-1.351.681l-.779-.458h-.327l-.76.442-.002.28.754.467.332.005.782-.452v-.284m-2.028 1.366l-.778-.46h-.327l-.76.44-.002.282.754.466.332.005.779-.452.003-.281m19.594-9.542l-.778-.458-.327-.003-.76.444-.002.278.754.47.332.005.778-.453.003-.283m-2.027 1.364l-.776-.46h-.327l-.76.441-.004.28.756.47.333.002.778-.452v-.28m-1.351.681l-.779-.461h-.327l-.76.441-.002.281.754.47.333.002.78-.453v-.28m-2.026 1.361l-.779-.458-.327-.003-.76.445-.002.28.754.467.333.005.778-.452.003-.284m-2.027.683l-.776-.46h-.327l-.76.44-.005.282.757.469.332.002.779-.452v-.281m-1.352 1.36l-.778-.458h-.327l-.76.442-.002.28.754.467.332.005.781-.452v-.284m-2.027.683l-.775-.458-.327-.003-.76.445-.005.28.757.467.332.005.778-.452v-.284m-1.351 1.362l-.778-.458h-.327l-.76.441-.003.281.754.466.333.006.778-.453.003-.283m-2.027.683l-.776-.458-.327-.003-.76.441-.005.281.757.47.333.005.778-.453v-.283m-2.027 1.364l-.778-.46h-.327l-.76.44-.003.282.754.468.333.003.78-.452v-.281m-1.35.68l-.779-.458-.327-.003-.76.445-.002.28.754.467.332.005.779-.453.003-.283m18.918-8.858l-.778-.46h-.327l-.76.441-.002.28.754.47.332.002.779-.452.002-.28m-1.35.681l-.778-.461h-.327l-.76.441-.005.281.757.466.332.006.779-.453.002-.28m-2.028 1.36l-.778-.458h-.327l-.76.441-.002.281.754.466.332.006.781-.453v-.283m-2.027.684l-.778-.46h-.327l-.76.44-.002.282.754.469.332.002.778-.452.003-.281m-1.35 1.36l-.778-.458h-.327l-.76.442-.005.28.757.467.332.005.778-.452.003-.284m-1.353.683l-.778-.458-.327-.003-.76.445-.002.278.754.469.332.005.781-.452v-.284m-2.025 1.364l-.779-.46h-.327l-.76.441-.005.281.757.469.333.003.778-.453.003-.28m-2.029.68l-.778-.461h-.327l-.76.441-.002.281.754.47.332.005.779-.453.002-.283m-1.351 1.364l-.776-.46h-.327l-.76.44-.005.282.757.466.333.005.778-.452v-.281m-2.027.681l-.778-.46h-.327l-.76.441-.003.281.754.466.333.006.78-.453v-.28m-2.026 1.362l-.778-.46h-.327l-.76.441-.003.281.754.469.333.003.778-.453.003-.28m19.595-9.544l-.779-.458h-.327l-.76.441-.002.281.754.466.332.006.779-.453.003-.283m-2.026 1.364l-.779-.458-.327-.003-.759.445-.005.278.756.469.333.005.778-.452.003-.284m-1.353.682l-.778-.458-.327-.003-.76.442-.002.28.754.47.332.005.781-.453v-.283m-2.027 1.361l-.778-.458h-.327l-.76.442-.002.28.754.467.332.005.778-.452.003-.284m-1.609.653l-.832-.51-.349-.004-4.222 2.569-.003.313.805.523.355.003 4.243-2.578.003-.316m-5.148 2.757l-.778-.46h-.327l-.76.441-.002.281.754.466.332.006.779-.453.002-.28m-2.027 1.361l-.775-.458-.327-.003-.76.445-.005.278.757.469.332.005.778-.453v-.283m-1.351 1.363l-.778-.458-.327-.003-.76.442-.003.28.757.47.33.005.781-.453v-.283m-2.027.68l-.778-.458h-.327l-.76.442-.003.28.754.467.333.005.778-.452.003-.284"/><path fill="#202D60" d="M338.297 126.222l-.305-.178-20.333 11.718-.308.527v14.837l.308.178 20.333-11.718.305-.53v-14.834"/><path fill="#3D59C8" d="M322.757 136.267l-3.379 2.136v1.271l3.379-2.14v-1.267m9.459-3.407l-12.838 7.441v.736l12.838-7.442v-.736"/><g transform="translate(318.703 136.948)"><mask id="j" fill="#fff"><use xlink:href="#h"/></mask><path fill="url(#i)" mask="url(#j)" d="M.12 14.748v-2.933l2.243-3.234 1.172.875 2.371-4.774.863 1.537h1.256l2.03-3.047 1.187-.741h2.455L15.26.122l1.78.815 1.88-.085v3.007L.12 14.749"/></g><path d="M347.705 153.285a.538.538 0 0 1-.292.727l-2.213.946a.598.598 0 0 1-.77-.272.54.54 0 0 1 .29-.728l2.214-.946a.598.598 0 0 1 .77.273" fill="#EBACAC"/><path d="M350.063 155.042a14.75 14.75 0 0 1-1.066-.147l-3.89-.693c-.917-.165-1.536-1.081-1.38-2.05.155-.973 1.01-1.625 1.938-1.463l3.89.693c4.73.843 6.959 1.894 9.222-2.588.436-.867 1.455-1.196 2.277-.732.822.465 1.13 1.543.694 2.41-2.774 5.498-5.892 5.143-11.685 4.57" fill="#EBACAC"/><path d="M354.555 204.873l.882-.262a4.771 4.771 0 0 1 4.192.743l.916-.7.937 2.221 4.518-.395-.985 4.129-.51.554-1.857.56a4.427 4.427 0 0 1-4.386-1.094l-4.117-4.037c-.553-.542-.326-1.5.41-1.719" fill="#42425A"/><path d="M354.301 205.521l.85-.243a4.741 4.741 0 0 1 4.037.689l.883-.648.902 2.058 4.351-.366-.49 1.987a2.553 2.553 0 0 1-1.775 1.834l-.762.224a4.383 4.383 0 0 1-4.224-1.017l-3.965-3.739-.27-.478.463-.3" fill="#FFFFFE"/><path d="M360.462 206.755c-.897-.87-.658-1.868.535-2.218 1.193-.348 2.896.074 3.787.944.894.868.652 1.867-.532 2.218-1.188.351-2.891-.074-3.79-.944" fill="#42425A"/><path d="M363.296 207.14c.748 0 1.353-.677 1.353-1.511v-5.833c0-.837-.605-1.515-1.353-1.515-.745 0-1.35.678-1.35 1.515v5.833c0 .834.605 1.512 1.35 1.512" fill="#EBACAC"/><path d="M362.945 204.897h.108c1.314-.06 2.328.531 2.267-.743l-.642-14.701.645-22.187c.038-1.277-.997-2.339-2.31-2.376-1.306-.045-3.053.97-3.091 2.243l-.003 22.36.003.084.648 14.786c.058 1.238 1.11.534 2.375.534" fill="#FFFFFE"/><path d="M348.234 210.826l.764-.457a4.474 4.474 0 0 1 4.065-.3l.7-.884 1.362 1.883 4.118-1.457v4.152a.754.754 0 0 1-.354.648l-1.603.976a4.155 4.155 0 0 1-4.324.012l-4.728-2.845c-.636-.383-.636-1.345 0-1.728" fill="#42425A"/><path d="M348.134 210.882l.77-.473a4.42 4.42 0 0 1 4.103-.31l.706-.914 1.374 1.948 4.156-1.507v2.23c0 .989-.49 1.9-1.285 2.397l-.69.432a4.106 4.106 0 0 1-4.364.012l-4.77-2.942-.377-.435.377-.438" fill="#FFFFFE"/><path d="M354.63 210.733c-1.056-.663-1.056-1.749 0-2.412 1.055-.665 2.778-.665 3.825 0 1.05.663 1.05 1.749 0 2.412-1.047.662-2.77.662-3.825 0" fill="#42425A"/><path d="M356.542 210.548c.745 0 1.35-.677 1.35-1.512v-5.835c0-.835-.605-1.512-1.35-1.512-.748 0-1.353.677-1.353 1.512v5.835c0 .835.605 1.512 1.353 1.512" fill="#EBACAC"/><path d="M356.659 209.142l.188-.009c1.243-.105 2.17.032 2.067-1.246l-1.219-16.95 4.926-21.95c.077-1.277-4.572-.377-5.819-.46-1.243-.079-2.319.892-2.396 2.172l-1.244 20.284 1.247 17.285c.096 1.212 1.086.874 2.25.874" fill="#FFFFFE"/><path d="M361.176 142.089l-2.936 1.748c-3.143 1.874-5.078 5.334-5.078 9.078v20.815c2.876 2.075 10.617-.818 12.162-4.072l-.46-4.556a32.777 32.777 0 0 1-.26-5.456l.544-15.091c.077-2.147-2.167-3.54-3.972-2.466" fill="#FFC400"/><path fill="#EBACAC" d="M339.91 159.663l-.77.017-1.089-1.055-.016-.777.77-.017 1.09 1.055.016.777"/><path d="M353.162 161.481v-5.911c.527-.84.95-1.753 1.23-2.732l1.4-2.315c.272-.94.747-1.99 1.626-1.99.104 0 .211.014.324.045 1.091.293 1.728 1.381 1.427 2.43l-.83 2.888c-.886 3.066-2.735 5.683-5.177 7.585" fill="#846708"/><path d="M359.92 146.489c-.673 0-1.219-.598-1.219-1.335v-6.161h2.435v6.161c0 .737-.545 1.335-1.216 1.335" fill="#EBACAC"/><path d="M362.622 142.4c-4.105 0-7.433-3.418-7.433-7.635v-3.269h7.433V142.4" fill="#EBACAC"/><path d="M365.27 137.432a17.586 17.586 0 0 1-.015-.866c.017-1.12.11-2.244-.054-3.36-.207-1.396-.91-2.828-2.19-3.41-.765-.347-1.638-.347-2.479-.344l-5.134.034c-.748.006-1.575.029-2.218.467-1.21.823-.615 2.393.11 3.33.391.503.887.973 1.462 1.252.558.265 1.502.043 1.862.61.498.78-.445 3.275.64 3.577.839.236.728-.638.861-1.125.082-.305.312-.613.626-.627.397-.017.658.419.731.809.148.772-.079 1.56-.175 2.34-.097.781-.02 1.672.57 2.19.209.189.47.308.733.405.776.285 2.196.63 2.91.063 1.014-.8 1.663-1.62 1.782-2.95.07-.798.008-1.598-.023-2.395" fill="#030D36"/><path d="M344.436 162.163c-.362 0-.723-.014-1.085-.04l-6.14-.31a1.717 1.717 0 0 1-1.614-1.805c.047-.95.857-1.689 1.782-1.635l6.182.312c4.88.358 9.38-2.438 11.253-6.966l1.163-2.81a1.69 1.69 0 0 1 2.222-.923 1.73 1.73 0 0 1 .911 2.254l-1.16 2.81c-2.298 5.556-7.643 9.113-13.514 9.113" fill="#EBACAC"/><path d="M352.486 154.947a11.34 11.34 0 0 0 1.807-3.005l1.158-2.844c.42-1.033 1.572-1.521 2.582-1.088 1.004.433 1.478 1.625 1.057 2.658l-1.158 2.841a15.392 15.392 0 0 1-2.286 3.884l-3.16-2.446" fill="#FFC400"/><path d="M358.924 140.941c-.247-.288-.568-.55-.66-.908l.015-.674.095-.574-.006-.587-.488-.449-.693-.12-.08.02-.024.076c0 .296.12.582.036.875-.095.33-.75.797-1.047.389l-.089-.147-.517-.23-.217.04-.06.171.066.182c.14.335.157.742.148 1.096-.02.813.868 1.626 1.58 2.014.57.31 1.331.408 1.893.085l.28-.245c.205-.315.017-.726-.232-1.014" fill="#030D36"/><g><path d="M141.12 124.473c1.074-.622 2.837-.632 3.92-.022l30.15 17.03c1.08.61 1.08 1.61 0 2.222l-29.721 16.787c-1.082.61-2.852.61-3.934 0l-29.72-16.787c-1.081-.612-1.088-1.62-.013-2.243l29.317-16.987" fill="#526EE1"/><path d="M141.12 126.526c1.074-.623 2.837-.632 3.92-.022l30.15 17.029c1.08.611 1.08 1.61 0 2.222l-29.721 16.787c-1.082.61-2.852.61-3.934 0l-29.72-16.787c-1.081-.611-1.088-1.62-.013-2.243l29.317-16.986" fill="#4864D6"/><path d="M175.193 143.05l-29.725 16.993c-1.08.618-2.852.618-3.933 0L111.81 143.05a1.787 1.787 0 0 1-.633-.576c-.37.574-.16 1.246.633 1.7l29.725 16.994c1.081.618 2.852.618 3.933 0l29.725-16.993c.794-.455 1-1.12.627-1.688-.134.206-.34.399-.627.563"/><path fill="#FFFFFE" d="M141.772 131.526l-1.657 1 8.456 5.158 1.7-1.025-8.499-5.133m-3.386 15.053l-1.657 1 8.457 5.158 1.7-1.027-8.5-5.131m8.126-9.579l-1.658 1 8.457 5.158 1.7-1.027-8.5-5.131m-10.191-2.053l-1.622.945 19.325 11.371 1.665-.97-19.368-11.346m-14.887 9.579l-1.63.919 21.346 12.081 1.674-.943-21.39-12.057"/><path fill="url(#k)" d="M30.66 10.947l-1.545.889 3.153 1.848 1.586-.912-3.194-1.825" transform="translate(111 124)"/><path fill="#FFFFFE" d="M139.63 143.842l-1.547.89 3.154 1.847 1.586-.913-3.193-1.824m16.926 2.737l-1.546.889 3.154 1.848 1.586-.913-3.194-1.824m-13.482-4.105l-1.605.992 7.155 4.481 1.647-1.017-7.197-4.456"/><path fill="url(#l)" d="M27.952 16.421l-1.546.89 3.152 1.847 1.588-.913-3.194-1.824" transform="translate(111 124)"/><path fill="url(#m)" d="M28.63 26.684l-1.547.89 3.154 1.847 1.586-.913-3.193-1.824" transform="translate(111 124)"/><path fill="#FFFFFE" d="M130.886 145.895l-1.605.992 7.154 4.481 1.648-1.017-7.197-4.456m-6.816-3.421l-1.56.798 5.17 2.623 1.601-.82-5.21-2.601m10.819-4.79l-1.546.89 3.153 1.847 1.586-.913-3.193-1.824m16.993 0l-1.612.89 13.24 7.32 1.656-.911-13.284-7.299m-21.006.684l-1.596 1.012 7.84 5.146 1.64-1.038-7.884-5.12m6.163-9.578l-1.665.84 2.354 1.212 1.708-.862-2.397-1.19m-3.386 1.368l-1.664.84 2.354 1.213 1.708-.863-2.398-1.19m-2.708 2.052l-1.665.841 2.355 1.212 1.708-.862-2.398-1.19m-2.709 2.052l-1.664.84 2.355 1.213 1.707-.863-2.398-1.19m-3.386 1.369l-1.663.84 2.354 1.212 1.708-.861-2.399-1.191m-2.707 2.052l-1.665.84 2.354 1.213 1.709-.862-2.398-1.19m-3.386 2.052l-1.664.84 2.355 1.212 1.707-.862-2.398-1.19m-3.385 1.368l-1.665.84 2.355 1.213 1.708-.862-2.398-1.19"/></g><g><path fill="url(#n)" d="M49.59 30.652l6.073-1.362L56 90.975 50.084 94z" transform="translate(390 64)"/><path d="M15.408 72.203l1.235-.712c-.887-.29-1.756-.67-2.59-1.143-5.611-3.17-9.096-9.092-9.096-15.461L0 2.043l10.59 6.36 5.628-1.51v47.994c0 2.405 1.316 4.642 3.435 5.837.49.278.959.373 1.372.373a2.88 2.88 0 0 0 1.408-.379c.416-.238 1.387-.944 1.387-2.372l-4.955-45.404 10.587 6.28 5.632-1v39.773c0 4.523-1.793 8.893-5.712 11.286-.407.25-.838.48-1.294.685-.87.391-1.896.727-2.988 1.051-.497.15-1 .284-1.502.404-.24.055-.475.11-.714.158a31.37 31.37 0 0 1-.742.147 31.355 31.355 0 0 1-1.564.242c-.276.033-.555.064-.831.091a27.937 27.937 0 0 1-2.746.14 2.397 2.397 0 0 1-.171.004h-1.412z" fill="url(#o)" transform="translate(390 64)"/><path fill="url(#p)" d="M49.928 94l-.136-.077h-.006v-.003h-.004l-.003-.003h-.003l-.003-.003-11.303-6.319-.012-.006V24.522l11.318 6.328.152 63.15" transform="translate(390 64)"/><path fill="url(#q)" d="M49.655 30.993l-11.197-6.471 5.945-1.363 11.26 6.13-6.008 1.363z" transform="translate(390 64)"/><path fill="url(#r)" d="M29.462 19.072l-11.245-6.51 5.622-.982 11.245 6.51-5.622.982" transform="translate(390 64)"/><path fill="url(#s)" d="M10.795 8.174L0 2.044 4.949 0l11.244 6.812-5.398 1.702z" transform="translate(390 64)"/><path d="M15.848 72.203c-2.364 0-4.727-.62-6.886-1.855A17.863 17.863 0 0 1 0 54.887V2.043l11.1 6.379v46.465a6.744 6.744 0 0 0 3.381 5.837c1.238.71 2.33.232 2.74-.006.412-.238 1.366-.944 1.366-2.372V12.593l11.1 6.653v39.1c0 4.994-2.58 9.468-6.901 11.971a13.86 13.86 0 0 1-6.938 1.886" fill="url(#t)" transform="translate(390 64)"/></g><circle fill="#F1F1F1" fill-rule="nonzero" cx="42" cy="305" r="6"/></g></svg>