<?xml version="1.0" encoding="UTF-8"?>
<svg width="492px" height="311px" viewBox="0 0 492 311" version="1.1" xmlns="http://www.w3.org/2000/svg" xmlns:xlink="http://www.w3.org/1999/xlink">
    <!-- Generator: sketchtool 53.1 (72631) - https://sketchapp.com -->
    <title>DF765D0B-7C33-4D8A-8D51-3BCC967651C5</title>
    <desc>Created with sketchtool.</desc>
    <defs>
        <linearGradient x1="76.2027573%" y1="16.7167468%" x2="23.7972427%" y2="100%" id="linearGradient-1">
            <stop stop-color="#FFCE00" offset="0%"></stop>
            <stop stop-color="#FBBB18" offset="100%"></stop>
        </linearGradient>
        <linearGradient x1="30.244898%" y1="100%" x2="69.755102%" y2="16.7167468%" id="linearGradient-2">
            <stop stop-color="#FFCE00" offset="0%"></stop>
            <stop stop-color="#CB9203" offset="100%"></stop>
        </linearGradient>
        <linearGradient x1="38.7449775%" y1="100%" x2="61.2550225%" y2="16.7167468%" id="linearGradient-3">
            <stop stop-color="#FFCE00" offset="0%"></stop>
            <stop stop-color="#FBBB18" offset="100%"></stop>
        </linearGradient>
        <path d="M0.575,12.8885185 L22.3,0.065308642 C22.5944444,-0.107901235 22.9611111,0.107901235 22.9611111,0.454320988 L22.9611111,17.1932099 C22.9611111,17.5424691 22.7777778,17.8661728 22.4833333,18.0393827 L0.755555556,30.8625926 C0.461111111,31.0358025 0.0944444444,30.82 0.0944444444,30.4735802 L0.0944444444,13.7346914 C0.0944444444,13.3854321 0.277777778,13.0617284 0.575,12.8885185" id="path-4"></path>
        <path d="M15.061583,13.6154321 C14.9244208,13.6154321 14.7872587,13.6012346 14.655695,13.57 C14.5129344,13.5359259 14.372973,13.4819753 14.2414093,13.4138272 C14.2190154,13.4024691 14.1994208,13.3911111 14.177027,13.3797531 L0.407625483,5.39506173 L0.379633205,5.37802469 C0.33484556,5.34962963 0.298455598,5.31839506 0.264864865,5.28432099 C0.225675676,5.24740741 0.19488417,5.20765432 0.16969112,5.16506173 C0.150096525,5.13098765 0.130501931,5.09407407 0.116505792,5.06 C0.10530888,5.03444444 0.0969111969,5.00604938 0.0913127413,4.98049383 C0.0857142857,4.96345679 0.0801158301,4.94358025 0.0773166023,4.92654321 C0.0745173745,4.91518519 0.0717181467,4.90382716 0.0689189189,4.89246914 C0.0689189189,4.88395062 0.0661196911,4.8782716 0.0661196911,4.87259259 C0.0661196911,4.86691358 0.0633204633,4.86123457 0.0633204633,4.85555556 C0.0633204633,4.84987654 0.0605212355,4.84419753 0.0605212355,4.83851852 C0.0605212355,4.83283951 0.0605212355,4.83 0.0605212355,4.82432099 C0.0577220077,4.81864198 0.0577220077,4.81296296 0.0577220077,4.80728395 C0.0577220077,4.80160494 0.0577220077,4.79592593 0.0549227799,4.79024691 C0.0549227799,4.7845679 0.0549227799,4.77888889 0.0549227799,4.77320988 C0.0549227799,4.76753086 0.0549227799,4.76185185 0.0521235521,4.75617284 C0.0521235521,4.75049383 0.0521235521,4.74481481 0.0521235521,4.7391358 C0.0521235521,4.73345679 0.0521235521,4.72777778 0.0521235521,4.72209877 C0.0521235521,4.71641975 0.0521235521,4.71074074 0.0521235521,4.70506173 C0.0521235521,4.69938272 0.0521235521,4.6937037 0.0521235521,4.68802469 C0.0521235521,4.68234568 0.0521235521,4.67666667 0.0521235521,4.67098765 C0.0521235521,4.66530864 0.0521235521,4.65962963 0.0521235521,4.65395062 C0.0521235521,4.6482716 0.0521235521,4.64259259 0.0521235521,4.63691358 C0.0521235521,4.63123457 0.0521235521,4.62555556 0.0521235521,4.61987654 C0.0521235521,4.61419753 0.0521235521,4.60567901 0.0521235521,4.6 C0.0521235521,4.59432099 0.0549227799,4.58864198 0.0549227799,4.58296296 C0.0549227799,4.57728395 0.0549227799,4.57160494 0.0549227799,4.56592593 C0.0745173745,4.30185185 0.155694981,4.08888889 0.155694981,4.08888889 C0.144498069,4.25358025 0.217277992,4.42395062 0.379633205,4.51765432 L14.177027,12.5165432 C14.4513514,12.6755556 14.7564672,12.7550617 15.061583,12.7550617 C15.3666988,12.7550617 15.6746139,12.6755556 15.9517375,12.5137037 L31.3586873,3.48975309 L31.7533784,3.55790123 C32.0109073,3.60049383 32.2684363,3.63740741 32.5259653,3.66864198 L15.9517375,13.3740741 C15.9181467,13.3939506 15.884556,13.4109877 15.848166,13.4280247 C15.7305985,13.4876543 15.6074324,13.5330864 15.4842664,13.564321 C15.3555019,13.5955556 15.2239382,13.6125926 15.0923745,13.6154321 C15.0811776,13.6154321 15.0699807,13.6154321 15.061583,13.6154321 M36.4476834,0.849012346 C36.2881274,0.834814815 36.1257722,0.814938272 35.9606178,0.795061728 L36.4784749,0.491234568 C36.4644788,0.610493827 36.4560811,0.729753086 36.4476834,0.849012346" id="path-6"></path>
        <polyline id="path-8" points="0.120366795 14.7483951 0.120366795 11.8151852 2.36254826 8.58098765 3.53542471 9.45555556 5.90637066 4.68234568 6.76853282 6.21851852 8.0253861 6.21851852 10.0548263 3.1717284 11.2416988 2.43061728 13.6966216 2.43061728 15.26139 0.122098765 17.0416988 0.937037037 18.9199807 0.851851852 18.9199807 3.85888889 0.120366795 14.7483951"></polyline>
        <linearGradient x1="0%" y1="50%" x2="100%" y2="24.9762986%" id="linearGradient-10">
            <stop stop-color="#5EB3F2" offset="0%"></stop>
            <stop stop-color="#A262EA" offset="100%"></stop>
        </linearGradient>
        <linearGradient x1="-174.462231%" y1="-27.968283%" x2="15.0825413%" y2="37.7551333%" id="linearGradient-11">
            <stop stop-color="#C1669B" offset="0%"></stop>
            <stop stop-color="#F7C061" offset="100%"></stop>
        </linearGradient>
        <linearGradient x1="-177.838919%" y1="-29.1742853%" x2="11.7058529%" y2="36.5774844%" id="linearGradient-12">
            <stop stop-color="#C1669B" offset="0%"></stop>
            <stop stop-color="#F7C061" offset="100%"></stop>
        </linearGradient>
        <linearGradient x1="-289.41971%" y1="-67.8839513%" x2="-99.869935%" y2="-2.13074308%" id="linearGradient-13">
            <stop stop-color="#C1669B" offset="0%"></stop>
            <stop stop-color="#F7C061" offset="100%"></stop>
        </linearGradient>
        <linearGradient x1="49.5094398%" y1="100%" x2="50.4905602%" y2="16.7167468%" id="linearGradient-14">
            <stop stop-color="#A99027" offset="0%"></stop>
            <stop stop-color="#FBBB18" offset="100%"></stop>
        </linearGradient>
        <linearGradient x1="37.4967021%" y1="100%" x2="62.5032979%" y2="16.7167468%" id="linearGradient-15">
            <stop stop-color="#B3951A" offset="0%"></stop>
            <stop stop-color="#FBBB18" offset="100%"></stop>
        </linearGradient>
        <linearGradient x1="48.6373327%" y1="100%" x2="51.3626673%" y2="16.7167468%" id="linearGradient-16">
            <stop stop-color="#FAD53A" offset="0%"></stop>
            <stop stop-color="#FBBB18" offset="100%"></stop>
        </linearGradient>
        <linearGradient x1="0%" y1="60.3648492%" x2="100%" y2="43.100482%" id="linearGradient-17">
            <stop stop-color="#FAD53A" offset="0%"></stop>
            <stop stop-color="#FBBB18" offset="100%"></stop>
        </linearGradient>
        <linearGradient x1="0%" y1="59.8662706%" x2="100%" y2="43.4323684%" id="linearGradient-18">
            <stop stop-color="#FAD53A" offset="0%"></stop>
            <stop stop-color="#FBBB18" offset="100%"></stop>
        </linearGradient>
        <linearGradient x1="0%" y1="63.8243656%" x2="100%" y2="40.7976028%" id="linearGradient-19">
            <stop stop-color="#FAD53A" offset="0%"></stop>
            <stop stop-color="#FBBB18" offset="100%"></stop>
        </linearGradient>
        <linearGradient x1="58.9520653%" y1="16.7167468%" x2="41.0479347%" y2="100%" id="linearGradient-20">
            <stop stop-color="#FAD53A" offset="0%"></stop>
            <stop stop-color="#FBBB18" offset="100%"></stop>
        </linearGradient>
    </defs>
    <g id="Hub" stroke="none" stroke-width="1" fill="none" fill-rule="evenodd">
        <g id="home" transform="translate(-736.000000, -248.000000)">
            <g id="Group-13" transform="translate(736.000000, 248.000000)">
                <path d="M134.519505,279.975555 C71.9889907,250.71058 18.6070936,199.066185 2.52662716,148.851945 C-2.33722037,133.663679 1.05731515,107.119875 2.52662716,95.8652484 C4.90247079,77.6667765 16.0166701,93.8274677 38.3404153,82.818218 C120.113827,42.4905808 148.501487,61.5341873 225.190541,42.4905808 C290.246214,26.3358031 471.136601,12.6076914 490.147026,56.6816072 C493.546507,64.5629905 492.68162,101.616941 484.069061,111.383628 C452.846881,146.789741 469.727112,171.068098 473.813614,201.838642 C477.158127,227.022151 471.534999,262.079706 427.293739,264.852691 C328.996167,271.013858 246.546374,332.405373 134.519505,279.975555 Z" id="Path-4" fill="#E3E8FF" fill-rule="nonzero"></path>
                <path d="M134.442051,253.968779 C22.6105604,201.522062 -43.2000966,97.0885305 38.4307,56.7478952 C120.061497,16.4072599 148.399649,35.4570043 224.954956,16.4072599 C301.510262,-2.6424846 540.05829,20.9182521 483.381985,85.3225119 C426.705681,149.726772 524.83182,232.677888 426.705681,238.841041 C328.579542,245.004193 246.273543,306.415496 134.442051,253.968779 Z" id="Path-4" fill="#FFFFFF" fill-rule="nonzero"></path>
                <g id="Group-2" transform="translate(61.000000, 1.000000)">
                    <path d="M34.8753686,84 C34.6820726,84 34.4887766,83.9947587 34.2928326,83.9816555 L33.3184089,83.9213808 C32.5452248,83.8742093 31.7905759,83.651455 31.1127159,83.2740829 L23.4232413,78.9788551 L20.7118012,77.4667462 L5.18192213,68.79243 C4.75825961,68.5565725 4.34254077,68.2656815 3.94800506,67.9328603 C3.87651201,67.8725856 3.80501896,67.8096903 3.73352591,67.7467949 C1.58343865,65.8258663 0,62.6679959 0,59.9975644 L0,29.9519346 C0,29.0111251 0.349521574,28.1017633 0.985015346,27.3994319 C3.46079316,24.6634845 6.92688211,23.2195122 10.443281,23.2195122 C12.5695372,23.2195122 14.7169766,23.7488813 16.6737678,24.8416879 L38.8180779,37.2058643 C41.6672083,38.8018336 44,42.7616196 44,46.0033505 L44,74.9587943 C44,79.9799393 39.8772342,84 34.8753686,84" id="Fill-9140" fill="url(#linearGradient-1)"></path>
                    <path d="M0.676923077,30.9908231 C0.676923077,27.7408773 2.97950698,26.3904551 5.79174339,27.9904689 L30.7621028,42.1909196 C33.5743392,43.7935607 35.8769231,47.7607541 35.8769231,51.0107 L35.8769231,79.6454294 C35.8769231,82.8953753 33.5743392,84.2431701 30.7621028,82.6431564 L5.79174339,68.4427056 C2.97950698,66.8426919 0.676923077,62.8728711 0.676923077,59.6229252 L0.676923077,30.9908231" id="Fill-9143" fill="url(#linearGradient-2)"></path>
                    <path d="M18.2769231,44.4624089 C15.2989914,42.7168825 12.8615385,44.1020075 12.8615385,47.5419585 C12.8615385,50.9819096 15.2989914,55.330933 18.2769231,57.2109375 C21.2548547,59.0882525 23.6923077,57.7031276 23.6923077,54.1313879 C23.6923077,50.5596482 21.2548547,46.2079353 18.2769231,44.4624089" id="Fill-9146" fill="#030D36"></path>
                    <path d="M33.8460656,38.2280263 L33.8460656,25.1444835 C33.8460656,12.5017217 31.078966,4.4805624 25.6206854,1.30271581 C22.7881389,-0.346913861 19.6911864,-0.434014308 17.11781,1.06516913 C15.0208878,2.28457538 11.5076923,5.66565635 11.5076923,14.6211659 L11.5076923,27.4513256 L11.5731393,27.4513256 C11.5914645,27.7786121 11.8087486,28.1006198 12.2354631,28.3513635 C13.1307781,28.8713268 14.5941733,28.8713268 15.4894884,28.3513635 C15.9162029,28.1006198 16.1334869,27.7786121 16.15443,27.4513256 L16.2172591,27.4513256 L16.2172591,14.6211659 C16.2172591,9.89398712 17.4345735,6.36245992 19.4739023,5.17736597 C20.8692326,4.36442847 22.3064489,4.85799767 23.2645931,5.41491264 C27.052666,7.61881788 29.1364988,14.6264447 29.1364988,25.1444835 L29.1364988,38.1989928 C29.1181736,38.563231 29.3433113,38.9327481 29.8197656,39.2098859 C30.7386416,39.7430462 32.2413049,39.7430462 33.1601809,39.2098859 C33.6235458,38.9406663 33.8513014,38.5843463 33.8460656,38.2280263" id="Fill-9147" fill="#030D36"></path>
                    <polyline id="Fill-9148" fill="#030D36" points="14.8923077 47.804878 14.8923077 62.5550614 21.6615385 66.2439024 21.6615385 51.4911286 14.8923077 47.804878"></polyline>
                </g>
                <g id="Group" transform="translate(66.000000, 0.000000)">
                    <g id="Group-5" transform="translate(174.185567, 0.000000)">
                        <polyline id="Fill-7786" fill="#CCD6FF" points="0 44.919403 77.9072165 0 155.814433 44.919403 77.9072165 89.838806 0 44.919403"></polyline>
                        <polyline id="Fill-7787" fill="#E3E8FF" points="0.680412371 44.919403 0.680412371 76.6580652 78.2474227 121.826866 78.2474227 90.0882034 0.680412371 44.919403"></polyline>
                        <polyline id="Fill-7788" fill="#909ED9" points="77.5670103 121.826866 155.134021 76.6580652 155.134021 44.919403 77.5670103 90.0882034 77.5670103 121.826866"></polyline>
                    </g>
                    <polyline id="Fill-7786" fill="#CCD6FF" points="0 145.647761 77.9072165 100.728358 155.814433 145.647761 77.9072165 190.567164 0 145.647761"></polyline>
                    <polyline id="Fill-7787" fill="#E3E8FF" points="0.680412371 145.647761 0.680412371 177.386423 78.2474227 222.555224 78.2474227 190.816562 0.680412371 145.647761"></polyline>
                    <polyline id="Fill-7788" fill="#909ED9" points="77.5670103 222.555224 155.134021 177.386423 155.134021 145.647761 77.5670103 190.816562 77.5670103 222.555224"></polyline>
                    <polyline id="Fill-7786" fill="#CCD6FF" points="87.0927835 63.9761194 165 19.0567164 242.907216 63.9761194 165 108.895522 87.0927835 63.9761194"></polyline>
                    <polyline id="Fill-7787" fill="#E3E8FF" points="87.7731959 63.9761194 87.7731959 95.7147817 165.340206 140.883582 165.340206 109.14492 87.7731959 63.9761194"></polyline>
                    <polygon id="Fill-7788" fill="#909ED9" points="242.226804 95.7147817 242.226804 63.9761194 164.659794 109.14492 164.659794 140.883582"></polygon>
                    <polyline id="Fill-7786" fill="#CCD6FF" points="168.742268 151.092537 246.649485 106.173134 324.556701 151.092537 246.649485 196.01194 168.742268 151.092537"></polyline>
                    <polyline id="Fill-7787" fill="#E3E8FF" points="169.42268 151.092537 169.42268 182.8312 246.989691 228 246.989691 196.261338 169.42268 151.092537"></polyline>
                    <polyline id="Fill-7788" fill="#909ED9" points="246.309278 228 323.876289 182.8312 323.876289 151.092537 246.309278 196.261338 246.309278 228"></polyline>
                    <path d="M124.217586,136.119403 C123.63087,136.119403 123.154639,135.632196 123.154639,135.031956 L123.154639,119.055451 C123.154639,111.517377 127.132118,104.513284 133.532658,100.779326 L140.61897,96.1060326 C141.125679,95.8098105 141.777163,95.9930005 142.066711,96.5113891 C142.356259,97.0336755 142.181006,97.6962776 141.670487,97.9963973 L134.584175,102.669691 C128.842738,106.01778 125.280533,112.296909 125.280533,119.055451 L125.280533,135.031956 C125.280533,135.632196 124.804302,136.119403 124.217586,136.119403" id="Fill-8117" fill="url(#linearGradient-3)"></path>
                    <path d="M139.866911,145.647761 C139.280283,145.647761 138.804124,145.164435 138.804124,144.564176 L138.804124,128.587141 C138.804124,121.044921 142.781005,114.044493 149.180583,110.310411 L156.265831,105.636963 C156.772464,105.336833 157.42385,105.520029 157.717164,106.042333 C158.006668,106.564637 157.827633,107.227261 157.31719,107.523493 L150.235752,112.200839 C144.495177,115.549039 140.929698,121.824478 140.929698,128.587141 L140.929698,144.564176 C140.929698,145.164435 140.453539,145.647761 139.866911,145.647761" id="Fill-8120" fill="url(#linearGradient-3)"></path>
                    <path d="M189.537174,136.119403 C188.950457,136.119403 188.474227,135.632196 188.474227,135.031956 L188.474227,119.055451 C188.474227,111.517377 192.451705,104.513284 198.852245,100.779326 L205.938557,96.1060326 C206.445267,95.8098105 207.09675,95.9930005 207.386299,96.5113891 C207.675847,97.0336755 207.500594,97.6962776 206.990075,97.9963973 L199.903763,102.669691 C194.162326,106.01778 190.60012,112.296909 190.60012,119.055451 L190.60012,135.031956 C190.60012,135.632196 190.12389,136.119403 189.537174,136.119403" id="Fill-8117" fill="url(#linearGradient-3)" transform="translate(198.000000, 116.041791) scale(-1, 1) translate(-198.000000, -116.041791) "></path>
                    <path d="M205.186498,126.591045 C204.59987,126.591045 204.123711,126.107719 204.123711,125.50746 L204.123711,109.530425 C204.123711,101.988204 208.100592,94.9877763 214.500171,91.253695 L221.585418,86.5802467 C222.092052,86.280117 222.743437,86.4633131 223.036751,86.9856167 C223.326256,87.5079204 223.14722,88.1705444 222.636778,88.4667763 L215.555339,93.1441224 C209.814765,96.4923227 206.249286,102.767762 206.249286,109.530425 L206.249286,125.50746 C206.249286,126.107719 205.773127,126.591045 205.186498,126.591045" id="Fill-8120" fill="url(#linearGradient-3)" transform="translate(213.649485, 106.513433) scale(-1, 1) translate(-213.649485, -106.513433) "></path>
                </g>
                <g id="Group-4" transform="translate(285.000000, 23.000000)">
                    <path d="M31.5091675,0.512048388 C32.6337224,-0.162040569 34.4798126,-0.171238664 35.6108678,0.488396144 L67.1517086,18.8937841 C68.2827638,19.5547329 68.2827638,20.6348521 67.1517086,21.2958009 L36.0593898,39.4397001 C34.9283345,40.0993349 33.075744,40.0993349 31.9446888,39.4397001 L0.852369942,21.2958009 C-0.278685308,20.6348521 -0.285185626,19.5442208 0.839369307,18.8714459 L31.5091675,0.512048388" id="Fill-153" fill="#526EE1"></path>
                    <path d="M31.5091675,2.57762216 C32.6337224,1.9035332 34.4798126,1.89433511 35.6108678,2.55396991 L67.1517086,20.9593579 C68.2827638,21.6203067 68.2827638,22.7004258 67.1517086,23.3613746 L36.0593898,41.5052739 C34.9283345,42.1649087 33.075744,42.1649087 31.9446888,41.5052739 L0.852369942,23.3613746 C-0.278685308,22.7004258 -0.285185626,21.6097946 0.839369307,20.9370196 L31.5091675,2.57762216" id="Fill-153" fill="#4864D6"></path>
                    <path d="M35.0614842,3.93062577 C35.4595053,3.66193325 35.4595053,3.22431028 35.0614842,2.95561775 C34.6623291,2.68692523 34.0137021,2.68692523 33.6168149,2.95561775 C33.2210617,3.22431028 33.2210617,3.66193325 33.6168149,3.93062577 C34.0137021,4.19798813 34.6623291,4.19798813 35.0614842,3.93062577" id="Fill-157" fill="#FFFFFE"></path>
                    <path d="M37.7813181,5.30667733 C38.1795606,5.03798481 38.1795606,4.60036184 37.7813181,4.33166931 C37.3830756,4.06430695 36.7329533,4.06430695 36.33698,4.33166931 C35.9410067,4.60036184 35.9410067,5.03798481 36.33698,5.30667733 C36.7329533,5.57536985 37.3830756,5.57536985 37.7813181,5.30667733" id="Fill-158" fill="#FFFFFE"></path>
                    <path d="M40.5013181,6.68472413 C40.8995606,6.41603161 40.8995606,5.97707848 40.5013181,5.70971611 C40.1030756,5.44102359 39.4529533,5.44102359 39.05698,5.70971611 C38.6610067,5.97707848 38.6610067,6.41603161 39.05698,6.68472413 C39.4529533,6.95208649 40.1030756,6.95208649 40.5013181,6.68472413" id="Fill-159" fill="#FFFFFE"></path>
                    <polyline id="Fill-163" fill="#FFFFFE" points="21.08 12.3199193 21.9126263 11.0163934 29.24 12.9288656 28.3458431 14.3275393 23.5255126 13.0335283 26.5195636 17.1819755 25.6201701 18.5901639 21.08 12.3199193"></polyline>
                    <polyline id="Fill-164" fill="#FFFFFE" points="36.3728726 15.8360656 38.08 16.9970438 27.5342336 22.0327869 25.84 20.8810437 36.3728726 15.8360656"></polyline>
                    <polyline id="Fill-165" fill="#FFFFFE" points="42.84 24.8604086 42.0073737 26.1639344 34.68 24.2514622 35.5807027 22.8432737 40.4245981 24.0992256 37.4069822 19.9888376 38.3011391 18.5901639 42.84 24.8604086"></polyline>
                </g>
                <g id="Group" transform="translate(316.000000, 124.000000)">
                    <g id="Group-9608">
                        <mask id="mask-5" fill="white">
                            <use xlink:href="#path-4"></use>
                        </mask>
                        <g id="Clip-9607"></g>
                        <path d="M0.575,12.8885185 L22.3,0.065308642 C22.5944444,-0.107901235 22.9611111,0.107901235 22.9611111,0.454320988 L22.9611111,17.1932099 C22.9611111,17.5424691 22.7777778,17.8661728 22.4833333,18.0393827 L0.755555556,30.8625926 C0.461111111,31.0358025 0.0944444444,30.82 0.0944444444,30.4735802 L0.0944444444,13.7346914 C0.0944444444,13.3854321 0.277777778,13.0617284 0.575,12.8885185" id="Fill-9606" mask="url(#mask-5)"></path>
                    </g>
                    <path d="M1.15846532,13.4604355 L22.9844641,0.742048422 C23.2802774,0.570254442 23.6486486,0.784292843 23.6486486,1.1278808 L23.6486486,17.7299383 C23.6486486,18.0763426 23.464463,18.3974002 23.1686497,18.5691941 L1.33986027,31.2875812 C1.04404696,31.4593752 0.675675676,31.2453368 0.675675676,30.9017488 L0.675675676,14.2996913 C0.675675676,13.9532871 0.859861319,13.6350458 1.15846532,13.4604355" id="Fill-9609" fill="#030D36"></path>
                    <polyline id="Fill-9610" fill="#D3D9E5" points="1.35135135 14.0963814 22.2972973 2.04444444 22.2972973 17.2517668 1.35135135 29.3037037 1.35135135 14.0963814"></polyline>
                    <g id="Group-9613" transform="translate(0.675676, 27.259259)">
                        <mask id="mask-7" fill="white">
                            <use xlink:href="#path-6"></use>
                        </mask>
                        <g id="Clip-9612"></g>
                        <path d="M15.061583,13.6154321 C14.9244208,13.6154321 14.7872587,13.6012346 14.655695,13.57 C14.5129344,13.5359259 14.372973,13.4819753 14.2414093,13.4138272 C14.2190154,13.4024691 14.1994208,13.3911111 14.177027,13.3797531 L0.407625483,5.39506173 L0.379633205,5.37802469 C0.33484556,5.34962963 0.298455598,5.31839506 0.264864865,5.28432099 C0.225675676,5.24740741 0.19488417,5.20765432 0.16969112,5.16506173 C0.150096525,5.13098765 0.130501931,5.09407407 0.116505792,5.06 C0.10530888,5.03444444 0.0969111969,5.00604938 0.0913127413,4.98049383 C0.0857142857,4.96345679 0.0801158301,4.94358025 0.0773166023,4.92654321 C0.0745173745,4.91518519 0.0717181467,4.90382716 0.0689189189,4.89246914 C0.0689189189,4.88395062 0.0661196911,4.8782716 0.0661196911,4.87259259 C0.0661196911,4.86691358 0.0633204633,4.86123457 0.0633204633,4.85555556 C0.0633204633,4.84987654 0.0605212355,4.84419753 0.0605212355,4.83851852 C0.0605212355,4.83283951 0.0605212355,4.83 0.0605212355,4.82432099 C0.0577220077,4.81864198 0.0577220077,4.81296296 0.0577220077,4.80728395 C0.0577220077,4.80160494 0.0577220077,4.79592593 0.0549227799,4.79024691 C0.0549227799,4.7845679 0.0549227799,4.77888889 0.0549227799,4.77320988 C0.0549227799,4.76753086 0.0549227799,4.76185185 0.0521235521,4.75617284 C0.0521235521,4.75049383 0.0521235521,4.74481481 0.0521235521,4.7391358 C0.0521235521,4.73345679 0.0521235521,4.72777778 0.0521235521,4.72209877 C0.0521235521,4.71641975 0.0521235521,4.71074074 0.0521235521,4.70506173 C0.0521235521,4.69938272 0.0521235521,4.6937037 0.0521235521,4.68802469 C0.0521235521,4.68234568 0.0521235521,4.67666667 0.0521235521,4.67098765 C0.0521235521,4.66530864 0.0521235521,4.65962963 0.0521235521,4.65395062 C0.0521235521,4.6482716 0.0521235521,4.64259259 0.0521235521,4.63691358 C0.0521235521,4.63123457 0.0521235521,4.62555556 0.0521235521,4.61987654 C0.0521235521,4.61419753 0.0521235521,4.60567901 0.0521235521,4.6 C0.0521235521,4.59432099 0.0549227799,4.58864198 0.0549227799,4.58296296 C0.0549227799,4.57728395 0.0549227799,4.57160494 0.0549227799,4.56592593 C0.0745173745,4.30185185 0.155694981,4.08888889 0.155694981,4.08888889 C0.144498069,4.25358025 0.217277992,4.42395062 0.379633205,4.51765432 L14.177027,12.5165432 C14.4513514,12.6755556 14.7564672,12.7550617 15.061583,12.7550617 C15.3666988,12.7550617 15.6746139,12.6755556 15.9517375,12.5137037 L31.3586873,3.48975309 L31.7533784,3.55790123 C32.0109073,3.60049383 32.2684363,3.63740741 32.5259653,3.66864198 L15.9517375,13.3740741 C15.9181467,13.3939506 15.884556,13.4109877 15.848166,13.4280247 C15.7305985,13.4876543 15.6074324,13.5330864 15.4842664,13.564321 C15.3555019,13.5955556 15.2239382,13.6125926 15.0923745,13.6154321 C15.0811776,13.6154321 15.0699807,13.6154321 15.061583,13.6154321 M36.4476834,0.849012346 C36.2881274,0.834814815 36.1257722,0.814938272 35.9606178,0.795061728 L36.4784749,0.491234568 C36.4644788,0.610493827 36.4560811,0.729753086 36.4476834,0.849012346" id="Fill-9611" mask="url(#mask-7)"></path>
                    </g>
                    <path d="M24.3643477,17.9558798 L38.2854443,25.9423973 C38.5876471,26.115278 38.5904714,26.5517306 38.2882687,26.7274454 L16.6144006,39.2853798 C16.0608329,39.605634 15.3773463,39.605634 14.8237787,39.2882139 L0.90268202,31.3045305 C0.600479272,31.1288158 0.600479272,30.6923631 0.899857695,30.5166483 L22.5765501,17.961548 C23.1301178,17.6384597 23.81078,17.6384597 24.3643477,17.9558798" id="Fill-9614" fill="#030D36"></path>
                    <polyline id="Fill-9615" fill="#50597E" points="25.9533824 28.6222222 29.7268248 30.6611708 29.7297297 30.8617682 23.8531524 34.0713262 23.368037 34.0740741 19.5945946 32.0323775 19.5945946 31.8317802 25.4682671 28.6222222 25.9533824 28.6222222"></polyline>
                    <polyline id="Fill-9616" fill="#50597E" points="23.1891892 19.2041481 22.0405405 19.872 22.0405405 19.9919407 22.6108108 20.3217778 22.7594595 20.3217778 23.9054054 19.6539259 23.9054054 19.5339852 23.3351351 19.2041481 23.1891892 19.2041481"></polyline>
                    <polyline id="Fill-9617" fill="#50597E" points="21.1621622 20.5657481 20.0135135 21.2336 20.0135135 21.3535407 20.5837838 21.6861037 20.7324324 21.6861037 21.8783784 21.0182519 21.8783784 20.8983111 21.3081081 20.5657481 21.1621622 20.5657481"></polyline>
                    <polyline id="Fill-9618" fill="#50597E" points="19.1337838 21.2472296 17.9851351 21.9150815 17.9851351 22.0350222 18.5554054 22.3675852 18.7040541 22.3675852 19.8527027 21.6970074 19.8527027 21.5797926 19.2824324 21.2472296 19.1337838 21.2472296"></polyline>
                    <polyline id="Fill-9619" fill="#50597E" points="17.7837838 22.6115556 16.6351351 23.2794074 16.6351351 23.3993481 17.2054054 23.7291852 17.3540541 23.7291852 18.5 23.0613333 18.5 22.9413926 17.9297297 22.6115556 17.7837838 22.6115556"></polyline>
                    <polyline id="Fill-9620" fill="#50597E" points="15.7567568 23.2916741 14.6081081 23.9595259 14.6081081 24.0794667 15.1783784 24.4120296 15.327027 24.4093037 16.472973 23.7414519 16.472973 23.6215111 15.9027027 23.2916741 15.7567568 23.2916741"></polyline>
                    <polyline id="Fill-9621" fill="#50597E" points="14.4054054 24.656 13.2567568 25.3238519 13.2567568 25.4437926 13.827027 25.7736296 13.9756757 25.7736296 15.1216216 25.1057778 15.1216216 24.985837 14.5513514 24.656 14.4054054 24.656"></polyline>
                    <polyline id="Fill-9622" fill="#50597E" points="12.3783784 25.3374815 11.2297297 26.0053333 11.2297297 26.1252741 11.8 26.4551111 11.9486486 26.4551111 13.0945946 25.7872593 13.0945946 25.6673185 12.5243243 25.3374815 12.3783784 25.3374815"></polyline>
                    <polyline id="Fill-9623" fill="#50597E" points="11.0256757 26.7004444 9.87702703 27.3682963 9.87702703 27.488237 10.4472973 27.8180741 10.5959459 27.8180741 11.7445946 27.1502222 11.7418919 27.0302815 11.1743243 26.7004444 11.0256757 26.7004444"></polyline>
                    <polyline id="Fill-9624" fill="#50597E" points="8.9972973 27.380563 7.85135135 28.0511407 7.85135135 28.1683556 8.42162162 28.5009185 8.56756757 28.5009185 9.71621622 27.8303407 9.71621622 27.7131259 9.14594595 27.380563 8.9972973 27.380563"></polyline>
                    <polyline id="Fill-9625" fill="#50597E" points="6.97162162 28.7448889 5.82297297 29.4127407 5.82297297 29.5326815 6.39324324 29.8625185 6.54189189 29.8625185 7.69054054 29.1946667 7.69054054 29.0747259 7.12027027 28.7448889 6.97162162 28.7448889"></polyline>
                    <polyline id="Fill-9626" fill="#50597E" points="5.62027027 29.4263704 4.47162162 30.0942222 4.47162162 30.214163 5.04189189 30.544 5.19054054 30.544 6.33918919 29.8761481 6.33918919 29.7562074 5.76891892 29.4263704 5.62027027 29.4263704"></polyline>
                    <polyline id="Fill-9627" fill="#50597E" points="25.2594595 20.9896296 24.4810811 20.5289481 24.1540541 20.5289481 23.3945946 20.9705481 23.3891892 21.2513185 24.1459459 21.7174519 24.4783784 21.7229037 25.2567568 21.2704 25.2594595 20.9896296"></polyline>
                    <polyline id="Fill-9628" fill="#50597E" points="23.2310811 21.6683852 22.4554054 21.2104296 22.1283784 21.2104296 21.3689189 21.6520296 21.3635135 21.9328 22.1202703 22.3989333 22.4527027 22.4043852 23.2310811 21.9518815 23.2310811 21.6683852"></polyline>
                    <polyline id="Fill-9629" fill="#50597E" points="21.8797297 23.0327111 21.1013514 22.5747556 20.7743243 22.5720296 20.0148649 23.0163556 20.0121622 23.2971259 20.7662162 23.7632593 21.0986486 23.7687111 21.8797297 23.3162074 21.8797297 23.0327111"></polyline>
                    <polyline id="Fill-9630" fill="#50597E" points="19.8540541 23.7155556 19.0756757 23.2548741 18.7486486 23.2548741 17.9891892 23.6964741 17.9837838 23.9772444 18.7405405 24.4461037 19.072973 24.4488296 19.8513514 23.9963259 19.8540541 23.7155556"></polyline>
                    <polyline id="Fill-9631" fill="#50597E" points="18.5013514 25.0771556 17.7256757 24.6192 17.3986486 24.6164741 16.6391892 25.0608 16.6337838 25.3388444 17.3905405 25.8077037 17.722973 25.8131556 18.5013514 25.3606519 18.5013514 25.0771556"></polyline>
                    <polyline id="Fill-9632" fill="#50597E" points="16.4743243 25.76 15.6959459 25.3020444 15.3689189 25.2993185 14.6094595 25.7409185 14.6067568 26.0216889 15.3608108 26.4905481 15.6932432 26.4932741 16.4716216 26.0407704 16.4743243 25.76"></polyline>
                    <polyline id="Fill-9633" fill="#50597E" points="15.122973 27.122963 14.3472973 26.6622815 14.0202703 26.6622815 13.2608108 27.1038815 13.2554054 27.3846519 14.0121622 27.8535111 14.3445946 27.856237 15.122973 27.4037333 15.122973 27.122963"></polyline>
                    <polyline id="Fill-9634" fill="#50597E" points="13.0959459 27.8044444 12.3175676 27.343763 11.9905405 27.343763 11.2310811 27.785363 11.2283784 28.0661333 11.9824324 28.5349926 12.3148649 28.5377185 13.0932432 28.0852148 13.0959459 27.8044444"></polyline>
                    <polyline id="Fill-9635" fill="#50597E" points="11.0689189 29.1646815 10.2905405 28.7067259 9.96351351 28.7067259 9.20405405 29.1483259 9.20135135 29.4290963 9.95810811 29.8952296 10.2905405 29.9006815 11.0689189 29.4481778 11.0689189 29.1646815"></polyline>
                    <polyline id="Fill-9636" fill="#50597E" points="9.71756757 29.846163 8.93918919 29.3882074 8.61216216 29.3882074 7.8527027 29.8298074 7.85 30.1105778 8.60405405 30.5767111 8.93648649 30.582163 9.71756757 30.1296593 9.71756757 29.846163"></polyline>
                    <polyline id="Fill-9637" fill="#50597E" points="7.69054054 31.2118519 6.91216216 30.7511704 6.58513514 30.7511704 5.82567568 31.1927704 5.82297297 31.4735407 6.57702703 31.9396741 6.90945946 31.9451259 7.68783784 31.4926222 7.69054054 31.2118519"></polyline>
                    <polyline id="Fill-9638" fill="#50597E" points="27.2851351 21.6697481 26.5067568 21.2117926 26.1797297 21.2090667 25.4202703 21.6533926 25.4175676 21.931437 26.1716216 22.4002963 26.5040541 22.4057481 27.2824324 21.9532444 27.2851351 21.6697481"></polyline>
                    <polyline id="Fill-9639" fill="#50597E" points="25.2581081 23.0340741 24.4824324 22.5733926 24.1554054 22.5733926 23.3959459 23.0149926 23.3905405 23.295763 24.1472973 23.7646222 24.4797297 23.7673481 25.2581081 23.3148444 25.2581081 23.0340741"></polyline>
                    <polyline id="Fill-9640" fill="#50597E" points="23.9067568 23.7155556 23.1283784 23.2548741 22.8013514 23.2548741 22.0418919 23.6964741 22.0391892 23.9772444 22.7932432 24.4461037 23.1256757 24.4488296 23.9067568 23.9963259 23.9067568 23.7155556"></polyline>
                    <polyline id="Fill-9641" fill="#50597E" points="21.8797297 25.0771556 21.1013514 24.6192 20.7743243 24.6164741 20.0148649 25.0608 20.0121622 25.3415704 20.7662162 25.8077037 21.0986486 25.8131556 21.877027 25.3606519 21.8797297 25.0771556"></polyline>
                    <polyline id="Fill-9642" fill="#50597E" points="19.8527027 25.76 19.077027 25.2993185 18.75 25.2993185 17.9905405 25.7409185 17.9851351 26.0216889 18.7418919 26.4905481 19.0743243 26.4932741 19.8527027 26.0407704 19.8527027 25.76"></polyline>
                    <polyline id="Fill-9643" fill="#50597E" points="18.5013514 27.120237 17.722973 26.6622815 17.3959459 26.6622815 16.6364865 27.1038815 16.6337838 27.3846519 17.3878378 27.8507852 17.7202703 27.856237 18.5013514 27.4037333 18.5013514 27.120237"></polyline>
                    <polyline id="Fill-9644" fill="#50597E" points="16.4743243 27.8030815 15.6986486 27.3451259 15.3716216 27.3424 14.6121622 27.7867259 14.6067568 28.0674963 15.3635135 28.5336296 15.6959459 28.5390815 16.4743243 28.0865778 16.4743243 27.8030815"></polyline>
                    <polyline id="Fill-9645" fill="#50597E" points="15.122973 29.1646815 14.3445946 28.7067259 14.0175676 28.7067259 13.2581081 29.1483259 13.2554054 29.4290963 14.0094595 29.8952296 14.3418919 29.9006815 15.1202703 29.4481778 15.122973 29.1646815"></polyline>
                    <polyline id="Fill-9646" fill="#50597E" points="13.0959459 29.8475259 12.3202703 29.3895704 11.9932432 29.3868444 11.2337838 29.8284444 11.2283784 30.1092148 11.9851351 30.5780741 12.3175676 30.5835259 13.0959459 30.1310222 13.0959459 29.8475259"></polyline>
                    <polyline id="Fill-9647" fill="#50597E" points="11.0689189 31.2118519 10.2905405 30.7511704 9.96351351 30.7511704 9.20405405 31.1927704 9.20135135 31.4735407 9.95540541 31.9424 10.2878378 31.9451259 11.0689189 31.4926222 11.0689189 31.2118519"></polyline>
                    <polyline id="Fill-9648" fill="#50597E" points="9.71756757 31.8919704 8.93918919 31.4340148 8.61216216 31.4312889 7.8527027 31.8756148 7.85 32.1563852 8.60405405 32.6225185 8.93648649 32.6279704 9.71486486 32.1754667 9.71756757 31.8919704"></polyline>
                    <polyline id="Fill-9649" fill="#50597E" points="28.6364865 23.0340741 27.8581081 22.5733926 27.5310811 22.5733926 26.7716216 23.0149926 26.7689189 23.295763 27.522973 23.7646222 27.8554054 23.7673481 28.6337838 23.3148444 28.6364865 23.0340741"></polyline>
                    <polyline id="Fill-9650" fill="#50597E" points="27.2864865 23.7155556 26.5081081 23.2548741 26.1810811 23.2548741 25.4216216 23.6964741 25.4162162 23.9772444 26.172973 24.4433778 26.5054054 24.4488296 27.2837838 23.9963259 27.2864865 23.7155556"></polyline>
                    <polyline id="Fill-9651" fill="#50597E" points="25.2581081 25.0757926 24.4797297 24.617837 24.1527027 24.617837 23.3932432 25.059437 23.3905405 25.3402074 24.1445946 25.8063407 24.477027 25.8117926 25.2581081 25.3592889 25.2581081 25.0757926"></polyline>
                    <polyline id="Fill-9652" fill="#50597E" points="23.2310811 25.76 22.4527027 25.2993185 22.1256757 25.2993185 21.3662162 25.7409185 21.3635135 26.0216889 22.1175676 26.4905481 22.45 26.4932741 23.2283784 26.0407704 23.2310811 25.76"></polyline>
                    <polyline id="Fill-9653" fill="#50597E" points="21.8810811 27.120237 21.1027027 26.6622815 20.7756757 26.6622815 20.0162162 27.1038815 20.0108108 27.3846519 20.7675676 27.8507852 21.1 27.856237 21.8783784 27.4037333 21.8810811 27.120237"></polyline>
                    <polyline id="Fill-9654" fill="#50597E" points="20.5283784 27.8030815 19.75 27.3451259 19.422973 27.3424 18.6635135 27.7867259 18.6608108 28.0647704 19.4148649 28.5336296 19.7472973 28.5390815 20.5283784 28.0865778 20.5283784 27.8030815"></polyline>
                    <polyline id="Fill-9655" fill="#50597E" points="18.5027027 29.1674074 17.7243243 28.7067259 17.3972973 28.7067259 16.6378378 29.1483259 16.6324324 29.4290963 17.3891892 29.8979556 17.7216216 29.9006815 18.5 29.4481778 18.5027027 29.1674074"></polyline>
                    <polyline id="Fill-9656" fill="#50597E" points="16.4743243 29.8475259 15.6959459 29.3868444 15.3689189 29.3868444 14.6094595 29.8284444 14.6067568 30.1092148 15.3608108 30.5780741 15.6932432 30.5835259 16.4716216 30.1310222 16.4743243 29.8475259"></polyline>
                    <polyline id="Fill-9657" fill="#50597E" points="15.122973 31.2118519 14.3472973 30.7511704 14.0202703 30.7511704 13.2608108 31.1927704 13.2554054 31.4735407 14.0121622 31.9396741 14.3445946 31.9451259 15.122973 31.4926222 15.122973 31.2118519"></polyline>
                    <polyline id="Fill-9658" fill="#50597E" points="13.0959459 31.8933333 12.3175676 31.4326519 11.9905405 31.4326519 11.2310811 31.8742519 11.2283784 32.1550222 11.9824324 32.6211556 12.3148649 32.6266074 13.0959459 32.1741037 13.0959459 31.8933333"></polyline>
                    <polyline id="Fill-9659" fill="#50597E" points="11.0689189 33.2562963 10.2905405 32.7956148 9.96351351 32.7956148 9.20405405 33.2372148 9.20135135 33.5179852 9.95540541 33.9868444 10.2878378 33.9895704 11.0662162 33.5370667 11.0689189 33.2562963"></polyline>
                    <polyline id="Fill-9660" fill="#50597E" points="30.6635135 23.7128296 29.8851351 23.2548741 29.5581081 23.2548741 28.7986486 23.6964741 28.7959459 23.9772444 29.55 24.4433778 29.8824324 24.4488296 30.6608108 23.9963259 30.6635135 23.7128296"></polyline>
                    <polyline id="Fill-9661" fill="#50597E" points="28.6378378 25.0771556 27.8594595 24.6192 27.5324324 24.6164741 26.772973 25.0608 26.7675676 25.3388444 27.5243243 25.8077037 27.8567568 25.8131556 28.6351351 25.3606519 28.6378378 25.0771556"></polyline>
                    <polyline id="Fill-9662" fill="#50597E" points="27.2851351 25.758637 26.5067568 25.3006815 26.1797297 25.2979556 25.4202703 25.7395556 25.4175676 26.0203259 26.1716216 26.4891852 26.5040541 26.494637 27.2851351 26.0421333 27.2851351 25.758637"></polyline>
                    <polyline id="Fill-9663" fill="#50597E" points="25.2581081 27.120237 24.4797297 26.6622815 24.1527027 26.6622815 23.3932432 27.1038815 23.3905405 27.3846519 24.1445946 27.8507852 24.477027 27.856237 25.2554054 27.4037333 25.2581081 27.120237"></polyline>
                    <polyline id="Fill-9664" fill="#50597E" points="23.6486486 27.772954 22.8174918 27.2622989 22.4682905 27.2592593 18.2461292 29.8277332 18.2432432 30.1408134 19.0484264 30.6636271 19.4033997 30.6666667 23.6457627 28.0890739 23.6486486 27.772954"></polyline>
                    <polyline id="Fill-9665" fill="#50597E" points="18.5013514 30.5303704 17.722973 30.0696889 17.3959459 30.0696889 16.6364865 30.5112889 16.6337838 30.7920593 17.3878378 31.2581926 17.7202703 31.2636444 18.4986486 30.8111407 18.5013514 30.5303704"></polyline>
                    <polyline id="Fill-9666" fill="#50597E" points="16.4743243 31.8919704 15.6986486 31.4340148 15.3716216 31.4312889 14.6121622 31.8756148 14.6067568 32.1536593 15.3635135 32.6225185 15.6959459 32.6279704 16.4743243 32.1754667 16.4743243 31.8919704"></polyline>
                    <polyline id="Fill-9667" fill="#50597E" points="15.122973 33.2549333 14.3445946 32.7969778 14.0175676 32.7942519 13.2581081 33.2358519 13.2554054 33.5166222 14.0121622 33.9854815 14.3418919 33.9909333 15.122973 33.5384296 15.122973 33.2549333"></polyline>
                    <polyline id="Fill-9668" fill="#50597E" points="13.0959459 33.9350519 12.3175676 33.4770963 11.9905405 33.4770963 11.2310811 33.9186963 11.2283784 34.1994667 11.9824324 34.6656 12.3148649 34.6710519 13.0932432 34.2185481 13.0959459 33.9350519"></polyline>
                    <polyline id="Fill-9669" fill="#202D60" points="22.2972973 2.22211187 21.9921358 2.04444444 1.65933842 13.7620342 1.35135135 14.2893962 1.35135135 29.1260363 1.65933842 29.3037037 21.9921358 17.586114 22.2972973 17.0559318 22.2972973 2.22211187"></polyline>
                    <polyline id="Fill-9670" fill="#3D59C8" points="6.75675676 12.2666667 3.37837838 14.4030797 3.37837838 15.6740741 6.75675676 13.5348049 6.75675676 12.2666667"></polyline>
                    <polyline id="Fill-9671" fill="#3D59C8" points="16.2162162 8.85925926 3.37837838 16.3014845 3.37837838 17.037037 16.2162162 9.59481177 16.2162162 8.85925926"></polyline>
                    <g id="Group-9674" transform="translate(2.702703, 12.948148)">
                        <mask id="mask-9" fill="white">
                            <use xlink:href="#path-8"></use>
                        </mask>
                        <g id="Clip-9673"></g>
                        <polyline id="Fill-9672" fill="url(#linearGradient-10)" mask="url(#mask-9)" points="0.120366795 14.7483951 0.120366795 11.8151852 2.36254826 8.58098765 3.53542471 9.45555556 5.90637066 4.68234568 6.76853282 6.21851852 8.0253861 6.21851852 10.0548263 3.1717284 11.2416988 2.43061728 13.6966216 2.43061728 15.26139 0.122098765 17.0416988 0.937037037 18.9199807 0.851851852 18.9199807 3.85888889 0.120366795 14.7483951"></polyline>
                    </g>
                    <path d="M31.7047188,29.2846222 L31.7047188,29.2846222 C31.8374721,29.5599407 31.7076048,29.8870519 31.4132388,30.0124444 L29.1997224,30.9583407 C28.9082423,31.0837333 28.5619295,30.9610667 28.4291762,30.6857481 C28.2993089,30.4077037 28.4262903,30.0833185 28.7206562,29.9579259 L30.9341727,29.0120296 C31.2256527,28.886637 31.5719656,29.0093037 31.7047188,29.2846222" id="Fill-9675" fill="#EBACAC"></path>
                    <path d="M34.0633193,31.0418276 C33.7078864,31.0065782 33.3524536,30.9566416 32.9970208,30.8949552 L29.1066973,30.2017173 C28.190347,30.0372202 27.5711164,29.1207362 27.7266182,28.1513782 C27.8821201,27.1790827 28.7373804,26.5269691 29.6648379,26.6885288 L33.5551614,27.3817667 C38.2840842,28.2248144 40.5138698,29.276421 42.7769774,24.7938744 C43.2129379,23.9273271 44.2320305,23.5983329 45.0539689,24.0624497 C45.8759074,24.5265666 46.1841343,25.6046103 45.7481737,26.4711576 C42.9741315,31.9700614 39.8557637,31.6146301 34.0633193,31.0418276" id="Fill-9676" fill="#EBACAC"></path>
                    <path d="M38.5550391,80.8730769 L39.437404,80.6106191 C40.8698146,80.1859683 42.4139533,80.4602219 43.6286375,81.353758 L44.5453803,80.6548535 L45.4821769,82.8754234 L50,82.4802622 L49.0145015,86.6088118 L48.5045633,87.163217 L46.6481591,87.7235201 C45.1011556,88.1894564 43.4281,87.7736525 42.2621178,86.6294545 L38.1453696,82.5923229 C37.5924591,82.0497135 37.81878,81.0913002 38.5550391,80.8730769" id="Fill-9677" fill="#42425A"></path>
                    <path d="M38.3013809,81.5210635 L39.1512098,81.277789 C40.5308022,80.8841764 42.0180029,81.1383845 43.1878972,81.9666111 L44.0708364,81.3187903 L44.9730898,83.3770563 L49.3243243,83.0107779 L48.8331894,84.9979749 C48.6152138,85.8781364 47.9392135,86.5778922 47.0590336,86.8321003 L46.2974986,87.0562408 C44.8075387,87.4881213 43.1961748,87.0999756 42.0731866,86.0394083 L38.108238,82.3000884 L37.8378378,81.8217398 L38.3013809,81.5210635" id="Fill-9678" fill="#FFFFFE"></path>
                    <path d="M44.4615649,82.7545864 C43.5649645,81.8845574 43.8040579,80.8874764 44.9968081,80.5367028 C46.1895583,80.1886911 47.893099,80.6112767 48.7842655,81.4813058 C49.6781489,82.3485729 49.4363385,83.3484158 48.2517392,83.6991894 C47.0644229,84.0499631 45.3608822,83.6246155 44.4615649,82.7545864" id="Fill-9679" fill="#42425A"></path>
                    <path d="M47.2959992,83.1407407 C48.043721,83.1407407 48.6486486,82.4632851 48.6486486,81.6288225 L48.6486486,75.7963072 C48.6486486,74.9589371 48.043721,74.2814815 47.2959992,74.2814815 C46.5508736,74.2814815 45.9459459,74.9589371 45.9459459,75.7963072 L45.9459459,81.6288225 C45.9459459,82.4632851 46.5508736,83.1407407 47.2959992,83.1407407" id="Fill-9680" fill="#EBACAC"></path>
                    <path d="M46.945268,80.8972038 L47.0528328,80.8972038 C48.3668671,80.8378883 49.3814645,81.4282183 49.3204142,80.1543484 L48.6779328,65.4525896 L49.3233213,43.2657856 C49.3611144,41.9890911 48.3261669,40.927062 47.0121326,40.8903429 C45.7068197,40.8451502 43.9596191,41.859162 43.9218261,43.133032 L43.9189189,65.4921332 L43.9218261,65.5768696 L44.5701218,80.3633647 C44.6282649,81.6005156 45.6806553,80.8972038 46.945268,80.8972038" id="Fill-9681" fill="#FFFFFE"></path>
                    <path d="M32.2344452,86.8264378 L32.9976487,86.3686147 C34.2385406,85.6199732 35.7347489,85.5105563 37.0634916,86.0691581 L37.7635523,85.1851852 L39.125239,87.0683066 L43.2432432,85.611335 L43.2432432,89.7634161 C43.2432432,90.0311994 43.1087218,90.278827 42.8890949,90.411279 L41.2858186,91.3873924 C39.9488399,92.1993805 38.3016382,92.2051393 36.9619141,91.3989099 L32.2344452,88.5540721 C31.5975273,88.1711132 31.5975273,87.2093967 32.2344452,86.8264378" id="Fill-9682" fill="#42425A"></path>
                    <path d="M32.1335445,86.8824736 L32.9037431,86.4090195 C34.1560084,85.6348177 35.66593,85.5216652 37.0068513,86.0993388 L37.7133284,85.1851852 L39.0874956,87.1326003 L43.2432432,85.6258846 L43.2432432,87.8561812 C43.2432432,88.8447772 42.752865,89.7559531 41.957732,90.2532288 L41.2678779,90.6849952 C39.9186451,91.5247063 38.2563461,91.5306617 36.9043428,90.696906 L32.1335445,87.7549394 L31.7567568,87.3201953 L32.1335445,86.8824736" id="Fill-9683" fill="#FFFFFE"></path>
                    <path d="M38.6296531,86.73264 C37.5738994,86.0699872 37.5738994,84.984054 38.6296531,84.3214012 C39.6854067,83.6558292 41.4076715,83.6558292 42.4554271,84.3214012 C43.5058486,84.984054 43.5058486,86.0699872 42.4554271,86.73264 C41.4076715,87.3952928 39.6854067,87.3952928 38.6296531,86.73264" id="Fill-9684" fill="#42425A"></path>
                    <path d="M40.5418387,86.5481481 C41.2869642,86.5481481 41.8918919,85.8706925 41.8918919,85.0362299 L41.8918919,79.2008071 C41.8918919,78.3663446 41.2869642,77.6888889 40.5418387,77.6888889 C39.7941169,77.6888889 39.1891892,78.3663446 39.1891892,79.2008071 L39.1891892,85.0362299 C39.1891892,85.8706925 39.7941169,86.5481481 40.5418387,86.5481481" id="Fill-9685" fill="#EBACAC"></path>
                    <path d="M40.6586578,85.1419244 L40.8466118,85.1334099 C42.0904244,85.0283978 43.0163739,85.1646297 42.9141049,83.8874565 L41.6951684,66.9379492 L46.6206667,44.9875993 C46.6980595,43.7104261 42.048964,44.6101237 40.8023873,44.527817 C39.5585746,44.4483484 38.4833676,45.4190001 38.4059749,46.6990114 L37.1621622,66.9833598 L38.4087389,84.2677703 C38.5054799,85.4796657 39.495002,85.1419244 40.6586578,85.1419244" id="Fill-9686" fill="#FFFFFE"></path>
                    <path d="M45.1764392,18.089027 L42.2400787,19.8373459 C39.096738,21.7109515 37.1621622,25.1705728 37.1621622,28.9149366 L37.1621622,49.7296127 C40.0378084,51.8053855 47.7788715,48.9124018 49.3243243,45.6577951 L48.8634482,41.1019152 C48.6261108,39.2938004 48.5377992,37.468601 48.6040329,35.6462491 L49.1477011,20.554897 C49.2249738,18.4079386 46.9813074,17.0155478 45.1764392,18.089027" id="Fill-9687" fill="#FFC400"></path>
                    <polyline id="Fill-9688" fill="#EBACAC" points="23.9108108 35.6632889 23.9108108 35.6632889 23.1405405 35.6796444 22.0513514 34.6247111 22.0351351 33.8478222 22.8054054 33.8314667 23.8945946 34.8864 23.9108108 35.6632889"></polyline>
                    <path d="M37.1621622,37.4814815 L37.1621622,31.5695819 C37.6887443,30.7298076 38.1111673,29.8174946 38.3918183,28.8382229 L39.7921796,26.5225662 C40.0641506,25.5823537 40.5386532,24.5333333 41.4182189,24.5333333 C41.5223781,24.5333333 41.6294305,24.5472831 41.7422695,24.5779725 C42.8330468,24.870917 43.4695747,25.9589967 43.1686706,27.0080171 L42.338291,29.8956132 C41.4529387,32.9617659 39.6041145,35.578737 37.1621622,37.4814815" id="Fill-9689" fill="#846708"></path>
                    <path d="M43.9202703,22.4888889 L43.9202703,22.4888889 C43.2472973,22.4888889 42.7013514,21.8910792 42.7013514,21.1541753 L42.7013514,14.9925926 L45.1364865,14.9925926 L45.1364865,21.1541753 C45.1364865,21.8910792 44.5905405,22.4888889 43.9202703,22.4888889" id="Fill-9690" fill="#EBACAC"></path>
                    <path d="M46.6216216,18.4 L46.6216216,18.4 C42.5173887,18.4 39.1891892,14.9824212 39.1891892,10.7651627 L39.1891892,7.4962963 L46.6216216,7.4962963 L46.6216216,18.4" id="Fill-9691" fill="#EBACAC"></path>
                    <path d="M49.2691285,13.4315294 C49.2577957,13.1439128 49.2521293,12.8562962 49.2549625,12.5658319 C49.2719617,11.4466902 49.3654572,10.3218531 49.2011317,9.20555903 C48.9943081,7.81019147 48.2916746,6.37780395 47.0110684,5.79687541 C46.2461046,5.44945736 45.3734791,5.44945736 44.5320189,5.45230505 C42.8207664,5.46369581 41.1095139,5.47508656 39.3982614,5.48647732 C38.6502967,5.4921727 37.8230025,5.51495421 37.1798662,5.9534983 C35.97009,6.77648039 36.5650619,8.34555698 37.2903609,9.28244663 C37.6813425,9.78648757 38.1771524,10.2563562 38.7522919,10.5354298 C39.3104322,10.8002648 40.2538876,10.5781451 40.613704,11.1448352 C41.1123471,11.9251019 40.1688916,14.4196774 41.2540071,14.7215324 C42.0926341,14.9578906 41.9821393,14.0836501 42.1152997,13.5966953 C42.1974625,13.2919926 42.4269516,12.9844422 42.7414368,12.9702038 C43.1380847,12.9531176 43.3987391,13.388814 43.4724023,13.7789474 C43.6197286,14.5506711 43.3930727,15.3394809 43.2967439,16.1197477 C43.2004151,16.9000145 43.2769115,17.7913411 43.866217,18.3096205 C44.0758738,18.4975679 44.3365281,18.6171709 44.6000157,18.7139923 C45.3763123,18.9987612 46.7957453,19.3433315 47.5097116,18.7766414 C48.523997,17.9764409 49.1727997,17.1563065 49.291794,15.8264357 C49.362624,15.0290828 49.3002936,14.2288823 49.2691285,13.4315294" id="Fill-9692" fill="#030D36"></path>
                    <path d="M28.4358585,38.162963 C28.074328,38.162963 27.7127976,38.1487685 27.3512672,38.1232185 L21.210855,37.8137797 C20.2719969,37.7655187 19.5517386,36.9564356 19.5965796,36.008247 C19.6442231,35.0572196 20.4541634,34.3191087 21.3790087,34.3730476 L27.5614593,34.6853253 C32.4407188,35.0430251 36.9416325,32.2467205 38.8137436,27.7186943 L39.9768066,24.9081952 C40.338337,24.0309789 41.3332464,23.6193401 42.1992379,23.9855567 C43.0652293,24.3546121 43.4744033,25.3624173 43.1100703,26.2396337 L41.9498099,29.0501327 C39.6517095,34.6058364 34.3072248,38.162963 28.4358585,38.162963" id="Fill-9693" fill="#EBACAC"></path>
                    <path d="M36.4864865,30.9472157 C37.2254285,30.0660764 37.8388897,29.0557799 38.2934088,27.9421575 L39.4506198,25.0978284 C39.8716773,24.0645705 41.0233114,23.5766432 42.032734,24.0100375 C43.0365797,24.4434317 43.5106179,25.6345484 43.0895604,26.6678062 L41.9323494,29.5092653 C41.3495612,30.9414754 40.5743693,32.2445283 39.645812,33.3925926 L36.4864865,30.9472157" id="Fill-9694" fill="#FFC400"></path>
                    <path d="M42.9237335,16.9410019 C42.6769444,16.6528201 42.3558211,16.3918252 42.2636469,16.0329573 L42.2785137,15.3587206 L42.3736613,14.7850756 L42.3677146,14.1978372 L41.880083,13.7492523 L41.1872894,13.6296296 L41.1070085,13.6486605 L41.0832216,13.724784 C41.0832216,14.0211219 41.2021562,14.306585 41.118902,14.6002043 C41.0237544,14.9291665 40.3696144,15.3967823 40.0722781,14.9889778 L39.9830772,14.8421682 L39.465712,14.611079 L39.2486565,14.6518595 L39.1891892,14.8231374 L39.2546032,15.00529 C39.3943513,15.3396897 39.4121914,15.7474941 39.4032713,16.1009247 C39.3824578,16.9138149 40.2714934,17.7267051 40.9821273,18.1154787 C41.553013,18.4254101 42.3141941,18.5232832 42.8761597,18.1997583 L43.1556559,17.9550756 C43.360818,17.6397069 43.1734961,17.2291837 42.9237335,16.9410019" id="Fill-9695" fill="#030D36"></path>
                </g>
                <g id="Group-3" transform="translate(111.000000, 124.000000)">
                    <path d="M30.1190571,0.473303315 C31.1939994,-0.149156273 32.9574017,-0.158882204 34.0398001,0.45141997 L64.1891332,17.4803095 C65.2702889,18.0918274 65.2702889,19.0911669 64.1891332,19.7026848 L34.4685343,36.4896418 C33.3873786,37.099944 31.61652,37.099944 30.5353642,36.4896418 L0.814765386,19.7026848 C-0.266390368,19.0911669 -0.272603907,18.0821015 0.802338308,17.4596419 L30.1190571,0.473303315" id="Fill-271" fill="#526EE1"></path>
                    <path d="M30.1190571,2.52593489 C31.1939994,1.90347531 32.9574017,1.89374938 34.0398001,2.50405155 L64.1891332,19.5329411 C65.2702889,20.144459 65.2702889,21.1437984 64.1891332,21.7553164 L34.4685343,38.5422734 C33.3873786,39.1525755 31.61652,39.1525755 30.5353642,38.5422734 L0.814765386,21.7553164 C-0.266390368,21.1437984 -0.272603907,20.1347331 0.802338308,19.5122735 L30.1190571,2.52593489" id="Fill-271" fill="#4864D6"></path>
                    <path d="M64.1926163,19.0496579 L34.4683564,36.0433438 C33.3870674,36.6611617 31.6159907,36.6611617 30.5347018,36.0433438 L0.810441915,19.0496579 C0.518369617,18.8822809 0.310811856,18.6841361 0.176582885,18.4736842 C-0.192546785,19.0484272 0.0162538369,19.7203965 0.810441915,20.1745296 L30.5347018,37.1682155 C31.6159907,37.7860334 33.3870674,37.7860334 34.4683564,37.1682155 L64.1926163,20.1745296 C64.9868043,19.7203965 65.1931192,19.0545808 64.820261,18.4872221 C64.686032,18.6927511 64.4797171,18.8859731 64.1926163,19.0496579" id="Fill-278"></path>
                    <polyline id="Fill-281" fill="#FFFFFE" points="30.7721504 7.52631579 29.1145833 8.52650879 37.5713508 13.6842105 39.2708333 12.6587803 30.7721504 7.52631579"></polyline>
                    <polyline id="Fill-282" fill="#FFFFFE" points="27.3856707 22.5789474 25.7291667 23.5791404 34.1857215 28.7368421 35.8854167 27.7100836 27.3856707 22.5789474"></polyline>
                    <polyline id="Fill-286" fill="#FFFFFE" points="35.5117337 13 33.8541667 14.000193 42.3109341 19.1578947 44.0104167 18.1311362 35.5117337 13"></polyline>
                    <polyline id="Fill-287" fill="#FFFFFE" points="25.3199634 10.9473684 23.6979167 11.89165 43.0231606 23.2631579 44.6875 22.2937958 25.3199634 10.9473684"></polyline>
                    <polyline id="Fill-288" fill="#FFFFFE" points="10.432585 20.5263158 8.80208333 21.4447808 30.1486515 33.5263158 31.8229167 32.583456 10.432585 20.5263158"></polyline>
                    <polyline id="Fill-289" fill="url(#linearGradient-11)" points="30.6604604 10.9473684 29.1145833 11.8360455 32.2679829 13.6842105 33.8541667 12.7719298 30.6604604 10.9473684"></polyline>
                    <polyline id="Fill-292" fill="#FFFFFE" points="28.6303959 19.8421053 27.0833333 20.7311657 30.2367329 22.5789474 31.8229167 21.6662731 28.6303959 19.8421053"></polyline>
                    <polyline id="Fill-293" fill="#FFFFFE" points="45.5562938 22.5789474 44.0104167 23.4680078 47.1638163 25.3157895 48.75 24.4031152 45.5562938 22.5789474"></polyline>
                    <polyline id="Fill-294" fill="#FFFFFE" points="32.074053 18.4736842 30.46875 19.4661437 37.6236742 23.9473684 39.2708333 22.9298668 32.074053 18.4736842"></polyline>
                    <polyline id="Fill-295" fill="url(#linearGradient-12)" points="27.9521271 16.4210526 26.40625 17.3101131 29.5584641 19.1578947 31.1458333 18.2452205 27.9521271 16.4210526"></polyline>
                    <polyline id="Fill-298" fill="url(#linearGradient-13)" points="28.6303959 26.6842105 27.0833333 27.573271 30.2367329 29.4210526 31.8229167 28.5083784 28.6303959 26.6842105"></polyline>
                    <polyline id="Fill-301" fill="#FFFFFE" points="19.8863285 21.8947368 18.28125 22.8871963 25.4351737 27.3684211 27.0833333 26.3509194 19.8863285 21.8947368"></polyline>
                    <polyline id="Fill-302" fill="#FFFFFE" points="13.0700645 18.4736842 11.5104167 19.2719652 16.6809365 21.8947368 18.28125 21.0752532 13.0700645 18.4736842"></polyline>
                    <polyline id="Fill-303" fill="#FFFFFE" points="23.8896271 13.6842105 22.34375 14.573271 25.4971496 16.4210526 27.0833333 15.5083784 23.8896271 13.6842105"></polyline>
                    <polyline id="Fill-304" fill="#FFFFFE" points="40.8834665 13.6842105 39.2708333 14.5748359 52.5107496 21.8947368 54.1666667 20.9828499 40.8834665 13.6842105"></polyline>
                    <polyline id="Fill-305" fill="#FFFFFE" points="19.8770199 14.3684211 18.28125 15.3795189 26.1218156 20.5263158 27.7604167 19.4883628 19.8770199 14.3684211"></polyline>
                    <polyline id="Fill-306" fill="#FFFFFE" points="26.0400636 4.78947368 24.375 5.62994763 26.7290554 6.84210526 28.4375 5.98042414 26.0400636 4.78947368"></polyline>
                    <polyline id="Fill-307" fill="#FFFFFE" points="22.6538937 6.15789474 20.9895833 6.9979119 23.3443783 8.21052632 25.0520833 7.34819794 22.6538937 6.15789474"></polyline>
                    <polyline id="Fill-308" fill="#FFFFFE" points="19.9455604 8.21052632 18.28125 9.05100026 20.636045 10.2631579 22.34375 9.40147678 19.9455604 8.21052632"></polyline>
                    <polyline id="Fill-309" fill="#FFFFFE" points="17.2372271 10.2631579 15.5729167 11.1031751 17.9277117 12.3157895 19.6354167 11.4534611 17.2372271 10.2631579"></polyline>
                    <polyline id="Fill-310" fill="#FFFFFE" points="13.8512877 11.6315789 12.1875 12.4720529 14.5415554 13.6842105 16.25 12.8225294 13.8512877 11.6315789"></polyline>
                    <polyline id="Fill-311" fill="#FFFFFE" points="11.1442303 13.6842105 9.47916667 14.5242277 11.8332221 15.7368421 13.5416667 14.8745137 11.1442303 13.6842105"></polyline>
                    <polyline id="Fill-312" fill="#FFFFFE" points="7.7580604 15.7368421 6.09375 16.5768593 8.448545 17.7894737 10.15625 16.9271453 7.7580604 15.7368421"></polyline>
                    <polyline id="Fill-313" fill="#FFFFFE" points="4.37264373 17.1052632 2.70833333 17.9452803 5.06312834 19.1578947 6.77083333 18.2955664 4.37264373 17.1052632"></polyline>
                </g>
                <g id="Group-6" transform="translate(390.000000, 64.000000)">
                    <polygon id="Fill-1149" fill="url(#linearGradient-14)" points="49.5903614 30.6521739 55.6626506 29.2898551 56 90.9747262 50.0842468 94"></polygon>
                    <path d="M15.4081791,72.2028986 L16.6431753,71.4908218 C15.7557157,71.2004901 14.8868741,70.8215309 14.0521656,70.3478318 C8.44193156,67.178632 4.95725631,61.2558653 4.95725631,54.8869045 L1.8189894e-12,2.04347826 L10.5892114,8.40327064 L16.2180635,6.89354578 L16.2180635,54.8869045 C16.2180635,57.2920735 17.5337379,59.5291556 19.6530907,60.7240998 C20.1433655,61.002207 20.6119194,61.0969468 21.0246191,61.0969468 C21.6669413,61.0969468 22.1789372,60.8646815 22.4333837,60.7179876 C22.8491864,60.47961 23.8204271,59.7736455 23.8204271,58.346436 L18.8649273,12.942029 L29.4523822,19.2219468 L35.0843373,18.2225945 L35.0843373,57.9949818 C35.0843373,62.5180441 33.2908001,66.8883003 29.3717041,69.2812448 C28.9652104,69.5318469 28.5338926,69.7610561 28.0777508,69.9658164 C27.2089092,70.3570001 26.1818144,70.6931737 25.0895564,71.0171227 C24.5930755,71.1668728 24.0903886,71.3013422 23.5877017,71.420531 C23.3487703,71.4755412 23.1129419,71.5305514 22.8740104,71.5794494 C22.62577,71.6314035 22.3806326,71.6803015 22.1323921,71.7261433 C21.8779457,71.7719852 21.6234992,71.8147709 21.3659497,71.8545005 C21.0990913,71.8942301 20.8353358,71.9339597 20.5684773,71.9675771 C20.2923098,72.0011944 20.0130393,72.0317557 19.7368718,72.0592608 C19.4451893,72.089822 19.1566098,72.1112149 18.8649273,72.1326077 C18.5608327,72.1540006 18.2567382,72.1692812 17.9526436,72.1815057 C17.633034,72.1937302 17.3103215,72.1998424 16.9907119,72.1998424 C16.9348578,72.2028986 16.8790037,72.2028986 16.8200466,72.2028986 L15.4081791,72.2028986 Z" id="Fill-1152" fill="url(#linearGradient-15)"></path>
                    <polyline id="Fill-1155" fill="url(#linearGradient-16)" points="49.9277108 94 49.7918417 93.9234956 49.7855223 93.9234956 49.7855223 93.9204354 49.7823625 93.9204354 49.7792028 93.9173752 49.776043 93.9173752 49.7728833 93.914315 38.4704703 87.5950493 38.4578313 87.588929 38.4578313 24.5217391 49.776043 30.8501854 49.9277108 94"></polyline>
                    <polygon id="Fill-1158" fill="url(#linearGradient-17)" points="49.6548805 30.9927536 38.4578313 24.5217391 44.4033331 23.1594203 55.6626506 29.2898551 49.6548805 30.6521739"></polygon>
                    <polyline id="Fill-1161" fill="url(#linearGradient-18)" points="29.4618474 19.0724638 18.2168675 12.5613329 23.8393574 11.5797101 35.0843373 18.090841 29.4618474 19.0724638"></polyline>
                    <polygon id="Fill-1164" fill="url(#linearGradient-19)" points="10.7951807 8.17391304 0 2.04347826 4.94882395 0 16.1927711 6.8115942 10.7951807 8.51449275"></polygon>
                    <path d="M15.8478123,72.2028986 C13.484247,72.2028986 11.1206817,71.5825055 8.96197913,70.3478318 C3.43374363,67.178632 0,61.2558653 0,54.8869045 L0,2.04347826 L11.0992782,8.42160738 L11.0992782,54.8869045 C11.0992782,57.2920735 12.3957228,59.5291556 14.4810417,60.7240998 C15.7193909,61.4331204 16.8109728,60.9563652 17.2206982,60.7179876 C17.6334813,60.47961 18.5874688,59.7736455 18.5874688,58.346436 L18.5874688,12.5932155 L29.686747,19.2463958 L29.686747,58.346436 C29.686747,63.3401413 27.1060884,67.8143056 22.7856256,70.3172705 C20.6146924,71.5733372 18.2297235,72.1998424 15.8478123,72.2028986" id="Fill-1167" fill="url(#linearGradient-20)"></path>
                </g>
                <circle id="Oval" fill="#0931D5" fill-rule="nonzero" opacity="0" cx="46.5" cy="99.5" r="6.5"></circle>
                <circle id="Oval" fill="#F1F1F1" fill-rule="nonzero" cx="42" cy="305" r="6"></circle>
                <circle id="Oval" fill="#0931D5" fill-rule="nonzero" opacity="0" cx="241.5" cy="221.5" r="12.5"></circle>
            </g>
        </g>
    </g>
</svg>