<svg width="1483" height="344" xmlns="http://www.w3.org/2000/svg" xmlns:xlink="http://www.w3.org/1999/xlink"><defs><linearGradient x1="50%" y1="0%" x2="50%" y2="100%" id="c"><stop stop-color="#F5F6FA" offset="0%"/><stop stop-color="#FFF" offset="100%"/></linearGradient><circle id="b" cx="683" cy="285" r="50"/><filter x="-7%" y="-5%" width="114%" height="114%" filterUnits="objectBoundingBox" id="a"><feOffset dy="2" in="SourceAlpha" result="shadowOffsetOuter1"/><feGaussianBlur stdDeviation="2" in="shadowOffsetOuter1" result="shadowBlurOuter1"/><feColorMatrix values="0 0 0 0 0.0117647059 0 0 0 0 0.0509803922 0 0 0 0 0.211764706 0 0 0 0.126160553 0" in="shadowBlurOuter1"/></filter><circle id="e" cx="270" cy="200" r="50"/><filter x="-7%" y="-5%" width="114%" height="114%" filterUnits="objectBoundingBox" id="d"><feOffset dy="2" in="SourceAlpha" result="shadowOffsetOuter1"/><feGaussianBlur stdDeviation="2" in="shadowOffsetOuter1" result="shadowBlurOuter1"/><feColorMatrix values="0 0 0 0 0.0117647059 0 0 0 0 0.0509803922 0 0 0 0 0.211764706 0 0 0 0.126160553 0" in="shadowBlurOuter1"/></filter><circle id="g" cx="1334" cy="163" r="52"/><filter x="-6.7%" y="-4.8%" width="113.5%" height="113.5%" filterUnits="objectBoundingBox" id="f"><feOffset dy="2" in="SourceAlpha" result="shadowOffsetOuter1"/><feGaussianBlur stdDeviation="2" in="shadowOffsetOuter1" result="shadowBlurOuter1"/><feColorMatrix values="0 0 0 0 0.0117647059 0 0 0 0 0.0509803922 0 0 0 0 0.211764706 0 0 0 0.126160553 0" in="shadowBlurOuter1"/></filter><circle id="i" cx="417" cy="156" r="50"/><filter x="-7%" y="-5%" width="114%" height="114%" filterUnits="objectBoundingBox" id="h"><feOffset dy="2" in="SourceAlpha" result="shadowOffsetOuter1"/><feGaussianBlur stdDeviation="2" in="shadowOffsetOuter1" result="shadowBlurOuter1"/><feColorMatrix values="0 0 0 0 0.0117647059 0 0 0 0 0.0509803922 0 0 0 0 0.211764706 0 0 0 0.126160553 0" in="shadowBlurOuter1"/></filter><circle id="k" cx="303" cy="59" r="50"/><filter x="-7%" y="-5%" width="114%" height="114%" filterUnits="objectBoundingBox" id="j"><feOffset dy="2" in="SourceAlpha" result="shadowOffsetOuter1"/><feGaussianBlur stdDeviation="2" in="shadowOffsetOuter1" result="shadowBlurOuter1"/><feColorMatrix values="0 0 0 0 0.0117647059 0 0 0 0 0.0509803922 0 0 0 0 0.211764706 0 0 0 0.126160553 0" in="shadowBlurOuter1"/></filter><circle id="m" cx="393" cy="286" r="50"/><filter x="-7%" y="-5%" width="114%" height="114%" filterUnits="objectBoundingBox" id="l"><feOffset dy="2" in="SourceAlpha" result="shadowOffsetOuter1"/><feGaussianBlur stdDeviation="2" in="shadowOffsetOuter1" result="shadowBlurOuter1"/><feColorMatrix values="0 0 0 0 0.0117647059 0 0 0 0 0.0509803922 0 0 0 0 0.211764706 0 0 0 0.126160553 0" in="shadowBlurOuter1"/></filter><circle id="o" cx="1501" cy="113" r="52"/><filter x="-6.7%" y="-4.8%" width="113.5%" height="113.5%" filterUnits="objectBoundingBox" id="n"><feOffset dy="2" in="SourceAlpha" result="shadowOffsetOuter1"/><feGaussianBlur stdDeviation="2" in="shadowOffsetOuter1" result="shadowBlurOuter1"/><feColorMatrix values="0 0 0 0 0.0117647059 0 0 0 0 0.0509803922 0 0 0 0 0.211764706 0 0 0 0.126160553 0" in="shadowBlurOuter1"/></filter><circle id="q" cx="539" cy="240" r="50"/><filter x="-7%" y="-5%" width="114%" height="114%" filterUnits="objectBoundingBox" id="p"><feOffset dy="2" in="SourceAlpha" result="shadowOffsetOuter1"/><feGaussianBlur stdDeviation="2" in="shadowOffsetOuter1" result="shadowBlurOuter1"/><feColorMatrix values="0 0 0 0 0.0117647059 0 0 0 0 0.0509803922 0 0 0 0 0.211764706 0 0 0 0.126160553 0" in="shadowBlurOuter1"/></filter><circle id="s" cx="1643" cy="52" r="52"/><filter x="-6.7%" y="-4.8%" width="113.5%" height="113.5%" filterUnits="objectBoundingBox" id="r"><feOffset dy="2" in="SourceAlpha" result="shadowOffsetOuter1"/><feGaussianBlur stdDeviation="2" in="shadowOffsetOuter1" result="shadowBlurOuter1"/><feColorMatrix values="0 0 0 0 0.0117647059 0 0 0 0 0.0509803922 0 0 0 0 0.211764706 0 0 0 0.126160553 0" in="shadowBlurOuter1"/></filter><circle id="u" cx="1245" cy="277" r="52"/><filter x="-6.7%" y="-4.8%" width="113.5%" height="113.5%" filterUnits="objectBoundingBox" id="t"><feOffset dy="2" in="SourceAlpha" result="shadowOffsetOuter1"/><feGaussianBlur stdDeviation="2" in="shadowOffsetOuter1" result="shadowBlurOuter1"/><feColorMatrix values="0 0 0 0 0.0117647059 0 0 0 0 0.0509803922 0 0 0 0 0.211764706 0 0 0 0.126160553 0" in="shadowBlurOuter1"/></filter><circle id="w" cx="1603" cy="222" r="52"/><filter x="-6.7%" y="-4.8%" width="113.5%" height="113.5%" filterUnits="objectBoundingBox" id="v"><feOffset dy="2" in="SourceAlpha" result="shadowOffsetOuter1"/><feGaussianBlur stdDeviation="2" in="shadowOffsetOuter1" result="shadowBlurOuter1"/><feColorMatrix values="0 0 0 0 0.0117647059 0 0 0 0 0.0509803922 0 0 0 0 0.211764706 0 0 0 0.126160553 0" in="shadowBlurOuter1"/></filter><circle id="y" cx="1447" cy="250" r="52"/><filter x="-6.7%" y="-4.8%" width="113.5%" height="113.5%" filterUnits="objectBoundingBox" id="x"><feOffset dy="2" in="SourceAlpha" result="shadowOffsetOuter1"/><feGaussianBlur stdDeviation="2" in="shadowOffsetOuter1" result="shadowBlurOuter1"/><feColorMatrix values="0 0 0 0 0.0117647059 0 0 0 0 0.0509803922 0 0 0 0 0.211764706 0 0 0 0.126160553 0" in="shadowBlurOuter1"/></filter><linearGradient x1="108.654%" y1="29.164%" x2="46.979%" y2="66.619%" id="z"><stop stop-color="#0052CC" offset="18%"/><stop stop-color="#2684FF" offset="100%"/></linearGradient></defs><g fill="none" fill-rule="evenodd"><g fill-rule="nonzero" transform="translate(-216 2)"><use fill="#000" filter="url(#a)" xlink:href="#b"/><use fill="url(#c)" xlink:href="#b"/></g><path d="M467.325 267L454 275.204v15.59l3.46 2.072v-15.591l9.868-6.097 9.876 6.088.04.024-.004 15.553 3.427-2.049v-15.59L467.325 267zm1.764 27.826l-1.764 1.096-1.765-1.102v-18.208l-4.57 2.86v15.588l6.335 3.94 6.39-3.968v-15.57l-4.626-2.864v18.228z" fill="#F37B1F"/><g fill-rule="nonzero" transform="translate(-216 2)"><use fill="#000" filter="url(#d)" xlink:href="#e"/><use fill="url(#c)" xlink:href="#e"/></g><g fill-rule="nonzero" transform="translate(-216 2)"><use fill="#000" filter="url(#f)" xlink:href="#g"/><use fill="url(#c)" xlink:href="#g"/></g><g fill-rule="nonzero" transform="translate(-216 2)"><use fill="#000" filter="url(#h)" xlink:href="#i"/><use fill="url(#c)" xlink:href="#i"/></g><g fill-rule="nonzero" transform="translate(-216 2)"><use fill="#000" filter="url(#j)" xlink:href="#k"/><use fill="url(#c)" xlink:href="#k"/></g><g fill-rule="nonzero" transform="translate(-216 2)"><use fill="#000" filter="url(#l)" xlink:href="#m"/><use fill="url(#c)" xlink:href="#m"/></g><g fill-rule="nonzero" transform="translate(-216 2)"><use fill="#000" filter="url(#n)" xlink:href="#o"/><use fill="url(#c)" xlink:href="#o"/></g><g fill-rule="nonzero" transform="translate(-216 2)"><use fill="#000" filter="url(#p)" xlink:href="#q"/><use fill="url(#c)" xlink:href="#q"/></g><g fill-rule="nonzero" transform="translate(-216 2)"><use fill="#000" filter="url(#r)" xlink:href="#s"/><use fill="url(#c)" xlink:href="#s"/></g><g fill-rule="nonzero" transform="translate(-216 2)"><use fill="#000" filter="url(#t)" xlink:href="#u"/><use fill="url(#c)" xlink:href="#u"/></g><g fill-rule="nonzero" transform="translate(-216 2)"><use fill="#000" filter="url(#v)" xlink:href="#w"/><use fill="url(#c)" xlink:href="#w"/></g><g fill-rule="nonzero" transform="translate(-216 2)"><use fill="#000" filter="url(#x)" xlink:href="#y"/><use fill="url(#c)" xlink:href="#y"/></g><path d="M113.25 49.735a19.235 19.235 0 0 1-5.655 1.59 10.076 10.076 0 0 0 4.33-5.585 19.395 19.395 0 0 1-6.257 2.447C103.876 46.225 101.315 45 98.481 45c-5.435 0-9.844 4.521-9.844 10.098 0 .791.085 1.56.254 2.3-8.185-.423-15.44-4.438-20.3-10.555a10.281 10.281 0 0 0-1.332 5.082c0 3.502 1.738 6.593 4.38 8.405a9.668 9.668 0 0 1-4.462-1.26v.124c0 4.894 3.395 8.977 7.903 9.901a9.39 9.39 0 0 1-2.595.356 9.523 9.523 0 0 1-1.854-.18c1.254 4.01 4.888 6.932 9.199 7.01-3.37 2.71-7.618 4.325-12.23 4.325-.795 0-1.58-.047-2.35-.139C69.609 83.327 74.787 85 80.346 85c18.116 0 28.019-15.385 28.019-28.73 0-.439-.009-.878-.026-1.308a20.211 20.211 0 0 0 4.911-5.227" fill="#00AAEC"/><path d="M53.935 204.306c.847-1.413.777-2.684.777-4.308v-.85c-1.06 0-2.12.072-3.039.283-1.693.497-3.034 1.555-3.034 3.817 0 1.766.918 2.967 2.47 2.967.213 0 .425-.07.564-.07.919-.214 1.767-.85 2.262-1.839zm.777-8.404v-.565c0-.99.07-2.121-.495-2.969-.493-.707-1.41-1.061-2.26-1.061h-.284c-1.41.143-2.683.92-3.034 2.475-.07.35-.283.704-.706.776l-3.955-.495c-.282-.07-.707-.28-.566-.847.85-4.452 4.662-6.007 8.261-6.216h.849c1.977 0 4.521.567 6.145 2.048 1.977 1.835 1.763 4.309 1.763 6.993v6.358c0 1.907.779 2.756 1.554 3.746.214.35.284.776-.07 1.058-.775.706-2.26 1.979-3.108 2.686-.28.21-.634.21-.988.07-1.34-1.13-1.554-1.626-2.33-2.686-1.342 1.414-2.47 2.19-3.815 2.616-.844.21-1.762.352-2.891.352-3.393 0-6.076-2.117-6.076-6.289 0-3.318 1.767-5.579 4.38-6.639 1.34-.636 2.964-.918 4.587-1.133 1.06-.14 2.12-.209 3.039-.278zm14.284 15.062l.004.202c-.023 1.263-.566 3.506-2.128 4.91a.947.947 0 0 1-.583.223h-.008a.693.693 0 0 1-.47-.185.676.676 0 0 1-.207-.495.83.83 0 0 1 .062-.31c.154-.409.387-1.024.58-1.638.197-.614.34-1.242.336-1.581a.637.637 0 0 0-.017-.177.806.806 0 0 0-.218-.073 3.599 3.599 0 0 0-.72-.057c-.405 0-.872.036-1.312.085-.514.071-.952.115-1.253.179l-.023.003-.03.002a.746.746 0 0 1-.574-.154.652.652 0 0 1-.233-.5c.01-.326.186-.54.4-.7a5.52 5.52 0 0 1 1.124-.63v-.015l.348-.113.011-.005.616-.206.002.042a8.36 8.36 0 0 1 1.77-.187c.768.002 1.406.093 1.844.262.147.064.282.122.423.277l.017.02.015.021c.14.211.209.465.224.798v.002zm-4.63 1.947c.502 0 .967.37.978.918 0 .309-.177.606-.432.796-.413.33-.849.627-1.286.889l-.02.013c-3.338 2.097-7.637 3.383-11.44 3.467-.118.002-.237.006-.353.006-5.978-.004-10.422-3.275-14.476-6.797a.851.851 0 0 1-.337-.659.739.739 0 0 1 .23-.536.798.798 0 0 1 .538-.21c.15 0 .306.042.457.121 4.32 2.4 8.602 4.836 13.851 4.832.119 0 .243 0 .365-.004 3.338-.071 6.945-.888 10.378-2.281v-.004l.316-.126.243-.102c.166-.07.34-.148.512-.216.152-.072.316-.11.476-.107z" fill="#343B45"/><path d="M323.365 264h-19.157a2.208 2.208 0 0 1-2.208-2.208v-35.584c0-1.22.988-2.208 2.208-2.208h35.584c1.22 0 2.208.988 2.208 2.208v35.584c0 1.22-.989 2.208-2.208 2.208H329.6v-15.49h5.2l.778-6.037H329.6v-3.854c0-1.748.486-2.939 2.992-2.939l3.197-.001v-5.4c-.553-.073-2.45-.238-4.658-.238-4.61 0-7.765 2.814-7.765 7.98v4.452h-5.212v6.037h5.212V264z" fill="#4460A0"/><path d="M191.121 288.288a13.629 13.629 0 0 0-3.462-6.934 13.406 13.406 0 0 0-2.585-2.172 13.492 13.492 0 0 0-5.8-2.095c-.256-.03-.515-.027-.767-.087H176.7c-.02.046-.062.029-.095.032a14.09 14.09 0 0 0-1.388.182c-3.357.639-6.114 2.294-8.248 4.967-1.755 2.2-2.722 4.722-2.93 7.534a13.796 13.796 0 0 0 .294 4.046c.22.991.55 1.949.995 2.864l.117.234a13.76 13.76 0 0 0 4.836 5.403c2.193 1.398 4.587 2.13 7.187 2.163.16.003.204.042.203.206-.008 1.397-.005 2.795-.004 4.193 0 .054.004.109.007.176.045-.018.073-.029.1-.042 2.615-1.233 5.015-2.792 7.155-4.745a20.43 20.43 0 0 0 1.225-1.22c.168-.182.334-.366.503-.547.26-.28.484-.59.729-.884.283-.34.537-.7.787-1.062a17.67 17.67 0 0 0 1.464-2.519c.21-.446.41-.896.587-1.356.006-.009.014-.016.018-.026.483-1.26.792-2.564.957-3.902.057-.466.094-.935.118-1.404a13.08 13.08 0 0 0-.196-3.005zm-18.315 8.549c-.185.027-.306-.076-.375-.243l.002-1.55c.01-.151-.052-.314.07-.448a.424.424 0 0 1 .22-.135c.269-.069.542-.123.787-.27a1.81 1.81 0 0 0 .857-1.17c.02-.08.038-.161.057-.242l-3.253-.005c-.094 0-.186-.004-.278-.03a.66.66 0 0 1-.488-.616c-.002-1.646.001-3.293.002-4.939-.022-.263 0-.51.22-.697a.615.615 0 0 1 .409-.164h4.783c.422-.001.66.13.66.861 0 .122.013 3.816 0 5.61-.01 1.19-.471 2.192-1.34 3.004l-.133.13c-.45.345-.936.618-1.487.768-.235.064-.474.1-.713.136zm9.472-.233a3.47 3.47 0 0 1-.034.02 7.31 7.31 0 0 1-.939.206c-.242.036-.426-.102-.429-.347l-.005-.516.009-.923a6.94 6.94 0 0 1-.004-.203c0-.237.091-.337.384-.404.371-.085.72-.206 1.01-.475.346-.323.521-.727.601-1.183l-3.005-.006h-.327c-.409-.007-.689-.291-.689-.704 0-1.626.003-3.252.004-4.878 0-.016-.002-.032-.003-.047-.031-.305.056-.554.325-.723a.619.619 0 0 1 .339-.093c1.584-.001 3.167 0 4.751-.002.422 0 .662.374.662.865v5.616a4.091 4.091 0 0 1-2.48 3.725c-.037.016-.073.036-.11.055 0 0-.04.01-.06.017z" fill="#7EB949"/><path d="M202 138c-13.255 0-24 9.95-24 22.222 0 6.994 3.49 13.232 8.944 17.305V186l8.172-4.485c2.18.604 4.491.93 6.884.93 13.255 0 24-9.95 24-22.223S215.255 138 202 138zm2.385 29.926l-6.112-6.519-11.925 6.519L199.466 154l6.26 6.519L217.504 154l-13.118 13.926z" fill="#007FFF"/><g fill-rule="nonzero"><path d="M1017.051 280.535l.819-1.814c.884.63 2.059.958 3.22.958.858 0 1.4-.315 1.4-.794-.014-1.335-5.135-.29-5.175-3.64-.013-1.702 1.57-3.012 3.815-3.012 1.333 0 2.666.315 3.616 1.033l-.765 1.852c-.872-.529-1.954-.907-2.983-.907-.7 0-1.162.315-1.162.718.013 1.31 5.174.592 5.227 3.792 0 1.739-1.544 2.96-3.762 2.96-1.623 0-3.115-.364-4.25-1.146m31.399-2.469a2.396 2.396 0 0 1-2.059 1.147c-1.306 0-2.362-1.008-2.362-2.256 0-1.247 1.056-2.255 2.362-2.255.885 0 1.65.467 2.06 1.147l2.256-1.197c-.845-1.436-2.468-2.419-4.316-2.419-2.732 0-4.95 2.117-4.95 4.724 0 2.608 2.218 4.725 4.95 4.725 1.861 0 3.471-.97 4.316-2.419l-2.257-1.197zm-22.253-9.751h2.824v13.191h-2.824zm25.619 0v13.19h2.824v-3.955l3.353 3.956h3.616l-4.263-4.7 3.946-4.384h-3.458l-3.194 3.641v-7.748zm-14.4 9.776c-.409.643-1.253 1.122-2.204 1.122-1.306 0-2.362-1.008-2.362-2.256 0-1.247 1.056-2.255 2.362-2.255.95 0 1.795.504 2.204 1.16v2.23zm0-5.669v1.07c-.462-.742-1.61-1.259-2.81-1.259-2.482 0-4.435 2.091-4.435 4.712 0 2.62 1.953 4.737 4.434 4.737 1.201 0 2.35-.517 2.811-1.26v1.07h2.825v-9.07h-2.825z" fill="#000"/><path d="M999.59 278.079c0 .92-.779 1.663-1.742 1.663-.964 0-1.742-.744-1.742-1.663 0-.92.778-1.663 1.742-1.663h1.742v1.663zm.871 0c0-.92.779-1.663 1.742-1.663.964 0 1.742.743 1.742 1.663v4.157c0 .92-.778 1.663-1.742 1.663-.963 0-1.742-.743-1.742-1.663v-4.157z" fill="#E01E5A"/><path d="M1002.203 271.402c-.963 0-1.742-.744-1.742-1.663 0-.92.779-1.663 1.742-1.663.964 0 1.742.743 1.742 1.663v1.663h-1.742zm0 .844c.964 0 1.742.743 1.742 1.663s-.778 1.663-1.742 1.663h-4.368c-.964 0-1.743-.744-1.743-1.663 0-.92.78-1.663 1.743-1.663h4.368z" fill="#36C5F0"/><path d="M1009.185 273.909c0-.92.779-1.663 1.742-1.663.964 0 1.743.743 1.743 1.663s-.78 1.663-1.743 1.663h-1.742v-1.663zm-.871 0c0 .92-.779 1.663-1.742 1.663-.964 0-1.742-.744-1.742-1.663v-4.17c0-.92.778-1.663 1.742-1.663.963 0 1.742.743 1.742 1.663v4.17z" fill="#2EB67D"/><path d="M1006.572 280.573c.963 0 1.742.744 1.742 1.663 0 .92-.779 1.663-1.742 1.663-.964 0-1.742-.743-1.742-1.663v-1.663h1.742zm0-.831c-.964 0-1.742-.744-1.742-1.663 0-.92.778-1.663 1.742-1.663h4.369c.963 0 1.742.743 1.742 1.663s-.779 1.663-1.742 1.663h-4.37z" fill="#ECB22E"/></g><g fill-rule="nonzero"><path d="M1092.047 160.04h2.248v2.35h-2.248v-2.35zm39.359 0h2.248v2.35h-2.248v-2.35z" fill="#525254"/><path d="M1087.079 163.234c-1.417 0-2.237.631-2.632 1.068-.047-.376-.296-.864-1.27-.864h-2.116v2.199h.867c.147 0 .194.046.194.192v10.039h2.522V172.1c0-.102-.002-.197-.005-.282.394.36 1.146.854 2.321.854 2.465 0 4.188-1.94 4.188-4.718 0-2.823-1.636-4.72-4.07-4.72m-.512 7.257c-1.357 0-1.974-1.29-1.974-2.486 0-1.884 1.038-2.555 2.008-2.555 1.19 0 1.991 1.019 1.991 2.537 0 1.731-1.018 2.504-2.024 2.504" fill="#231F1F"/><path d="M1094.468 170.095v-5.32c0-.9-.437-1.337-1.331-1.337h-2.253v2.199h.868c.146 0 .193.046.193.192v5.302c0 .912.423 1.336 1.328 1.336h2.256v-2.18h-.868c-.14 0-.193-.054-.193-.192" fill="#231F1F"/><path d="M1101.054 163.234c-1.417 0-2.235.631-2.632 1.068-.047-.376-.296-.864-1.27-.864h-2.116v2.199h.867c.147 0 .194.046.194.192v10.039h2.523V172.1c0-.102-.003-.197-.006-.282.392.36 1.147.854 2.321.854 2.465 0 4.188-1.94 4.188-4.718 0-2.823-1.635-4.72-4.069-4.72m-.514 7.257c-1.354 0-1.973-1.29-1.973-2.486 0-1.884 1.037-2.555 2.009-2.555 1.19 0 1.99 1.019 1.99 2.537 0 1.731-1.016 2.504-2.026 2.504m9.23-7.257c-2.716 0-4.615 1.941-4.615 4.72 0 2.733 2.05 4.718 4.874 4.718 2.221 0 3.579-1.306 3.636-1.361l.101-.1-1.098-1.81-.163.154c-.01.008-1.007.92-2.324.92-1.263 0-2.188-.766-2.406-1.967h5.979l.014-.164c.004-.023.054-.556.054-.816 0-2.568-1.628-4.294-4.051-4.294m-1.903 3.416c.274-.886.958-1.388 1.903-1.388.759 0 1.344.573 1.446 1.388h-3.349m15.125 3.445v-8.72c0-.898-.443-1.336-1.348-1.336h-2.254v2.199h.867c.146 0 .195.047.195.192v1.576c-.372-.334-1.1-.772-2.35-.772-2.447 0-4.155 1.941-4.155 4.72 0 2.822 1.636 4.718 4.07 4.718 1.39 0 2.192-.641 2.584-1.088.051.39.305.883 1.249.883h2.184v-2.179h-.85c-.139 0-.192-.056-.192-.193m-4.497.396c-1.2 0-1.975-.996-1.975-2.537 0-1.499.807-2.504 2.01-2.504 1.362 0 1.973 1.248 1.973 2.487 0 1.884-1.038 2.554-2.008 2.554m11.163-7.172c-1.05 0-2.015.601-2.588 1.56v-.207c0-.818-.455-1.234-1.348-1.234h-2.167v2.199h.867c.146 0 .194.046.194.192v6.638h2.521v-3.613c0-.476.061-.934.18-1.358.38-1.246 1.389-1.69 2.204-1.69.29 0 .5.031.503.032l.211.031v-2.488l-.153-.026a2.976 2.976 0 0 0-.424-.036m4.166 6.776v-5.32c0-.9-.434-1.337-1.329-1.337h-2.038v2.199h.651c.147 0 .194.046.194.192v5.302c0 .912.423 1.336 1.33 1.336h2.254v-2.18h-.868c-.14 0-.194-.054-.194-.192" fill="#231F1F"/><path d="M1143.3 165.637v-2.199h-1.346c-.785 0-1.207.27-1.456.936l-1.644 4.558c-.059.178-.11.359-.156.54a6.075 6.075 0 0 0-.166-.543l-1.644-4.557c-.252-.672-.66-.934-1.456-.934h-1.43v2.199h.37c.197 0 .26.066.308.188l2.544 6.642h2.835l2.545-6.642c.046-.122.111-.188.309-.188h.387" fill="#231F1F"/><path d="M1151.403 168.344c.002-.023.053-.556.053-.816 0-2.568-1.629-4.294-4.052-4.294-2.717 0-4.615 1.941-4.615 4.72 0 2.733 2.047 4.718 4.872 4.718 2.222 0 3.58-1.306 3.637-1.361l.103-.1-1.097-1.81-.166.154c-.009.008-1.01.92-2.322.92-1.265 0-2.19-.766-2.409-1.967h5.981l.015-.164zm-5.901-1.694c.275-.886.957-1.388 1.902-1.388.76 0 1.343.573 1.447 1.388h-3.35z" fill="#231F1F"/><path d="M1129.66 163.319c-.816 0-1.575.366-2.145.975.482-.004.966-.008 1.45-.008.426 0 .848.004 1.271.006v-.911l-.153-.026a2.976 2.976 0 0 0-.424-.036zm10.838 1.055l-.104.29c.975.066 1.942.14 2.906.222v-1.448h-1.345c-.786 0-1.208.27-1.457.936zm-53.42-1.14c-1.416 0-2.236.631-2.63 1.067-.048-.375-.297-.863-1.272-.863h-2.115v2.199h.867c.147 0 .194.046.194.192v5.594a106.74 106.74 0 0 1 3.556-1.157c-.74-.421-1.086-1.367-1.086-2.262 0-1.883 1.038-2.554 2.008-2.554 1.19 0 1.991 1.019 1.991 2.537 0 .638-.14 1.143-.364 1.53a121.3 121.3 0 0 1 2.866-.77c.032-.256.055-.52.055-.793 0-2.823-1.636-4.72-4.07-4.72zm6.059.204h-2.253v2.199h.868c.146 0 .193.046.193.192v2.708c.839-.208 1.68-.407 2.523-.597v-3.165c0-.899-.437-1.337-1.331-1.337zm-1.09-3.399h2.248v2.351h-2.248v-2.35zm9.008 3.195c-1.418 0-2.236.631-2.633 1.067-.047-.375-.295-.863-1.27-.863h-2.116v2.199h.867c.147 0 .194.046.194.192v1.753c.86-.18 1.723-.354 2.587-.52.289-1.163 1.107-1.612 1.892-1.612.71 0 1.275.367 1.62.982.87-.144 1.747-.283 2.63-.414-.574-1.72-1.95-2.784-3.771-2.784zm8.716 0c-1.985 0-3.529 1.038-4.219 2.68 1.072-.154 2.155-.297 3.247-.43a2.09 2.09 0 0 1 .972-.222c.139 0 .268.026.393.061.99-.11 1.991-.213 2.999-.307-.693-1.117-1.89-1.782-3.392-1.782zm11.874-3.195h-2.254v2.199h.867c.146 0 .195.047.195.192v1.576c-.372-.334-1.1-.772-2.35-.772-1.37 0-2.507.608-3.244 1.632a167.37 167.37 0 0 1 8.134-.478v-3.012c0-.899-.443-1.337-1.348-1.337zm4.079 3.4h-2.168v.933a170.51 170.51 0 0 1 3.471-.075c-.128-.568-.562-.859-1.303-.859zm5.682-3.4h2.248v2.351h-2.248v-2.35zm1.09 3.4h-2.038v.855c1.113.01 2.221.03 3.324.06-.126-.612-.546-.916-1.286-.916zm2.936 0h-1.43v.921c.979.03 1.952.065 2.92.109l-.034-.097c-.252-.672-.66-.934-1.456-.934zm11.972-.205c-1.55 0-2.83.633-3.647 1.69 1.184.103 2.361.22 3.525.347.18.02.355.037.531.058 1.124.126 2.235.264 3.336.414-.577-1.55-1.94-2.509-3.745-2.509z" fill="#3B3B3C"/></g><g fill-rule="nonzero"><path d="M1306 138.108a.856.856 0 0 1-.627.247.856.856 0 0 1-.626-.247.83.83 0 0 1-.25-.616c0-.247.083-.473.27-.637.168-.165.376-.227.606-.227.25 0 .46.083.626.247a.83.83 0 0 1 .25.617.7.7 0 0 1-.25.616m-1.127-1.13a.663.663 0 0 0-.209.493c0 .206.063.37.21.514a.698.698 0 0 0 .52.206.698.698 0 0 0 .523-.206.676.676 0 0 0 .208-.514.633.633 0 0 0-.208-.493.716.716 0 0 0-.522-.226.807.807 0 0 0-.522.226m.793.945a.405.405 0 0 1-.25.083.493.493 0 0 1-.501-.514c0-.144.042-.267.125-.37.084-.103.209-.144.355-.144a.55.55 0 0 1 .25.062.424.424 0 0 1 .209.328h-.23c-.02-.061-.041-.123-.083-.143-.042-.021-.083-.042-.125-.042a.19.19 0 0 0-.167.083.433.433 0 0 0-.063.246c0 .103.021.185.063.226.042.041.104.083.167.083a.303.303 0 0 0 .146-.042l.062-.123h.21a.401.401 0 0 1-.168.267m2.212-9.125c0-.083-.02-.165-.02-.247 0-.062-.021-.103-.021-.144a2.123 2.123 0 0 0-.084-.35 1.983 1.983 0 0 0-.918-1.068 2.88 2.88 0 0 0-.584-.206c-.063 0-.105-.02-.147-.02a3.002 3.002 0 0 0-.25-2.097l.042-.04c.25-.247.459-.473.647-.7l.041-.04c.147-.206.23-.412.293-.597.041-.164.083-.308.083-.452v-.39c-.02-.309-.062-.7-.271-1.13a2.905 2.905 0 0 0-.438-.638 2.553 2.553 0 0 0-.69-.534c-.02-.02-.04-.02-.062-.041a10.08 10.08 0 0 0-1.753-1.912 12.64 12.64 0 0 0-.793-.617c-.23-.164-.417-.287-.522-.37a3.613 3.613 0 0 0-.521-.328 5.127 5.127 0 0 1-.439-.288c-.062-.062-.104-.082-.125-.103 0 0 0-.02-.02-.061-.022-.062-.022-.144-.022-.288 0-.206 0-.514.021-.925.042-.658.105-1.542.188-2.754.021-.39.021-.76.021-1.09a7.901 7.901 0 0 0-.209-1.5c-.02-.103-.062-.206-.083-.308-.021-.083-.042-.124-.063-.165a1.405 1.405 0 0 0-.083-.205c-.021-.041-.021-.082-.063-.124-.042-.102-.083-.205-.146-.308l-.02-.02-.022-.062-.02-.041a3.011 3.011 0 0 0-.355-.493 7.425 7.425 0 0 0-.355-1.172 6.662 6.662 0 0 0-.689-1.315c-.104-.165-.23-.309-.355-.453l.042-.04a21.133 21.133 0 0 0 2.692-3.556c2.15-3.68 1.44-5.92.46-7.153l-.021-.041-.021-.041c-.94-1.028-2.233-1.645-3.799-1.85-3.276-.411-6.99 1.192-7.972 1.644l-1.794-1.932a3.56 3.56 0 0 0-.522-.452 5.77 5.77 0 0 0-.605-.35 4.84 4.84 0 0 0-1.378-.37c-.98-.123-2.108 0-3.318.309-1.816.452-3.84 1.356-5.969 2.61-2.128 1.254-4.34 2.878-6.49 4.81-2.63 2.343-4.8 4.83-6.386 7.214-.793 1.171-1.44 2.322-1.92 3.432-.48 1.09-.793 2.138-.919 3.083-.083.7-.083 1.357.063 1.953.063.267.146.514.271.76.146.309.334.596.564.843l1.857 1.912.209.205-.021.02-.063.124c-.041.062-.062.123-.104.164l-.063.124c-.02.061-.062.123-.083.185l-.063.123c-.02.062-.062.123-.083.185a.287.287 0 0 0-.042.123l-.062.185c-.021.041-.021.083-.042.124a2.474 2.474 0 0 0-.063.205c0 .02-.02.041-.02.062 0 .02-.022.04-.022.061-.02.062-.041.144-.062.206 0 .041-.021.082-.021.123 0 .02-.02.062-.02.083 0 .04-.022.082-.022.123 0 .041-.02.082-.02.123-.021.082-.021.165-.042.267 0 .02 0 .041-.021.083v.02c0 .062-.021.123-.021.165 0 .082-.021.185-.021.267v1.027c0 .042 0 .083.02.124 0 .04 0 .103.022.164v.062c0 .04.02.103.02.144 0 .04.022.082.022.144 0 .02 0 .04.02.061 0 .02.021.062.021.082v.042c0 .04.021.082.042.164 0 .02 0 .02.02.041a.22.22 0 0 1 .022.103l.02.041c0 .02 0 .02.021.041l.021.041v.062c0 .02 0 .02.021.04l.021.042c0 .041.021.062.021.103.02.04.02.082.042.164v-.02.02c0 .02 0 .02.02.041.021.062.042.103.042.124.021.04.042.082.063.164l.02.02c.022.042.022.083.043.103l.02.042c0 .02.021.04.021.061 0 .02.021.062.042.082l.02.042c.022.02.022.061.043.082.02.02.02.04.02.061.021.041.042.083.063.144l.021.02c.02.021.02.042.042.062.02.021.02.062.041.083.021.02.042.061.063.123l.02.02c.022.021.022.042.043.062.02.041.041.062.041.082a.462.462 0 0 1 .063.103v.02c.02.021.02.042.042.062.02.042.041.062.062.083.021.02.042.061.084.123.02.02.042.041.042.062.02.04.041.061.062.082a.42.42 0 0 1 .063.103c.02.02.042.061.062.082.021.04.042.061.084.082l.062.062.021.02c.042.041.063.082.105.124l.041.04.063.062.125.124.042.04.063.062.02.021c.042.041.105.082.147.144l.02.02c.021.02.042.02.063.062.063.062.125.103.188.164l.042.021.02.02.042.021c.063.041.105.082.167.123l.021.021c.02.02.042.02.042.02l.042.042c.041.04.083.061.125.102l.041.021.042.041.021.02c.042.021.104.062.146.083.021.02.042.041.084.041l.041.02.021.021h.021c.084.041.146.082.209.123l.042.02.25.124h.02l.043.02.125.062c.02 0 .042.021.062.021.021.02.042.02.084.041h.02c.043.02.084.041.126.041h.02c.043.02.084.041.147.062h.02l.043.02c.02 0 .041.021.062.021h.021c.063.02.125.041.209.062h.02c.105.04.21.061.314.082h.02c.084.02.188.041.272.062h.083c.084.02.167.04.25.04h.084c.063 0 .105.021.167.021 0 .02.021.041.021.062.146.39.292.78.46 1.15 2.462 6.722 9.286 11.942 17.07 12.908 7.785.946 16.112-4.151 19.493-11.037.146-.267.271-.514.396-.78.334-.35.605-.7.772-1.07.272-.226.334-.678.313-1.068m-43.22-2.672h.02-.02" fill="#664F44"/><path d="M1301.22 95.172a4.098 4.098 0 0 0-1.294-.945 1.045 1.045 0 0 0-.271-.082c-.042-.02-.084-.062-.125-.083a5.595 5.595 0 0 0-1.315-.328c-2.254-.288-4.842.534-6.303 1.11-.083.04-.167.061-.25.102-.125.062-.25.103-.376.165-.209.082-.417.185-.647.287-.042.021-.062.021-.104.042l-.397-.453-.188-.205-.167-.185-.062-.082-1.524-1.727-.125-.144-.167-.185h-.02l-.439.103-.5.103c-.272-.123-.606-.206-.982-.267-.751-.103-1.711 0-2.796.267-1.085.267-2.317.74-3.61 1.377-2.61 1.274-5.49 3.227-8.286 5.734a41.076 41.076 0 0 0-2.713 2.652 39.562 39.562 0 0 0-2.212 2.59c-1.357 1.746-2.38 3.432-3.047 4.953-.438 1.007-.71 1.932-.814 2.733-.083.576-.063 1.09.042 1.5.042.145.083.247.125.37.104.247.23.453.397.638l1.69 1.747.188.185.02-.02a.63.63 0 0 1 .168-.165l.02-.02.063-.062c.042-.062.104-.103.146-.165a.366.366 0 0 1 .105-.082c.041-.02.062-.062.104-.082l.042-.041c.041-.02.062-.062.104-.082.042-.042.104-.083.146-.124.021-.02.063-.04.084-.061h.02c.063-.042.105-.083.167-.124a.343.343 0 0 0 .105-.082c.062-.041.104-.082.167-.123.041-.02.062-.041.104-.062a.85.85 0 0 1 .188-.103c.042-.02.062-.04.104-.061.063-.042.125-.062.188-.103.042-.02.063-.041.104-.062l.042-.02c.063-.02.104-.062.167-.083.021-.02.063-.02.084-.04a.875.875 0 0 1 .146-.062l.125-.062.042-.02.313-.124c.041-.02.062-.02.104-.041.042-.02.063-.02.104-.041l.042-.02c.021 0 .042-.021.063-.021.041-.02.083-.02.146-.041h.042c.062-.02.104-.02.166-.041.042-.021.105-.021.147-.042.062-.02.125-.02.187-.04.021 0 .042-.021.084-.021.02 0 .062 0 .083-.02.063-.021.126-.021.188-.021.063 0 .105-.02.167-.02.042 0 .084-.021.125-.021h.167c.209 0 .46 0 .71.02h.042c.25.02.542.062.834.123.063.021.146.021.21.042.02-.021.02-.062.04-.083.168-.267.314-.555.48-.822a31.208 31.208 0 0 1 2.964-4.09c.355-.411.71-.78 1.065-1.15a27.566 27.566 0 0 1 4.299-3.598c.292-.205.605-.39.876-.575.397-.247.772-.452 1.127-.658.292-.164.564-.308.835-.432.438-.226.835-.41 1.19-.554l.313-.124c.146-.061.292-.123.417-.164-.104-.02-.23-.02-.334-.02h-.417c-.105 0-.23 0-.334.02l-.668.061c-.083.021-.146.021-.23.042a10.606 10.606 0 0 1 1.65-.658c.354-.103.709-.185 1.043-.247.459-.082.897-.144 1.294-.164.27-.02.521-.02.75-.02.23 0 .46.02.648.02a6.794 6.794 0 0 1 1.106.144c-.104-.144-.23-.247-.355-.35a3.525 3.525 0 0 0-.772-.41c-.104-.042-.188-.063-.271-.104a.653.653 0 0 0-.167-.04c.125-.021.23-.042.334-.042.125-.02.23-.02.354-.04.981-.083 1.858 0 2.505.102a7.8 7.8 0 0 1 1.252.329 1.926 1.926 0 0 0-.46-.555 4.811 4.811 0 0 0-.396-.288c.272.062.501.123.752.206.626.185 1.147.41 1.565.596l.375.185c.042.02.063.04.084.04.376.206.584.35.584.35a1.54 1.54 0 0 0-.355-.617c-.041-.04-.083-.102-.125-.143h.021c.021 0 .042.02.084.02.02 0 .062.02.104.041.167.062.417.165.71.309.02 0 .02.02.041.02l.125.062c.105.061.21.103.313.185l.314.185c.062.04.104.061.166.102.105.083.23.165.334.268.126.102.23.205.334.308l.063.062c.083.082.167.164.23.246.146.165.27.35.396.535.146.226.25.493.355.76 0 .02 0 .041.02.041.063-.061.188-.185.335-.35 1.21-1.397 4.841-5.919 2.65-8.673" fill="#132134"/><path d="M1306.625 128.942s.042-.309-.125-.597c0-.02-.02-.04-.02-.04l-.022-.021-.062-.062c-.042-.041-.084-.082-.146-.123-.021-.02-.063-.041-.105-.062-.104-.041-.208-.082-.355-.103-.104-.02-.208-.02-.333-.02h-.167v.04c0 .021.02.042.02.083 0 .02 0 .041.021.041.021.062.042.165.063.247 0 0 0 .02-.021.062v.02c-.063.144-.23.473-.605.884a2.058 2.058 0 0 1-.209.226c-1.043 1.069-3.297 2.57-8.056 3.412-1.606.226-3.11.246-4.361.082-1.879-.226-3.277-.822-3.945-1.624-.062-.061-.104-.144-.167-.205-.041-.062-.062-.103-.104-.165-.02-.02-.02-.04-.042-.061a3.201 3.201 0 0 1-.396-1.542c0-.637.209-1.233.542-1.685.272-.37.627-.658 1.065-.781a1.79 1.79 0 0 1 .668-.082.73.73 0 0 1 .187.02c.147.02.376.041.647.082.021 0 .063 0 .084.02.897.104 2.316.248 4.028.145 3.13-.185 7.241-1.151 10.977-4.48v-.021c.021-.288-.02-.781-.376-1.172a1.872 1.872 0 0 0-.208-.185c-.042-.041-.105-.062-.146-.103-.063-.02-.105-.061-.146-.082l-.188-.123v-.02a.419.419 0 0 0-.084-.124c-.96-1.439-2.295-2.281-2.838-2.672a3.076 3.076 0 0 0-.417-.267c-1.148-.699-1.315-.925-1.21-2.795.04-.679.104-1.563.187-2.775 0-.165.02-.308.02-.452v-.596c0-.103-.02-.206-.02-.288 0-.041 0-.082-.02-.123-.022-.103-.022-.206-.043-.309 0-.04-.02-.103-.02-.144 0-.061-.021-.102-.042-.164-.021-.041-.021-.103-.042-.144-.02-.062-.042-.123-.042-.185 0-.02-.02-.041-.02-.062 0-.02-.021-.04-.021-.061v-.02l-.021-.062c-.021-.042-.042-.083-.042-.124v-.02l-.02-.041-.022-.042c-.042-.082-.062-.164-.104-.226l-.021-.061c-.042-.062-.083-.144-.125-.206l-.021-.02-.021-.02c-.042-.042-.063-.083-.104-.124l-.042-.062c-.042-.062-.084-.103-.125-.144v-.164c-.021-.082-.042-.185-.063-.288 0-.02-.02-.062-.02-.082v-.02c0-.042-.022-.062-.022-.103a1.147 1.147 0 0 0-.083-.247c0-.02-.021-.062-.021-.082l-.063-.185c-.02-.041-.02-.083-.041-.103a.725.725 0 0 0-.084-.185l-.062-.123c-.021-.062-.063-.124-.084-.185l-.062-.124c-.042-.061-.063-.123-.105-.185l-.062-.123c-.042-.062-.084-.123-.126-.206-.02-.04-.041-.061-.062-.102-.021-.02-.042-.062-.063-.082-.062-.062-.104-.124-.167-.185l-.042-.021c-.083-.082-.146-.164-.23-.226l-.02-.02a.45.45 0 0 1-.104-.083h-.021c-.042-.02-.063-.041-.105-.062l-.02-.02c-.042-.02-.105-.062-.188-.103-.021-.02-.063-.02-.105-.041-.187-.062-.417-.144-.71-.226-.02 0-.04 0-.062-.02-.23-.062-.5-.124-.793-.165-.104-.02-.188-.02-.292-.041-.042 0-.083 0-.146-.02h-.063c-.23-.021-.438-.042-.668-.042h-.02c-.293 0-.585.02-.856.082.063-.102.25-.226.417-.328.23-.124.439-.206.439-.206-.126 0-.25.02-.376.041-.042 0-.084.02-.125.02-.021 0-.063 0-.084.021h-.02c-.021 0-.042 0-.063.02-.647.145-1.273.37-1.628.515l-.125.061h-.021c-.042 0-.063 0-.104.02.25-.472.626-.719.918-.842.042-.02.104-.041.146-.062.02 0 .02 0 .042-.02.041-.02.083-.02.104-.041.063-.02.104-.02.104-.02h-.334a5.03 5.03 0 0 0-1.899.616 7.6 7.6 0 0 0-1.001.658c-.084.02-.147.04-.23.04-.793.165-1.69.37-2.63.658-.354.103-.71.226-1.064.35-.271.103-.563.205-.835.308-.208.082-.396.165-.605.247-1.44.637-2.88 1.48-4.07 2.61l-.125.123-.313.309-.125.123a1.15 1.15 0 0 1-.146.164c-.23.247-.438.514-.647.802a7.069 7.069 0 0 0-.417.658l-.021.02a8.522 8.522 0 0 0-.71 1.521 9.988 9.988 0 0 0-.271.843c-.021.082-.042.144-.063.226l-.02.041a7.198 7.198 0 0 0-.188.966c0 .062-.021.123-.021.206a3.901 3.901 0 0 0-.042.513c-.021.165-.021.309-.021.473v.637c0 .185 0 .37.02.555v.02c0 .186.022.37.043.576 0 .083.02.165.02.247v.062c0 .04 0 .082.021.143.021.206.063.432.084.658 0 .062.02.124.02.185.042.185.063.39.105.576 0 0-.042-.247-.02-.617 0-.082.02-.185.02-.267a2.85 2.85 0 0 1 .146-.678l.063-.185c0-.02.02-.041.042-.083a2.44 2.44 0 0 1 .166-.328c.021.082.021.164.042.226v1.089c.021.699.084 1.541.23 2.26 0 0 .02-1.294.25-1.458 0 0 .397 2.425.752 3.33.041.123.104.205.146.266v-.246l-.042-1.336v-.144c.271.555.584 1.11.939 1.706.104.164.188.329.292.493-.668.576-1.294 1.418-1.753 2.405-.062.164-.146.329-.209.493-.041.103-.062.185-.104.288 0 .02-.02.062-.02.082-.022.062-.043.144-.063.206 0 .04-.021.061-.021.102-.021.062-.042.144-.063.206 0 .041-.02.062-.02.103l-.063.308c-.021.103-.042.206-.042.308 0 .041 0 .062-.021.103 0 .082-.02.144-.02.226 0 .041 0 .082-.022.123 0 .083-.02.144-.02.227v.719c0 .082 0 .164.02.267v.062c0 .103.021.205.042.329 0 .04 0 .061.02.102 0 .083.022.144.043.226 0 .042.02.083.02.124.021.061.021.144.042.205 0 .041.021.083.021.124a.6.6 0 0 1 .042.205c.02.041.02.082.042.144.02.062.041.144.062.206.021.04.021.082.042.123.02.062.042.144.063.205.02.042.02.083.041.124.021.082.063.164.084.226.02.041.02.062.042.103l.313.678c.02.041.041.062.062.103l.125.246a.43.43 0 0 0 .084.124c.042.061.083.144.125.205.021.041.063.082.084.123.041.062.083.144.146.206.041.041.062.082.104.144.042.062.104.144.146.205.042.042.063.083.104.144.063.062.105.144.167.206.042.04.063.082.105.123.062.082.125.144.208.226l.105.103c.104.103.208.226.313.329 0 0-.063-.082-.146-.247a.156.156 0 0 1-.042-.103l-.063-.123a.994.994 0 0 1-.062-.144 3.404 3.404 0 0 1-.292-1.48l.187.247c.063.144.167.329.272.534a.954.954 0 0 1 .104.206c.167.288.334.617.543.925.25.39.5.76.772 1.11 0 0-.313-.658-.418-1.09-.02-.123-.041-.226-.02-.287.02.02.041.061.083.082.021.02.042.062.084.082.041.062.104.144.187.247l.042.04c.042.042.063.104.104.145.042.061.084.123.147.185.438.555 1.043 1.295 1.46 1.685.147.123.272.226.355.267l-.605-1.068c1.377 1.11 7.096 2.528 12.71.945a14.838 14.838 0 0 0 2.024-.72c.396-.164.793-.37 1.19-.575l.062-.041c.271-.144.543-.308.814-.473.209-.123.417-.267.605-.39.334-.226.668-.473 1.002-.74.02-.02.042-.041.063-.041.313-.267.626-.555.897-.843.376-.39.71-.781 1.002-1.172l.02-.02c.084-.103.147-.185.21-.288l.02-.02c.021-.041.042-.062.063-.103.104-.144.188-.267.292-.411.02-.041.042-.062.063-.103a1.38 1.38 0 0 1 .146-.226c.041-.062.062-.103.104-.164a.83.83 0 0 0 .104-.185c.063-.103.126-.227.188-.33l.063-.123.125-.246.063-.124.02-.04c.042-.103.105-.206.147-.309v-.02c.187-.165.313-.33.438-.473.02-.02.042-.041.042-.062.125-.39.208-.699.208-.986m-33.579-3.988c0-.02 0-.041-.02-.082a9.138 9.138 0 0 1-.147-1.09v-.082c-.062.02-.125.103-.209.206-.02.041-.062.082-.083.144-.188.35-.355.842-.355.842.021-.164.042-.328.042-.493v-.061l.063-.514v-.062c.02-.205.062-.39.104-.575 0-.021 0-.042.02-.083v-.02c0-.02 0-.041.022-.062 0-.041.02-.062.02-.103.021-.144.063-.287.084-.431.02-.124.042-.247.063-.35v-.04c0-.021 0-.042.02-.042v-.041c0-.02.021-.062.021-.082 0-.02 0-.041.021-.062 0-.041.021-.082.021-.103 0-.02.02-.061.02-.082 0-.04.022-.082.022-.103 0-.02 0-.04.02-.061 0-.02 0-.041.022-.041 0-.041.02-.062.02-.083v-.061l-.041.04c-.042.021-.063.063-.105.083l-.041.041a.547.547 0 0 0-.105.124l-.02.02-.126.185-.02.02c0 .021-.022.021-.022.042l-.062.123v.041c-.021.062-.063.123-.084.185-.062.165-.125.329-.167.473-.02.04-.02.103-.041.123a1.66 1.66 0 0 0-.042.185v.02-.02c0-.062 0-.103.02-.164 0-.103.022-.226.022-.33 0-.081.02-.184.041-.266 0-.02 0-.062.021-.083 0-.04.021-.082.021-.123 0-.041.021-.082.021-.123v-.062c0-.041.02-.103.02-.144v-.144c0-.02 0-.04.022-.061a.72.72 0 0 0 .041-.206v-.02c.021-.041.021-.103.042-.144v-.02c.021-.104.063-.206.084-.31v-.04c0-.02 0-.041.02-.062.042-.164.105-.329.147-.473v-.02c.041-.123.104-.267.146-.39v-.021c.02-.062.041-.103.062-.165.042-.082.063-.164.105-.246 0-.02.02-.062.062-.144.021-.02.021-.062.042-.082.02-.041.042-.083.063-.144l.02-.041.355-.637c.021-.021.021-.062.042-.083v-.02l.02-.041c.043-.062.084-.144.126-.206.063-.103.104-.205.167-.288.104-.185.188-.349.25-.431.021-.062.042-.082.063-.103-.02 0-.125-.082-.292-.185a9.66 9.66 0 0 0-.856-.452c-.125-.062-.23-.103-.355-.165-.146-.061-.313-.123-.48-.185-.041-.02-.083-.02-.125-.04-.146-.042-.271-.083-.417-.124a5.549 5.549 0 0 1-.292-.062c-.084-.02-.167-.02-.25-.04-.042 0-.084 0-.126-.021-.042 0-.083 0-.125-.02-.105 0-.23-.021-.334-.021h-.167c-.25 0-.48.02-.71.061h-.041a6.147 6.147 0 0 0-1.21.309c-.126.04-.251.102-.397.164-.042.02-.063.041-.105.041l-.125.062c-.376.185-.73.431-1.064.699h-.021a5.36 5.36 0 0 0-.772.76l-.188.247a2.675 2.675 0 0 0-.209.308c-.125.185-.25.39-.355.596-.041.082-.083.144-.104.226 0 .02-.02.02-.02.041-.21.493-.376 1.007-.439 1.562-.02.103-.02.206-.042.33v.04c0 .082-.02.165-.02.267v.37c0 .083 0 .165.02.247v.103c0 .061.021.123.021.185v.02c0 .041 0 .062.021.103 0 .062.02.123.02.164 0 .042.022.083.022.124.02.061.02.103.041.164 0 .041.021.082.042.124v.02l.021.041v.041l.02.041c.022.042.022.083.043.124.02.04.02.103.041.144.021.04.042.082.042.144l.021.04c.02.042.02.062.042.103.02.041.041.083.062.144l.063.124c.02.02.02.04.042.061.02.02.02.041.041.062l.063.123c.02.041.042.103.084.144.02.041.041.082.062.103.021.041.063.103.084.144.02.04.041.061.062.102a.605.605 0 0 0 .105.144c.02.041.041.062.062.083.042.04.063.102.105.143.02.021.041.062.062.083.042.04.084.102.125.144.021.02.042.04.063.082.042.04.083.103.125.144l.063.061c.042.041.083.103.146.144l.062.062.147.144c.02.02.041.04.062.04.042.042.105.083.167.145.021.02.042.02.063.04.062.042.104.083.167.124.02.02.041.02.041.041l.188.124.042.02.188.123.042.021c.062.041.146.082.208.123l.042.02a.98.98 0 0 0 .209.104l.041.02c.084.041.147.062.23.103l.02.02c.084.042.168.062.23.103h.021c.084.02.167.062.25.082h.022c.041.021.083.021.125.042.042.02.083.02.146.04h.02c.084.021.189.042.272.062.084.02.188.041.271.041.293.042.585.062.877.083h.209c.104 0 .187 0 .292-.02.125-.021.271-.021.417-.042.125-.02.25-.041.355-.062.188-.04.376-.082.543-.144.542-.143 1.001-.349 1.293-.575 0 0-.187-.822-.333-1.644-.042-.041-.063-.124-.084-.206" fill="#90694C"/><path d="M1286.444 94.412l-.062-.822.417-.905.167-.04c-.271-.124-.605-.206-.98-.268-.752-.103-1.712 0-2.797.267-1.086.267-2.317.74-3.61 1.377-2.61 1.275-5.49 3.227-8.286 5.735a41.076 41.076 0 0 0-2.713 2.651 39.562 39.562 0 0 0-2.212 2.59c-1.357 1.747-2.38 3.432-3.047 4.953-.438 1.007-.71 1.932-.814 2.734-.084.575-.063 1.09.042 1.5.041.144.083.247.125.37.104.247.23.452.396.637l1.69 1.747.189.185.02-.02a.63.63 0 0 1 .168-.165l.02-.02.063-.062c.042-.062.104-.103.146-.164.042-.041.063-.062.104-.083.042-.02.063-.061.105-.082l.042-.04c.041-.021.062-.062.104-.083.042-.041.104-.082.146-.123.02-.02.063-.041.083-.062h.021c.063-.041.105-.082.167-.123a.366.366 0 0 0 .105-.083c.062-.04.104-.082.167-.123.041-.02.062-.041.104-.062.063-.04.125-.082.188-.102.041-.02.062-.041.104-.062.063-.041.125-.062.188-.103.042-.02.063-.04.104-.061l.042-.02c.397-1.09 1.002-2.303 1.795-3.536.96-1.521 2.191-3.124 3.652-4.727a40.706 40.706 0 0 1 3.005-2.98 44.21 44.21 0 0 1 4.258-3.371 36.999 36.999 0 0 1 2.817-1.768c.083-.041.167-.103.271-.144.25-.144.48-.267.73-.39a20.55 20.55 0 0 1 1.545-.72l-.25-.287-.042-.042-.313-.349-1.732-2.055.02-1.48-.02-.02 1.231-.37 2.337 1.17" fill="#2F83C1"/><path d="M1306.625 128.942s.042-.309-.125-.597c0-.02-.02-.04-.02-.04l-.022-.021-.062-.062c-.042-.041-.084-.082-.146-.123-.021-.02-.063-.041-.105-.062-.104-.041-.208-.082-.355-.103-.104-.02-.208-.02-.333-.02h-.167v.04c0 .021.02.042.02.083 0 .02 0 .041.021.041.021.062.042.165.063.247 0 0 0 .02-.021.062v.02c-.063.144-.23.473-.605.884a2.058 2.058 0 0 1-.209.226c-1.043 1.069-3.297 2.57-8.056 3.412-1.606.226-3.11.246-4.361.082-1.879-.226-3.277-.822-3.945-1.624-.062-.061-.104-.144-.167-.205-.041-.062-.062-.103-.104-.165-.02-.02-.02-.04-.042-.061a3.201 3.201 0 0 1-.396-1.542c0-.637.209-1.233.542-1.685.272-.37.627-.658 1.065-.781a1.79 1.79 0 0 1 .668-.082.73.73 0 0 1 .187.02c.147.02.376.041.647.082.021 0 .063 0 .084.02.897.104 2.316.248 4.028.145 3.13-.185 7.241-1.151 10.977-4.48v-.021c.021-.288-.02-.781-.376-1.172a1.872 1.872 0 0 0-.208-.185c-.042-.041-.105-.062-.146-.103-.063-.02-.105-.061-.146-.082l-.188-.123v-.02a.419.419 0 0 0-.084-.124c-.96-1.439-2.295-2.281-2.838-2.672-.25-.185-.417-.267-.417-.267-1.148-.699-1.315-.925-1.21-2.795.04-.679.104-1.563.187-2.775 0-.165.02-.308.02-.452v-.596c0-.103-.02-.206-.02-.288 0-.041 0-.082-.02-.123-.022-.103-.022-.206-.043-.309 0-.04-.02-.103-.02-.144 0-.061-.021-.102-.042-.164-.021-.041-.021-.103-.042-.144-.02-.062-.042-.123-.042-.185 0-.02-.02-.041-.02-.062 0-.02-.021-.04-.021-.061v-.02l-.021-.062c-.021-.042-.042-.083-.042-.124v-.02l-.02-.041-.022-.042c-.042-.082-.062-.164-.104-.226l-.021-.061c-.042-.062-.083-.144-.125-.206l-.021-.02-.021-.02c-.042-.042-.063-.083-.104-.124l-.042-.062c-.042-.062-.084-.103-.125-.144l-.167-.164c-.063-.041-.125-.082-.188-.103-.02-.02-.042-.02-.063-.02l-.125-.062c-.02 0-.042-.02-.062-.02-.042-.021-.084-.021-.105-.042-.02 0-.042-.02-.083-.02-.042 0-.063-.02-.105-.02h-.459c-.02 0-.042 0-.062.02-.021 0-.042 0-.063.02-.042 0-.083.02-.146.041h-.042c-.125.041-.23.082-.355.124l-.041.02c-.042.02-.084.041-.146.062l-.063.02-.125.062-.063.041-.125.062-.063.04c-.041.021-.083.063-.125.083l-.042.02c-.041.042-.104.062-.146.103l-.02.021c-.063.041-.105.082-.168.103-.104.061-.208.144-.313.205a2.942 2.942 0 0 1-.27.185l-.043.02a1.91 1.91 0 0 1-.271.165l-.042.02c-.083.062-.188.104-.271.165l-.042.02a1.283 1.283 0 0 1-.292.145l-.042.02c-.104.041-.187.082-.292.124l-.042.02c-.104.041-.208.062-.313.103h-.02c-.105.02-.23.04-.334.061a5.478 5.478 0 0 1-.585.042 7.61 7.61 0 0 1-.96-.062l-.313-.062c-.042 0-.083-.02-.104-.02-.271-.062-.564-.124-.835-.185-.125-.02-.23-.062-.355-.082a22.236 22.236 0 0 0-.584-.124c-.042 0-.084-.02-.104-.02-.021 0-.063-.02-.084-.02-.042 0-.083-.021-.125-.021-.042 0-.084-.021-.125-.021h-.042c-.042 0-.084-.02-.104-.02-.084-.021-.167-.042-.272-.042-.02 0-.062 0-.083-.02-.063 0-.125-.02-.188-.02-.042 0-.063 0-.104-.021-.063 0-.105-.02-.167-.02h-.96c-.105 0-.188.02-.292.02h-.084c-.063 0-.125.02-.188.02h-.02c-.042 0-.063.02-.105.02-.063.021-.125.021-.188.042-.042 0-.083.02-.104.02a.617.617 0 0 1-.188.042c-.042 0-.063.02-.104.04-.063.021-.146.042-.209.062-.042.02-.063.02-.084.041-.104.042-.208.083-.292.124a6.597 6.597 0 0 0-2.003 1.767 7.703 7.703 0 0 0-.501.74 6.345 6.345 0 0 0-.417.843c-.042.082-.063.164-.105.247-.042.143-.104.287-.146.431 0 .02 0 .041-.02.041-.042.165-.084.33-.126.514-.042.185-.063.35-.083.535-.021.102-.021.185-.021.287a4.88 4.88 0 0 0 0 .781v.062c0 .062 0 .123.02.206.021.184.042.37.084.554.02.062.042.124.042.206.02.062.02.123.042.185.125.473.313.904.542 1.274.856 1.46 2.275 2.343 3.318 2.816.397.165.814.329 1.253.473l-.042.04c-.084.021-.167.042-.271.063-.147.04-.334.102-.522.164-.209.062-.46.164-.71.267a8.329 8.329 0 0 0-2.087 1.192c-.083.062-.167.144-.25.206a3.53 3.53 0 0 0-.397.39l-.041.041-.063.062c-.042.062-.104.103-.146.165l-.063.061c-.062.082-.125.165-.167.247-.062.082-.104.164-.167.246-.396.679-.626 1.5-.563 2.487v-.04c0-.021 0-.042.02-.062v-.02c0-.021.022-.042.022-.083v-.02c0-.021.02-.062.02-.103 0-.042.021-.062.042-.103v-.02c.021-.042.021-.083.042-.124v-.02c.02-.042.02-.083.042-.124v-.02a.994.994 0 0 0 .062-.144l.021-.02c.021-.042.042-.104.084-.145.041-.082.083-.144.125-.226.02-.02.042-.062.062-.082l.021-.02.126-.186c.041-.04.083-.102.125-.144l.042-.04c.041-.042.062-.083.104-.103l.042-.041c.041-.042.104-.083.146-.144 0 0-.898 2.014-.501 3.596v-.308c0-.04 0-.082.02-.123 0-.041 0-.082.022-.123v-.021c0-.041.02-.103.02-.144v-.041c.021-.062.021-.103.042-.164v-.021a.627.627 0 0 0 .042-.164c0-.021.02-.042.02-.062l.022-.041c.02-.041.041-.103.062-.144a.83.83 0 0 1 .105-.185c0-.02.02-.041.02-.041l.126-.185s-.042.493-.042 1.09c0 .102 0 .184.02.287 0 .062 0 .123.022.185-.021.411-.021.822.02 1.254.063.72.251 1.5.564 2.302 0 0-.292-.925.125-1.85l.125.247c.042.267.084.657.167 1.089.084.72.418 2.877 1.92 4.378 0 0-.563-.72-.48-1.645.063.124.126.227.167.33.25.472.752 1.335 1.315 1.952 0 0-.438-.843-.334-1.028 0 0 1.461 1.788 1.92 1.953l-.605-.987-.02-.02c2.107 1.52 5.029 2.076 8.618 1.089.626-.164 1.252-.39 1.92-.658.397-.164.793-.37 1.19-.575l.062-.041c.272-.144.543-.309.814-.473.21-.123.418-.267.606-.39.334-.227.667-.473 1.001-.74.021-.021.042-.042.063-.042a12.486 12.486 0 0 0 1.9-2.014l.02-.02c.083-.103.146-.185.209-.288l.02-.02c.021-.042.042-.062.063-.103.104-.144.188-.268.292-.412.021-.04.042-.061.063-.102a1.38 1.38 0 0 1 .146-.226c.042-.062.063-.103.104-.165a.807.807 0 0 0 .105-.185c.062-.103.125-.226.188-.329l.062-.123.125-.247.063-.123.02-.041c.043-.103.105-.206.147-.308v-.02c.188-.165.313-.33.438-.474.021-.02.042-.04.042-.061.188-.267.271-.576.271-.863m-33.746-5.242c-.062.02-.125.103-.209.206-.02.041-.062.082-.083.144-.188.35-.355.842-.355.842.021-.164.042-.328.042-.493v-.061l.063-.514v-.062c.02-.205.062-.39.104-.575 0-.021 0-.042.02-.083v-.02c0-.02 0-.041.022-.062 0-.041.02-.062.02-.103.021-.144.063-.287.084-.431.02-.124.042-.247.063-.35v-.04c0-.021 0-.042.02-.042v-.041c0-.02.021-.062.021-.082 0-.02 0-.041.021-.062 0-.041.021-.082.021-.103 0-.02.02-.061.02-.082 0-.04.022-.082.022-.103 0-.02 0-.04.02-.061 0-.02 0-.041.022-.041 0-.041.02-.062.02-.083v-.061l-.041.04c-.042.021-.063.063-.105.083l-.041.041a.53.53 0 0 0-.105.124l-.02.02-.126.185-.02.02c0 .021-.022.021-.022.042l-.062.123v.041c-.021.062-.063.123-.084.185-.062.165-.125.329-.167.473-.02.04-.02.103-.041.123a1.66 1.66 0 0 0-.042.185v.02-.02c0-.062 0-.103.02-.164 0-.103.022-.226.022-.33 0-.081.02-.184.041-.266 0-.02 0-.062.021-.083 0-.04.021-.082.021-.123 0-.041.021-.082.021-.123v-.062c0-.041.02-.103.02-.144v-.144c0-.02 0-.04.022-.061a.72.72 0 0 0 .041-.206v-.02c.021-.041.021-.103.042-.144v-.02c.021-.104.063-.206.084-.31v-.04c0-.02 0-.041.02-.062.042-.164.105-.329.147-.473v-.02c.041-.123.104-.267.146-.39v-.021c.02-.062.041-.103.062-.165.042-.082.063-.164.105-.246 0-.02.02-.062.062-.144.021-.02.021-.062.042-.082.02-.041.042-.083.063-.144l.02-.041c-.02-.02-.062-.02-.083-.041h-.02l-.043-.021a5.243 5.243 0 0 0-.605-.226h-.042a2.995 2.995 0 0 0-.417-.082c-.083 0-.167-.02-.25-.02h-.21c-.103 0-.208.02-.312.02-.042 0-.063 0-.104.02-.042 0-.105.02-.147.02-.02 0-.041 0-.062.021-.042 0-.063.02-.105.02-.062.021-.146.042-.208.063-.021 0-.063.02-.084.02-.083.041-.188.062-.271.103-.042.02-.063.041-.104.041l-.126.062-.041.02a.43.43 0 0 0-.126.082.437.437 0 0 0-.125.083c-.041.02-.083.061-.125.082-.02.02-.063.041-.083.062-.063.061-.147.123-.21.185l-.103.102c-.063.062-.105.124-.167.185l-.021.02c-.021.042-.063.062-.084.104l-.062.061a3.61 3.61 0 0 0-.293.473c-.02.02-.02.041-.041.062-.042.082-.063.164-.105.246-.02.041-.02.062-.041.103-.021.082-.063.164-.084.267v.082c-.02.062-.02.124-.042.185 0 .042 0 .062-.02.103 0 .041 0 .062-.021.103v.082c0 .103-.021.206 0 .308 0 .083 0 .165.02.247v.041c0 .041.021.082.021.124.021.164.063.308.105.472.041.124.083.226.125.33.083.205.188.39.313.575.25.37.584.698.98.945.21.144.46.247.71.329.23.082.48.144.752.164.062 0 .125.02.167.02h.271c.083 0 .167-.02.25-.02.042 0 .105 0 .147-.02.125-.02.23-.041.354-.062h.021c.042-.02.084-.02.146-.041a2.51 2.51 0 0 0 .418-.164l.02-.021c.042-.02.084-.041.105-.041a9.138 9.138 0 0 1-.146-1.09c.104-.04.104-.061.104-.082" fill="#FCE9CD"/><path d="M1286.966 94.658l.063.042-.063-.042z" fill="#4D9ED7"/><path d="M1305.352 128.099c0-.02 0-.041-.02-.041-.022-.041-.022-.062-.022-.083a2.924 2.924 0 0 0-.354-.76c-.146-.226-.272-.35-.272-.35l.063-.246c.02-.103.042-.206.042-.308a2.93 2.93 0 0 0-.272-1.645.994.994 0 0 0-.062-.143c-.125.082-.23.164-.355.246-2.254 1.5-4.78 2.467-7.513 2.878-1.878.287-3.86.308-5.927.061l.042.02s-1.252.165-1.586 1.337l.02.02-.104.781c.042 1.07.522 1.727 1.085 2.076.585.226 1.294.39 2.087.494 1.357.164 2.943.123 4.529-.124 2.129-.287 5.134-1.397 7.284-2.836.48-.329.939-.678 1.314-1.028l.021-.02.021-.02c0-.145-.02-.227-.02-.31" fill="#FFF"/><g fill="#F2D2AC"><path d="M1301.283 117.945c-1.148-.698-1.315-.924-1.21-2.795.04-.678.104-1.562.187-2.775 0-.164.02-.308.02-.452v-.596c0-.102-.02-.205-.02-.287 0-.042 0-.083-.02-.124-.022-.103-.022-.205-.043-.308 0-.041-.02-.103-.02-.144 0-.062-.021-.103-.042-.164-.021-.042-.021-.103-.042-.144a2.853 2.853 0 0 0-.584-.637l-.042-.042-.042-.02h-.02c-.042-.02-.063-.041-.105-.062a.419.419 0 0 1-.104-.061 3.06 3.06 0 0 0-1.127-.39c-.23-.042-.46-.042-.689-.042-.104 0-.23.02-.334.02a7.766 7.766 0 0 0-.897.186c-.105.061-.209.143-.313.205a3.052 3.052 0 0 1-.272.185l-.041.02a1.91 1.91 0 0 1-.272.165l-.041.02c-.084.062-.188.103-.272.165l-.041.02a1.283 1.283 0 0 1-.293.144l-.041.021c-.105.041-.188.082-.293.123l-.041.02c-.105.042-.209.062-.313.104h-.021c-.105.02-.23.04-.334.061a5.75 5.75 0 0 1-.584.041c-.314 0-.627-.02-.96-.061l-.314-.062c-.041 0-.083-.02-.104-.02-.271-.062-.563-.124-.835-.185-.125-.021-.23-.062-.354-.083a27.571 27.571 0 0 0-.585-.123c-.042 0-.083-.02-.104-.02-.167 0-.334.02-.48.04h-.042a7.07 7.07 0 0 0-1.419.33c-.02 0-.042.02-.083.02-.084.02-.147.062-.23.082-.104.041-.188.082-.292.123-.689.288-1.336.7-1.962 1.213-.25.206-.48.432-.71.658-.333.35-.626.72-.897 1.11-.02.02-.02.04-.042.061a5.076 5.076 0 0 0-.375.638 2.287 2.287 0 0 1-.126.226v.02c-.125.267-.23.514-.313.781 0 .02 0 .041-.02.041-.021.041-.021.083-.042.124a2.456 2.456 0 0 0-.105.37 2.154 2.154 0 0 0-.083.39c0 .02-.02.062-.02.082-.022.083-.022.165-.043.226-.041.288-.062.576-.083.864v.205c.125.473.313.905.543 1.274.855 1.46 2.274 2.344 3.318 2.816.396.165.814.33 1.252.473l.02.02.022-.02c.062-.041.104-.082.167-.123.02-.02.041-.02.062-.041l.188-.124c.021-.02.042-.02.063-.04l.188-.124c.02-.02.041-.02.062-.041.063-.041.125-.082.209-.124.02-.02.042-.02.062-.04.063-.042.147-.083.21-.124.02-.02.04-.02.062-.041.062-.041.146-.082.208-.123.021-.021.063-.021.084-.042.063-.04.146-.082.209-.123a.16.16 0 0 1 .083-.041c.063-.041.146-.082.23-.123.041-.02.062-.041.104-.041.083-.042.146-.083.23-.103.041-.02.062-.041.104-.041.083-.041.146-.062.23-.103l.125-.062c.083-.04.146-.061.23-.102a.898.898 0 0 1 .145-.062c.084-.02.146-.062.23-.082.042-.02.104-.041.146-.062.083-.02.146-.062.23-.082.062-.02.104-.041.167-.062.083-.02.146-.062.23-.082l.187-.062c.063-.02.146-.04.209-.082.062-.02.146-.041.208-.062.063-.02.146-.04.209-.061.083-.02.167-.041.23-.062.062-.02.125-.041.208-.062a1.96 1.96 0 0 0 .272-.082c.041-.02.083-.02.125-.04.334-.844 1.356-2.94 3.088-3.166.188-.02.355-.041.522-.041h.125a2.243 2.243 0 0 1-.041-.39c-.063-.905.23-1.666.626-1.686.313-.02.563.431.605.575.125.268.209.617.23 1.007.02.35-.021.679-.084.966.042.042.063.083.104.103.397.494.46 1.151.439 1.645.146-.021.313-.021.48-.042.041 0 .083 0 .125-.02h.083c.188-.02.397-.041.606-.041.459-.041.918-.062 1.398-.082a20.136 20.136 0 0 0-.438-.227m4.361 12.661a12.92 12.92 0 0 1-2.337 1.624 15.7 15.7 0 0 1-3.569 1.357c-1.607.39-2.713.39-2.713.39.877.473 1.983.473 2.734.411.522-.041.877-.144.877-.144-.021.309-.063.596-.105.884a4.256 4.256 0 0 1-.25.822v.02a4.454 4.454 0 0 1-.46.823c-.02.02-.041.062-.062.082l.063-.041c.271-.144.542-.308.814-.473.208-.123.417-.267.605-.39.334-.226.668-.473 1.002-.74.02-.02.041-.041.062-.041a12.486 12.486 0 0 0 1.9-2.014l.02-.021c.084-.103.146-.185.209-.288l.02-.02c.022-.041.043-.062.063-.103.105-.144.188-.267.293-.411.02-.041.041-.062.062-.103a1.38 1.38 0 0 1 .146-.226c.042-.062.063-.103.105-.164a.83.83 0 0 0 .104-.185c.063-.103.125-.227.188-.33l.062-.123.126-.246.062-.124.021-.04c.042-.103.104-.206.146-.309-.083.02-.125.062-.188.123m-19.033-8.283a8.265 8.265 0 0 0-.71.268 8.329 8.329 0 0 0-2.086 1.192c-.084.061-.167.143-.25.205a3.53 3.53 0 0 0-.397.39l-.042.042-.063.061c-.041.062-.104.103-.146.165l-.062.062a1.698 1.698 0 0 0-.167.246c-.063.082-.105.165-.167.247-.397.678-.626 1.5-.564 2.487v-.041c0-.02 0-.041.021-.062v-.02c0-.021.021-.042.021-.083v-.02c0-.02.021-.062.021-.103 0-.041.02-.062.042-.103v-.02c.02-.042.02-.083.041-.124v-.02c.021-.041.021-.083.042-.124v-.02a.994.994 0 0 0 .063-.144l.02-.02c.022-.042.042-.103.084-.144.042-.083.084-.144.125-.227.021-.02.042-.061.063-.082l.02-.02.126-.185c.042-.041.084-.103.125-.144l.042-.041c.042-.041.063-.083.104-.103l.042-.041c.042-.041.104-.082.146-.144 0 0-.897 2.014-.5 3.597v-.308c0-.042 0-.083.02-.124 0-.04 0-.082.021-.123v-.02c0-.042.021-.103.021-.145v-.04c.02-.062.02-.103.042-.165v-.02c.02-.062.041-.124.041-.165 0-.02.021-.041.021-.062l.021-.04c.021-.042.042-.104.063-.145a.83.83 0 0 1 .104-.185c0-.02.021-.04.021-.04l.125-.186s-.042.493-.042 1.09c0 .102 0 .185.021.287 0 .062 0 .124.021.185a8.004 8.004 0 0 1 .334-1.788c.042-.144.104-.308.146-.452 0-.02.021-.041.021-.062.063-.144.104-.267.167-.41.02-.021.02-.042.042-.083.062-.123.125-.267.188-.39.02-.021.02-.042.02-.062.147-.267.293-.514.439-.74.02-.02.02-.041.041-.062.063-.082.126-.164.188-.267.021-.02.021-.041.042-.062.02-.02.02-.04.042-.061.083-.103.146-.206.23-.309.02-.02.02-.04.041-.04.084-.103.167-.206.25-.288.105-.124.21-.226.314-.35.083-.082.146-.164.23-.226l.083-.082c.167-.165.334-.329.5-.473.46-.41.835-.678.96-.76-.083.02-.166.04-.27.061a3.252 3.252 0 0 1-.502.185"/><path d="M1298.632 117.863s0-.04-.02-.123c-.084-.288-.376-.987-1.524-.884-1.21.123-1.628 1.09-1.732 1.418-.021.062-.021.103-.021.103l.042.02c.146-.123.438-.123.71.062.124.083.208.165.291.267.105.165.125.33.063.453l-.063.061s.042.02.125.041c.334.103 1.274.288 1.774-.349.021-.041.042-.062.063-.103-.104-.04-.146-.185-.146-.37 0-.082.02-.164.042-.267.062-.247.25-.39.396-.329m-6.031 8.797a42.25 42.25 0 0 1-2.004.37c.021 0 .063 0 .084.02.897.103 2.316.247 4.028.144 3.13-.185 7.241-1.15 10.977-4.48v-.02c.021-.288-.02-.782-.376-1.172a1.872 1.872 0 0 0-.208-.185c-.021 0-.021-.02-.042-.02-.104-.062-.188-.104-.271-.165l-.188-.124v-.02c-.23.329-.501.637-.793.925a5.074 5.074 0 0 1-.334.308c-1.023.904-2.358 1.685-3.798 2.302-2.38 1.028-5.05 1.706-7.075 2.117m-19.784-5.364c-.042.02-.063.061-.105.082l-.042.041c-.041.041-.083.082-.104.123l-.02.02-.126.186-.02.02c0 .02-.022.02-.022.041l-.062.124v.04c-.021.063-.063.124-.084.186a6.52 6.52 0 0 0-.167.473c-.02.04-.02.102-.042.123-.02.082-.041.164-.041.185v.02-.02c0-.062 0-.103.02-.165 0-.102.021-.226.021-.328 0-.083.021-.185.042-.268 0-.02 0-.061.021-.082 0-.04.021-.082.021-.123 0-.041.02-.082.02-.123v-.062c0-.041.022-.103.022-.144v-.143c0-.021 0-.042.02-.062a.72.72 0 0 0 .042-.206v-.02c.021-.042.021-.103.042-.144v-.021c.02-.103.063-.206.084-.308v-.041c0-.02 0-.042.02-.062.042-.164.105-.329.146-.473v-.02c.042-.124.105-.268.147-.39v-.021c.02-.062.041-.103.062-.165.042-.082.063-.164.105-.246 0-.021.02-.062.062-.144.021-.02.021-.062.042-.083.02-.04.042-.082.062-.143l.021-.042c-.02-.02-.062-.02-.083-.04h-.021l-.042-.021a5.243 5.243 0 0 0-.605-.226h-.042a2.995 2.995 0 0 0-.417-.082c-.084 0-.167-.021-.25-.021h-.21c-.104 0-.208.02-.312.02-.042 0-.063 0-.105.021-.041 0-.104.02-.146.02-.02 0-.041 0-.062.021-.042 0-.063.02-.105.02-.062.021-.146.042-.208.062-.021 0-.063.02-.084.02-.083.042-.188.063-.271.104-.042.02-.063.04-.104.04l-.126.062-.041.021a.437.437 0 0 0-.126.082.44.44 0 0 0-.125.082c-.042.021-.083.062-.125.083-.021.02-.063.04-.084.061-.062.062-.146.124-.208.185l-.105.103c-.062.062-.104.123-.167.185l-.02.02c-.021.042-.063.062-.084.103l-.063.062a3.61 3.61 0 0 0-.292.473c-.02.02-.02.04-.041.061-.042.083-.063.165-.105.247-.02.041-.02.062-.042.103 0 .02.021.04.021.061.021.083.042.144.063.227v.04c.02.062.063.145.083.206.084.206.167.39.272.555.02.02.02.041.041.062v.02l.021.02c.063.124.126.227.188.31.105.143.188.246.25.328l.042.041c0 .02.021.02.021.02l.042.042c0-.041-.02-.082-.02-.103a3.315 3.315 0 0 1-.084-.781v-.041c0-.164 0-.329.02-.473l.063.185c.021.082.063.165.084.247v.04c.125.35.27.638.417.864.167.288.313.473.417.596.021.02.042.041.042.062l.042.041a3.855 3.855 0 0 1-.105-.822v-.267c0-.124 0-.226.021-.33.042.186.105.37.167.535v.02c.23.597.501 1.028.689 1.296l.02.02c.043.041.063.082.084.123.021.021.042.042.042.062l.042.041.02.02v-.04c0-.041-.02-.083-.02-.124-.021-.143-.042-.287-.063-.41 0-.083-.02-.186-.02-.268v-.452c0-.103.02-.226.02-.329.021.062.042.144.063.206.02.04.042.102.062.143v.021l.021.02c.021.062.042.124.063.165.042.103.083.206.146.288.063.123.104.226.167.308.042.062.063.103.083.144.042.062.084.123.105.164.042.041.062.083.083.124l.021.02c.021.041.063.062.084.103.02.02.041.041.041.062.042.04.063.082.084.082l.02.02v-.061c.022-.165.042-.35.063-.514v-.062c.021-.205.063-.39.105-.575 0-.02 0-.041.02-.082v-.021c0-.02 0-.041.021-.062 0-.04.021-.061.021-.102.021-.144.063-.288.084-.432a9.4 9.4 0 0 1 .062-.35v-.04c0-.021 0-.042.021-.042v-.04c0-.021.021-.062.021-.083 0-.02 0-.041.021-.062 0-.04.02-.082.02-.102 0-.02.022-.062.022-.083 0-.04.02-.082.02-.102 0-.02 0-.041.021-.062 0-.02 0-.041.021-.041 0-.041.021-.062.021-.082v-.062l.105.062m25.293 8.591c.293-.103.543-.185.752-.267.396-.165.605-.288.605-.33-.02-.04-.25-.02-.668.083-.209.041-.459.082-.772.165a3.326 3.326 0 0 1-.48.082c-.167.02-.355.061-.543.082-.375.062-.793.103-1.252.144l-.689.062c-.23.02-.48.02-.73.04-1.002.021-2.108-.02-3.235-.225-.584-.103-1.398-.37-1.961-.679l-.021-.02c.334-1.172 1.586-1.336 1.586-1.336l-.042-.02h-.063c-.187-.021-.334-.042-.48-.062-.104-.021-.187-.021-.25-.042-.063 0-.125-.02-.146-.02-.751-.041-1.169.575-1.294.843l-.063.123a2.511 2.511 0 0 0-.208.822 2.262 2.262 0 0 0 .542 1.665c.292.35.793.658 1.44.904-.563-.35-1.064-1.027-1.085-2.076.647.267 1.377.432 1.94.535 1.19.226 2.36.246 3.382.185.25-.02.522-.041.751-.062.25-.041.48-.062.71-.082.459-.082.855-.144 1.252-.226.188-.041.375-.083.542-.144a2.6 2.6 0 0 0 .48-.144"/></g><path d="M1297.13 116.157c.626.02 1.043.206 1.335.494.063-.268.105-.596.084-.966a2.783 2.783 0 0 0-.23-1.008c-.042-.164-.292-.596-.605-.575-.397.02-.689.781-.626 1.685 0 .124.02.247.042.37m1.043 2.323c0 .164.063.308.146.37.146.082.334-.082.418-.35 0-.02.02-.04.02-.061.063-.247 0-.494-.146-.555-.146-.082-.334.082-.417.35 0 .081-.021.164-.021.246m-2.838.452a.965.965 0 0 0 .292.288c.271.164.563.185.73.04l.063-.06c.063-.124.042-.289-.063-.453a.733.733 0 0 0-.292-.267c-.271-.165-.563-.185-.71-.062a.284.284 0 0 0-.062.082c-.063.103-.042.268.042.432m10.038 9.455c-.396.37-.835.719-1.336 1.048-2.15 1.439-5.154 2.569-7.283 2.836-1.607.247-3.172.288-4.529.123a9.395 9.395 0 0 1-2.087-.493c-.647-.246-1.148-.555-1.44-.904-.438-.514-.563-1.13-.542-1.665.02-.288.083-.575.208-.822l.063-.123c.146-.268.543-.905 1.294-.843.02 0 .083 0 .146.02.063 0 .167.021.25.042.146.02.293.04.48.061h.063c2.066.247 4.049.226 5.927-.061 2.734-.412 5.26-1.378 7.513-2.878.125-.082.23-.164.355-.247l1.231-1.808c-3.736 3.35-7.847 4.316-10.977 4.5-1.712.104-3.13-.02-4.028-.143-.042 0-.063 0-.084-.02-.27-.042-.48-.062-.647-.083-.083 0-.146-.02-.187-.02-.23-.02-.46.02-.668.082-.418.123-.793.411-1.065.781a2.905 2.905 0 0 0-.542 1.685c0 .514.125 1.049.396 1.542.021.02.021.04.042.061.042.062.063.103.104.165.042.062.105.144.167.205.647.802 2.066 1.378 3.945 1.624 1.273.165 2.755.144 4.361-.082 4.759-.843 7.013-2.364 8.056-3.412a2.05 2.05 0 0 0 .209-.226c.375-.432.542-.76.605-.884v-.02a.162.162 0 0 0 .02-.062l-.02.02" fill="#664F44"/><path d="M1290.243 112.15a1.932 1.932 0 0 0-.48-.186c-.105-.02-.21-.04-.334-.061-.042 0-.084 0-.126-.02a4.829 4.829 0 0 0-1.043.04c-.104.02-.209.041-.292.083-.751.226-1.273.616-1.649 1.068-.292.37-.5.76-.605 1.151-.021.041-.021.062-.021.103-.02.103-.063.206-.083.288a4.801 4.801 0 0 0-.105.863c0 .329.021.534.021.534.125-.287.271-.534.417-.78.355-.597.73-1.09 1.127-1.48.752-.76 1.524-1.172 2.108-1.378.626-.205 1.065-.226 1.065-.226m9.036-1.048l-.02-.04a1.396 1.396 0 0 0-.314-.289c-.292-.185-.688-.287-1.231-.185 0 0-.647.144-1.023.576 0 0 1.127-.473 2.338.37.104.082.23.164.334.267.104.103.23.206.334.35 0 0-.042-.514-.355-.967-.021-.04-.042-.061-.063-.082" fill="#E9B784"/><path d="M1290.389 119.281a33.99 33.99 0 0 1 1.419-.37c.083-.39.104-.863.042-1.377-.147-1.192-.69-2.117-1.232-2.055-.542.062-.855 1.09-.71 2.281.084.617.251 1.151.48 1.521" fill="#664F44"/><path d="M1287.905 92.418l-1.127.247.23 2.014-2.985-1.5-1.23.37.02.02 3.631 4.07.042-.02.042-.021c.104-.062.23-.144.334-.206a.437.437 0 0 0 .125-.082c.167-.103.334-.206.5-.288l-1.544-1.747 2.484 1.192c.083-.04.146-.082.23-.123l-.23-1.747 1.127 1.295h.02c.105-.041.189-.103.293-.144l.042-.02.041-.021c.021 0 .042-.02.042-.02l.125-.062s.021 0 .021-.021c.125-.062.272-.123.397-.185l-2.63-3" fill="#FFD250"/><path d="M1286.8 92.726v-.061.061m0-.061l.166-.041c-.271-.124-.605-.206-.98-.267-.752-.103-1.712 0-2.797.267-1.086.267-2.317.74-3.61 1.377-2.61 1.274-5.49 3.227-8.286 5.734a41.076 41.076 0 0 0-2.713 2.652l3.38 4.11c.92-.986 1.9-1.973 2.985-2.939a42.229 42.229 0 0 1 4.341-3.432 34.316 34.316 0 0 1 4.111-2.446l-.584-2.631.02-1.48-.02-.02 1.231-.37 2.4 1.212-.062-.822.417-.904" fill="#4D9ED7"/><path d="M1286.8 92.665l-.418.904.062.843.585.288-.23-2.035zm-.857 2.61l2.505 1.213-.96.534-1.545-1.747zm2.505-.678l.23 1.747.897-.452-1.127-1.295z" fill="#132134"/><path d="M1297.88 93.96h.46c.417 0 .814.061 1.19.144.02 0 .041 0 .062.02h.021l.042.02h.042c-.042-.02-.084-.061-.126-.082a5.595 5.595 0 0 0-1.314-.328c-2.254-.288-4.842.534-6.303 1.11-.084.04-.167.061-.25.102-.126.062-.251.103-.376.165-.209.082-.418.185-.647.287-.042.021-.063.021-.104.042-.126.061-.272.123-.397.185 0 0-.02 0-.02.02l-.126.062c-.021 0-.042.02-.042.02h-.083l-.021.02a1.92 1.92 0 0 0-.292.145h-.021c-.021.02-.042.02-.063.04h-.02c-.022 0-.042.021-.042.021-.147.083-.293.144-.439.226-.104.062-.208.103-.313.165h-.02c-.084.041-.147.082-.23.123-.25.124-.48.267-.73.411-.021.02-.042.02-.084.041-.021.02-.042.02-.063.041-.02.021-.041.021-.062.042l-.021.02c-.167.103-.334.185-.501.288a.437.437 0 0 0-.125.082c-.105.062-.23.144-.334.206l-.042.02-.042.02-.939.617c-.522.35-1.022.7-1.523 1.07-.063.04-.125.102-.188.143-1.315.966-2.567 2.014-3.777 3.083a73.558 73.558 0 0 0-3.653 3.515 49.562 49.562 0 0 0-1.586 1.623c-.876.925-1.356 1.5-1.335 1.521 0 0 .083-.061.23-.205l-.335.39c1.92-2.014 4.028-4.07 6.303-6.001a61.377 61.377 0 0 1 4.299-3.35 66.372 66.372 0 0 1 1.983-1.336c.208-.144.438-.268.647-.412.104-.061.208-.123.333-.185a.85.85 0 0 1 .188-.102c.126-.062.23-.144.355-.206.104-.061.23-.123.334-.205.063-.041.125-.062.188-.103l.438-.247c.084-.04.167-.103.25-.144.272-.144.543-.287.835-.431.021-.02.042-.02.063-.041l.125-.062c.063-.02.104-.062.167-.082.021-.02.042-.02.063-.041l.125-.062s.02 0 .02-.02h.022a5.15 5.15 0 0 1 .354-.165c.021 0 .042-.02.063-.041l.125-.062c.146-.061.272-.123.418-.185.041-.02.083-.04.104-.061.02 0 .042-.021.063-.021a.3.3 0 0 1 .125-.041c.167-.062.313-.144.48-.206.146-.061.271-.123.417-.185a30.909 30.909 0 0 1 2.212-.822c1.294-.35 2.442-.575 3.444-.616" fill="#FFF"/></g><path d="M1367.54 221.869c2.168 0 3.226 1.092 3.226 2.856 0 1.326-.586 2.123-1.783 2.427 1.573.269 2.351 1.147 2.351 2.687 0 1.746-1.154 2.937-3.531 2.937h-4.398V221.87h4.135zm-2.675 1.424v3.25h2.483c1.381 0 1.95-.644 1.95-1.701s-.612-1.558-1.95-1.558l-2.483.009zm0 4.585v3.394h2.981c1.399 0 2.028-.52 2.028-1.612 0-1.164-.603-1.791-2.054-1.791l-2.955.009zm8.847-6.591a.917.917 0 0 1 .97.86v.134a.986.986 0 0 1-.97.994.986.986 0 0 1-.97-.994c-.035-.51.34-.959.839-.994a.323.323 0 0 1 .131 0zm-.708 3.188h1.399v8.301h-1.399v-8.301zm6.714 6.904c.297-.009.586-.045.874-.116v1.379c-.306.09-.62.134-.935.134-1.74 0-2.58-1.048-2.58-2.588V225.8h-1.31v-1.325h1.31v-1.765h1.356v1.765h2.16v1.325h-2.16v4.361c0 .726.42 1.218 1.285 1.218zm6.626 1.558c-1.18 0-2.089-.546-2.579-1.63v1.46h-1.398V221h1.407v4.961c.516-1.092 1.495-1.657 2.736-1.657 2.16 0 3.244 1.872 3.244 4.317-.009 2.346-1.137 4.316-3.41 4.316zm-.21-7.307c-1.25 0-2.36.815-2.36 2.66v.662c0 1.845 1.023 2.66 2.212 2.66 1.573 0 2.386-1.066 2.386-2.991-.017-1.988-.795-2.991-2.237-2.991zm5.07-1.155h1.4v5.024c0 1.495.585 2.158 1.914 2.158 1.294 0 2.186-.878 2.186-2.561v-4.621h1.398v8.301h-1.398v-1.361a2.85 2.85 0 0 1-2.562 1.531c-1.862 0-2.937-1.325-2.937-3.609v-4.862zm14.722 8.086c-.49.269-1.232.376-1.975.376-2.885 0-4.24-1.79-4.24-4.343 0-2.507 1.346-4.298 4.24-4.298a4.134 4.134 0 0 1 1.932.411v1.326a3.986 3.986 0 0 0-1.845-.394c-2.107 0-2.963 1.361-2.963 2.973 0 1.612.874 2.973 2.998 2.973.63.018 1.25-.08 1.845-.295l.008 1.271zm1.591.215V221h1.4v7.361l3.487-3.886h1.819l-3.812 4.074 3.969 4.227h-1.897l-3.567-3.886v3.886h-1.399zm11.479.161c-3.034 0-4.363-1.79-4.363-4.343 0-2.507 1.364-4.298 3.83-4.298 2.5 0 3.496 1.782 3.496 4.298v.645h-5.918c.192 1.415 1.084 2.328 2.998 2.328a7.02 7.02 0 0 0 2.466-.448v1.326c-.656.367-1.679.492-2.51.492zm-2.964-4.907h4.52c-.079-1.54-.76-2.427-2.16-2.427-1.477-.009-2.22.976-2.369 2.418v.009h.01zm10.797 3.35c.297-.01.585-.046.874-.117v1.379a3.31 3.31 0 0 1-.936.134c-1.74 0-2.579-1.048-2.579-2.588V225.8h-1.31v-1.325h1.31v-1.765h1.364v1.765h2.16v1.325h-2.16v4.361c-.009.726.411 1.218 1.277 1.218z" fill="#253858" fill-rule="nonzero"/><path d="M1350.555 229.212h2.404l.585-3.475h-3.628z"/><path d="M1346.376 222.182a.37.37 0 0 0-.376.376c0 .018 0 .045.009.063l1.565 9.725c.043.242.244.43.49.43h7.5a.37.37 0 0 0 .367-.313l1.565-9.833a.369.369 0 0 0-.306-.43c-.018 0-.044-.009-.061-.009l-10.753-.009zm6.583 7.03h-2.396l-.647-3.475h3.628l-.585 3.475z" fill="#2684FF" fill-rule="nonzero"/><path d="M10.997 4.737H7.544l-.577 3.475H4.563L1.731 11.65c.087.08.201.125.323.125h7.51a.37.37 0 0 0 .367-.313l1.066-6.726z" fill="url(#z)" fill-rule="nonzero" transform="translate(1346 221)"/><path d="M1427.09 61.298l-9.485 7.758-13.555-8.673 9.373-7.354 13.667 8.269 13.667-8.27 9.373 7.355-13.555 8.673-9.485-7.758zM1417.605 37l-13.555 8.673 9.373 7.354 13.667-8.269-9.485-7.758zm9.513 25.967l-9.513 7.736-4.07-2.605v2.92L1427.117 79l13.583-7.983v-2.92l-4.07 2.606-9.513-7.736zm23.012-17.294L1436.575 37l-9.485 7.759 13.667 8.269 9.373-7.355z" fill="#0F82E2"/><g fill-rule="nonzero" fill="#CF272D"><path d="M1230.974 272.682c-9.751 0-17.656-7.905-17.656-17.656 0-9.75 7.905-17.655 17.656-17.655 9.75 0 17.655 7.905 17.655 17.655 0 9.751-7.904 17.656-17.655 17.656zm0-41.63c-13.24 0-23.974 10.734-23.974 23.974S1217.733 279 1230.974 279c13.24 0 23.973-10.733 23.973-23.974 0-13.24-10.733-23.973-23.973-23.973z"/><path d="M1231.96 249.056a4.985 4.985 0 1 1 9.969 0 4.985 4.985 0 0 1-9.97 0m0 11.94a4.985 4.985 0 1 1 9.97.001 4.985 4.985 0 0 1-9.97 0m-11.94 0a4.985 4.985 0 1 1 9.97 0 4.985 4.985 0 0 1-9.97 0m0-11.941a4.985 4.985 0 1 1 9.969 0 4.985 4.985 0 0 1-9.97 0"/></g></g></svg>