<?xml version="1.0" encoding="UTF-8"?>
<svg width="807px" height="200px" viewBox="0 0 807 200" version="1.1" xmlns="http://www.w3.org/2000/svg" xmlns:xlink="http://www.w3.org/1999/xlink">
    <!-- Generator: Sketch 51.1 (57501) - http://www.bohemiancoding.com/sketch -->
    <title>logo</title>
    <desc>Created with Sketch.</desc>
    <defs>
        <path d="M0.531999987,6.32266651 L4.73466655,1.86799995 C5.47599986,1.07999997 6.48133317,0.645333317 7.56266648,0.645333317 C7.71066647,0.645333317 7.85733314,0.653333317 8.00133313,0.67066665 C8.84133311,0.766666648 9.61066643,1.12533331 10.2279997,1.70666662 C10.9839997,2.41866661 11.417333,3.38399992 11.4466664,4.41999989 C11.4786664,5.45999986 11.1026664,6.44533317 10.3879997,7.20133315 L6.04133318,11.8106664 C4.48399989,9.70266642 2.6266666,7.8559998 0.531999987,6.32266651" id="path-1"></path>
        <linearGradient x1="-0.00219849613%" y1="50.0002388%" x2="100.00463%" y2="50.0002388%" id="linearGradient-3">
            <stop stop-color="#00A9E2" offset="0%"></stop>
            <stop stop-color="#6408B5" offset="72.162986%"></stop>
            <stop stop-color="#6408B5" offset="99.8678%"></stop>
            <stop stop-color="#6408B5" offset="99.897193%"></stop>
            <stop stop-color="#6408B5" offset="100%"></stop>
        </linearGradient>
        <path d="M0.531999987,6.32266651 L4.73466655,1.86799995 C5.47599986,1.07999997 6.48133317,0.645333317 7.56266648,0.645333317 C7.71066647,0.645333317 7.85733314,0.653333317 8.00133313,0.67066665 C8.84133311,0.766666648 9.61066643,1.12533331 10.2279997,1.70666662 C10.9839997,2.41866661 11.417333,3.38399992 11.4466664,4.41999989 C11.4786664,5.45999986 11.1026664,6.44533317 10.3879997,7.20133315 L6.04133318,11.8106664 C4.48399989,9.70266642 2.6266666,7.8559998 0.531999987,6.32266651" id="path-4"></path>
        <linearGradient x1="-717.962673%" y1="65.889539%" x2="2402.7045%" y2="65.889539%" id="linearGradient-6">
            <stop stop-color="#00A9E2" offset="0%"></stop>
            <stop stop-color="#6408B5" offset="72.162986%"></stop>
            <stop stop-color="#6408B5" offset="99.8678%"></stop>
            <stop stop-color="#6408B5" offset="99.897193%"></stop>
            <stop stop-color="#6408B5" offset="100%"></stop>
        </linearGradient>
        <path d="M1.20266664,15.5253329 L5.59866653,3.44399991 C6.15733318,1.91333329 7.62533314,0.881333311 9.2533331,0.881333311 C9.70399976,0.881333311 10.1519997,0.961333309 10.5826664,1.11866664 C12.5959997,1.85066662 13.6386663,4.08666656 12.9066663,6.10266651 L8.54799979,18.0813329 C6.24133318,16.9226662 3.77733324,16.0586663 1.20266664,15.5253329" id="path-7"></path>
        <linearGradient x1="0.00859995588%" y1="49.9994574%" x2="100.004369%" y2="49.9994574%" id="linearGradient-9">
            <stop stop-color="#00A9E2" offset="0%"></stop>
            <stop stop-color="#6408B5" offset="72.162986%"></stop>
            <stop stop-color="#6408B5" offset="99.8678%"></stop>
            <stop stop-color="#6408B5" offset="99.897193%"></stop>
            <stop stop-color="#6408B5" offset="100%"></stop>
        </linearGradient>
        <path d="M1.20266664,15.5253329 L5.59866653,3.44399991 C6.15733318,1.91333329 7.62533314,0.881333311 9.2533331,0.881333311 C9.70399976,0.881333311 10.1519997,0.961333309 10.5826664,1.11866664 C12.5959997,1.85066662 13.6386663,4.08666656 12.9066663,6.10266651 L8.54799979,18.0813329 C6.24133318,16.9226662 3.77733324,16.0586663 1.20266664,15.5253329" id="path-10"></path>
        <linearGradient x1="-1120.067%" y1="-183.406279%" x2="1733.57673%" y2="-183.406279%" id="linearGradient-12">
            <stop stop-color="#00A9E2" offset="0%"></stop>
            <stop stop-color="#6408B5" offset="72.162986%"></stop>
            <stop stop-color="#6408B5" offset="99.8678%"></stop>
            <stop stop-color="#6408B5" offset="99.897193%"></stop>
            <stop stop-color="#6408B5" offset="100%"></stop>
        </linearGradient>
        <path d="M0.66666665,5.63199986 C-0.0653333317,3.61866658 0.977333309,1.3813333 2.98799993,0.65066665 C3.42266658,0.493333321 3.86933324,0.414666656 4.31999989,0.414666656 L4.48266655,0.417333323 C6.06133318,0.482666655 7.43333315,1.48666663 7.97466647,2.97466659 L13.081333,17.0186662 C11.465333,17.3946662 9.86799975,17.8773329 8.31333313,18.5253329 C7.44266648,18.8866662 6.60799983,19.2946662 5.79199986,19.7266662 L0.66666665,5.63199986 Z" id="path-13"></path>
        <linearGradient x1="-0.00142602438%" y1="49.9964789%" x2="100.001312%" y2="49.9964789%" id="linearGradient-15">
            <stop stop-color="#00A9E2" offset="0%"></stop>
            <stop stop-color="#6408B5" offset="72.162986%"></stop>
            <stop stop-color="#6408B5" offset="99.8678%"></stop>
            <stop stop-color="#6408B5" offset="99.897193%"></stop>
            <stop stop-color="#6408B5" offset="100%"></stop>
        </linearGradient>
        <path d="M0.66666665,5.63199986 C-0.0653333317,3.61866658 0.977333309,1.3813333 2.98799993,0.65066665 C3.42266658,0.493333321 3.86933324,0.414666656 4.31999989,0.414666656 L4.48266655,0.417333323 C6.06133318,0.482666655 7.43333315,1.48666663 7.97466647,2.97466659 L13.081333,17.0186662 C11.465333,17.3946662 9.86799975,17.8773329 8.31333313,18.5253329 C7.44266648,18.8866662 6.60799983,19.2946662 5.79199986,19.7266662 L0.66666665,5.63199986 Z" id="path-16"></path>
        <linearGradient x1="-1546.48376%" y1="-154.027962%" x2="1146.82248%" y2="-154.027962%" id="linearGradient-18">
            <stop stop-color="#00A9E2" offset="0%"></stop>
            <stop stop-color="#6408B5" offset="72.162986%"></stop>
            <stop stop-color="#6408B5" offset="99.8678%"></stop>
            <stop stop-color="#6408B5" offset="99.897193%"></stop>
            <stop stop-color="#6408B5" offset="100%"></stop>
        </linearGradient>
        <path d="M0.890666644,6.43199984 C-0.469333322,4.77599988 -0.227999994,2.31999994 1.4253333,0.959999976 C1.95066662,0.534666653 2.54799994,0.25866666 3.20799992,0.139999997 C3.43466658,0.0986666642 3.66399991,0.0786666647 3.89466657,0.0786666647 C5.06399987,0.0786666647 6.15999985,0.595999985 6.90133316,1.49999996 L11.6239997,7.25466649 C9.35466643,8.61599978 7.39866648,10.3733331 5.78799986,12.397333 L0.890666644,6.43199984 Z" id="path-19"></path>
        <linearGradient x1="0.00463076515%" y1="49.9956705%" x2="99.9920778%" y2="49.9956705%" id="linearGradient-21">
            <stop stop-color="#00A9E2" offset="0%"></stop>
            <stop stop-color="#6408B5" offset="72.162986%"></stop>
            <stop stop-color="#6408B5" offset="99.8678%"></stop>
            <stop stop-color="#6408B5" offset="99.897193%"></stop>
            <stop stop-color="#6408B5" offset="100%"></stop>
        </linearGradient>
        <path d="M0.890666644,6.43199984 C-0.469333322,4.77599988 -0.227999994,2.31999994 1.4253333,0.959999976 C1.95066662,0.534666653 2.54799994,0.25866666 3.20799992,0.139999997 C3.43466658,0.0986666642 3.66399991,0.0786666647 3.89466657,0.0786666647 C5.06399987,0.0786666647 6.15999985,0.595999985 6.90133316,1.49999996 L11.6239997,7.25466649 C9.35466643,8.61599978 7.39866648,10.3733331 5.78799986,12.397333 L0.890666644,6.43199984 Z" id="path-22"></path>
        <linearGradient x1="-2116.75222%" y1="161.733846%" x2="816.339009%" y2="161.733846%" id="linearGradient-24">
            <stop stop-color="#00A9E2" offset="0%"></stop>
            <stop stop-color="#6408B5" offset="72.162986%"></stop>
            <stop stop-color="#6408B5" offset="99.8678%"></stop>
            <stop stop-color="#6408B5" offset="99.897193%"></stop>
            <stop stop-color="#6408B5" offset="100%"></stop>
        </linearGradient>
        <path d="M54.7639986,84.3146646 C56.6506653,83.6533312 58.4906652,82.8693313 60.2666652,81.9626646 C63.7373317,80.1626647 66.9639983,77.9239981 69.8453316,75.3266648 C72.6879982,72.6893315 75.2199981,69.7239983 77.2359981,66.450665 C77.7719981,65.5773317 77.4986647,64.4373317 76.6293314,63.9013317 C75.8253314,63.4079984 74.7933315,63.5986651 74.2173315,64.3159984 L74.2039981,64.3293317 C71.9906649,67.0733317 69.5226649,69.5839983 66.7653317,71.7079982 C64.0466651,73.8719982 61.0613318,75.6826648 57.9133319,77.0786647 C51.6346654,79.891998 44.6959989,81.2106646 37.8626657,80.623998 C31.0186659,80.2613313 24.3893327,77.8746647 18.6706662,74.1799981 C15.8586663,72.2586649 13.181333,70.0999982 10.9533331,67.5133316 C8.61733312,65.0253317 6.75199983,62.1399984 5.14266654,59.1519985 C-1.13333331,47.0826655 -0.793333314,31.7279992 6.44399984,20.1413328 C9.92133309,14.2866663 15.0039996,9.44799976 20.8826661,6.01333318 C26.7893327,2.59999993 33.5999992,0.863999978 40.4373323,0.727999982 L40.439999,0.727999982 L40.4546657,0.727999982 L180.675995,0.0733333315 L180.678662,0.0733333315 L180.695995,0.0733333315 C190.385329,0.0479999988 199.975995,4.74799988 205.757328,12.601333 C211.779995,20.2813328 213.554661,30.9146659 210.878661,40.3173323 C208.197328,49.7266654 200.873328,57.8266652 191.529329,61.2293318 C186.901329,62.9906651 181.838662,63.6386651 176.862662,63.1653318 C171.881329,62.7239984 166.990662,61.2133318 162.445329,58.7826652 C161.902663,58.4879985 161.225329,58.6879985 160.930663,59.2306652 C160.670663,59.7119985 160.803996,60.3053318 161.214663,60.6373318 C163.030663,62.0853318 165.037329,63.3106651 167.159996,64.3186651 L167.159996,70.3226649 C167.159996,101.789331 141.558663,127.38933 110.090664,127.38933 C83.7586646,127.38933 61.1546651,109.723997 54.7639986,84.3146646" id="path-25"></path>
        <linearGradient x1="0.00012501069%" y1="50.0002285%" x2="100.000021%" y2="50.0002285%" id="linearGradient-27">
            <stop stop-color="#00A9E2" offset="0%"></stop>
            <stop stop-color="#6408B5" offset="72.162986%"></stop>
            <stop stop-color="#6408B5" offset="99.8678%"></stop>
            <stop stop-color="#6408B5" offset="99.897193%"></stop>
            <stop stop-color="#6408B5" offset="100%"></stop>
        </linearGradient>
        <path d="M54.7639986,84.3146646 C56.6506653,83.6533312 58.4906652,82.8693313 60.2666652,81.9626646 C63.7373317,80.1626647 66.9639983,77.9239981 69.8453316,75.3266648 C72.6879982,72.6893315 75.2199981,69.7239983 77.2359981,66.450665 C77.7719981,65.5773317 77.4986647,64.4373317 76.6293314,63.9013317 C75.8253314,63.4079984 74.7933315,63.5986651 74.2173315,64.3159984 L74.2039981,64.3293317 C71.9906649,67.0733317 69.5226649,69.5839983 66.7653317,71.7079982 C64.0466651,73.8719982 61.0613318,75.6826648 57.9133319,77.0786647 C51.6346654,79.891998 44.6959989,81.2106646 37.8626657,80.623998 C31.0186659,80.2613313 24.3893327,77.8746647 18.6706662,74.1799981 C15.8586663,72.2586649 13.181333,70.0999982 10.9533331,67.5133316 C8.61733312,65.0253317 6.75199983,62.1399984 5.14266654,59.1519985 C-1.13333331,47.0826655 -0.793333314,31.7279992 6.44399984,20.1413328 C9.92133309,14.2866663 15.0039996,9.44799976 20.8826661,6.01333318 C26.7893327,2.59999993 33.5999992,0.863999978 40.4373323,0.727999982 L40.439999,0.727999982 L40.4546657,0.727999982 L180.675995,0.0733333315 L180.678662,0.0733333315 L180.695995,0.0733333315 C190.385329,0.0479999988 199.975995,4.74799988 205.757328,12.601333 C211.779995,20.2813328 213.554661,30.9146659 210.878661,40.3173323 C208.197328,49.7266654 200.873328,57.8266652 191.529329,61.2293318 C186.901329,62.9906651 181.838662,63.6386651 176.862662,63.1653318 C171.881329,62.7239984 166.990662,61.2133318 162.445329,58.7826652 C161.902663,58.4879985 161.225329,58.6879985 160.930663,59.2306652 C160.670663,59.7119985 160.803996,60.3053318 161.214663,60.6373318 C163.030663,62.0853318 165.037329,63.3106651 167.159996,64.3186651 L167.159996,70.3226649 C167.159996,101.789331 141.558663,127.38933 110.090664,127.38933 C83.7586646,127.38933 61.1546651,109.723997 54.7639986,84.3146646" id="path-28"></path>
        <linearGradient x1="-28.3300994%" y1="78.4888063%" x2="132.831381%" y2="78.4888063%" id="linearGradient-30">
            <stop stop-color="#00A9E2" offset="0%"></stop>
            <stop stop-color="#6408B5" offset="72.162986%"></stop>
            <stop stop-color="#6408B5" offset="99.8678%"></stop>
            <stop stop-color="#6408B5" offset="99.897193%"></stop>
            <stop stop-color="#6408B5" offset="100%"></stop>
        </linearGradient>
        <path d="M2.76533326,32.5759992 C0.365333324,26.8053327 0.361333324,20.4333328 2.7546666,14.6359996 C5.14666654,8.83466645 9.64266643,4.31999989 15.4146663,1.91999995 C18.3039995,0.719999982 21.3253328,0.109333331 24.3946661,0.109333331 C33.9079992,0.109333331 42.4146656,5.78533319 46.0639988,14.5679996 C51.0306654,26.5079993 45.3559989,40.259999 33.4173325,45.2239989 C30.5279992,46.4253322 27.5053326,47.0346655 24.4319994,47.0346655 C14.921333,47.0346655 6.41333317,41.3586656 2.76533326,32.5759992" id="path-31"></path>
        <path d="M2.17866661,32.5759992 C-2.78533326,20.6373328 2.89199993,6.88399983 14.833333,1.91999995 C17.7146662,0.719999982 20.7359995,0.109333331 23.8119994,0.109333331 C33.3239992,0.109333331 41.8306656,5.78533319 45.4813322,14.5679996 C50.4439987,26.5079993 44.7733322,40.259999 32.8399992,45.2213322 C29.9439993,46.4226655 26.918666,47.0319988 23.8493327,47.0319988 C14.337333,47.0319988 5.82933319,41.3573323 2.17866661,32.5759992" id="path-33"></path>
        <path d="M1.33466663,19.1333329 C-0.730666648,10.9213331 4.26933323,2.55333327 12.477333,0.485333321 C13.7266663,0.171999996 14.997333,0.013333333 16.2586663,0.013333333 C23.2906661,0.013333333 29.4039993,4.79066655 31.1293326,11.6306664 C32.1279992,15.6106663 31.5186659,19.7413328 29.4119993,23.2613328 C27.310666,26.7813327 23.9626661,29.2733326 19.9853328,30.2773326 C18.7359995,30.5906659 17.4626662,30.7493326 16.2039996,30.7493326 C9.17466644,30.7493326 3.05999992,25.970666 1.33466663,19.1333329" id="path-35"></path>
        <path d="M1.30666663,25.1853327 C0.053333332,20.1986662 0.813333313,15.0226663 3.45066658,10.6133331 C6.08799985,6.19999985 10.2813331,3.07866659 15.2639996,1.82533329 C16.8253329,1.43199996 18.4186662,1.23199997 19.9973328,1.23199997 C28.8079993,1.23199997 36.4666658,7.21599982 38.623999,15.7813329 C41.2146656,26.0733327 34.9519991,36.5546658 24.6693327,39.143999 C23.1053328,39.5346657 21.5133328,39.735999 19.9373328,39.735999 C11.1253331,39.735999 3.46399991,33.7519992 1.30666663,25.1853327" id="path-37"></path>
    </defs>
    <g id="Page-1" stroke="none" stroke-width="1" fill="none" fill-rule="evenodd">
        <g id="logo" transform="translate(-1.000000, -2.000000)">
            <g id="g10" transform="translate(404.500000, 101.201330) scale(-1, 1) rotate(-180.000000) translate(-404.500000, -101.201330) translate(0.000000, 0.701330)">
                <g id="g12" transform="translate(292.000000, 14.000000)" fill="#030D3F" fill-rule="nonzero">
                    <g id="g14-Clipped">
                        <g id="g14" transform="translate(0.333322, 0.666659)">
                            <g id="g20" transform="translate(0.278000, 0.681200)">
                                <path d="M43.9999989,21.6666661 L34.1959991,21.6666661 L34.3039991,21.6679994 C31.8666659,21.6693328 29.8933326,23.6306661 29.8639993,26.0599993 L29.8639993,29.1786659 L29.8719993,29.1773326 L29.9439993,76.7253314 C29.9333326,85.0039978 37.1306657,89.9719977 44.9973322,89.9719977 C59.4853318,89.9719977 63.2453318,75.6893314 65.2159984,64.5119984 C69.8519983,38.223999 58.0746652,21.6666661 43.9999989,21.6666661 M93.1239977,71.7559982 C88.6719978,97.0079975 73.9399982,111.290664 53.0359987,111.290664 C43.3053323,111.290664 35.1973325,107.978664 29.6559993,103.010664 L29.7386659,142.67733 C29.7239993,145.12133 27.742666,147.098663 25.2959994,147.098663 L5.62933319,147.098663 C3.17466659,147.098663 1.1853333,145.10933 1.18399997,142.654663 L1.1773333,143.09733 L0.961333309,24.6613327 L0.534666653,4.2933332 L0.542666653,4.58666653 C0.542666653,2.13333326 2.53199994,0.142666638 4.98799988,0.141333305 L4.89466654,0.139999972 L43.2426656,0.139999972 C83.1906646,0.139999972 101.043997,26.8413326 93.1239977,71.7559982" id="path22"></path>
                            </g>
                            <g id="g24" transform="translate(189.337195, 0.599200)">
                                <path d="M49.3333321,21.3333328 C37.5346657,21.3333328 32.5799992,30.6479992 30.6079992,41.8253323 C27.342666,60.3506652 29.4626659,89.2613311 52.1746654,90.2146644 L52.1266654,90.2599977 L61.7759985,90.2599977 L61.6826651,90.2586644 C64.1039984,90.2573311 66.0639983,88.3199978 66.1173317,85.9106645 L66.1173317,84.9333312 L66.2573317,36.8573324 C65.8559984,28.578666 60.0946652,21.3333328 49.3333321,21.3333328 Z M70.2533316,7.66399981 C70.3026649,5.31066653 72.1719982,3.41999991 74.5119981,3.32666658 L90.0853311,3.32666658 C92.441331,3.42133325 94.3239976,5.33466653 94.349331,7.70666647 L94.3586643,24.2319994 L94.4039976,83.5466646 L94.6746643,106.945331 C94.6679976,109.375997 92.7106643,111.342664 90.2853311,111.373331 L54.7746653,111.373331 C12.757333,111.373331 -5.09733321,81.1533313 2.42133327,38.5146657 C6.36266651,16.1586663 19.4866662,0.427999989 41.6346656,0.427999989 C54.6746653,0.427999989 64.1239984,4.36133322 70.3093316,13.881333 L70.2533316,7.66399981 Z" id="path26"></path>
                            </g>
                            <g id="g28" transform="translate(293.066393, 3.071867)">
                                <path d="M57.3333319,82.6666646 C59.7586652,82.2973313 61.9133318,82.9653313 62.2839984,85.3893312 L65.2279984,100.974664 L65.2159984,100.941331 C65.8173317,102.971997 64.8959984,105.110664 63.1213318,106.109331 C59.0039985,107.818664 53.8106653,108.899997 48.6533321,108.899997 C38.9253324,108.899997 29.1466659,103.310664 24.5066661,90.8919977 L21.2599995,104.330664 C20.6599995,106.815997 19.1106662,109.163997 16.7146662,109.229331 L5.19999987,109.229331 C2.82799993,109.165331 0.922666644,107.249331 0.882666645,104.870664 L0.630666651,87.7879978 L0.443999989,5.06666654 C0.555999986,2.77333326 2.39333327,0.94533331 4.69333322,0.854666645 L24.9439994,0.854666645 C27.3133327,0.94933331 29.2079993,2.88266659 29.2119993,5.27466653 L29.3013326,66.0533317 C29.5946659,78.471998 36.6079991,84.4746646 46.9586655,84.4746646 C50.7533321,84.4746646 54.2586653,83.7453312 57.5066652,82.5933313 L57.3333319,82.6666646 Z" id="path30"></path>
                            </g>
                            <g id="g32" transform="translate(449.503855, 3.071867)">
                                <path d="M57.3333319,82.6666646 C59.7586652,82.2973313 61.9146651,82.9653313 62.2839984,85.3906645 L65.2279984,100.974664 L65.2159984,100.941331 C65.8173317,102.971997 64.894665,105.110664 63.1213318,106.109331 C59.0039985,107.818664 53.8106653,108.899997 48.6533321,108.899997 C38.9253324,108.899997 29.1466659,103.310664 24.5066661,90.8919977 L21.2599995,104.330664 C20.6599995,106.815997 19.1106662,109.163997 16.7146662,109.229331 L5.19999987,109.229331 C2.82799993,109.165331 0.922666644,107.249331 0.882666645,104.870664 L0.630666651,87.7879978 L0.443999989,5.06533321 C0.557333319,2.77199993 2.39333327,0.94533331 4.69199988,0.854666645 L24.9439994,0.854666645 C27.3119993,0.94933331 29.2079993,2.88266659 29.2119993,5.2733332 L29.3013326,66.0533317 C29.5946659,78.471998 36.6079991,84.4746646 46.9586655,84.4746646 C50.7519987,84.4746646 54.2586653,83.7453312 57.5066652,82.5946646 L57.3333319,82.6666646 Z" id="path34"></path>
                            </g>
                            <g id="g36" transform="translate(354.837191, 0.814133)">
                                <path d="M50.6666654,90.6666644 C55.8413319,90.6666644 60.4919985,87.7693311 61.4773318,82.1799979 C63.7026651,69.5626649 46.3559988,65.3479984 34.0279991,64.3933317 C31.5866659,64.3999984 30.0026659,65.8679984 30.0599992,68.8239983 C31.9039992,79.275998 37.5466657,90.6666644 50.6666654,90.6666644 Z M86.1693312,9.55599976 C88.2493311,10.7279997 88.8119978,13.1999997 87.7346645,15.3039996 L81.0866646,27.1519993 C79.8346647,29.1133326 77.3666647,29.6026659 75.3013315,28.438666 L75.3199981,28.4533326 C69.8626649,25.1533327 62.6559984,21.9479995 53.677332,21.9479995 C38.151999,21.9479995 32.1506659,32.5039992 30.1813326,43.6813322 C54.665332,44.5079989 93.0079977,50.0973321 86.7306645,85.6986645 C83.9186646,101.637331 70.6493316,111.158664 51.1946654,111.158664 C12.4866664,111.158664 -4.74799988,77.4186647 1.49466663,42.0253323 C5.76399986,17.8066662 21.1159995,0.0066666665 50.0933321,0.0066666665 C67.7439983,0.0066666665 80.0373313,5.60266653 86.2506645,9.59066643 L86.1693312,9.55599976 Z" id="path38"></path>
                            </g>
                            <g id="g40" transform="translate(99.872397, 0.814133)">
                                <path d="M50.6666654,90.6666644 C55.8413319,90.6666644 60.4919985,87.7693311 61.4773318,82.1799979 C63.7013317,69.5626649 46.3559988,65.3479984 34.0279991,64.3933317 C31.5866659,64.3999984 30.0026659,65.8679984 30.0599992,68.8239983 C31.9039992,79.275998 37.5466657,90.6666644 50.6666654,90.6666644 Z M86.1679978,9.55599976 C88.2493311,10.7279997 88.8119978,13.1986663 87.7346645,15.3026663 L81.087998,27.150666 C79.8346647,29.1133326 77.3666647,29.6026659 75.3013315,28.438666 L75.3199981,28.4533326 C69.8626649,25.1533327 62.6546651,21.9479995 53.6759987,21.9479995 C38.151999,21.9479995 32.1506659,32.5039992 30.1799992,43.6813322 C54.665332,44.5079989 93.0079977,50.0973321 86.7306645,85.6986645 C83.9186646,101.637331 70.6479982,111.158664 51.1933321,111.158664 C12.485333,111.158664 -4.74666655,77.4186647 1.49466663,42.0253323 C5.76399986,17.8066662 21.1159995,0.0066666665 50.0919987,0.0066666665 C67.7439983,0.0066666665 80.035998,5.60266653 86.2506645,9.59066643 L86.1679978,9.55599976 Z" id="path42"></path>
                            </g>
                        </g>
                    </g>
                </g>
                <g id="g44" transform="translate(35.333328, 92.333324)">
                    <g id="g46-Clipped">
                        <mask id="mask-2" fill="white">
                            <use xlink:href="#path-1"></use>
                        </mask>
                        <g id="path48"></g>
                        <g id="g46" mask="url(#mask-2)" fill="url(#linearGradient-3)" fill-rule="nonzero">
                            <g id="g52">
                                <g id="g54">
                                    <path d="M0.531999987,6.32266651 L4.73466655,1.86799995 C5.47599986,1.07999997 6.48133317,0.645333317 7.56266648,0.645333317 C7.71066647,0.645333317 7.85733314,0.653333317 8.00133313,0.67066665 C8.84133311,0.766666648 9.61066643,1.12533331 10.2279997,1.70666662 C10.9839997,2.41866661 11.417333,3.38399992 11.4466664,4.41999989 C11.4786664,5.45999986 11.1026664,6.44533317 10.3879997,7.20133315 L6.04133318,11.8106664 C4.48399989,9.70266642 2.6266666,7.8559998 0.531999987,6.32266651" id="path68"></path>
                                </g>
                            </g>
                        </g>
                    </g>
                </g>
                <g id="g70" transform="translate(35.333328, 92.333324)">
                    <g id="g72-Clipped">
                        <mask id="mask-5" fill="white">
                            <use xlink:href="#path-4"></use>
                        </mask>
                        <g id="path74"></g>
                        <g id="g72" mask="url(#mask-5)" fill="url(#linearGradient-6)" fill-rule="nonzero">
                            <g id="g78">
                                <g id="g80">
                                    <path d="M0.531999987,6.32266651 L4.73466655,1.86799995 C5.47599986,1.07999997 6.48133317,0.645333317 7.56266648,0.645333317 C7.71066647,0.645333317 7.85733314,0.653333317 8.00133313,0.67066665 C8.84133311,0.766666648 9.61066643,1.12533331 10.2279997,1.70666662 C10.9839997,2.41866661 11.417333,3.38399992 11.4466664,4.41999989 C11.4786664,5.45999986 11.1026664,6.44533317 10.3879997,7.20133315 L6.04133318,11.8106664 C4.48399989,9.70266642 2.6266666,7.8559998 0.531999987,6.32266651" id="path94"></path>
                                </g>
                            </g>
                        </g>
                    </g>
                </g>
                <g id="g96" transform="translate(89.999994, 130.999989)">
                    <g id="g98-Clipped">
                        <mask id="mask-8" fill="white">
                            <use xlink:href="#path-7"></use>
                        </mask>
                        <g id="path100"></g>
                        <g id="g98" mask="url(#mask-8)" fill="url(#linearGradient-9)" fill-rule="nonzero">
                            <g id="g104">
                                <g id="g106">
                                    <path d="M1.20266664,15.5253329 L5.59866653,3.44399991 C6.15733318,1.91333329 7.62533314,0.881333311 9.2533331,0.881333311 C9.70399976,0.881333311 10.1519997,0.961333309 10.5826664,1.11866664 C12.5959997,1.85066662 13.6386663,4.08666656 12.9066663,6.10266651 L8.54799979,18.0813329 C6.24133318,16.9226662 3.77733324,16.0586663 1.20266664,15.5253329" id="path120"></path>
                                </g>
                            </g>
                        </g>
                    </g>
                </g>
                <g id="g122" transform="translate(89.999994, 130.999989)">
                    <g id="g124-Clipped">
                        <mask id="mask-11" fill="white">
                            <use xlink:href="#path-10"></use>
                        </mask>
                        <g id="path126"></g>
                        <g id="g124" mask="url(#mask-11)" fill="url(#linearGradient-12)" fill-rule="nonzero">
                            <g id="g130">
                                <g id="g132">
                                    <path d="M1.20266664,15.5253329 L5.59866653,3.44399991 C6.15733318,1.91333329 7.62533314,0.881333311 9.2533331,0.881333311 C9.70399976,0.881333311 10.1519997,0.961333309 10.5826664,1.11866664 C12.5959997,1.85066662 13.6386663,4.08666656 12.9066663,6.10266651 L8.54799979,18.0813329 C6.24133318,16.9226662 3.77733324,16.0586663 1.20266664,15.5253329" id="path146"></path>
                                </g>
                            </g>
                        </g>
                    </g>
                </g>
                <g id="g148" transform="translate(152.666659, 129.666656)">
                    <g id="g150-Clipped">
                        <mask id="mask-14" fill="white">
                            <use xlink:href="#path-13"></use>
                        </mask>
                        <g id="path152"></g>
                        <g id="g150" mask="url(#mask-14)" fill="url(#linearGradient-15)" fill-rule="nonzero">
                            <g id="g156">
                                <g id="g158">
                                    <path d="M0.66666665,5.63199986 C-0.0653333317,3.61866658 0.977333309,1.3813333 2.98799993,0.65066665 C3.42266658,0.493333321 3.86933324,0.414666656 4.31999989,0.414666656 L4.48266655,0.417333323 C6.06133318,0.482666655 7.43333315,1.48666663 7.97466647,2.97466659 L13.081333,17.0186662 C11.465333,17.3946662 9.86799975,17.8773329 8.31333313,18.5253329 C7.44266648,18.8866662 6.60799983,19.2946662 5.79199986,19.7266662 L0.66666665,5.63199986 Z" id="path172"></path>
                                </g>
                            </g>
                        </g>
                    </g>
                </g>
                <g id="g174" transform="translate(152.666659, 129.666656)">
                    <g id="g176-Clipped">
                        <mask id="mask-17" fill="white">
                            <use xlink:href="#path-16"></use>
                        </mask>
                        <g id="path178"></g>
                        <g id="g176" mask="url(#mask-17)" fill="url(#linearGradient-18)" fill-rule="nonzero">
                            <g id="g182">
                                <g id="g184">
                                    <path d="M0.66666665,5.63199986 C-0.0653333317,3.61866658 0.977333309,1.3813333 2.98799993,0.65066665 C3.42266658,0.493333321 3.86933324,0.414666656 4.31999989,0.414666656 L4.48266655,0.417333323 C6.06133318,0.482666655 7.43333315,1.48666663 7.97466647,2.97466659 L13.081333,17.0186662 C11.465333,17.3946662 9.86799975,17.8773329 8.31333313,18.5253329 C7.44266648,18.8866662 6.60799983,19.2946662 5.79199986,19.7266662 L0.66666665,5.63199986 Z" id="path198"></path>
                                </g>
                            </g>
                        </g>
                    </g>
                </g>
                <g id="g200" transform="translate(203.333324, 80.333324)">
                    <g id="g202-Clipped">
                        <mask id="mask-20" fill="white">
                            <use xlink:href="#path-19"></use>
                        </mask>
                        <g id="path204"></g>
                        <g id="g202" mask="url(#mask-20)" fill="url(#linearGradient-21)" fill-rule="nonzero">
                            <g id="g208">
                                <g id="g210">
                                    <path d="M0.890666644,6.43199984 C-0.469333322,4.77599988 -0.227999994,2.31999994 1.4253333,0.959999976 C1.95066662,0.534666653 2.54799994,0.25866666 3.20799992,0.139999997 C3.43466658,0.0986666642 3.66399991,0.0786666647 3.89466657,0.0786666647 C5.06399987,0.0786666647 6.15999985,0.595999985 6.90133316,1.49999996 L11.6239997,7.25466649 C9.35466643,8.61599978 7.39866648,10.3733331 5.78799986,12.397333 L0.890666644,6.43199984 Z" id="path224"></path>
                                </g>
                            </g>
                        </g>
                    </g>
                </g>
                <g id="g226" transform="translate(203.333324, 80.333324)">
                    <g id="g228-Clipped">
                        <mask id="mask-23" fill="white">
                            <use xlink:href="#path-22"></use>
                        </mask>
                        <g id="path230"></g>
                        <g id="g228" mask="url(#mask-23)" fill="url(#linearGradient-24)" fill-rule="nonzero">
                            <g id="g234">
                                <g id="g236">
                                    <path d="M0.890666644,6.43199984 C-0.469333322,4.77599988 -0.227999994,2.31999994 1.4253333,0.959999976 C1.95066662,0.534666653 2.54799994,0.25866666 3.20799992,0.139999997 C3.43466658,0.0986666642 3.66399991,0.0786666647 3.89466657,0.0786666647 C5.06399987,0.0786666647 6.15999985,0.595999985 6.90133316,1.49999996 L11.6239997,7.25466649 C9.35466643,8.61599978 7.39866648,10.3733331 5.78799986,12.397333 L0.890666644,6.43199984 Z" id="path250"></path>
                                </g>
                            </g>
                        </g>
                    </g>
                </g>
                <g id="g252" transform="translate(16.666662, 0.333326)">
                    <g id="g254-Clipped">
                        <mask id="mask-26" fill="white">
                            <use xlink:href="#path-25"></use>
                        </mask>
                        <g id="path256"></g>
                        <g id="g254" mask="url(#mask-26)" fill="url(#linearGradient-27)" fill-rule="nonzero">
                            <g id="g260">
                                <g id="g262">
                                    <path d="M54.7639986,84.3146646 C56.6506653,83.6533312 58.4906652,82.8693313 60.2666652,81.9626646 C63.7373317,80.1626647 66.9639983,77.9239981 69.8453316,75.3266648 C72.6879982,72.6893315 75.2199981,69.7239983 77.2359981,66.450665 C77.7719981,65.5773317 77.4986647,64.4373317 76.6293314,63.9013317 C75.8253314,63.4079984 74.7933315,63.5986651 74.2173315,64.3159984 L74.2039981,64.3293317 C71.9906649,67.0733317 69.5226649,69.5839983 66.7653317,71.7079982 C64.0466651,73.8719982 61.0613318,75.6826648 57.9133319,77.0786647 C51.6346654,79.891998 44.6959989,81.2106646 37.8626657,80.623998 C31.0186659,80.2613313 24.3893327,77.8746647 18.6706662,74.1799981 C15.8586663,72.2586649 13.181333,70.0999982 10.9533331,67.5133316 C8.61733312,65.0253317 6.75199983,62.1399984 5.14266654,59.1519985 C-1.13333331,47.0826655 -0.793333314,31.7279992 6.44399984,20.1413328 C9.92133309,14.2866663 15.0039996,9.44799976 20.8826661,6.01333318 C26.7893327,2.59999993 33.5999992,0.863999978 40.4373323,0.727999982 L40.439999,0.727999982 L40.4546657,0.727999982 L180.675995,0.0733333315 L180.678662,0.0733333315 L180.695995,0.0733333315 C190.385329,0.0479999988 199.975995,4.74799988 205.757328,12.601333 C211.779995,20.2813328 213.554661,30.9146659 210.878661,40.3173323 C208.197328,49.7266654 200.873328,57.8266652 191.529329,61.2293318 C186.901329,62.9906651 181.838662,63.6386651 176.862662,63.1653318 C171.881329,62.7239984 166.990662,61.2133318 162.445329,58.7826652 C161.902663,58.4879985 161.225329,58.6879985 160.930663,59.2306652 C160.670663,59.7119985 160.803996,60.3053318 161.214663,60.6373318 C163.030663,62.0853318 165.037329,63.3106651 167.159996,64.3186651 L167.159996,70.3226649 C167.159996,101.789331 141.558663,127.38933 110.090664,127.38933 C83.7586646,127.38933 61.1546651,109.723997 54.7639986,84.3146646" id="path276"></path>
                                </g>
                            </g>
                        </g>
                    </g>
                </g>
                <g id="g278" transform="translate(16.666662, 0.333326)">
                    <g id="g280-Clipped">
                        <mask id="mask-29" fill="white">
                            <use xlink:href="#path-28"></use>
                        </mask>
                        <g id="path282"></g>
                        <g id="g280" mask="url(#mask-29)" fill="url(#linearGradient-30)" fill-rule="nonzero">
                            <g id="g286">
                                <g id="g288">
                                    <path d="M54.7639986,84.3146646 C56.6506653,83.6533312 58.4906652,82.8693313 60.2666652,81.9626646 C63.7373317,80.1626647 66.9639983,77.9239981 69.8453316,75.3266648 C72.6879982,72.6893315 75.2199981,69.7239983 77.2359981,66.450665 C77.7719981,65.5773317 77.4986647,64.4373317 76.6293314,63.9013317 C75.8253314,63.4079984 74.7933315,63.5986651 74.2173315,64.3159984 L74.2039981,64.3293317 C71.9906649,67.0733317 69.5226649,69.5839983 66.7653317,71.7079982 C64.0466651,73.8719982 61.0613318,75.6826648 57.9133319,77.0786647 C51.6346654,79.891998 44.6959989,81.2106646 37.8626657,80.623998 C31.0186659,80.2613313 24.3893327,77.8746647 18.6706662,74.1799981 C15.8586663,72.2586649 13.181333,70.0999982 10.9533331,67.5133316 C8.61733312,65.0253317 6.75199983,62.1399984 5.14266654,59.1519985 C-1.13333331,47.0826655 -0.793333314,31.7279992 6.44399984,20.1413328 C9.92133309,14.2866663 15.0039996,9.44799976 20.8826661,6.01333318 C26.7893327,2.59999993 33.5999992,0.863999978 40.4373323,0.727999982 L40.439999,0.727999982 L40.4546657,0.727999982 L180.675995,0.0733333315 L180.678662,0.0733333315 L180.695995,0.0733333315 C190.385329,0.0479999988 199.975995,4.74799988 205.757328,12.601333 C211.779995,20.2813328 213.554661,30.9146659 210.878661,40.3173323 C208.197328,49.7266654 200.873328,57.8266652 191.529329,61.2293318 C186.901329,62.9906651 181.838662,63.6386651 176.862662,63.1653318 C171.881329,62.7239984 166.990662,61.2133318 162.445329,58.7826652 C161.902663,58.4879985 161.225329,58.6879985 160.930663,59.2306652 C160.670663,59.7119985 160.803996,60.3053318 161.214663,60.6373318 C163.030663,62.0853318 165.037329,63.3106651 167.159996,64.3186651 L167.159996,70.3226649 C167.159996,101.789331 141.558663,127.38933 110.090664,127.38933 C83.7586646,127.38933 61.1546651,109.723997 54.7639986,84.3146646" id="path302"></path>
                                </g>
                            </g>
                        </g>
                    </g>
                </g>
                <g id="g316" transform="translate(60.666661, 152.333322)">
                    <g id="g318-Clipped">
                        <mask id="mask-32" fill="white">
                            <use xlink:href="#path-31"></use>
                        </mask>
                        <g id="path320"></g>
                        <g id="g318" mask="url(#mask-32)" fill="#9DACE3" fill-rule="nonzero">
                            <g transform="translate(-103.999997, -201.333328)" id="path324">
                                <polygon points="341.490658 0.13733333 0.821333313 0.13733333 0.821333313 298.533326 341.490658 298.533326"></polygon>
                            </g>
                        </g>
                    </g>
                </g>
                <g id="g338" transform="translate(148.666659, 152.333322)">
                    <g id="g340-Clipped">
                        <mask id="mask-34" fill="white">
                            <use xlink:href="#path-33"></use>
                        </mask>
                        <g id="path342"></g>
                        <g id="g340" mask="url(#mask-34)" fill="#9DACE3" fill-rule="nonzero">
                            <g transform="translate(-191.999995, -201.333328)" id="path346">
                                <polygon points="341.490658 0.13733333 0.821333313 0.13733333 0.821333313 298.533326 341.490658 298.533326"></polygon>
                            </g>
                        </g>
                    </g>
                </g>
                <g id="g360" transform="translate(209.999991, 90.999990)">
                    <g id="g362-Clipped">
                        <mask id="mask-36" fill="white">
                            <use xlink:href="#path-35"></use>
                        </mask>
                        <g id="path364"></g>
                        <g id="g362" mask="url(#mask-36)" fill="#9DACE3" fill-rule="nonzero">
                            <g transform="translate(-253.333327, -139.999997)" id="path368">
                                <polygon points="341.490658 0.13733333 0.821333313 0.13733333 0.821333313 298.533326 341.490658 298.533326"></polygon>
                            </g>
                        </g>
                    </g>
                </g>
                <g id="g382" transform="translate(0.666662, 98.999990)">
                    <g id="g384-Clipped">
                        <mask id="mask-38" fill="white">
                            <use xlink:href="#path-37"></use>
                        </mask>
                        <g id="path386"></g>
                        <g id="g384" mask="url(#mask-38)" fill="#9DACE3" fill-rule="nonzero">
                            <g transform="translate(-43.999999, -147.999996)" id="path390">
                                <polygon points="341.490658 0.13733333 0.821333313 0.13733333 0.821333313 298.533326 341.490658 298.533326"></polygon>
                            </g>
                        </g>
                    </g>
                </g>
            </g>
        </g>
    </g>
</svg>