<svg width="807" height="200" xmlns="http://www.w3.org/2000/svg" xmlns:xlink="http://www.w3.org/1999/xlink"><defs><path d="M.532 6.323l4.203-4.455A3.848 3.848 0 0 1 8 .671c.84.096 1.61.454 2.227 1.036a3.856 3.856 0 0 1 1.219 2.713 3.845 3.845 0 0 1-1.059 2.781l-4.347 4.61A25.78 25.78 0 0 0 .532 6.323" id="a"/><linearGradient x1="-.002%" y1="50%" x2="100.005%" y2="50%" id="c"><stop stop-color="#00A9E2" offset="0%"/><stop stop-color="#6408B5" offset="72.163%"/><stop stop-color="#6408B5" offset="99.868%"/><stop stop-color="#6408B5" offset="99.897%"/><stop stop-color="#6408B5" offset="100%"/></linearGradient><path d="M.532 6.323l4.203-4.455A3.848 3.848 0 0 1 8 .671c.84.096 1.61.454 2.227 1.036a3.856 3.856 0 0 1 1.219 2.713 3.845 3.845 0 0 1-1.059 2.781l-4.347 4.61A25.78 25.78 0 0 0 .532 6.323" id="d"/><linearGradient x1="-717.963%" y1="65.89%" x2="2402.704%" y2="65.89%" id="f"><stop stop-color="#00A9E2" offset="0%"/><stop stop-color="#6408B5" offset="72.163%"/><stop stop-color="#6408B5" offset="99.868%"/><stop stop-color="#6408B5" offset="99.897%"/><stop stop-color="#6408B5" offset="100%"/></linearGradient><path d="M1.203 15.525L5.599 3.444A3.907 3.907 0 0 1 9.253.881a3.894 3.894 0 0 1 3.653 5.221l-4.358 11.98a29.835 29.835 0 0 0-7.345-2.557" id="g"/><linearGradient x1=".009%" y1="49.999%" x2="100.004%" y2="49.999%" id="i"><stop stop-color="#00A9E2" offset="0%"/><stop stop-color="#6408B5" offset="72.163%"/><stop stop-color="#6408B5" offset="99.868%"/><stop stop-color="#6408B5" offset="99.897%"/><stop stop-color="#6408B5" offset="100%"/></linearGradient><path d="M1.203 15.525L5.599 3.444A3.907 3.907 0 0 1 9.253.881a3.894 3.894 0 0 1 3.653 5.221l-4.358 11.98a29.835 29.835 0 0 0-7.345-2.557" id="j"/><linearGradient x1="-1120.067%" y1="-183.406%" x2="1733.577%" y2="-183.406%" id="l"><stop stop-color="#00A9E2" offset="0%"/><stop stop-color="#6408B5" offset="72.163%"/><stop stop-color="#6408B5" offset="99.868%"/><stop stop-color="#6408B5" offset="99.897%"/><stop stop-color="#6408B5" offset="100%"/></linearGradient><path d="M.667 5.632A3.893 3.893 0 0 1 4.32.415l.163.002a3.877 3.877 0 0 1 3.492 2.558l5.106 14.044c-1.616.376-3.213.858-4.768 1.506a30.1 30.1 0 0 0-2.521 1.202L.667 5.632z" id="m"/><linearGradient x1="-.001%" y1="49.996%" x2="100.001%" y2="49.996%" id="o"><stop stop-color="#00A9E2" offset="0%"/><stop stop-color="#6408B5" offset="72.163%"/><stop stop-color="#6408B5" offset="99.868%"/><stop stop-color="#6408B5" offset="99.897%"/><stop stop-color="#6408B5" offset="100%"/></linearGradient><path d="M.667 5.632A3.893 3.893 0 0 1 4.32.415l.163.002a3.877 3.877 0 0 1 3.492 2.558l5.106 14.044c-1.616.376-3.213.858-4.768 1.506a30.1 30.1 0 0 0-2.521 1.202L.667 5.632z" id="p"/><linearGradient x1="-1546.484%" y1="-154.028%" x2="1146.822%" y2="-154.028%" id="r"><stop stop-color="#00A9E2" offset="0%"/><stop stop-color="#6408B5" offset="72.163%"/><stop stop-color="#6408B5" offset="99.868%"/><stop stop-color="#6408B5" offset="99.897%"/><stop stop-color="#6408B5" offset="100%"/></linearGradient><path d="M.89 6.432A3.896 3.896 0 0 1 1.426.96a3.895 3.895 0 0 1 2.47-.881C5.064.079 6.16.596 6.9 1.5l4.723 5.755a21.8 21.8 0 0 0-5.836 5.142L.891 6.432z" id="s"/><linearGradient x1=".005%" y1="49.996%" x2="99.992%" y2="49.996%" id="u"><stop stop-color="#00A9E2" offset="0%"/><stop stop-color="#6408B5" offset="72.163%"/><stop stop-color="#6408B5" offset="99.868%"/><stop stop-color="#6408B5" offset="99.897%"/><stop stop-color="#6408B5" offset="100%"/></linearGradient><path d="M.89 6.432A3.896 3.896 0 0 1 1.426.96a3.895 3.895 0 0 1 2.47-.881C5.064.079 6.16.596 6.9 1.5l4.723 5.755a21.8 21.8 0 0 0-5.836 5.142L.891 6.432z" id="v"/><linearGradient x1="-2116.752%" y1="161.734%" x2="816.339%" y2="161.734%" id="x"><stop stop-color="#00A9E2" offset="0%"/><stop stop-color="#6408B5" offset="72.163%"/><stop stop-color="#6408B5" offset="99.868%"/><stop stop-color="#6408B5" offset="99.897%"/><stop stop-color="#6408B5" offset="100%"/></linearGradient><path d="M54.764 84.315a44.412 44.412 0 0 0 5.503-2.352 45.858 45.858 0 0 0 9.578-6.636c2.843-2.638 5.375-5.603 7.391-8.876a1.852 1.852 0 1 0-3.019-2.135l-.013.013c-2.213 2.744-4.681 5.255-7.439 7.379a40.804 40.804 0 0 1-8.852 5.37c-6.278 2.814-13.217 4.133-20.05 3.546-6.844-.363-13.474-2.75-19.192-6.444-2.812-1.921-5.49-4.08-7.718-6.667-2.336-2.488-4.201-5.373-5.81-8.361-6.276-12.07-5.936-27.424 1.301-39.01 3.477-5.855 8.56-10.694 14.439-14.129C26.789 2.6 33.6.864 40.437.728h.018L180.676.073h.02c9.69-.025 19.28 4.675 25.061 12.528 6.023 7.68 7.798 18.314 5.122 27.716-2.682 9.41-10.006 17.51-19.35 20.912-4.628 1.762-9.69 2.41-14.666 1.936-4.982-.441-9.872-1.952-14.418-4.382a1.116 1.116 0 0 0-1.23 1.854 30.527 30.527 0 0 0 5.945 3.682v6.004c0 31.466-25.601 57.066-57.07 57.066-26.331 0-48.935-17.665-55.326-43.074" id="y"/><linearGradient x1="0%" y1="50%" y2="50%" id="A"><stop stop-color="#00A9E2" offset="0%"/><stop stop-color="#6408B5" offset="72.163%"/><stop stop-color="#6408B5" offset="99.868%"/><stop stop-color="#6408B5" offset="99.897%"/><stop stop-color="#6408B5" offset="100%"/></linearGradient><path d="M54.764 84.315a44.412 44.412 0 0 0 5.503-2.352 45.858 45.858 0 0 0 9.578-6.636c2.843-2.638 5.375-5.603 7.391-8.876a1.852 1.852 0 1 0-3.019-2.135l-.013.013c-2.213 2.744-4.681 5.255-7.439 7.379a40.804 40.804 0 0 1-8.852 5.37c-6.278 2.814-13.217 4.133-20.05 3.546-6.844-.363-13.474-2.75-19.192-6.444-2.812-1.921-5.49-4.08-7.718-6.667-2.336-2.488-4.201-5.373-5.81-8.361-6.276-12.07-5.936-27.424 1.301-39.01 3.477-5.855 8.56-10.694 14.439-14.129C26.789 2.6 33.6.864 40.437.728h.018L180.676.073h.02c9.69-.025 19.28 4.675 25.061 12.528 6.023 7.68 7.798 18.314 5.122 27.716-2.682 9.41-10.006 17.51-19.35 20.912-4.628 1.762-9.69 2.41-14.666 1.936-4.982-.441-9.872-1.952-14.418-4.382a1.116 1.116 0 0 0-1.23 1.854 30.527 30.527 0 0 0 5.945 3.682v6.004c0 31.466-25.601 57.066-57.07 57.066-26.331 0-48.935-17.665-55.326-43.074" id="B"/><linearGradient x1="-28.33%" y1="78.489%" x2="132.831%" y2="78.489%" id="D"><stop stop-color="#00A9E2" offset="0%"/><stop stop-color="#6408B5" offset="72.163%"/><stop stop-color="#6408B5" offset="99.868%"/><stop stop-color="#6408B5" offset="99.897%"/><stop stop-color="#6408B5" offset="100%"/></linearGradient><path d="M2.765 32.576c-2.4-5.77-2.404-12.143-.01-17.94C5.147 8.835 9.643 4.32 15.415 1.92c2.889-1.2 5.91-1.81 8.98-1.81a23.4 23.4 0 0 1 21.669 14.458c4.967 11.94-.708 25.692-12.647 30.656a23.295 23.295 0 0 1-8.985 1.81A23.398 23.398 0 0 1 2.765 32.577" id="E"/><path d="M2.179 32.576C-2.785 20.637 2.892 6.884 14.833 1.92A23.248 23.248 0 0 1 23.812.11a23.403 23.403 0 0 1 21.67 14.458c4.962 11.94-.709 25.692-12.642 30.653a23.361 23.361 0 0 1-8.99 1.811A23.404 23.404 0 0 1 2.178 32.576" id="G"/><path d="M1.335 19.133C-.731 10.921 4.269 2.553 12.477.485c1.25-.313 2.52-.472 3.782-.472 7.032 0 13.145 4.778 14.87 11.618.999 3.98.39 8.11-1.717 11.63a15.255 15.255 0 0 1-9.427 7.016 15.529 15.529 0 0 1-3.781.472c-7.03 0-13.144-4.778-14.87-11.616" id="I"/><path d="M1.307 25.185A19.123 19.123 0 0 1 3.45 10.613a19.1 19.1 0 0 1 11.813-8.788 19.402 19.402 0 0 1 4.733-.593c8.811 0 16.47 5.984 18.627 14.55 2.59 10.291-3.672 20.773-13.955 23.362-1.564.39-3.156.592-4.732.592-8.812 0-16.473-5.984-18.63-14.55" id="K"/></defs><g fill="none" fill-rule="evenodd"><g fill="#fff" fill-rule="nonzero"><path d="M335.611 162.687h-9.804l.108-.002a4.443 4.443 0 0 1-4.44-4.392v-3.118l.008.001.072-47.548c-.01-8.279 7.187-13.247 15.054-13.247 14.488 0 18.248 14.283 20.218 25.46 4.636 26.288-7.141 42.846-21.216 42.846m49.124-50.09c-4.452-25.252-19.184-39.534-40.088-39.534-9.73 0-17.838 3.312-23.38 8.28l.083-39.667a4.445 4.445 0 0 0-4.443-4.421h-19.666a4.446 4.446 0 0 0-4.446 4.444l-.006-.443-.216 118.436-.427 20.368.008-.293a4.447 4.447 0 0 0 4.445 4.445l-.093.001h38.348c39.948 0 57.801-26.7 49.881-71.616m145.269 50.505c-11.799 0-16.753-9.315-18.725-20.492-3.266-18.525-1.146-47.436 21.566-48.39l-.048-.045h9.65l-.094.002a4.44 4.44 0 0 1 4.435 4.348v.977l.14 48.076c-.401 8.279-6.163 15.524-16.924 15.524zm20.92 13.67a4.43 4.43 0 0 0 4.259 4.337h15.573a4.433 4.433 0 0 0 4.264-4.38l.01-16.526.045-59.314.27-23.399a4.442 4.442 0 0 0-4.39-4.428h-35.51c-42.017 0-59.872 30.22-52.353 72.859 3.941 22.356 17.065 38.086 39.213 38.086 13.04 0 22.49-3.933 28.675-13.453l-.056 6.217zm90.809-77.476c2.425.37 4.58-.299 4.95-2.723l2.945-15.585-.012.033a4.488 4.488 0 0 0-2.095-5.168c-4.117-1.709-9.31-2.79-14.468-2.79-9.728 0-19.507 5.59-24.147 18.008l-3.246-13.439c-.6-2.485-2.15-4.833-4.546-4.899H589.6a4.434 4.434 0 0 0-4.318 4.36l-.252 17.082-.186 82.721a4.426 4.426 0 0 0 4.249 4.212h20.25a4.435 4.435 0 0 0 4.269-4.42l.089-60.779c.293-12.418 7.307-18.42 17.657-18.42 3.795 0 7.3.728 10.548 1.88l-.173-.073zm156.437 0c2.426.37 4.582-.299 4.951-2.724l2.944-15.584-.012.033a4.49 4.49 0 0 0-2.094-5.168c-4.118-1.709-9.311-2.79-14.468-2.79-9.728 0-19.507 5.59-24.147 18.008l-3.247-13.439c-.6-2.485-2.15-4.833-4.545-4.899h-11.515a4.434 4.434 0 0 0-4.317 4.36l-.252 17.082-.187 82.722a4.425 4.425 0 0 0 4.248 4.211h20.252c2.368-.095 4.264-2.028 4.268-4.419l.09-60.78c.293-12.418 7.306-18.42 17.657-18.42 3.793 0 7.3.728 10.548 1.88l-.173-.073zm-101.333-5.742c5.175 0 9.826 2.897 10.81 8.487 2.226 12.617-15.12 16.832-27.448 17.786-2.442-.006-4.026-1.474-3.968-4.43 1.844-10.452 7.486-21.843 20.606-21.843zm35.503 81.11c2.08-1.171 2.643-3.643 1.565-5.747l-6.648-11.848c-1.252-1.962-3.72-2.451-5.785-1.287l.019-.015c-5.458 3.3-12.664 6.506-21.643 6.506-15.525 0-21.527-10.556-23.496-21.734 24.484-.826 62.827-6.416 56.55-42.017-2.813-15.939-16.082-25.46-35.537-25.46-38.708 0-55.942 33.74-49.7 69.133 4.27 24.219 19.622 42.019 48.599 42.019 17.65 0 29.944-5.596 36.157-9.584l-.081.035z"/><path d="M441.872 93.554c5.175 0 9.826 2.897 10.811 8.487 2.224 12.617-15.121 16.832-27.45 17.786-2.44-.006-4.025-1.474-3.967-4.43 1.844-10.452 7.486-21.843 20.606-21.843zm35.502 81.11c2.081-1.171 2.644-3.642 1.566-5.746l-6.646-11.848c-1.254-1.963-3.722-2.452-5.787-1.288l.019-.015c-5.458 3.3-12.666 6.506-21.644 6.506-15.524 0-21.526-10.556-23.496-21.734 24.485-.826 62.828-6.416 56.55-42.017-2.812-15.939-16.082-25.46-35.537-25.46-38.708 0-55.94 33.74-49.699 69.133 4.27 24.219 19.622 42.019 48.598 42.019 17.652 0 29.944-5.596 36.158-9.584l-.082.035z"/></g><g transform="matrix(1 0 0 -1 34.333 107.368)"><mask id="b" fill="#fff"><use xlink:href="#a"/></mask><g mask="url(#b)" fill="url(#c)" fill-rule="nonzero"><path d="M.532 6.323l4.203-4.455A3.848 3.848 0 0 1 8 .671c.84.096 1.61.454 2.227 1.036a3.856 3.856 0 0 1 1.219 2.713 3.845 3.845 0 0 1-1.059 2.781l-4.347 4.61A25.78 25.78 0 0 0 .532 6.323"/></g></g><g transform="matrix(1 0 0 -1 34.333 107.368)"><mask id="e" fill="#fff"><use xlink:href="#d"/></mask><g mask="url(#e)" fill="url(#f)" fill-rule="nonzero"><path d="M.532 6.323l4.203-4.455A3.848 3.848 0 0 1 8 .671c.84.096 1.61.454 2.227 1.036a3.856 3.856 0 0 1 1.219 2.713 3.845 3.845 0 0 1-1.059 2.781l-4.347 4.61A25.78 25.78 0 0 0 .532 6.323"/></g></g><g transform="matrix(1 0 0 -1 89 68.701)"><mask id="h" fill="#fff"><use xlink:href="#g"/></mask><g mask="url(#h)" fill="url(#i)" fill-rule="nonzero"><path d="M1.203 15.525L5.599 3.444A3.907 3.907 0 0 1 9.253.881a3.894 3.894 0 0 1 3.653 5.221l-4.358 11.98a29.835 29.835 0 0 0-7.345-2.557"/></g></g><g transform="matrix(1 0 0 -1 89 68.701)"><mask id="k" fill="#fff"><use xlink:href="#j"/></mask><g mask="url(#k)" fill="url(#l)" fill-rule="nonzero"><path d="M1.203 15.525L5.599 3.444A3.907 3.907 0 0 1 9.253.881a3.894 3.894 0 0 1 3.653 5.221l-4.358 11.98a29.835 29.835 0 0 0-7.345-2.557"/></g></g><g transform="matrix(1 0 0 -1 151.667 70.035)"><mask id="n" fill="#fff"><use xlink:href="#m"/></mask><g mask="url(#n)" fill="url(#o)" fill-rule="nonzero"><path d="M.667 5.632A3.893 3.893 0 0 1 4.32.415l.163.002a3.877 3.877 0 0 1 3.492 2.558l5.106 14.044c-1.616.376-3.213.858-4.768 1.506a30.1 30.1 0 0 0-2.521 1.202L.667 5.632z"/></g></g><g transform="matrix(1 0 0 -1 151.667 70.035)"><mask id="q" fill="#fff"><use xlink:href="#p"/></mask><g mask="url(#q)" fill="url(#r)" fill-rule="nonzero"><path d="M.667 5.632A3.893 3.893 0 0 1 4.32.415l.163.002a3.877 3.877 0 0 1 3.492 2.558l5.106 14.044c-1.616.376-3.213.858-4.768 1.506a30.1 30.1 0 0 0-2.521 1.202L.667 5.632z"/></g></g><g transform="matrix(1 0 0 -1 202.333 119.368)"><mask id="t" fill="#fff"><use xlink:href="#s"/></mask><g mask="url(#t)" fill="url(#u)" fill-rule="nonzero"><path d="M.89 6.432A3.896 3.896 0 0 1 1.426.96a3.895 3.895 0 0 1 2.47-.881C5.064.079 6.16.596 6.9 1.5l4.723 5.755a21.8 21.8 0 0 0-5.836 5.142L.891 6.432z"/></g></g><g transform="matrix(1 0 0 -1 202.333 119.368)"><mask id="w" fill="#fff"><use xlink:href="#v"/></mask><g mask="url(#w)" fill="url(#x)" fill-rule="nonzero"><path d="M.89 6.432A3.896 3.896 0 0 1 1.426.96a3.895 3.895 0 0 1 2.47-.881C5.064.079 6.16.596 6.9 1.5l4.723 5.755a21.8 21.8 0 0 0-5.836 5.142L.891 6.432z"/></g></g><g transform="matrix(1 0 0 -1 15.667 199.368)"><mask id="z" fill="#fff"><use xlink:href="#y"/></mask><g mask="url(#z)" fill="url(#A)" fill-rule="nonzero"><path d="M54.764 84.315a44.412 44.412 0 0 0 5.503-2.352 45.858 45.858 0 0 0 9.578-6.636c2.843-2.638 5.375-5.603 7.391-8.876a1.852 1.852 0 1 0-3.019-2.135l-.013.013c-2.213 2.744-4.681 5.255-7.439 7.379a40.804 40.804 0 0 1-8.852 5.37c-6.278 2.814-13.217 4.133-20.05 3.546-6.844-.363-13.474-2.75-19.192-6.444-2.812-1.921-5.49-4.08-7.718-6.667-2.336-2.488-4.201-5.373-5.81-8.361-6.276-12.07-5.936-27.424 1.301-39.01 3.477-5.855 8.56-10.694 14.439-14.129C26.789 2.6 33.6.864 40.437.728h.018L180.676.073h.02c9.69-.025 19.28 4.675 25.061 12.528 6.023 7.68 7.798 18.314 5.122 27.716-2.682 9.41-10.006 17.51-19.35 20.912-4.628 1.762-9.69 2.41-14.666 1.936-4.982-.441-9.872-1.952-14.418-4.382a1.116 1.116 0 0 0-1.23 1.854 30.527 30.527 0 0 0 5.945 3.682v6.004c0 31.466-25.601 57.066-57.07 57.066-26.331 0-48.935-17.665-55.326-43.074"/></g></g><g transform="matrix(1 0 0 -1 15.667 199.368)"><mask id="C" fill="#fff"><use xlink:href="#B"/></mask><g mask="url(#C)" fill="url(#D)" fill-rule="nonzero"><path d="M54.764 84.315a44.412 44.412 0 0 0 5.503-2.352 45.858 45.858 0 0 0 9.578-6.636c2.843-2.638 5.375-5.603 7.391-8.876a1.852 1.852 0 1 0-3.019-2.135l-.013.013c-2.213 2.744-4.681 5.255-7.439 7.379a40.804 40.804 0 0 1-8.852 5.37c-6.278 2.814-13.217 4.133-20.05 3.546-6.844-.363-13.474-2.75-19.192-6.444-2.812-1.921-5.49-4.08-7.718-6.667-2.336-2.488-4.201-5.373-5.81-8.361-6.276-12.07-5.936-27.424 1.301-39.01 3.477-5.855 8.56-10.694 14.439-14.129C26.789 2.6 33.6.864 40.437.728h.018L180.676.073h.02c9.69-.025 19.28 4.675 25.061 12.528 6.023 7.68 7.798 18.314 5.122 27.716-2.682 9.41-10.006 17.51-19.35 20.912-4.628 1.762-9.69 2.41-14.666 1.936-4.982-.441-9.872-1.952-14.418-4.382a1.116 1.116 0 0 0-1.23 1.854 30.527 30.527 0 0 0 5.945 3.682v6.004c0 31.466-25.601 57.066-57.07 57.066-26.331 0-48.935-17.665-55.326-43.074"/></g></g><g transform="matrix(1 0 0 -1 59.667 47.368)"><mask id="F" fill="#fff"><use xlink:href="#E"/></mask><g mask="url(#F)" fill="#9DACE3" fill-rule="nonzero"><path d="M237.49-201.196h-340.669V97.2h340.67z"/></g></g><g transform="matrix(1 0 0 -1 147.667 47.368)"><mask id="H" fill="#fff"><use xlink:href="#G"/></mask><g mask="url(#H)" fill="#9DACE3" fill-rule="nonzero"><path d="M149.49-201.196h-340.669V97.2h340.67z"/></g></g><g transform="matrix(1 0 0 -1 209 108.701)"><mask id="J" fill="#fff"><use xlink:href="#I"/></mask><g mask="url(#J)" fill="#9DACE3" fill-rule="nonzero"><path d="M88.157-139.863h-340.669v298.396h340.67z"/></g></g><g transform="matrix(1 0 0 -1 -.333 100.701)"><mask id="L" fill="#fff"><use xlink:href="#K"/></mask><g mask="url(#L)" fill="#9DACE3" fill-rule="nonzero"><path d="M297.49-147.863H-43.178v298.396h340.67z"/></g></g></g></svg>