<?xml version="1.0" encoding="UTF-8"?>
<svg width="31px" height="32px" viewBox="0 0 31 32" version="1.1" xmlns="http://www.w3.org/2000/svg" xmlns:xlink="http://www.w3.org/1999/xlink">
    <!-- Generator: sketchtool 53.2 (72643) - https://sketchapp.com -->
    <title>C085F0EC-CFEC-4779-B111-957B26B7AAAB</title>
    <desc>Created with sketchtool.</desc>
    <g id="Hub" stroke="none" stroke-width="1" fill="none" fill-rule="evenodd">
        <g id="aboutUs-LIGHT" transform="translate(-836.000000, -1493.000000)" fill="#0931D5" fill-rule="nonzero">
            <g id="Charging" transform="translate(836.000000, 1493.000000)">
                <g id="Business-Growth">
                    <path d="M20.4564844,19.1999949 C18.6177516,19.2377677 16.8180204,18.667209 15.3369078,17.5769557 L15.3369078,24.3520341 C18.9608182,24.6830677 21.735229,27.7214165 21.7364854,31.3604181 L21.7364853,31.36 L21.7364853,32 L7.65648528,32 L7.65648528,31.36 C7.65795728,27.7209984 10.4325493,24.6828173 14.0564853,24.352 L14.0564853,15.36 C13.9564533,12.2576512 16.1278453,9.54341119 19.1764861,8.95999984 C19.6686678,8.87321929 20.1679728,8.83336055 20.667686,8.84096022 C22.219046,8.84096022 24.123686,9.09696022 25.915686,9.09696022 C27.6333436,9.26882582 29.3498876,8.76007062 30.6964863,7.68000001 C30.6964863,12.05376 26.7502463,19.2 20.4564862,19.2 Z M19.4235235,10.215678 C16.9814243,10.691966 15.2482897,12.8734444 15.3364835,15.36 C15.3364835,16.3904 17.4868835,17.92 20.4564835,17.92 C24.9531235,17.92 28.0379287,13.5808 29.0542435,10.01216 C28.0298723,10.2754945 26.9744279,10.39822 25.9169631,10.37696 C24.9403231,10.37696 23.9598431,10.30656 23.0113631,10.23872 C22.1678431,10.17728 21.3716831,10.12096 20.6715231,10.12096 C20.2534713,10.1132036 19.8356191,10.1449175 19.4235262,10.21568 Z M20.4206462,30.72 L20.4219262,30.7200008 C20.1245182,28.0422664 18.010675,25.9284143 15.3329406,25.6310152 C12.1712254,25.27986 9.32347879,27.5582856 8.97232615,30.7200008 L20.4206462,30.72 Z M12.7764862,16.6400057 C11.390241,16.6400057 9.83888105,16.5504057 8.30800105,16.4160057 C8.15917161,16.403722 8.01067241,16.3877196 7.86264297,16.3680134 C2.95745256,15.7150086 -0.489634799,11.2092038 0.163366235,6.304 C0.514086235,3.75936 1.21040624,1.32608 2.53648624,0 C2.53648624,6.13376 12.7764862,3.89376 12.7764862,16.6400057 Z M3.02800411,12.2598405 C4.34846491,13.9250911 6.29994011,14.9687211 8.41808403,15.1424005 C9.52528403,15.2371205 10.541604,15.3024005 11.456804,15.3344005 C11.095844,9.55264048 8.29648403,7.75040048 5.58928402,6.00320048 C4.27756562,5.27851568 3.12112146,4.30300592 2.18576482,3.13216148 C1.8240765,4.21977748 1.57110754,5.34055956 1.43056627,6.47808005 C1.13996787,8.54336005 1.71833587,10.6366977 3.02800624,12.25984 Z" id="Combined-Shape"></path>
                </g>
            </g>
        </g>
    </g>
</svg>