<?xml version="1.0" encoding="UTF-8"?>
<svg width="39px" height="32px" viewBox="0 0 39 32" version="1.1" xmlns="http://www.w3.org/2000/svg" xmlns:xlink="http://www.w3.org/1999/xlink">
    <!-- Generator: sketchtool 53.2 (72643) - https://sketchapp.com -->
    <title>2F12D088-04B3-4A37-8536-110166620601</title>
    <desc>Created with sketchtool.</desc>
    <g id="Hub" stroke="none" stroke-width="1" fill="none" fill-rule="evenodd">
        <g id="aboutUs-LIGHT" transform="translate(-309.000000, -1500.000000)" fill="#00C682" fill-rule="nonzero">
            <g id="Appear-Password" transform="translate(309.000000, 1500.000000)">
                <path d="M19.047619,9.14285714 C29.5673905,9.14285714 38.0952381,19.1428571 38.0952381,20.5714286 C38.0952381,22 29.5673905,32 19.047619,32 C8.52784762,32 0,21.9107048 0,20.5714286 C0,19.2321524 8.52784762,9.14285714 19.047619,9.14285714 Z M19.047619,30.4761905 C27.7638095,30.4761905 35.3264762,22.7038476 36.4857905,20.5714286 C35.3264762,18.4397714 27.7638095,10.6666667 19.047619,10.6666667 C10.0356571,10.6666667 2.81249524,18.6264381 1.632,20.5714286 C2.81249524,22.516419 10.0356571,30.4761905 19.047619,30.4761905 Z M19.0476188,15.2380955 C21.9931426,15.2380955 24.3809521,17.625905 24.3809521,20.5714286 C24.3809521,23.5169524 21.9931426,25.9047618 19.0476188,25.9047619 C16.102095,25.9047619 13.7142856,23.5169524 13.7142855,20.5714286 C13.7142855,17.6259048 16.102095,15.2380954 19.047619,15.2380952 Z M19.047619,24.3809524 L19.0476647,24.3809489 C21.150598,24.3784955 22.8547346,22.6743127 22.8571427,20.5713793 L22.8571427,20.5714286 C22.8571427,18.4674895 21.1515579,16.7619049 19.0476189,16.7619048 C16.9436798,16.7619048 15.2380952,18.4674895 15.2380951,20.5714286 C15.2380951,22.6753676 16.9436798,24.3809523 19.047619,24.3809524 Z M10.7689143,8.35337143 L9.24586657,5.71504705 C9.03547267,5.35055943 9.16038848,4.88452667 9.5248761,4.67413276 C9.88936371,4.46373886 10.3553965,4.58865467 10.5657904,4.95314223 L12.0895999,7.59146604 C12.0898207,7.591848 12.0900412,7.59223014 12.0902614,7.59261248 C12.2999467,7.95675572 12.1747337,8.42193363 11.8105904,8.63161901 C11.6950277,8.69919128 11.5635058,8.73464971 11.4296381,8.73432377 C11.1571672,8.73445482 10.9053133,8.58924491 10.7689143,8.35337143 Z M26.2857151,8.63177126 C26.2854135,8.63159725 26.285112,8.63142304 26.2848107,8.63124862 C25.9211379,8.42074957 25.7969676,7.95529128 26.0074666,7.59161898 L27.5312762,4.95329517 C27.7416701,4.58880831 28.2077028,4.46389174 28.5721905,4.67428564 C28.9366773,4.88467955 29.0615939,5.35071231 28.8512,5.71519997 L27.3273904,8.35352378 C27.1909912,8.58939685 26.9391375,8.73460734 26.6666666,8.73447617 C26.5327984,8.73480211 26.4012766,8.69934367 26.2857143,8.63177143 Z M19.047619,6.09523818 C18.6268312,6.09523818 18.2857143,5.75412122 18.2857143,5.33333333 L18.2857143,0.761904762 C18.2857143,0.341116952 18.6268312,-1.0125234e-13 19.047619,-1.0125234e-13 C19.4684068,-1.0125234e-13 19.8095238,0.341116952 19.8095238,0.761904762 L19.8095238,5.33333333 C19.8095238,5.75412114 19.4684068,6.09523811 19.047619,6.0952381 Z" id="Combined-Shape"></path>
            </g>
        </g>
    </g>
</svg>