<?xml version="1.0" encoding="UTF-8"?>
<svg width="22px" height="18px" viewBox="0 0 22 18" version="1.1" xmlns="http://www.w3.org/2000/svg" xmlns:xlink="http://www.w3.org/1999/xlink">
    <g id="Hub" stroke="none" stroke-width="1" fill="none" fill-rule="evenodd">
        <g id="Template-Landing" transform="translate(-785.000000, -367.000000)" fill="#D133B5" fill-rule="nonzero">
            <g id="World-Network" transform="translate(211.000000, 319.000000)">
                <g id="Search-Browser" transform="translate(574.000000, 48.000000)">
                    <path d="M2.57155394,1.71436932 L2.57155394,2.57155397 L1.71436929,2.57155397 L1.71436929,1.71436932 L2.57155394,1.71436932 Z M4.28592326,1.71436932 L4.28592326,2.57155397 L3.4287386,2.57155397 L3.4287386,1.71436932 L4.28592326,1.71436932 Z M6.00029257,1.71436932 L6.00029257,2.57155397 L5.14310792,2.57155397 L5.14310792,1.71436932 L6.00029257,1.71436932 Z M20.1438394,3.13925498e-11 L20.1438738,3.31345327e-06 C20.8536784,0.000774779645 21.4288812,0.576012545 21.4296165,1.28581459 L21.4296164,1.28577705 L21.4296164,16.7151009 C21.4288621,17.4249029 20.8536415,18.000122 20.1438394,18.0008779 L5.57170026,18.0008779 C5.33499557,18.0008779 5.14310794,17.8089902 5.14310793,17.5722855 C5.14310793,17.3355809 5.33499557,17.1436932 5.57170028,17.1436932 L20.1438395,17.1436932 C20.3805441,17.1436932 20.5724318,16.9518056 20.5724318,16.7151009 L20.5724318,4.28592335 L0.857184658,4.28592335 L0.857184658,15.8579162 C0.857184658,16.0946209 0.665297015,16.2865085 0.428592329,16.2865086 C0.191887643,16.2865086 3.57417141e-08,16.0946209 2.82440737e-13,15.8579162 L2.82440737e-13,1.28577699 C0.000754322499,0.575974945 0.575974945,0.00075589629 1.28577696,3.13925498e-11 L20.1438394,3.13925498e-11 Z M7.71466189,3.42873863 L20.5724317,3.42873863 L20.5724317,1.28577699 C20.5724317,1.0490723 20.3805441,0.857184647 20.1438394,0.857184658 L7.71466189,0.857184658 L7.71466189,3.42873863 Z M0.857184628,3.4287387 L6.85747723,3.4287387 L6.85747723,0.857184723 L1.28577696,0.857184723 C1.04907227,0.857184723 0.857184593,1.04907237 0.857184628,1.28577699 L0.857184628,3.4287387 Z M9.00043272,6.00029516 C10.1027893,6.00020087 11.1703177,6.38642942 12.0174227,7.09183411 C14.0180977,8.75784106 14.2894052,11.7302832 12.6233897,13.7309607 C10.9573827,15.7316357 7.98494063,16.0029432 5.98426308,14.3369277 L2.44597625,17.8753003 C2.44252645,17.8788721 2.43901484,17.8823837 2.43544299,17.8858335 C2.26518383,18.0502756 1.99385489,18.0455594 1.82941344,17.8753003 C1.6649713,17.7050411 1.66968753,17.4337122 1.83994669,17.2692707 L5.37823352,13.7308982 C4.6721328,12.8835283 4.28557877,11.8153562 4.28587168,10.7123567 C4.286566,8.10926688 6.39734893,5.99960134 9.00043888,6.0002926 Z M9.00043888,14.5721392 L9.00050736,14.5721403 C11.1298741,14.5697402 12.8554448,12.8441074 12.8577697,10.7147407 L12.8577697,10.7148082 C12.8577697,8.58446434 11.1307826,6.85747736 9.00043871,6.85747726 C6.87009482,6.85747726 5.14310784,8.58446434 5.14310775,10.7148082 C5.14310775,12.8451521 6.87009482,14.5721391 9.00043888,14.5721392 Z" id="iconMonitor"></path>
                </g>
            </g>
        </g>
    </g>
</svg>