<?xml version="1.0" encoding="UTF-8"?>
<svg width="22px" height="20px" viewBox="0 0 22 20" version="1.1" xmlns="http://www.w3.org/2000/svg" xmlns:xlink="http://www.w3.org/1999/xlink">
    <g id="Hub" stroke="none" stroke-width="1" fill="none" fill-rule="evenodd">
        <g id="Template-Landing" transform="translate(-784.000000, -319.000000)" fill="#E9814C" fill-rule="nonzero">
            <g id="World-Network" transform="translate(211.000000, 319.000000)">
                <g id="House" transform="translate(573.000000, 0.000000)">
                    <path d="M21.5983717,9.6796425 L21.5983718,9.68051226 C21.7753437,9.84283631 21.7872177,10.1178903 21.6248936,10.2948623 C21.4625696,10.4718342 21.1875155,10.4837082 21.0105436,10.3213841 L19.1305369,8.59789971 L19.1305369,18.6961965 C19.1305369,19.4165704 18.5465583,20.0005489 17.8261844,20.000549 L3.91309139,20.000549 C3.19271752,20.000549 2.60873903,19.4165704 2.60873892,18.6961963 L2.60873892,8.59789952 L0.728732228,10.3205143 C0.551760294,10.4828384 0.276706271,10.4709644 0.114382215,10.2939925 C-0.0479418408,10.1170206 -0.0360678855,9.84196655 0.140904057,9.67964249 L10.5757238,0.11439105 C10.7419861,-0.0381303517 10.9972897,-0.0381303517 11.163552,0.114391055 L21.5983717,9.6796425 Z M11.3044221,19.1309805 L14.7826953,19.1309805 L14.7826953,13.0440023 L11.3044221,13.0440023 L11.3044221,19.1309805 Z M18.2609686,7.82659242 L18.2896643,7.82659242 L10.8696378,1.02482908 L3.44961142,7.82659242 L3.47830718,7.82659242 L3.47830718,18.6961963 C3.47830718,18.9363207 3.672967,19.1309805 3.91309135,19.1309805 L10.4348537,19.1309805 L10.4348537,13.0440023 C10.4348537,12.5637528 10.8241725,12.174434 11.3044221,12.174434 L14.7826953,12.174434 C15.2629448,12.174434 15.6522636,12.5637528 15.6522636,13.0440023 L15.6522636,19.1309805 L17.8261844,19.1309805 C18.0663087,19.1309805 18.2609686,18.9363207 18.2609686,18.6961963 L18.2609686,7.82659242 Z M7.82614872,12.1744341 C8.30639826,12.1744341 8.69571704,12.5637529 8.69571704,13.0440024 L8.69571704,14.7831391 C8.69571704,15.2633886 8.30639826,15.6527074 7.82614876,15.6527074 L6.08701214,15.6527074 C5.6067626,15.6527074 5.2174439,15.2633886 5.21744382,14.7831389 L5.21744382,13.0440023 C5.21744382,12.5637528 5.6067626,12.174434 6.08701217,12.174434 L7.8261488,12.174434 Z M7.8261488,14.7831389 L7.8261488,13.0440023 L6.08701217,13.0440023 L6.08701217,14.7831389 L7.8261488,14.7831389 Z" id="iconHouse"></path>
                </g>
            </g>
        </g>
    </g>
</svg>