<?xml version="1.0" encoding="UTF-8"?>
<svg width="20px" height="20px" viewBox="0 0 20 20" version="1.1" xmlns="http://www.w3.org/2000/svg" xmlns:xlink="http://www.w3.org/1999/xlink">
    <g id="Hub" stroke="none" stroke-width="1" fill="none" fill-rule="evenodd">
        <g id="Template-Landing" transform="translate(-211.000000, -319.000000)" fill="#E4611F" fill-rule="nonzero">
            <g id="World-Network" transform="translate(211.000000, 319.000000)">
                <g id="Forward-Time">
                    <path d="M19.5994815,3.19220742 L19.5994823,3.19222455 C19.8204626,3.19222455 19.9996031,3.37136503 19.9996031,3.59234527 L19.9996031,6.79331164 C19.9996031,7.01429195 19.8204626,7.19343244 19.5994823,7.19343243 L16.3985159,7.19343243 C16.1775356,7.19343243 15.9983951,7.01429195 15.9983951,6.79331164 C15.9983951,6.57233132 16.1775356,6.39319085 16.3985159,6.39319084 L18.4559371,6.39319084 C17.915662,5.12429576 17.0972949,3.99294621 16.0612541,3.0826714 C12.2404206,-0.274350077 6.42162393,0.101651437 3.06461046,3.92248494 C-0.292411019,7.74331844 0.0835904954,13.5621151 3.904424,16.9191286 C7.7252575,20.2761501 13.5440542,19.9001486 16.9010674,16.0793153 C17.0473564,15.9135797 17.3003023,15.8978157 17.466038,16.0441047 C17.6317736,16.1903937 17.6475376,16.4433396 17.5012486,16.6090753 C16.5140066,17.7295816 15.2882845,18.6146856 13.9141177,19.1993613 C8.83346381,21.3610619 2.96233933,18.9947795 0.800638722,13.9141177 C-1.36106189,8.83346384 1.00522048,2.96233936 6.08588233,0.800638743 C11.1665362,-1.36106187 17.0376606,1.00522051 19.1993607,6.08588101 L19.1993607,3.59232821 C19.1993607,3.3713479 19.3785012,3.19220742 19.5994815,3.19220742 Z M9.99658238,4.79268992 C10.2175627,4.79268992 10.3967032,4.9718304 10.3967032,5.19281071 L10.3967032,9.82861025 L13.4768331,12.9111409 C13.6265911,13.0661973 13.6265911,13.3120219 13.4768331,13.4670783 C13.3233155,13.6260272 13.0700111,13.6304294 12.9110623,13.4769118 L9.7100959,10.2759455 L9.7100959,10.271144 C9.63782536,10.1970248 9.59709495,10.0977797 9.59646159,9.99426094 L9.59646159,5.19281139 C9.59646159,4.97183108 9.77560208,4.79269061 9.99658241,4.7926906 Z" id="iconTime"></path>
                </g>
            </g>
        </g>
    </g>
</svg>