<?xml version="1.0" encoding="UTF-8"?>
<svg width="21px" height="22px" viewBox="0 0 21 22" version="1.1" xmlns="http://www.w3.org/2000/svg" xmlns:xlink="http://www.w3.org/1999/xlink">
    <g id="Hub" stroke="none" stroke-width="1" fill="none" fill-rule="evenodd">
        <g id="Template-Landing" transform="translate(-785.000000, -411.000000)" fill="#1339D7" fill-rule="nonzero">
            <g id="Research" transform="translate(785.000000, 411.000000)">
                <path d="M20.2400142,5.720004 L10.1200071,0 L0,5.720004 L0,16.2800114 C0,16.2869634 0.00501600351,16.2925074 0.0052800037,16.2994594 L0.00527998523,16.2994583 C0.00648850767,16.3690529 0.0246093748,16.4373087 0.0580794942,16.4983385 L0.0608954962,16.5011545 L0.0608954889,16.5011545 C0.082488504,16.5286084 0.107273633,16.5533935 0.134727541,16.5749865 L0.134727555,16.5749865 C0.161006485,16.6088637 0.192038563,16.6387695 0.22686362,16.6637786 L0.229591621,16.6664186 L9.9095984,21.9464223 L9.90959833,21.9464223 C10.0408267,22.0180259 10.1994503,22.0180259 10.3306786,21.9464223 L20.0106854,16.6664186 L20.0134134,16.6637786 L20.0134134,16.6637787 C20.0470235,16.6394242 20.077059,16.6104847 20.1026455,16.5778026 L20.1026455,16.5778026 C20.131335,16.5555069 20.1571409,16.5297304 20.1794695,16.5010665 L20.1821975,16.4983385 L20.1821975,16.4983385 C20.2156298,16.437389 20.2337497,16.3692275 20.2349976,16.2997224 C20.2349976,16.2927704 20.2403656,16.2871384 20.2403656,16.2800984 L20.2400142,5.720004 Z M19.3600135,15.5218909 L13.8582497,12.3780007 L13.8582497,12.3780007 C13.648557,12.2551975 13.3790155,12.325635 13.2562123,12.5353281 C13.1334091,12.7450208 13.2038466,13.0145623 13.4135397,13.1373655 C13.416237,13.1389452 13.4189511,13.1404961 13.4216815,13.1420179 L18.8974853,16.2712121 L10.5600075,20.8189672 L10.5600075,11.1917605 L19.3600136,6.21738102 L19.3600135,15.5218909 Z M9.68000677,1.25954488 L9.68000677,6.60000462 L9.68000677,6.60000469 C9.68000681,6.84300982 9.87700195,7.04000499 10.1200071,7.04000499 C10.3630122,7.04000496 10.5600074,6.84300982 10.5600074,6.60000469 L10.5600074,1.25954495 L18.4515889,5.72000407 L10.1200071,10.4291514 L1.78842525,5.72000407 L9.68000677,1.25954488 Z M9.68000677,11.1913198 L9.68000677,20.8185266 L1.34244094,16.2712114 L6.81824477,13.1421932 L6.81824477,13.1421932 C7.03050708,13.0238868 7.10667289,12.7559072 6.98836561,12.5436458 C6.87005921,12.3313835 6.60207966,12.2552177 6.38981823,12.373525 C6.38708785,12.3750468 6.38437376,12.3765977 6.38167642,12.3781773 L0.880000572,15.5218035 L0.880000572,6.21738099 L9.68000677,11.1913198 Z" id="iconCube"></path>
            </g>
        </g>
    </g>
</svg>