<?xml version="1.0" encoding="UTF-8"?>
<svg width="25px" height="16px" viewBox="0 0 25 16" version="1.1" xmlns="http://www.w3.org/2000/svg" xmlns:xlink="http://www.w3.org/1999/xlink">
    <g id="Hub" stroke="none" stroke-width="1" fill="none" fill-rule="evenodd">
        <g id="Template-Landing" transform="translate(-209.000000, -414.000000)" fill="#00C682" fill-rule="nonzero">
            <g id="3D-Glasses" transform="translate(209.000000, 414.000000)">
                <path d="M3.00000002,12.9938564 C2.44771502,12.9938564 2.0000001,12.5461414 2.00000002,11.9938563 L2.00000002,8.99385632 C2.00000002,8.44157132 2.44771502,7.99385634 3.00000006,7.99385632 L9.00000006,7.99385632 C9.55228506,7.99385632 10.0000001,8.44157132 10.0000001,8.99385632 L10.0000001,11.9938563 C10.0000001,12.5461413 9.55228506,12.9938563 9.0000001,12.9938563 L3.0000001,12.9938563 Z M3.0000001,8.99385632 L3.0000001,11.9938563 L9.0000001,11.9938563 L9.0000001,8.99385632 L3.0000001,8.99385632 Z M16,12.9938564 C15.447715,12.9938564 15.0000001,12.5461414 15,11.9938563 L15,8.99385632 C15,8.44157132 15.447715,7.99385634 16.0000001,7.99385632 L22.0000001,7.99385632 C22.5522851,7.99385632 23.0000001,8.44157132 23.0000001,8.99385632 L23.0000001,11.9938563 C23.0000001,12.5461413 22.5522851,12.9938563 22.0000001,12.9938563 L16.0000001,12.9938563 Z M16.0000001,8.99385632 L16.0000001,11.9938563 L22.0000001,11.9938563 L22.0000001,8.99385632 L16.0000001,8.99385632 Z M24.8535002,5.14035677 C25.0035289,5.29189977 25.0396693,5.52247977 24.9432006,5.71265776 C24.9759552,5.80306076 24.9950974,5.89782886 25.0000002,5.99385673 L25.0000002,14.4938567 C25.0000002,15.3222837 24.3284272,15.9938568 23.5000002,15.9938567 L15.0811002,15.9938567 C14.4356432,15.9937567 13.8626232,15.5807547 13.6584002,14.9684565 L13.0000002,12.9938565 L12.0000002,12.9938565 L11.3416002,14.9684565 C11.1373402,15.5808585 10.5641682,15.9938829 9.91860021,15.9938565 L1.5,15.9938565 C0.671573,15.9938565 -1.25087872e-07,15.3222835 1.12798659e-12,14.4938565 L1.12798659e-12,5.99385655 C0.0048065,5.89784255 0.0238476,5.80307535 0.0564999892,5.71265658 C-0.0398911108,5.52241658 -0.00362911083,5.29182858 0.146499921,5.14035654 L5.14649992,0.140356545 C5.34026192,-0.0467844978 5.64744992,-0.0467844978 5.84121192,0.140356502 C6.03983812,0.332195502 6.04533912,0.648730502 5.8535001,0.847356524 L1.7070001,4.99385652 L23.2930001,4.99385652 L19.1465001,0.847356524 C18.9593591,0.653594524 18.9593591,0.346406524 19.1465001,0.152644524 C19.3383391,-0.0459816758 19.6548741,-0.0514826758 19.8535001,0.140356319 L24.8535001,5.14035632 Z M24.0000001,14.4938563 L24.0000001,5.99385643 L1.00000012,5.99385643 L1.00000012,14.4938564 C1.00000012,14.7699984 1.22385812,14.9938564 1.50000014,14.9938564 L9.91860014,14.9938564 C10.1339311,14.9941854 10.3252055,14.8564034 10.3931001,14.6520564 L11.0513001,12.6774564 C11.1874761,12.2691764 11.5696091,11.9938245 12.0000002,11.9938564 L13.0000002,11.9938564 C13.4302812,11.9939534 13.8122592,12.2692814 13.9484001,12.6774563 L14.6068001,14.6520563 C14.6746711,14.8563333 14.8658431,14.9940994 15.0811001,14.9938563 L23.5000001,14.9938563 C23.7761421,14.9938563 24.0000001,14.7699983 24.0000001,14.4938563 Z" id="icon3d"></path>
            </g>
        </g>
    </g>
</svg>