<?xml version="1.0" encoding="UTF-8"?>
<svg width="31px" height="32px" viewBox="0 0 31 32" version="1.1" xmlns="http://www.w3.org/2000/svg" xmlns:xlink="http://www.w3.org/1999/xlink">
    <!-- Generator: sketchtool 53.2 (72643) - https://sketchapp.com -->
    <title>792AC84A-BB00-4BA0-A36A-05315748C70F</title>
    <desc>Created with sketchtool.</desc>
    <g id="Hub" stroke="none" stroke-width="1" fill="none" fill-rule="evenodd">
        <g id="aboutUs-LIGHT" transform="translate(-571.000000, -1492.000000)" fill="#E4611F" fill-rule="nonzero">
            <g id="Like" transform="translate(571.000000, 1492.000000)">
                <path d="M27.975024,10.2812322 L27.9750239,10.2812322 C27.7796441,10.2815194 27.584867,10.3029328 27.3940912,10.3450988 C23.7424957,11.1497645 18.9313015,11.6933639 18.9313015,11.6933639 L18.9313015,11.6933639 C18.8440667,11.710839 18.7553364,11.7197702 18.6663685,11.7200305 L18.6663686,11.7200305 C17.9305375,11.7187096 17.3343582,11.1225299 17.3330369,10.3866988 L17.3330369,2.77337464 L17.3330369,2.77340725 C17.3313627,1.24004911 16.0869717,-0.00162939277 14.5536136,3.72718796e-05 C14.5533455,3.75646513e-05 14.5530773,3.78962709e-05 14.5528092,3.82667371e-05 L14.5528091,3.82665118e-05 C13.1777041,-0.00702609829 11.9918922,0.964745101 11.7286525,2.31443547 C10.9929201,6.18749746 8.78318942,11.6953575 6.41025895,13.0390892 L6.41025901,13.0390893 C6.06243943,12.4002954 5.39400824,12.0019559 4.66666112,12.0000239 L1.99999767,12.0000239 L1.99999758,12.0000239 C0.895429585,12.0000239 0,12.8954534 0,14.0000214 C0,14.0000214 0,14.0000214 0,14.0000214 L0,30.0000021 L1.89477834e-14,30.0000024 C1.66785151e-07,31.1045704 0.895429585,32 1.99999758,32 L4.66666103,32 L4.66666094,32 C5.77122894,32 6.66665852,31.1045704 6.66665852,30.0000024 L6.66665852,28.6777373 L10.6666537,30.6666683 L25.013303,30.6666683 L25.0133029,30.6666683 C26.873674,30.6693727 28.4910587,29.3908738 28.9179649,27.5801387 L28.9179654,27.5801361 C29.9667028,22.8065552 30.5423235,17.9412144 30.6364967,13.054687 L30.6364967,13.0546869 C30.6885838,11.5759287 29.5320354,10.3349302 28.0532731,10.2828369 C28.0272026,10.2819186 28.00112,10.2813812 27.9750338,10.2812247 L27.975024,10.2812322 Z M5.33331801,30.0000084 L5.33331801,30.0000084 C5.33331801,30.3681973 5.03484103,30.6666743 4.66665215,30.6666743 L1.9999887,30.6666743 L1.99998867,30.6666743 C1.63179978,30.6666743 1.33332281,30.3681973 1.33332281,30.0000084 C1.33332281,30.0000084 1.33332281,30.0000084 1.33332281,30.0000084 L1.33332281,14.0000278 L1.3333228,14.000037 C1.333905,13.6320908 1.6320331,13.3339538 1.99997932,13.3333618 L4.66664277,13.3333618 L4.66664277,13.3333618 C5.03458899,13.3339491 5.33272196,13.6320815 5.33330863,14.0000277 L5.3046512,28.0000108 L5.33331783,28.0142774 L5.33331801,30.0000084 Z M27.6199577,27.2734784 L27.6199577,27.2734785 C27.337174,28.4836504 26.2559194,29.338036 25.0131609,29.3333427 L10.9798445,29.3333427 L6.66664969,27.188812 L6.69171633,14.3834941 C10.0435789,12.8880293 12.3723761,6.0696375 13.0379753,2.56324173 L13.0379752,2.5632422 C13.1826097,1.8430524 13.8182316,1.32699169 14.5527734,1.33337702 L14.5527734,1.33337702 C15.3494458,1.33249052 15.996465,1.9767069 15.9990383,2.77337528 L15.9990383,10.3848327 L15.9990383,10.3848179 C16.0009399,11.8567894 17.1937208,13.0495747 18.6656884,13.0514947 L18.6656885,13.0514947 C18.8200523,13.0511488 18.9741095,13.037768 19.1262213,13.0114947 C19.6606206,12.9502948 24.1528819,12.4236287 27.6811443,11.6462964 L27.6811441,11.6462964 C27.7774691,11.6249467 27.8758146,11.6140392 27.9744758,11.6137631 L27.9744757,11.6137631 C28.333746,11.6144507 28.6770762,11.7621709 28.9246079,12.0225626 L28.9246079,12.0225626 C29.1804743,12.2861996 29.3173435,12.6430392 29.3034075,13.0101614 L29.303406,13.0102392 C29.2119918,17.8084201 28.6481148,22.5859343 27.6199414,27.2735553 L27.6199577,27.2734784 Z" id="Shape"></path>
            </g>
        </g>
    </g>
</svg>