<?xml version="1.0" encoding="UTF-8"?>
<svg width="499px" height="206px" viewBox="0 0 499 206" version="1.1" xmlns="http://www.w3.org/2000/svg" xmlns:xlink="http://www.w3.org/1999/xlink">
    <style> * {font-family:'ProximaNova-Regular', Courier}</style>
    <defs>
        <rect id="path-1" x="30" y="26" width="267" height="39" rx="19.5"></rect>
        <filter x="-9.9%" y="-62.8%" width="119.9%" height="235.9%" filterUnits="objectBoundingBox" id="filter-2">
            <feOffset dx="0" dy="2" in="SourceAlpha" result="shadowOffsetOuter1"></feOffset>
            <feGaussianBlur stdDeviation="8.5" in="shadowOffsetOuter1" result="shadowBlurOuter1"></feGaussianBlur>
            <feColorMatrix values="0 0 0 0 0.0117647059   0 0 0 0 0.0509803922   0 0 0 0 0.211764706  0 0 0 0.0915100524 0" type="matrix" in="shadowBlurOuter1"></feColorMatrix>
        </filter>
        <rect id="path-3" x="198" y="106" width="267" height="39" rx="19.5"></rect>
        <filter x="-9.9%" y="-62.8%" width="119.9%" height="235.9%" filterUnits="objectBoundingBox" id="filter-4">
            <feOffset dx="0" dy="2" in="SourceAlpha" result="shadowOffsetOuter1"></feOffset>
            <feGaussianBlur stdDeviation="8.5" in="shadowOffsetOuter1" result="shadowBlurOuter1"></feGaussianBlur>
            <feColorMatrix values="0 0 0 0 0.0117647059   0 0 0 0 0.0509803922   0 0 0 0 0.211764706  0 0 0 0.0915100524 0" type="matrix" in="shadowBlurOuter1"></feColorMatrix>
        </filter>
        <rect id="path-5" x="0" y="125" width="123" height="39" rx="19.5"></rect>
        <filter x="-21.5%" y="-62.8%" width="143.1%" height="235.9%" filterUnits="objectBoundingBox" id="filter-6">
            <feOffset dx="0" dy="2" in="SourceAlpha" result="shadowOffsetOuter1"></feOffset>
            <feGaussianBlur stdDeviation="8.5" in="shadowOffsetOuter1" result="shadowBlurOuter1"></feGaussianBlur>
            <feColorMatrix values="0 0 0 0 0.0117647059   0 0 0 0 0.0509803922   0 0 0 0 0.211764706  0 0 0 0.0915100524 0" type="matrix" in="shadowBlurOuter1"></feColorMatrix>
        </filter>
        <linearGradient x1="100%" y1="50.8853547%" x2="1.80027174%" y2="49.1685132%" id="linearGradient-7">
            <stop stop-color="#030D36" offset="0%"></stop>
            <stop stop-color="#343C5D" offset="100%"></stop>
        </linearGradient>
        <rect id="path-8" x="0" y="0" width="279" height="39" rx="19.5"></rect>
        <filter x="-9.5%" y="-62.8%" width="119.0%" height="235.9%" filterUnits="objectBoundingBox" id="filter-10">
            <feOffset dx="0" dy="2" in="SourceAlpha" result="shadowOffsetOuter1"></feOffset>
            <feGaussianBlur stdDeviation="8.5" in="shadowOffsetOuter1" result="shadowBlurOuter1"></feGaussianBlur>
            <feColorMatrix values="0 0 0 0 0.0117647059   0 0 0 0 0.0509803922   0 0 0 0 0.211764706  0 0 0 0.0915100524 0" type="matrix" in="shadowBlurOuter1"></feColorMatrix>
        </filter>
        <linearGradient x1="100%" y1="52.1270647%" x2="1.80027174%" y2="48.0023529%" id="linearGradient-11">
            <stop stop-color="#030D36" offset="0%"></stop>
            <stop stop-color="#343C5D" offset="100%"></stop>
        </linearGradient>
        <rect id="path-12" x="0" y="0" width="180" height="39" rx="19.5"></rect>
        <filter x="-14.7%" y="-62.8%" width="129.4%" height="235.9%" filterUnits="objectBoundingBox" id="filter-14">
            <feOffset dx="0" dy="2" in="SourceAlpha" result="shadowOffsetOuter1"></feOffset>
            <feGaussianBlur stdDeviation="8.5" in="shadowOffsetOuter1" result="shadowBlurOuter1"></feGaussianBlur>
            <feColorMatrix values="0 0 0 0 0.0117647059   0 0 0 0 0.0509803922   0 0 0 0 0.211764706  0 0 0 0.0915100524 0" type="matrix" in="shadowBlurOuter1"></feColorMatrix>
        </filter>
        <rect id="path-15" x="0" y="0" width="180" height="39" rx="19.5"></rect>
        <filter x="-14.7%" y="-62.8%" width="129.4%" height="235.9%" filterUnits="objectBoundingBox" id="filter-17">
            <feOffset dx="0" dy="2" in="SourceAlpha" result="shadowOffsetOuter1"></feOffset>
            <feGaussianBlur stdDeviation="8.5" in="shadowOffsetOuter1" result="shadowBlurOuter1"></feGaussianBlur>
            <feColorMatrix values="0 0 0 0 0.0117647059   0 0 0 0 0.0509803922   0 0 0 0 0.211764706  0 0 0 0.0915100524 0" type="matrix" in="shadowBlurOuter1"></feColorMatrix>
        </filter>
        <rect id="path-18" x="0" y="0" width="180" height="39" rx="19.5"></rect>
        <filter x="-14.7%" y="-62.8%" width="129.4%" height="235.9%" filterUnits="objectBoundingBox" id="filter-20">
            <feOffset dx="0" dy="2" in="SourceAlpha" result="shadowOffsetOuter1"></feOffset>
            <feGaussianBlur stdDeviation="8.5" in="shadowOffsetOuter1" result="shadowBlurOuter1"></feGaussianBlur>
            <feColorMatrix values="0 0 0 0 0.0117647059   0 0 0 0 0.0509803922   0 0 0 0 0.211764706  0 0 0 0.0915100524 0" type="matrix" in="shadowBlurOuter1"></feColorMatrix>
        </filter>
        <rect id="path-21" x="0" y="0" width="180" height="39" rx="19.5"></rect>
        <filter x="-14.7%" y="-62.8%" width="129.4%" height="235.9%" filterUnits="objectBoundingBox" id="filter-23">
            <feOffset dx="0" dy="2" in="SourceAlpha" result="shadowOffsetOuter1"></feOffset>
            <feGaussianBlur stdDeviation="8.5" in="shadowOffsetOuter1" result="shadowBlurOuter1"></feGaussianBlur>
            <feColorMatrix values="0 0 0 0 0.0117647059   0 0 0 0 0.0509803922   0 0 0 0 0.211764706  0 0 0 0.0915100524 0" type="matrix" in="shadowBlurOuter1"></feColorMatrix>
        </filter>
        <rect id="path-24" x="0" y="0" width="180" height="39" rx="19.5"></rect>
        <filter x="-14.7%" y="-62.8%" width="129.4%" height="235.9%" filterUnits="objectBoundingBox" id="filter-26">
            <feOffset dx="0" dy="2" in="SourceAlpha" result="shadowOffsetOuter1"></feOffset>
            <feGaussianBlur stdDeviation="8.5" in="shadowOffsetOuter1" result="shadowBlurOuter1"></feGaussianBlur>
            <feColorMatrix values="0 0 0 0 0.0117647059   0 0 0 0 0.0509803922   0 0 0 0 0.211764706  0 0 0 0.0915100524 0" type="matrix" in="shadowBlurOuter1"></feColorMatrix>
        </filter>
    </defs>
    <g id="Hub" stroke="none" stroke-width="1" fill="none" fill-rule="evenodd">
        <g id="Product-Framework" transform="translate(-751.000000, -1177.000000)">
            <g id="APIAuth" transform="translate(768.000000, 1192.000000)">
                <g id="Mask">
                    <use fill="black" fill-opacity="1" filter="url(#filter-2)" xlink:href="#path-1"></use>
                    <use fill="#3FE9AF" fill-rule="evenodd" xlink:href="#path-1"></use>
                </g>
                <g id="Mask">
                    <use fill="black" fill-opacity="1" filter="url(#filter-4)" xlink:href="#path-3"></use>
                    <use fill="#F4C0A5" fill-rule="evenodd" xlink:href="#path-3"></use>
                </g>
                <g id="Mask">
                    <use fill="black" fill-opacity="1" filter="url(#filter-6)" xlink:href="#path-5"></use>
                    <use fill="#E899DA" fill-rule="evenodd" xlink:href="#path-5"></use>
                </g>
                <g id="$-Bearer--h-Bearer-C" transform="translate(32.000000, 0.000000)">
                    <mask id="mask-9" fill="white">
                        <use xlink:href="#path-8"></use>
                    </mask>
                    <g id="Mask">
                        <use fill="black" fill-opacity="1" filter="url(#filter-10)" xlink:href="#path-8"></use>
                        <use fill="url(#linearGradient-7)" fill-rule="evenodd" xlink:href="#path-8"></use>
                    </g>
                    <text id="$" mask="url(#mask-9)" font-family="Courier" font-size="14" font-weight="normal" letter-spacing="0.4375" fill="#999DAE">
                        <tspan x="22" y="23">$</tspan>
                    </text>
                    <text id="bearer-new" mask="url(#mask-9)" font-family="Courier" font-size="14" font-weight="normal" letter-spacing="0.4375" fill="#FFFFFF">
                        <tspan x="40" y="23">bearer new</tspan>
                    </text>
                </g>
                <g id="$-Bearer--h-Bearer-C" transform="translate(47.000000, 46.000000)">
                    <mask id="mask-13" fill="white">
                        <use xlink:href="#path-12"></use>
                    </mask>
                    <g id="Mask">
                        <use fill="black" fill-opacity="1" filter="url(#filter-14)" xlink:href="#path-12"></use>
                        <use fill="url(#linearGradient-11)" fill-rule="evenodd" xlink:href="#path-12"></use>
                    </g>
                    <text id="OAuth1" mask="url(#mask-13)" font-family="Courier" font-size="14" font-weight="normal" letter-spacing="0.4375" fill="#FFFFFF">
                        <tspan x="43" y="23">OAuth1</tspan>
                    </text>
                    <path d="M26.2894505,25.0000005 L26.2894505,25.0000005 C26.3662194,25.0000862 26.4398569,24.9695691 26.4940603,24.9152047 L31.7033611,19.7059038 L31.7033611,19.7059039 C31.8163398,19.592891 31.8163398,19.4096972 31.7033611,19.2966843 L26.4940603,14.0873835 L26.4940603,14.0873835 C26.3790933,13.9763449 26.1958793,13.979529 26.0848407,14.0944961 C25.9765214,14.2066477 25.9765214,14.3844515 26.0848407,14.4966031 L31.0895318,19.5012942 L26.0848407,24.5059853 L26.0848407,24.5059853 C25.9718377,24.6190225 25.9718655,24.8022637 26.0849025,24.9152667 C26.139159,24.9695068 26.2127318,24.9999844 26.2894503,25.0000006 L26.2894505,25.0000005 Z" id="Path" stroke="#999DAE" fill="#999DAE" fill-rule="nonzero" mask="url(#mask-13)"></path>
                </g>
                <g id="$-Bearer--h-Bearer-C" transform="translate(47.000000, 89.000000)">
                    <mask id="mask-16" fill="white">
                        <use xlink:href="#path-15"></use>
                    </mask>
                    <g id="Mask">
                        <use fill="black" fill-opacity="1" filter="url(#filter-17)" xlink:href="#path-15"></use>
                        <use fill="url(#linearGradient-11)" fill-rule="evenodd" xlink:href="#path-15"></use>
                    </g>
                    <text id="OAuth2" mask="url(#mask-16)" font-family="Courier" font-size="14" font-weight="normal" letter-spacing="0.4375" fill="#FFFFFF">
                        <tspan x="43" y="23">OAuth2</tspan>
                    </text>
                    <path d="M26.2894505,25.0000005 L26.2894505,25.0000005 C26.3662194,25.0000862 26.4398569,24.9695691 26.4940603,24.9152047 L31.7033611,19.7059038 L31.7033611,19.7059039 C31.8163398,19.592891 31.8163398,19.4096972 31.7033611,19.2966843 L26.4940603,14.0873835 L26.4940603,14.0873835 C26.3790933,13.9763449 26.1958793,13.979529 26.0848407,14.0944961 C25.9765214,14.2066477 25.9765214,14.3844515 26.0848407,14.4966031 L31.0895318,19.5012942 L26.0848407,24.5059853 L26.0848407,24.5059853 C25.9718377,24.6190225 25.9718655,24.8022637 26.0849025,24.9152667 C26.139159,24.9695068 26.2127318,24.9999844 26.2894503,25.0000006 L26.2894505,25.0000005 Z" id="Path" stroke="#999DAE" fill="#999DAE" fill-rule="nonzero" mask="url(#mask-16)"></path>
                </g>
                <g id="$-Bearer--h-Bearer-C" transform="translate(47.000000, 133.000000)">
                    <mask id="mask-19" fill="white">
                        <use xlink:href="#path-18"></use>
                    </mask>
                    <g id="Mask">
                        <use fill="black" fill-opacity="1" filter="url(#filter-20)" xlink:href="#path-18"></use>
                        <use fill="url(#linearGradient-11)" fill-rule="evenodd" xlink:href="#path-18"></use>
                    </g>
                    <text id="NoAuth" mask="url(#mask-19)" font-family="Courier" font-size="14" font-weight="normal" letter-spacing="0.4375" fill="#FFFFFF">
                        <tspan x="43" y="23">NoAuth</tspan>
                    </text>
                    <path d="M26.2894505,25.0000005 L26.2894505,25.0000005 C26.3662194,25.0000862 26.4398569,24.9695691 26.4940603,24.9152047 L31.7033611,19.7059038 L31.7033611,19.7059039 C31.8163398,19.592891 31.8163398,19.4096972 31.7033611,19.2966843 L26.4940603,14.0873835 L26.4940603,14.0873835 C26.3790933,13.9763449 26.1958793,13.979529 26.0848407,14.0944961 C25.9765214,14.2066477 25.9765214,14.3844515 26.0848407,14.4966031 L31.0895318,19.5012942 L26.0848407,24.5059853 L26.0848407,24.5059853 C25.9718377,24.6190225 25.9718655,24.8022637 26.0849025,24.9152667 C26.139159,24.9695068 26.2127318,24.9999844 26.2894503,25.0000006 L26.2894505,25.0000005 Z" id="Path" stroke="#999DAE" fill="#999DAE" fill-rule="nonzero" mask="url(#mask-19)"></path>
                </g>
                <g id="$-Bearer--h-Bearer-C" transform="translate(231.000000, 46.000000)">
                    <mask id="mask-22" fill="white">
                        <use xlink:href="#path-21"></use>
                    </mask>
                    <g id="Mask">
                        <use fill="black" fill-opacity="1" filter="url(#filter-23)" xlink:href="#path-21"></use>
                        <use fill="url(#linearGradient-11)" fill-rule="evenodd" xlink:href="#path-21"></use>
                    </g>
                    <text id="Basic-Auth" mask="url(#mask-22)" font-family="Courier" font-size="14" font-weight="normal" letter-spacing="0.4375" fill="#FFFFFF">
                        <tspan x="43" y="23">Basic Auth</tspan>
                    </text>
                    <path d="M26.2894505,25.0000005 L26.2894505,25.0000005 C26.3662194,25.0000862 26.4398569,24.9695691 26.4940603,24.9152047 L31.7033611,19.7059038 L31.7033611,19.7059039 C31.8163398,19.592891 31.8163398,19.4096972 31.7033611,19.2966843 L26.4940603,14.0873835 L26.4940603,14.0873835 C26.3790933,13.9763449 26.1958793,13.979529 26.0848407,14.0944961 C25.9765214,14.2066477 25.9765214,14.3844515 26.0848407,14.4966031 L31.0895318,19.5012942 L26.0848407,24.5059853 L26.0848407,24.5059853 C25.9718377,24.6190225 25.9718655,24.8022637 26.0849025,24.9152667 C26.139159,24.9695068 26.2127318,24.9999844 26.2894503,25.0000006 L26.2894505,25.0000005 Z" id="Path" stroke="#999DAE" fill="#999DAE" fill-rule="nonzero" mask="url(#mask-22)"></path>
                </g>
                <g id="$-Bearer--h-Bearer-C" transform="translate(231.000000, 89.000000)">
                    <mask id="mask-25" fill="white">
                        <use xlink:href="#path-24"></use>
                    </mask>
                    <g id="Mask">
                        <use fill="black" fill-opacity="1" filter="url(#filter-26)" xlink:href="#path-24"></use>
                        <use fill="url(#linearGradient-11)" fill-rule="evenodd" xlink:href="#path-24"></use>
                    </g>
                    <text id="API-Key" mask="url(#mask-25)" font-family="Courier" font-size="14" font-weight="normal" letter-spacing="0.4375" fill="#FFFFFF">
                        <tspan x="43" y="23">API Key</tspan>
                    </text>
                    <path d="M26.2894505,25.0000005 L26.2894505,25.0000005 C26.3662194,25.0000862 26.4398569,24.9695691 26.4940603,24.9152047 L31.7033611,19.7059038 L31.7033611,19.7059039 C31.8163398,19.592891 31.8163398,19.4096972 31.7033611,19.2966843 L26.4940603,14.0873835 L26.4940603,14.0873835 C26.3790933,13.9763449 26.1958793,13.979529 26.0848407,14.0944961 C25.9765214,14.2066477 25.9765214,14.3844515 26.0848407,14.4966031 L31.0895318,19.5012942 L26.0848407,24.5059853 L26.0848407,24.5059853 C25.9718377,24.6190225 25.9718655,24.8022637 26.0849025,24.9152667 C26.139159,24.9695068 26.2127318,24.9999844 26.2894503,25.0000006 L26.2894505,25.0000005 Z" id="Path" stroke="#0FE49B" fill="#999DAE" fill-rule="nonzero" mask="url(#mask-25)"></path>
                </g>
            </g>
        </g>
    </g>
</svg>