<?xml version="1.0" encoding="UTF-8"?>
<svg width="446px" height="273px" viewBox="0 0 446 273" version="1.1" xmlns="http://www.w3.org/2000/svg" xmlns:xlink="http://www.w3.org/1999/xlink">
    <style> * {font-family:'ProximaNova-Regular', Courier}</style>
    <defs>
        <linearGradient x1="100%" y1="63.4044671%" x2="1.80027174%" y2="37.4111047%" id="linearGradient-1">
            <stop stop-color="#030D36" offset="0%"></stop>
            <stop stop-color="#343C5D" offset="100%"></stop>
        </linearGradient>
        <rect id="path-2" x="0" y="60.6253666" width="353" height="192" rx="4"></rect>
        <filter x="-7.5%" y="-12.8%" width="115.0%" height="127.6%" filterUnits="objectBoundingBox" id="filter-3">
            <feOffset dx="0" dy="2" in="SourceAlpha" result="shadowOffsetOuter1"></feOffset>
            <feGaussianBlur stdDeviation="8.5" in="shadowOffsetOuter1" result="shadowBlurOuter1"></feGaussianBlur>
            <feColorMatrix values="0 0 0 0 0.0117647059   0 0 0 0 0.0509803922   0 0 0 0 0.211764706  0 0 0 0.419771635 0" type="matrix" in="shadowBlurOuter1"></feColorMatrix>
        </filter>
    </defs>
    <g id="Hub" stroke="none" stroke-width="1" fill="none" fill-rule="evenodd">
        <g id="Product-Platform" transform="translate(-837.000000, -546.000000)">
            <g id="Deploy" transform="translate(854.000000, 528.374633)">
                <path d="M334.72109,120.913177 C349.356616,120.913177 361.22109,132.553793 361.22109,146.913176 C361.22109,161.27256 349.356616,172.913175 334.72109,172.913176 C320.085564,172.913176 308.221091,161.27256 308.22109,146.913176 C308.22109,132.553792 320.085564,120.913177 334.721092,120.913176 Z M334.721092,162.513176 L334.721728,162.513181 C343.49893,162.503093 350.611508,155.524163 350.621092,146.912557 L350.621091,146.913176 C350.621091,138.297535 343.502417,131.313176 334.721091,131.313176 C325.939765,131.313176 318.821091,138.297535 318.821091,146.913176 C318.821091,155.528817 325.939765,162.513176 334.721092,162.513176 Z M338.676877,80.4094303 C340.824759,82.3620503 340.824759,85.5278803 338.676877,87.4805003 C336.528995,89.4331203 333.046582,89.4331203 330.8987,87.4805003 C328.750818,85.5278803 328.750818,82.3620503 330.8987,80.4094303 C333.046582,78.4568103 336.528995,78.4568103 338.676877,80.4094303 Z M401.898177,130.87662 L401.898157,130.876621 C414.544474,144.220574 434.228687,166.168456 434.228687,173.19727 C434.228687,186.297043 420.632896,277.99545 413.176053,277.99545 C406.924473,271.771486 406.181315,226.824595 381.289734,217.081508 C378.257586,221.389279 374.837102,225.412733 371.070784,229.10186 L371.070784,257.035815 C371.070784,262.823661 366.357994,267.515633 360.544468,267.515633 L349.051835,267.515633 C347.474509,272.015132 343.92153,275.552417 339.402066,277.122776 C331.215434,279.967333 322.262727,275.66607 319.405538,267.515633 L307.912905,267.515633 C302.099378,267.515633 297.386589,262.823661 297.386588,257.035814 L297.386588,229.101859 C293.620272,225.412732 290.199787,221.389279 287.167639,217.081507 C262.276058,226.824594 261.5329,271.771485 255.28132,277.995449 C247.82553,277.995449 234.228687,186.297042 234.228687,173.197269 C234.228687,166.168455 253.912899,144.220573 266.559216,130.87662 C273.931848,74.890289 334.228696,16 334.228696,16 C334.228696,16 394.525545,74.890289 401.898177,130.87662 Z M255.020268,243.091367 L255.020262,243.09141 C258.621736,228.280808 268.194264,215.602282 281.483431,208.041654 C271.486378,189.186471 266.174468,168.220337 265.992904,146.9003 L265.992903,146.900216 C257.903534,155.099835 250.782544,164.193582 244.76869,174.004169 L244.768681,174.004184 C246.985903,197.193925 250.407671,220.253821 255.020261,243.091336 L255.020268,243.091367 Z M307.912904,257.035813 L318.439221,257.035813 L318.439221,243.238084 C314.748599,241.733958 311.221599,239.859212 307.912904,237.642909 L307.912904,257.035813 Z M334.228696,267.515631 L334.228707,267.515632 C337.134023,267.512163 339.48838,265.168194 339.491854,262.275722 L339.491854,246.155666 C336.00357,246.689544 332.453822,246.689544 328.965538,246.155666 L328.965538,262.275722 C328.969022,265.168204 331.32338,267.512166 334.228696,267.515631 Z M360.544489,257.035813 L360.544489,237.641862 C357.235794,239.858165 353.708793,241.73291 350.018172,243.237036 L350.018172,257.035813 L360.544489,257.035813 Z M334.228696,236.076177 C358.500278,236.076177 392.123439,203.29845 392.123439,141.757815 C392.123439,98.9928223 351.310803,49.8980191 334.228696,31.2250795 C317.14659,49.8980191 276.333954,98.9928223 276.333954,141.757815 C276.333954,203.29845 309.957115,236.076177 334.228696,236.076177 Z M413.437125,243.091367 L413.437112,243.09143 C418.049702,220.25402 421.471481,197.194019 423.688702,174.004278 L423.688709,174.004211 C417.674603,164.193739 410.553655,155.100087 402.464495,146.900256 C402.282916,168.220293 396.971042,189.186427 386.973965,208.041615 C400.263124,215.602279 409.835672,228.280763 413.437125,243.091367 Z" id="Combined-Shape" fill="#F4C0A5" fill-rule="nonzero" transform="translate(334.228687, 147.000000) rotate(10.000000) translate(-334.228687, -147.000000) "></path>
                <g id="Rectangle">
                    <use fill="black" fill-opacity="1" filter="url(#filter-3)" xlink:href="#path-2"></use>
                    <use fill="url(#linearGradient-1)" fill-rule="evenodd" xlink:href="#path-2"></use>
                </g>
                <text id="12:21AM" font-family="ProximaNova-Semibold, Proxima Nova" font-size="12" font-weight="500" letter-spacing="0.04999999" fill="#9DADEE">
                    <tspan x="27" y="96.6253666">12:21AM</tspan>
                </text>
                <text id="Starting-deployment." font-family="ProximaNova-Semibold, Proxima Nova" font-size="12" font-weight="500" letter-spacing="0.04999999" fill="#FFFFFF">
                    <tspan x="96" y="96.6253666">Starting deployment...</tspan>
                </text>
                <text id="12:21AM" font-family="ProximaNova-Semibold, Proxima Nova" font-size="12" font-weight="500" letter-spacing="0.04999999" fill="#9DADEE">
                    <tspan x="27" y="128.625367">12:21AM</tspan>
                </text>
                <text id="Preparing-Functions" font-family="ProximaNova-Semibold, Proxima Nova" font-size="12" font-weight="500" letter-spacing="0.04999999" fill="#FFFFFF">
                    <tspan x="96" y="128.625367">Preparing functions deployment...</tspan>
                </text>
                <text id="12:21AM" font-family="ProximaNova-Semibold, Proxima Nova" font-size="12" font-weight="500" letter-spacing="0.04999999" fill="#9DADEE">
                    <tspan x="27" y="160.625367">12:21AM</tspan>
                </text>
                <text id="Building-Functions.." font-family="ProximaNova-Semibold, Proxima Nova" font-size="12" font-weight="500" letter-spacing="0.04999999" fill="#FFFFFF">
                    <tspan x="96" y="160.625367">Building functions...</tspan>
                </text>
                <text id="12:22AM" font-family="ProximaNova-Semibold, Proxima Nova" font-size="12" font-weight="500" letter-spacing="0.04999999" fill="#9DADEE">
                    <tspan x="27" y="192.625367">12:22AM</tspan>
                </text>
                <text id="Successfully-built-F" font-family="ProximaNova-Semibold, Proxima Nova" font-size="12" font-weight="500" letter-spacing="0.04999999" fill="#FFFFFF">
                    <tspan x="96" y="192.625367">Successfully built functions</tspan>
                </text>
                <text id="12:22AM" font-family="ProximaNova-Semibold, Proxima Nova" font-size="12" font-weight="500" letter-spacing="0.04999999" fill="#9DADEE">
                    <tspan x="27" y="222.625367">12:22AM</tspan>
                </text>
                <text id="Successfully-deploye" font-family="ProximaNova-Semibold, Proxima Nova" font-size="12" font-weight="500" letter-spacing="0.04999999" fill="#FFFFFF">
                    <tspan x="96" y="222.625367">Successfully deployed functions</tspan>
                </text>
            </g>
        </g>
    </g>
</svg>