<?xml version="1.0" encoding="UTF-8"?>
<svg width="510px" height="273px" viewBox="0 0 510 273" version="1.1" xmlns="http://www.w3.org/2000/svg" xmlns:xlink="http://www.w3.org/1999/xlink">
    <style> * {font-family:"Courier"}</style>
    <defs>
        <linearGradient x1="100%" y1="57.290085%" x2="1.80027174%" y2="43.1534677%" id="linearGradient-1">
            <stop stop-color="#030D36" offset="0%"></stop>
            <stop stop-color="#343C5D" offset="100%"></stop>
        </linearGradient>
        <rect id="path-2" x="39" y="94.6253666" width="359" height="144" rx="12"></rect>
        <filter x="-7.4%" y="-17.0%" width="114.8%" height="136.8%" filterUnits="objectBoundingBox" id="filter-3">
            <feOffset dx="0" dy="2" in="SourceAlpha" result="shadowOffsetOuter1"></feOffset>
            <feGaussianBlur stdDeviation="8.5" in="shadowOffsetOuter1" result="shadowBlurOuter1"></feGaussianBlur>
            <feColorMatrix values="0 0 0 0 0.0117647059   0 0 0 0 0.0509803922   0 0 0 0 0.211764706  0 0 0 0.0915100524 0" type="matrix" in="shadowBlurOuter1"></feColorMatrix>
        </filter>
        <linearGradient x1="100%" y1="55.9230828%" x2="1.80027174%" y2="44.437297%" id="linearGradient-4">
            <stop stop-color="#030D36" offset="0%"></stop>
            <stop stop-color="#343C5D" offset="100%"></stop>
        </linearGradient>
        <rect id="path-5" x="0" y="68.6253666" width="437" height="158" rx="12"></rect>
        <filter x="-6.1%" y="-15.5%" width="112.1%" height="133.5%" filterUnits="objectBoundingBox" id="filter-6">
            <feOffset dx="0" dy="2" in="SourceAlpha" result="shadowOffsetOuter1"></feOffset>
            <feGaussianBlur stdDeviation="8.5" in="shadowOffsetOuter1" result="shadowBlurOuter1"></feGaussianBlur>
            <feColorMatrix values="0 0 0 0 0.0117647059   0 0 0 0 0.0509803922   0 0 0 0 0.211764706  0 0 0 0.419771635 0" type="matrix" in="shadowBlurOuter1"></feColorMatrix>
        </filter>
    </defs>
    <g id="Hub" stroke="none" stroke-width="1" fill="none" fill-rule="evenodd">
        <g id="Product-Platform" transform="translate(-774.000000, -582.000000)">
            <g id="Deploy" transform="translate(791.000000, 564.374633)">
                <path d="M398.72109,120.913177 C413.356616,120.913177 425.22109,132.553793 425.22109,146.913176 C425.22109,161.27256 413.356616,172.913175 398.72109,172.913176 C384.085564,172.913176 372.221091,161.27256 372.22109,146.913176 C372.22109,132.553792 384.085564,120.913177 398.721092,120.913176 Z M398.721092,162.513176 L398.721728,162.513181 C407.49893,162.503093 414.611508,155.524163 414.621092,146.912557 L414.621091,146.913176 C414.621091,138.297535 407.502417,131.313176 398.721091,131.313176 C389.939765,131.313176 382.821091,138.297535 382.821091,146.913176 C382.821091,155.528817 389.939765,162.513176 398.721092,162.513176 Z M402.676877,80.4094303 C404.824759,82.3620503 404.824759,85.5278803 402.676877,87.4805003 C400.528995,89.4331203 397.046582,89.4331203 394.8987,87.4805003 C392.750818,85.5278803 392.750818,82.3620503 394.8987,80.4094303 C397.046582,78.4568103 400.528995,78.4568103 402.676877,80.4094303 Z M465.898177,130.87662 L465.898157,130.876621 C478.544474,144.220574 498.228687,166.168456 498.228687,173.19727 C498.228687,186.297043 484.632896,277.99545 477.176053,277.99545 C470.924473,271.771486 470.181315,226.824595 445.289734,217.081508 C442.257586,221.389279 438.837102,225.412733 435.070784,229.10186 L435.070784,257.035815 C435.070784,262.823661 430.357994,267.515633 424.544468,267.515633 L413.051835,267.515633 C411.474509,272.015132 407.92153,275.552417 403.402066,277.122776 C395.215434,279.967333 386.262727,275.66607 383.405538,267.515633 L371.912905,267.515633 C366.099378,267.515633 361.386589,262.823661 361.386588,257.035814 L361.386588,229.101859 C357.620272,225.412732 354.199787,221.389279 351.167639,217.081507 C326.276058,226.824594 325.5329,271.771485 319.28132,277.995449 C311.82553,277.995449 298.228687,186.297042 298.228687,173.197269 C298.228687,166.168455 317.912899,144.220573 330.559216,130.87662 C337.931848,74.890289 398.228696,16 398.228696,16 C398.228696,16 458.525545,74.890289 465.898177,130.87662 Z M319.020268,243.091367 L319.020262,243.09141 C322.621736,228.280808 332.194264,215.602282 345.483431,208.041654 C335.486378,189.186471 330.174468,168.220337 329.992904,146.9003 L329.992903,146.900216 C321.903534,155.099835 314.782544,164.193582 308.76869,174.004169 L308.768681,174.004184 C310.985903,197.193925 314.407671,220.253821 319.020261,243.091336 L319.020268,243.091367 Z M371.912904,257.035813 L382.439221,257.035813 L382.439221,243.238084 C378.748599,241.733958 375.221599,239.859212 371.912904,237.642909 L371.912904,257.035813 Z M398.228696,267.515631 L398.228707,267.515632 C401.134023,267.512163 403.48838,265.168194 403.491854,262.275722 L403.491854,246.155666 C400.00357,246.689544 396.453822,246.689544 392.965538,246.155666 L392.965538,262.275722 C392.969022,265.168204 395.32338,267.512166 398.228696,267.515631 Z M424.544489,257.035813 L424.544489,237.641862 C421.235794,239.858165 417.708793,241.73291 414.018172,243.237036 L414.018172,257.035813 L424.544489,257.035813 Z M398.228696,236.076177 C422.500278,236.076177 456.123439,203.29845 456.123439,141.757815 C456.123439,98.9928223 415.310803,49.8980191 398.228696,31.2250795 C381.14659,49.8980191 340.333954,98.9928223 340.333954,141.757815 C340.333954,203.29845 373.957115,236.076177 398.228696,236.076177 Z M477.437125,243.091367 L477.437112,243.09143 C482.049702,220.25402 485.471481,197.194019 487.688702,174.004278 L487.688709,174.004211 C481.674603,164.193739 474.553655,155.100087 466.464495,146.900256 C466.282916,168.220293 460.971042,189.186427 450.973965,208.041615 C464.263124,215.602279 473.835672,228.280763 477.437125,243.091367 Z" id="Combined-Shape" fill="#F4C0A5" fill-rule="nonzero" transform="translate(398.228687, 147.000000) rotate(10.000000) translate(-398.228687, -147.000000) "></path>
                <g id="Rectangle" opacity="0.235188802">
                    <use fill="black" fill-opacity="1" filter="url(#filter-3)" xlink:href="#path-2"></use>
                    <use fill="url(#linearGradient-1)" fill-rule="evenodd" xlink:href="#path-2"></use>
                </g>
                <g id="Rectangle">
                    <use fill="black" fill-opacity="1" filter="url(#filter-6)" xlink:href="#path-5"></use>
                    <use fill="url(#linearGradient-4)" fill-rule="evenodd" xlink:href="#path-5"></use>
                </g>
                <text id="12:21AM" font-family="ProximaNova-Semibold, Proxima Nova" font-size="14" font-weight="500" letter-spacing="0.04999999" fill="#9DADEE">
                    <tspan x="27" y="104.625367">12:21AM</tspan>
                </text>
                <text id="Deployment-running" font-family="ProximaNova-Semibold, Proxima Nova" font-size="14" font-weight="500" letter-spacing="0.04999999" fill="#FFFFFF">
                    <tspan x="96" y="104.625367">Deployment running</tspan>
                </text>
                <text id="12:21AM" font-family="ProximaNova-Semibold, Proxima Nova" font-size="14" font-weight="500" letter-spacing="0.04999999" fill="#9DADEE">
                    <tspan x="27" y="136.625367">12:21AM</tspan>
                </text>
                <text id="Starting-DNS-initial" font-family="ProximaNova-Semibold, Proxima Nova" font-size="14" font-weight="500" letter-spacing="0.04999999" fill="#FFFFFF">
                    <tspan x="96" y="136.625367">Starting DNS initialization</tspan>
                </text>
                <text id="12:21AM" font-family="ProximaNova-Semibold, Proxima Nova" font-size="14" font-weight="500" letter-spacing="0.04999999" fill="#9DADEE">
                    <tspan x="27" y="168.625367">12:21AM</tspan>
                </text>
                <text id="Connecting-services" font-family="ProximaNova-Semibold, Proxima Nova" font-size="14" font-weight="500" letter-spacing="0.04999999" fill="#FFFFFF">
                    <tspan x="96" y="168.625367">Connecting services</tspan>
                </text>
                <text id="12:22AM" font-family="ProximaNova-Semibold, Proxima Nova" font-size="14" font-weight="500" letter-spacing="0.04999999" fill="#9DADEE">
                    <tspan x="27" y="200.625367">12:22AM</tspan>
                </text>
                <text id="Building-your-API" font-family="ProximaNova-Semibold, Proxima Nova" font-size="14" font-weight="500" letter-spacing="0.04999999" fill="#FFFFFF">
                    <tspan x="96" y="200.625367">Building your API</tspan>
                </text>
            </g>
        </g>
    </g>
</svg>