<?xml version="1.0" encoding="UTF-8"?>
<svg width="346px" height="383px" viewBox="0 0 346 383" version="1.1" xmlns="http://www.w3.org/2000/svg" xmlns:xlink="http://www.w3.org/1999/xlink">
    <!-- Generator: Sketch 53.2 (72643) - https://sketchapp.com -->
    <title>IntegrationClients</title>
    <desc>Created with Sketch.</desc>
    <defs>
        <linearGradient x1="100%" y1="95.310255%" x2="1.80027174%" y2="7.44656968%" id="linearGradient-1">
            <stop stop-color="#F9FAFD" offset="0%"></stop>
            <stop stop-color="#EFF1F9" offset="100%"></stop>
        </linearGradient>
        <linearGradient x1="100%" y1="95.310255%" x2="1.80027174%" y2="7.44656968%" id="linearGradient-2">
            <stop stop-color="#030D36" offset="0%"></stop>
            <stop stop-color="#343C5D" offset="100%"></stop>
        </linearGradient>
        <circle id="path-3" cx="132.5" cy="150.5" r="62.5"></circle>
        <filter x="-21.2%" y="-19.6%" width="142.4%" height="142.4%" filterUnits="objectBoundingBox" id="filter-4">
            <feOffset dx="0" dy="2" in="SourceAlpha" result="shadowOffsetOuter1"></feOffset>
            <feGaussianBlur stdDeviation="8.5" in="shadowOffsetOuter1" result="shadowBlurOuter1"></feGaussianBlur>
            <feColorMatrix values="0 0 0 0 0.0117647059   0 0 0 0 0.0509803922   0 0 0 0 0.211764706  0 0 0 0.0915100524 0" type="matrix" in="shadowBlurOuter1"></feColorMatrix>
        </filter>
        <circle id="path-5" cx="132.5" cy="251.5" r="62.5"></circle>
        <filter x="-21.2%" y="-19.6%" width="142.4%" height="142.4%" filterUnits="objectBoundingBox" id="filter-6">
            <feOffset dx="0" dy="2" in="SourceAlpha" result="shadowOffsetOuter1"></feOffset>
            <feGaussianBlur stdDeviation="8.5" in="shadowOffsetOuter1" result="shadowBlurOuter1"></feGaussianBlur>
            <feColorMatrix values="0 0 0 0 0.0117647059   0 0 0 0 0.0509803922   0 0 0 0 0.211764706  0 0 0 0.0915100524 0" type="matrix" in="shadowBlurOuter1"></feColorMatrix>
        </filter>
        <circle id="path-7" cx="212.5" cy="214.5" r="62.5"></circle>
        <filter x="-21.2%" y="-19.6%" width="142.4%" height="142.4%" filterUnits="objectBoundingBox" id="filter-8">
            <feOffset dx="0" dy="2" in="SourceAlpha" result="shadowOffsetOuter1"></feOffset>
            <feGaussianBlur stdDeviation="8.5" in="shadowOffsetOuter1" result="shadowBlurOuter1"></feGaussianBlur>
            <feColorMatrix values="0 0 0 0 0.0117647059   0 0 0 0 0.0509803922   0 0 0 0 0.211764706  0 0 0 0.0915100524 0" type="matrix" in="shadowBlurOuter1"></feColorMatrix>
        </filter>
        <circle id="path-9" cx="212.5" cy="115.5" r="62.5"></circle>
        <filter x="-21.2%" y="-19.6%" width="142.4%" height="142.4%" filterUnits="objectBoundingBox" id="filter-10">
            <feOffset dx="0" dy="2" in="SourceAlpha" result="shadowOffsetOuter1"></feOffset>
            <feGaussianBlur stdDeviation="8.5" in="shadowOffsetOuter1" result="shadowBlurOuter1"></feGaussianBlur>
            <feColorMatrix values="0 0 0 0 0.0117647059   0 0 0 0 0.0509803922   0 0 0 0 0.211764706  0 0 0 0.0915100524 0" type="matrix" in="shadowBlurOuter1"></feColorMatrix>
        </filter>
    </defs>
    <g id="Hub" stroke="none" stroke-width="1" fill="none" fill-rule="evenodd">
        <g id="Product-Framework" transform="translate(-854.000000, -2187.000000)">
            <g id="IntegrationClients" transform="translate(854.000000, 2187.000000)">
                <circle id="Oval" fill="url(#linearGradient-1)" cx="132.5" cy="150.5" r="115.5"></circle>
                <circle id="Oval" fill="url(#linearGradient-1)" transform="translate(220.500000, 235.500000) scale(-1, 1) translate(-220.500000, -235.500000) " cx="220.5" cy="235.5" r="115.5"></circle>
                <circle id="Oval" fill="url(#linearGradient-1)" transform="translate(115.500000, 267.500000) scale(-1, -1) translate(-115.500000, -267.500000) " cx="115.5" cy="267.5" r="115.5"></circle>
                <circle id="Oval" fill="url(#linearGradient-1)" transform="translate(230.500000, 115.500000) scale(-1, -1) translate(-230.500000, -115.500000) " cx="230.5" cy="115.5" r="115.5"></circle>
                <g id="Oval">
                    <use fill="black" fill-opacity="1" filter="url(#filter-4)" xlink:href="#path-3"></use>
                    <use fill="url(#linearGradient-2)" fill-rule="evenodd" xlink:href="#path-3"></use>
                </g>
                <g id="Oval">
                    <use fill="black" fill-opacity="1" filter="url(#filter-6)" xlink:href="#path-5"></use>
                    <use fill="url(#linearGradient-2)" fill-rule="evenodd" xlink:href="#path-5"></use>
                </g>
                <g id="Oval">
                    <use fill="black" fill-opacity="1" filter="url(#filter-8)" xlink:href="#path-7"></use>
                    <use fill="url(#linearGradient-2)" fill-rule="evenodd" xlink:href="#path-7"></use>
                </g>
                <g id="Oval">
                    <use fill="black" fill-opacity="1" filter="url(#filter-10)" xlink:href="#path-9"></use>
                    <use fill="url(#linearGradient-2)" fill-rule="evenodd" xlink:href="#path-9"></use>
                </g>
                <path d="M212.561406,187 C211.814628,187 211.088586,187.156153 210.446277,187.523774 L190.115129,199.395961 C188.799434,200.161927 188,201.609776 188,203.14967 L188,226.850467 C188,228.389525 188.799434,229.835694 190.115129,230.604039 L195.424537,233.7031 C198.004131,234.988645 198.955511,234.968812 200.129623,234.968812 C203.948943,234.968812 206.129683,232.62552 206.129683,228.55266 L206.129683,205.157469 C206.129683,204.826722 205.846515,204.589976 205.525361,204.589976 L202.978575,204.589976 C202.652236,204.589976 202.374247,204.826722 202.374247,205.157469 L202.374247,228.55266 C202.374247,230.357933 200.514662,232.173403 197.496501,230.647752 L191.971267,227.374242 C191.776156,227.266697 191.625936,227.076879 191.625936,226.850467 L191.625936,203.14967 C191.625936,202.924658 191.77443,202.696154 191.971267,202.58232 L212.259245,190.75371 C212.449173,190.643367 212.675361,190.643367 212.863568,190.75371 L233.151545,202.58232 C233.34493,202.699645 233.496871,202.917813 233.496871,203.14967 L233.496871,226.850467 C233.496871,227.076879 233.384572,227.308735 233.19471,227.417823 L212.863568,239.246433 C212.689175,239.351187 212.449173,239.351187 212.259245,239.246433 L207.036167,236.103792 C206.880768,236.011609 206.668395,236.018591 206.518175,236.103792 C205.076437,236.930238 204.805352,237.02633 203.453397,237.500522 C203.120159,237.617847 202.61425,237.800402 203.626063,238.373478 L210.446277,242.43265 C211.095491,242.812555 211.818952,243 212.561406,243 C213.314217,243 214.027321,242.812555 214.676535,242.43265 L235.007678,230.604039 C236.323378,229.830249 237.122807,228.389525 237.122807,226.850467 L237.122807,203.14967 C237.122807,201.609776 236.323378,200.165143 235.007678,199.395961 L214.676535,187.523774 C214.039405,187.156153 213.308184,187 212.561406,187 L212.561406,187 Z M218.43584,203.701754 C212.718674,203.701754 209.313613,206.177317 209.313613,210.294183 C209.313613,214.760245 212.6931,215.987267 218.180076,216.539643 C224.744673,217.193477 225.256196,218.174151 225.256196,219.488888 C225.256196,221.769314 223.469262,222.741661 219.245759,222.741661 C213.939521,222.741661 212.773239,221.393894 212.382771,218.708209 C212.336795,218.42022 212.118484,218.187753 211.828622,218.187753 L209.22836,218.187753 C208.907804,218.187753 208.631579,218.468241 208.631579,218.79495 C208.631579,222.232727 210.469663,226.298246 219.245759,226.298246 C225.598923,226.298246 229.263158,223.760924 229.263158,219.315406 C229.263158,214.90833 226.303123,213.725438 220.140931,212.896459 C213.913941,212.058179 213.320575,211.647924 213.320575,210.164143 C213.320575,208.939337 213.823574,207.301502 218.43584,207.301502 C222.555334,207.301502 224.077981,208.205426 224.702042,211.031568 C224.756606,211.297208 224.986795,211.508578 225.256196,211.508578 L227.856458,211.508578 C228.016736,211.508578 228.1719,211.408651 228.282733,211.291654 C228.391857,211.166746 228.468586,211.026015 228.453239,210.858081 C228.050839,205.990923 224.860615,203.701754 218.43584,203.701754 L218.43584,203.701754 Z" id="Node" fill="#FFC400"></path>
                <path d="M215.128959,87 C214.797644,87 214.476682,87.0828403 214.186782,87.227812 L201.265497,93.6893505 C201.058425,93.7928994 200.872059,93.9275141 200.706401,94.0931945 L192.092211,102.708579 C191.967968,102.83284 191.85408,102.967457 191.760896,103.12278 L185.300254,113.892011 C185.103537,114.223372 185,114.60651 185,115 C185,115.04142 185,115.08284 185,115.12426 L185,132.230769 C185,132.789942 185.217425,133.338758 185.610863,133.732248 C186.025006,135.989646 186.604808,138.215978 188.19926,139.800297 C190.663417,142.264792 194.090457,143.12426 197.921285,142.896451 L197.921285,143 L240.992235,143 L240.992235,106.539941 C241.002588,106.43639 241.002588,106.322487 240.992235,106.218935 L240.992235,97.7692307 L240.961174,97.7692307 C240.77481,94.8076936 239.791219,92.1878692 237.792975,90.1997035 C236.208876,88.6050302 233.982853,88.0251486 231.725768,87.6109474 L231.725768,87.600593 C231.32198,87.217455 230.783593,87 230.224498,87 L215.149665,87 C215.139312,87 215.128959,87 215.128959,87 Z M222.262585,91.3076922 L229.831062,91.3076922 C229.903536,91.3284038 229.986364,91.338758 230.069193,91.338758 C232.129559,91.4940842 233.651538,92.146449 234.749017,93.2440835 C236.457363,94.9526627 237.078578,97.9452656 236.384887,101.849114 L222.987335,91.8047337 L222.904506,91.7322478 C222.873447,91.7115392 222.842386,91.6908276 222.800972,91.6701191 L222.262585,91.3076922 Z M214.994361,91.6390533 L219.042617,94.3417153 L215.41886,105.224852 L203.346568,117.298818 L192.475296,119.100592 L189.700533,114.937871 L195.322532,105.566567 L203.512226,97.3860953 L214.994361,91.6390533 Z M222.70779,96.9822485 L232.367692,104.230769 L220.285048,104.230769 L222.70779,96.9822485 Z M220.481767,108.538461 L234.14851,108.538461 C232.284864,112.670119 229.416919,117.102072 225.637855,121.430473 L220.481767,108.538461 Z M216.51634,110.215978 L222.04516,124.050297 L208.212759,118.52071 L216.51634,110.215978 Z M236.68514,113.177515 L236.68514,135.64793 L227.760344,126.721893 L227.418673,125.872782 C231.27021,121.730771 234.417703,117.412721 236.68514,113.177515 Z M201.959188,121.896451 L200.768524,133.784025 L194.82556,123.087277 L201.959188,121.896451 Z M189.307095,122.113906 L189.617704,122.579882 L198.470025,138.516273 C195.260412,138.837279 192.734135,138.247041 191.243218,136.755916 C191.243218,136.755916 191.232865,136.755916 191.232865,136.755916 C190.135382,135.658285 189.493461,134.146449 189.338156,132.075443 C189.338156,131.982248 189.327803,131.899408 189.307095,131.816568 L189.307095,122.113906 Z M206.245574,122.383135 L219.436054,127.653848 C214.497388,131.951183 209.382714,135.130177 204.785718,136.911243 L206.245574,122.383135 Z M223.867392,129.424556 L224.716386,129.766273 L233.641185,138.692308 L211.184238,138.692308 C215.429213,136.424556 219.736308,133.276627 223.867392,129.424556 Z" id="Ruby" fill="#FFC400" fill-rule="nonzero"></path>
                <path d="M133.649178,122.000289 C131.377273,122.009143 129.148891,122.230519 127.242579,122.567007 C121.628101,123.567617 120.627069,125.657389 120.627069,129.5093 L120.627069,135.459836 L133.997363,135.459836 L133.997363,137.868387 L114.290107,137.868387 C110.433961,137.868387 106.995638,140.232663 105.933673,144.669 C104.715027,149.751751 104.662798,152.886408 105.933673,158.199387 C106.882476,162.148702 109.180495,165 113.036642,165 L118.32905,165 L118.32905,157.561829 C118.32905,153.152058 122.115559,149.061063 126.615846,149.061063 L138.314853,149.061063 C142.005611,149.061063 145,145.988389 145,142.260449 L145,129.5093 C145,125.887619 141.918566,123.177999 138.314853,122.567007 C136.034244,122.186243 135.921082,121.991435 133.649178,122.000289 Z M126.5,127 C127.862847,127 129,128.119791 129,129.5 C129,130.871529 127.862847,132 126.5,132 C125.128473,132 124,130.871529 124,129.5 C124,128.119791 125.128473,127 126.5,127 Z M147.67095,135 L147.67095,142.438036 C147.67095,146.847731 143.884441,150.93865 139.384154,150.93865 L127.685147,150.93865 C123.994389,150.93865 121,154.011267 121,157.73914 L121,170.49006 C121,174.111674 124.081436,176.8301 127.685147,177.432227 C129.965758,177.812984 130.078918,178.016645 132.350822,177.998934 C134.622727,177.99008 136.851109,177.768711 138.757421,177.432227 C144.371899,176.440489 145.372931,174.341901 145.372931,170.49006 L145.372931,164.53963 L132.002637,164.53963 L132.002637,162.131123 L151.709893,162.131123 C155.566039,162.131123 159.004364,159.76689 160.066327,155.330633 C161.284973,150.247976 161.337202,147.113374 160.066327,141.800491 C159.117524,137.851248 156.819505,135 152.963358,135 L147.67095,135 Z M139.5,168 C140.871529,168 142,169.128473 142,170.5 C142,171.880209 140.871529,173 139.5,173 C138.137153,173 137,171.880209 137,170.5 C137,169.128473 138.137153,168 139.5,168 Z" id="Python" fill="#FFC400"></path>
                <path d="M165,251.006409 C165,255.159304 159.716673,259.107118 151.628618,261.555276 C153.520179,269.681621 152.698329,276.154498 149.032613,278.230945 C148.171627,278.718013 147.180188,278.94873 146.084386,278.94873 C142.496943,278.94873 137.800652,276.462119 133.052181,272.129778 C128.30371,276.487755 123.607419,279 120.019976,279 C118.924174,279 117.932735,278.769284 117.084794,278.282216 C113.406033,276.205768 112.571137,269.720073 114.449653,261.568093 C106.309417,259.119936 101,255.172122 101,251.006409 C101,246.853513 106.283327,242.918517 114.397472,240.457542 C112.505911,232.331197 113.327762,225.85832 116.993477,223.781872 C117.854464,223.294804 118.845903,223.064088 119.941704,223.064088 L119.941704,225.922408 C119.341623,225.922408 118.832858,226.024949 118.4415,226.255665 C116.680391,227.268254 115.923767,231.075074 116.536894,235.971389 C116.693437,237.163424 116.915206,238.406729 117.215247,239.688487 C119.772116,239.060426 122.563799,238.586175 125.512026,238.278553 C127.247044,235.907301 129.07338,233.766766 130.899715,231.882582 C126.646963,228.024491 122.642071,225.90959 119.941704,225.90959 L119.941704,223.05127 C123.529148,223.05127 128.225438,225.537881 132.973909,229.870222 C137.722381,225.512245 142.418671,223 146.006115,223 L146.006115,225.85832 C143.292703,225.85832 139.300856,227.986038 135.048104,231.869764 C136.887485,233.753948 138.71382,235.907301 140.474929,238.278553 C143.41011,238.586175 146.201794,239.060426 148.758663,239.675669 C149.045658,238.381094 149.280473,237.112154 149.423971,235.907301 C150.024052,231.010986 149.254382,227.204166 147.480228,226.204395 C147.075826,225.986496 146.593151,225.871138 145.99307,225.871138 L145.99307,223.012818 C147.075826,223.012818 148.067265,223.243534 148.915206,223.730602 C152.593967,225.80705 153.428863,232.292744 151.550347,240.444724 C159.690583,242.892882 165,246.840696 165,251.006409 Z M148.015084,242.457084 C146.306156,242.046921 144.518956,241.713664 142.666531,241.444495 C143.305748,242.418631 143.944965,243.418402 144.545047,244.443809 C145.158174,245.469215 145.719119,246.494621 146.253975,247.520027 C146.932328,245.81529 147.532409,244.110552 148.015084,242.457084 Z M142.040359,256.107805 C143.018753,254.428702 143.918875,252.711147 144.740726,250.993591 C143.918875,249.276036 143.018753,247.571298 142.027313,245.892195 C141.009784,244.17464 139.953119,242.546807 138.870363,241.021515 C136.939666,240.867704 134.969833,240.777981 133,240.777981 C131.017122,240.777981 129.047289,240.867704 127.103547,241.034333 C126.020791,242.559625 124.977171,244.200275 123.959641,245.930648 C122.981247,247.609751 122.06808,249.327306 121.259274,251.044862 C122.081125,252.762417 122.981247,254.467155 123.972687,256.146258 C124.990216,257.863813 126.046881,259.491646 127.129637,261.016938 C129.060334,261.170748 131.030167,261.260472 133,261.260472 C134.982878,261.260472 136.952711,261.170748 138.896453,261.00412 C139.979209,259.478828 141.022829,257.838178 142.040359,256.107805 Z M146.253975,254.44152 C145.719119,255.466926 145.158174,256.50515 144.558092,257.530556 C143.958011,258.56878 143.318793,259.581369 142.679576,260.568322 C144.545047,260.299153 146.345291,259.953079 148.054219,259.542916 C147.5585,257.876631 146.958418,256.159075 146.253975,254.44152 Z M133.026091,268.117876 C134.226254,266.887388 135.439462,265.515908 136.613534,264.016251 C135.426417,264.080339 134.213208,264.105974 132.986955,264.105974 C131.773746,264.105974 130.573583,264.067521 129.399511,264.016251 C130.599674,265.515908 131.812882,266.887388 133.026091,268.117876 Z M123.320424,260.568322 C122.681207,259.594186 122.055035,258.594415 121.441908,257.569009 C120.828781,256.543603 120.267835,255.518196 119.73298,254.49279 C119.054627,256.197528 118.454545,257.902266 117.971871,259.555734 C119.680799,259.965896 121.467998,260.299153 123.320424,260.568322 Z M132.960864,233.894942 C131.760701,235.125429 130.547493,236.49691 129.37342,237.996567 C130.560538,237.932479 131.773746,237.906844 133,237.906844 C134.213208,237.906844 135.413371,237.945296 136.587444,237.996567 C135.387281,236.49691 134.174073,235.125429 132.960864,233.894942 Z M123.307379,241.444495 C121.441908,241.713664 119.641663,242.059739 117.932735,242.457084 C118.428455,244.123369 119.028536,245.840925 119.73298,247.55848 C120.267835,246.533074 120.828781,245.507668 121.428863,244.482261 C122.028944,243.444038 122.668161,242.431449 123.307379,241.444495 Z M111.501427,257.492103 C112.636364,257.966354 113.862617,258.402152 115.154097,258.799496 C115.884631,256.300069 116.84998,253.6981 118.050143,251.032044 C116.836934,248.35317 115.858541,245.738384 115.114961,243.226139 C113.849572,243.623484 112.623318,244.046464 111.501427,244.520714 C106.883408,246.443351 103.896046,248.994049 103.896046,251.006409 C103.896046,253.018769 106.883408,255.556649 111.501427,257.492103 Z M118.519772,275.808423 C118.911129,276.026322 119.406849,276.14168 119.993885,276.154498 C122.707297,276.154498 126.699144,274.02678 130.951896,270.143053 C129.112515,268.258869 127.28618,266.105516 125.525071,263.734264 C122.58989,263.426642 119.798206,262.952392 117.241337,262.337148 C116.954342,263.631724 116.719527,264.900664 116.576029,266.105516 C115.975948,271.001831 116.745618,274.808652 118.519772,275.808423 Z M149.463106,266.041428 C149.319609,264.849393 149.084794,263.606088 148.784753,262.311513 C146.227884,262.939574 143.436201,263.413825 140.487974,263.721447 C138.752956,266.092699 136.92662,268.233234 135.100285,270.117418 C139.353037,273.975509 143.357929,276.09041 146.058296,276.09041 C146.658377,276.09041 147.167142,275.987869 147.5585,275.757153 C149.319609,274.744564 150.076233,270.937743 149.463106,266.041428 Z M154.485528,257.492103 C159.103547,255.569467 162.090909,253.018769 162.103954,251.006409 C162.103954,248.994049 159.116592,246.456168 154.498573,244.520714 C153.350591,244.046464 152.124338,243.610666 150.832858,243.213321 C150.102324,245.712749 149.136975,248.314717 147.936812,250.980774 C149.15002,253.659648 150.128414,256.274434 150.871993,258.786679 C152.137383,258.389334 153.363636,257.966354 154.485528,257.492103 Z M133,257 C129.686292,257 127,254.313708 127,251 C127,247.686292 129.686292,245 133,245 C136.313708,245 139,247.686292 139,251 C139,254.313708 136.313708,257 133,257 Z" id="Combined-Shape" fill="#FFC400" fill-rule="nonzero" transform="translate(133.000000, 251.000000) scale(1, -1) translate(-133.000000, -251.000000) "></path>
            </g>
        </g>
    </g>
</svg>