<?xml version="1.0" encoding="UTF-8"?>
<svg width="539px" height="245px" viewBox="0 0 539 245" version="1.1" xmlns="http://www.w3.org/2000/svg" xmlns:xlink="http://www.w3.org/1999/xlink">
    <!-- Generator: sketchtool 53.2 (72643) - https://sketchapp.com -->
    <style> * {font-family:'ProximaNova-Regular'}</style>
    <title>D79A82EF-7392-4F73-AE4E-F9D6AEED1693@2x</title>
    <desc>Created with sketchtool.</desc>
    <defs>
        <linearGradient x1="100%" y1="57.3110782%" x2="1.80027174%" y2="43.1337518%" id="linearGradient-1">
            <stop stop-color="#030D36" offset="0%"></stop>
            <stop stop-color="#343C5D" offset="100%"></stop>
        </linearGradient>
        <rect id="path-2" x="0" y="0" width="473" height="190" rx="15"></rect>
        <filter x="-5.6%" y="-12.9%" width="111.2%" height="127.9%" filterUnits="objectBoundingBox" id="filter-4">
            <feOffset dx="0" dy="2" in="SourceAlpha" result="shadowOffsetOuter1"></feOffset>
            <feGaussianBlur stdDeviation="8.5" in="shadowOffsetOuter1" result="shadowBlurOuter1"></feGaussianBlur>
            <feColorMatrix values="0 0 0 0 0.0117647059   0 0 0 0 0.0509803922   0 0 0 0 0.211764706  0 0 0 0.0915100524 0" type="matrix" in="shadowBlurOuter1"></feColorMatrix>
        </filter>
    </defs>
    <g id="Hub" stroke="none" stroke-width="1" fill="none" fill-rule="evenodd">
        <g id="Product-Platform" transform="translate(-730.000000, -983.000000)">
            <g id="Logs" transform="translate(730.000000, 983.000000)">
                <path d="M83.3684212,52.1846316 L15.63158,52.1846316 L15.63158,39.1443166 C15.6343416,27.1496784 21.9771673,16.0520574 32.3052624,9.9715681 L26.815452,4.47533613 C26.799693,4.45995294 26.7841295,4.4443705 26.7687651,4.42859245 C25.7643931,3.39718699 25.7854124,1.74598579 26.8157158,0.740535777 C27.846014,-0.264915595 29.4954425,-0.243873742 30.4998132,0.787536961 L37.2630763,7.55754689 C45.1289909,4.46727966 53.8710035,4.46728488 61.7369194,7.55754795 L68.5001825,0.787538016 C68.5155469,0.771759965 68.5311105,0.756177519 68.5468694,0.740794329 C69.5770321,-0.264803198 71.2264607,-0.243990856 72.2309772,0.787273767 C73.2354952,1.81854361 73.2147052,3.4697448 72.1845476,4.47534094 L66.7014066,9.975485 C77.0280965,16.0583225 83.3684212,27.157404 83.3684212,39.1520423 L83.3684203,39.1443073 L83.3684212,52.1846316 Z M96.3947369,67.8330065 C97.833582,67.8330065 99.0000001,69.000678 99,70.4410695 C99,71.881461 97.833582,73.0491325 96.394737,73.0491325 L83.3684213,73.0491325 L83.3684213,86.0894475 C83.3617883,89.8927858 82.713875,93.6676805 81.4519884,97.2550906 C81.6397461,97.3477718 81.8148583,97.4641712 81.9730411,97.6014414 L93.0261305,108.667974 C94.0326759,109.684754 94.0324466,111.323661 93.0256114,112.340153 C92.0125132,113.362968 90.3629648,113.369963 89.3412484,112.355776 L79.267738,102.269875 C76.1440275,108.025453 71.4222486,112.75229 65.6729019,115.879321 C49.2324931,124.821118 28.6639407,118.727952 19.7317429,102.269873 L9.6582325,112.355774 C8.6428312,113.36369 7.00567864,113.363924 5.98999596,112.356294 C4.96799172,111.342394 4.96053546,109.691073 5.97334732,108.667971 L17.0290419,97.6014382 C17.1872247,97.464168 17.3623369,97.3477686 17.5500946,97.2550874 C16.2875007,93.6678011 15.6388822,89.8928855 15.6315788,86.0894412 L15.6315788,73.0491262 L2.60526313,73.0491262 C1.16641799,73.0491262 6.28956069e-08,71.8814547 1.4281909e-12,70.4410632 C1.4281909e-12,69.0006718 1.16641799,67.8330003 2.60526324,67.8330002 L15.6315789,67.8330002 L15.6315789,57.4007482 L83.3684203,57.4007482 L83.3684203,67.8330002 L96.3947359,67.8330002 Z M78.157894,86.0894412 L78.157894,73.0491262 L52.1052627,73.0491266 L52.1052627,98.4980838 C52.1052627,99.9384752 50.9388447,101.106147 49.4999996,101.106147 C48.0611544,101.106147 46.8947367,99.9384752 46.8947365,98.4980834 L46.8947365,73.0491262 L20.8421052,73.0491262 L20.8421052,86.0894412 C20.8421052,101.933789 33.6726613,114.778134 49.4999996,114.778134 C65.3273378,114.778134 78.157894,101.933789 78.157894,86.0894412 Z" id="Combined-Shape" fill="#9FF4D7" fill-rule="nonzero"></path>
                <path d="M529.684211,191.310779 L489.31579,191.310779 L489.31579,183.48659 C489.317436,176.289807 493.097504,169.631234 499.252631,165.982941 L495.980926,162.685202 C495.971534,162.675972 495.962259,162.666622 495.953102,162.657155 C495.354537,162.038312 495.367064,161.047591 495.981083,160.444321 C496.595099,159.841051 497.578092,159.853676 498.176656,160.472522 L502.207288,164.534528 C506.895055,162.680368 512.104941,162.680371 516.79271,164.534529 L520.823341,160.472523 C520.832498,160.463056 520.841773,160.453707 520.851165,160.444477 C521.4651,159.841118 522.448093,159.853605 523.046744,160.472364 C523.645396,161.091126 523.633006,162.081847 523.019074,162.685205 L519.751343,165.985291 C525.905633,169.634993 529.684211,176.294442 529.684211,183.491225 L529.68421,183.486584 L529.684211,191.310779 Z M537.447368,200.699804 C538.304862,200.699804 539,201.400407 539,202.264642 C539,203.128877 538.304862,203.82948 537.447369,203.829479 L529.684211,203.829479 L529.684211,211.653668 C529.680258,213.935671 529.294128,216.200608 528.542094,218.353054 C528.65399,218.408663 528.75835,218.478503 528.85262,218.560865 L535.439815,225.200785 C536.039676,225.810852 536.039539,226.794196 535.439506,227.404092 C534.83574,228.017781 533.852676,228.021978 533.243774,227.413466 L527.240369,221.361925 C525.378764,224.815272 522.564774,227.651374 519.138396,229.527593 C509.340577,234.892671 497.082551,231.236771 491.759322,221.361924 L485.755916,227.413465 C485.150778,228.018214 484.175101,228.018355 483.569796,227.413776 C482.960722,226.805436 482.956279,225.814644 483.559874,225.200783 L490.148621,218.560863 C490.242891,218.478501 490.347251,218.408661 490.459147,218.353052 C489.706692,216.200681 489.320142,213.935731 489.315789,211.653665 L489.315789,203.829476 L481.552632,203.829476 C480.695138,203.829476 480,203.128873 480,202.264638 C480,201.400403 480.695138,200.6998 481.552632,200.6998 L489.315789,200.6998 L489.315789,194.440449 L529.68421,194.440449 L529.68421,200.6998 L537.447368,200.6998 Z M526.578947,211.653665 L526.578947,203.829476 L511.052631,203.829476 L511.052631,219.09885 C511.052631,219.963085 510.357493,220.663688 509.5,220.663688 C508.642506,220.663688 507.947368,219.963085 507.947368,219.09885 L507.947368,203.829476 L492.421053,203.829476 L492.421053,211.653665 C492.421053,221.160273 500.067546,228.866881 509.5,228.866881 C518.932454,228.866881 526.578947,221.160273 526.578947,211.653665 Z" id="Combined-Shape" fill="#9FF4D7" fill-rule="nonzero"></path>
                <path d="M426.684211,50.310779 L386.31579,50.310779 L386.31579,42.48659 C386.317436,35.289807 390.097504,28.6312344 396.252631,24.9829409 L392.980926,21.6852017 C392.971534,21.6759718 392.962259,21.6666223 392.953102,21.6571555 C392.354537,21.0383122 392.367064,20.0475915 392.981083,19.4443215 C393.595099,18.8410506 394.578092,18.8536758 395.176656,19.4725222 L399.207288,23.5345281 C403.895055,21.6803678 409.104941,21.6803709 413.79271,23.5345288 L417.823341,19.4725228 C417.832498,19.463056 417.841773,19.4537065 417.851165,19.4444766 C418.4651,18.8411181 419.448093,18.8536055 420.046744,19.4723643 C420.645396,20.0911262 420.633006,21.0818469 420.019074,21.6852046 L416.751343,24.985291 C422.905633,28.6349935 426.684211,35.2944424 426.684211,42.4912254 L426.68421,42.4865844 L426.684211,50.310779 Z M434.447368,59.6998039 C435.304862,59.6998039 436,60.4004068 436,61.2646417 C436,62.1288766 435.304862,62.8294795 434.447369,62.8294795 L426.684211,62.8294795 L426.684211,70.6536685 C426.680258,72.9356715 426.294128,75.2006083 425.542094,77.3530544 C425.65399,77.4086631 425.75835,77.4785027 425.85262,77.5608649 L432.439815,84.2007846 C433.039676,84.8108523 433.039539,85.7941963 432.439506,86.4040919 C431.83574,87.0177809 430.852676,87.0219778 430.243774,86.4134657 L424.240369,80.3619249 C422.378764,83.8152716 419.564774,86.6513742 416.138396,88.5275928 C406.340577,93.8926705 394.082551,90.2367713 388.759322,80.3619238 L382.755916,86.4134646 C382.150778,87.0182138 381.175101,87.0183546 380.569796,86.4137764 C379.960722,85.8054363 379.956279,84.8146436 380.559874,84.2007827 L387.148621,77.5608629 C387.242891,77.4785008 387.347251,77.4086612 387.459147,77.3530525 C386.706692,75.2006807 386.320142,72.9357313 386.315789,70.6536647 L386.315789,62.8294757 L378.552632,62.8294757 C377.695138,62.8294757 377,62.1288728 377,61.2646379 C377,60.4004031 377.695138,59.6998002 378.552632,59.6998001 L386.315789,59.6998001 L386.315789,53.4404489 L426.68421,53.4404489 L426.68421,59.6998001 L434.447368,59.6998001 Z M423.578947,70.6536647 L423.578947,62.8294757 L408.052631,62.829476 L408.052631,78.0988503 C408.052631,78.9630851 407.357493,79.6636879 406.5,79.6636881 C405.642506,79.6636881 404.947368,78.9630851 404.947368,78.09885 L404.947368,62.8294757 L389.421053,62.8294757 L389.421053,70.6536647 C389.421053,80.1602734 397.067546,87.8668805 406.5,87.8668805 C415.932454,87.8668805 423.578947,80.1602734 423.578947,70.6536647 Z" id="Combined-Shape" fill="#9FF4D7" fill-rule="nonzero"></path>
                <g id="[2008-03-18T17:15:59-+-[2008-03-18T17:15:59-+-[2008-03-18T17:15:59-+-[2008-03-18T17:15:59-Mask" transform="translate(42.000000, 36.000000)">
                    <mask id="mask-3" fill="white">
                        <use xlink:href="#path-2"></use>
                    </mask>
                    <g id="Mask">
                        <use fill="black" fill-opacity="1" filter="url(#filter-4)" xlink:href="#path-2"></use>
                        <use fill="url(#linearGradient-1)" fill-rule="evenodd" xlink:href="#path-2"></use>
                    </g>
                </g>
                <text id="[2019-02-21T16:51:03" font-family="SourceSansPro-Semibold, Source Sans Pro" font-size="15" font-weight="500" fill="#9DADEE">
                    <tspan x="64" y="70">[2019-02-21T16:51:03.883Z]  </tspan>
                </text>
                <text id="Parameter-authId-mis" font-family="SourceSansPro-Semibold, Source Sans Pro" font-size="15" font-weight="500" fill="#FFFFFF">
                    <tspan x="261" y="70">Parameter authId missing</tspan>
                </text>
                <text id="Calling-function-sha" font-family="SourceSansPro-Semibold, Source Sans Pro" font-size="15" font-weight="500" fill="#FFFFFF">
                    <tspan x="261" y="102">Calling function share</tspan>
                </text>
                <text id="Successfully-called" font-family="SourceSansPro-Semibold, Source Sans Pro" font-size="15" font-weight="500" fill="#FFFFFF">
                    <tspan x="261" y="136">Successfully called function share</tspan>
                </text>
                <text id="Calling-function-lis" font-family="SourceSansPro-Semibold, Source Sans Pro" font-size="15" font-weight="500" fill="#FFFFFF">
                    <tspan x="261" y="168">Calling function list</tspan>
                </text>
                <text id="Function-list-return" font-family="SourceSansPro-Semibold, Source Sans Pro" font-size="15" font-weight="500" fill="#FFFFFF">
                    <tspan x="261" y="201">Function list returned error code 429</tspan>
                </text>
                <text id="[2019-02-21T16:51:28" font-family="SourceSansPro-Semibold, Source Sans Pro" font-size="15" font-weight="500" fill="#9DADEE">
                    <tspan x="64" y="103">[2019-02-21T16:51:28.563Z]  </tspan>
                </text>
                <text id="[2019-02-21T16:55:10" font-family="SourceSansPro-Semibold, Source Sans Pro" font-size="15" font-weight="500" fill="#9DADEE">
                    <tspan x="64" y="136">[2019-02-21T16:55:10.145Z]</tspan>
                </text>
                <text id="[2019-02-21T19:12:33" font-family="SourceSansPro-Semibold, Source Sans Pro" font-size="15" font-weight="500">
                    <tspan x="64" y="169" fill="#9DADEE">[2019-02-21T19:12:33.467Z]  </tspan>
                    <tspan x="249.01" y="169" font-family="SourceSansPro-Regular, Source Sans Pro" font-weight="normal" fill="#495056"> </tspan>
                </text>
                <text id="[2019-02-23T02.22:44" font-family="SourceSansPro-Semibold, Source Sans Pro" font-size="15" font-weight="500">
                    <tspan x="64" y="202" fill="#9DADEE">[2019-02-23T02.22:44.161Z]  </tspan>
                    <tspan x="249.01" y="202" font-family="SourceSansPro-Regular, Source Sans Pro" font-weight="normal" fill="#495056"> </tspan>
                </text>
            </g>
        </g>
    </g>
</svg>