<?xml version="1.0" encoding="UTF-8"?>
<svg width="675px" height="427px" viewBox="0 0 675 427" version="1.1" xmlns="http://www.w3.org/2000/svg" xmlns:xlink="http://www.w3.org/1999/xlink">
    <style> * {font-family:"Courier"}</style>
    <defs>
        <linearGradient x1="22.5198819%" y1="69.6954057%" x2="85.9659845%" y2="30.6665546%" id="linearGradient-1">
            <stop stop-color="#FBFCFF" offset="0%"></stop>
            <stop stop-color="#EEF1FF" offset="100%"></stop>
        </linearGradient>
        <linearGradient x1="100%" y1="81.7987983%" x2="1.80027174%" y2="20.135945%" id="linearGradient-2">
            <stop stop-color="#030D36" offset="0%"></stop>
            <stop stop-color="#343C5D" offset="100%"></stop>
        </linearGradient>
        <rect id="path-3" x="0" y="0" width="265" height="222" rx="7"></rect>
        <filter x="-10.6%" y="-11.7%" width="121.1%" height="125.2%" filterUnits="objectBoundingBox" id="filter-5">
            <feOffset dx="0" dy="2" in="SourceAlpha" result="shadowOffsetOuter1"></feOffset>
            <feGaussianBlur stdDeviation="9" in="shadowOffsetOuter1" result="shadowBlurOuter1"></feGaussianBlur>
            <feColorMatrix values="0 0 0 0 0.0117647059   0 0 0 0 0.0509803922   0 0 0 0 0.211764706  0 0 0 0.181463068 0" type="matrix" in="shadowBlurOuter1"></feColorMatrix>
        </filter>
        <linearGradient x1="100%" y1="59.206246%" x2="1.80027174%" y2="41.3538922%" id="linearGradient-6">
            <stop stop-color="#030D36" offset="0%"></stop>
            <stop stop-color="#343C5D" offset="100%"></stop>
        </linearGradient>
        <rect id="path-7" x="0" y="0" width="264" height="119" rx="8"></rect>
        <filter x="-10.0%" y="-20.6%" width="120.1%" height="144.5%" filterUnits="objectBoundingBox" id="filter-9">
            <feOffset dx="0" dy="2" in="SourceAlpha" result="shadowOffsetOuter1"></feOffset>
            <feGaussianBlur stdDeviation="8.5" in="shadowOffsetOuter1" result="shadowBlurOuter1"></feGaussianBlur>
            <feColorMatrix values="0 0 0 0 0.0117647059   0 0 0 0 0.0509803922   0 0 0 0 0.211764706  0 0 0 0.0915100524 0" type="matrix" in="shadowBlurOuter1"></feColorMatrix>
        </filter>
        <linearGradient x1="50%" y1="0%" x2="50%" y2="100%" id="linearGradient-10">
            <stop stop-color="#FFC400" offset="0%"></stop>
            <stop stop-color="#E9B300" offset="100%"></stop>
        </linearGradient>
    </defs>
    <g id="Hub" stroke="none" stroke-width="1" fill="none" fill-rule="evenodd">
        <g id="Product-Framework" transform="translate(-674.000000, -1607.000000)">
            <g id="MapAPI" transform="translate(674.000000, 1607.000000)">
                <path d="M580.334711,118.693218 C632.056969,249.192744 485.252883,416.488201 363.70907,415.065032 C323.490768,414.594111 132.504326,461.732638 35.602338,371.828867 C-61.2996502,281.925096 54.1434992,103.262932 207.305861,37.6064508 C360.468222,-28.0500299 528.612453,-11.8063089 580.334711,118.693218 Z" id="Path-4" fill="url(#linearGradient-1)"></path>
                <path d="M283,151 C292.499781,151 301.999561,151 311.499342,151 L311.499342,151 C337.773574,151 359.111716,172.226132 359.25,198.5 L359.25,198.5 C359.388284,224.773868 380.726426,246 407.000658,246 L418,246" id="Path-10" stroke="#FFC400" stroke-width="4"></path>
                <g id="$-Bearer--h-Bearer-C" transform="translate(34.000000, 66.000000)">
                    <mask id="mask-4" fill="white">
                        <use xlink:href="#path-3"></use>
                    </mask>
                    <g id="Mask">
                        <use fill="black" fill-opacity="1" filter="url(#filter-5)" xlink:href="#path-3"></use>
                        <use fill="url(#linearGradient-2)" fill-rule="evenodd" xlink:href="#path-3"></use>
                    </g>
                    <text id="{-}" mask="url(#mask-4)" font-family="Courier" font-size="14" font-weight="normal" letter-spacing="0.4375" fill="#FFFFFF">
                        <tspan x="12" y="22">{</tspan>
                        <tspan x="12" y="39">   </tspan>
                        <tspan x="12" y="56"></tspan>
                        <tspan x="12" y="73"></tspan>
                        <tspan x="12" y="90"></tspan>
                        <tspan x="12" y="107"></tspan>
                        <tspan x="12" y="124"></tspan>
                        <tspan x="12" y="141"></tspan>
                        <tspan x="12" y="158"></tspan>
                        <tspan x="12" y="175"></tspan>
                        <tspan x="12" y="192"></tspan>
                        <tspan x="12" y="209">}</tspan>
                    </text>
                </g>
                <text id="company:-“Bearer”,-e" font-family="Courier" font-size="14" font-weight="normal" letter-spacing="0.4375" fill="#FFFFFF">
                    <tspan x="69" y="106">company: “Bearer”,</tspan>
                    <tspan x="69" y="123">employees: [</tspan>
                    <tspan x="69" y="140"></tspan>
                    <tspan x="69" y="157"></tspan>
                    <tspan x="69" y="174"></tspan>
                    <tspan x="69" y="191"></tspan>
                    <tspan x="69" y="208"></tspan>
                    <tspan x="69" y="225"></tspan>
                    <tspan x="69" y="242"></tspan>
                    <tspan x="69" y="259">]</tspan>
                </text>
                <text id="{-},-{-}-..." font-family="Courier" font-size="14" font-weight="normal" letter-spacing="0.4375" fill="#FFFFFF">
                    <tspan x="61" y="142">   {</tspan>
                    <tspan x="61" y="159"></tspan>
                    <tspan x="61" y="176">	},</tspan>
                    <tspan x="61" y="193">	{</tspan>
                    <tspan x="61" y="210"></tspan>
                    <tspan x="61" y="227">	}</tspan>
                    <tspan x="61" y="244">	...</tspan>
                </text>
                <text id="name:-&quot;Dinesh&quot;" font-family="Courier" font-size="14" font-weight="normal" letter-spacing="0.4375" fill="#FFFFFF">
                    <tspan x="59" y="209">	   name: "Dinesh"</tspan>
                </text>
                <text id="name:-&quot;Jared-Dunn&quot;" font-family="Courier" font-size="14" font-weight="normal" letter-spacing="0.4375" fill="#FFFFFF">
                    <tspan x="59" y="158">	   name: "Jared Dunn"</tspan>
                </text>
                <g id="$-Bearer--h-Bearer-C" transform="translate(394.000000, 198.000000)">
                    <mask id="mask-8" fill="white">
                        <use xlink:href="#path-7"></use>
                    </mask>
                    <g id="Mask">
                        <use fill="black" fill-opacity="1" filter="url(#filter-9)" xlink:href="#path-7"></use>
                        <use fill="url(#linearGradient-6)" fill-rule="evenodd" xlink:href="#path-7"></use>
                    </g>
                    <text id="{-}" mask="url(#mask-8)" font-family="Courier" font-size="14" font-weight="normal" letter-spacing="0.4375" fill="#FFFFFF">
                        <tspan x="17" y="27">{</tspan>
                        <tspan x="17" y="44">   </tspan>
                        <tspan x="17" y="61"></tspan>
                        <tspan x="17" y="78"></tspan>
                        <tspan x="17" y="95">}</tspan>
                    </text>
                    <text id="firstName:-&quot;Richard&quot;" mask="url(#mask-8)" font-family="Courier" font-size="14" font-weight="normal" letter-spacing="0.4375" fill="#FFFFFF">
                        <tspan x="40" y="47">firstName: "Richard",</tspan>
                        <tspan x="40" y="64">lastName: "Hendricks",</tspan>
                        <tspan x="40" y="81">nbEmployees: 3</tspan>
                    </text>
                </g>
                <circle id="Oval" fill="url(#linearGradient-10)" cx="351.5" cy="183.5" r="33.5"></circle>
                <path d="M339,183.493976 C339.182927,183.361446 339.353659,183.192771 339.5,183 L339.902439,183.409639 C339.963415,183.481928 340,183.566265 340,183.662651 C340,183.746988 339.963415,183.843373 339.890244,183.903614 C339.829268,183.963855 339.756098,183.987952 339.682927,184 C339.670732,184 339.658537,184 339.646341,184 C339.54878,184 339.463415,183.963855 339.390244,183.891566 L339,183.493976 Z M347,176.294574 C347.213474,176.232558 347.415713,176.139535 347.606717,176 L347.977488,177.395349 C348.044901,177.627907 347.955017,177.891473 347.786484,177.968992 C347.752778,177.984496 347.707836,178 347.67413,178 C347.539304,178 347.415713,177.875969 347.370771,177.705426 L347,176.294574 Z M356.423081,176 C356.487183,176.062069 356.551285,176.124138 356.615387,176.206897 C356.743592,176.310345 356.871796,176.372414 357,176.434483 L356.59402,178.606897 C356.551285,178.834483 356.444449,179 356.316244,179 L356.305561,179 C356.27351,179 356.230775,178.97931 356.198724,178.958621 C356.038469,178.855172 355.963683,178.503448 356.017101,178.193103 L356.423081,176 Z M363.279199,185 C363.221993,184.989247 363.164786,184.967742 363.119021,184.924731 C362.981726,184.817204 362.958843,184.612903 363.073256,184.483871 L363.496584,184 C363.633879,184.172043 363.805498,184.311828 364,184.419355 L363.599555,184.88172 C363.530907,184.956989 363.439377,185 363.336406,185 C363.313523,185 363.302082,185 363.279199,185 Z M363.102766,188.347962 C364.427269,188.818182 365.467949,189.965517 365.827457,191.319749 C366.205886,192.655172 365.959907,194.141066 365.108441,195.231975 C364.294818,196.341693 362.932473,197 361.551207,197 L341.645831,196.905956 C340.661916,196.887147 339.696921,196.642633 338.864377,196.153605 C338.031833,195.664577 337.312817,194.987461 336.820859,194.159875 C335.780179,192.523511 335.742336,190.360502 336.631645,188.648903 C336.858702,188.216301 337.123603,187.821317 337.464189,187.46395 C337.785854,187.106583 338.164283,186.786834 338.561634,186.523511 C339.375256,186.015674 340.321329,185.677116 341.286324,185.62069 C342.251318,185.545455 343.235234,185.733542 344.124543,186.128527 C344.559736,186.316614 344.99493,186.579937 345.373359,186.880878 C345.77071,187.181818 346.111296,187.520376 346.432961,187.915361 C346.508647,188.009404 346.660018,188.047022 346.773547,187.971787 C346.905997,187.896552 346.94384,187.746082 346.868154,187.61442 C346.584332,187.144201 346.224825,186.730408 345.827474,186.354232 C345.411202,185.978056 344.957087,185.658307 344.465129,185.413793 C344.21915,185.282132 343.95425,185.169279 343.689349,185.075235 C344.597579,181.501567 347.814227,179 351.560676,179 C356.026141,179 359.659061,182.611285 359.659061,187.050157 L359.659061,187.896552 C359.356317,188.047022 359.072496,188.216301 358.807595,188.423197 C358.750831,188.479624 358.731909,188.554859 358.769752,188.630094 C358.807595,188.705329 358.902202,188.724138 358.977888,188.68652 C359.621218,188.347962 360.321312,188.122257 361.021406,188.065831 C361.7215,188.009404 362.440515,188.103448 363.102766,188.347962 Z M345.158129,175.721591 C344.302834,175.363636 343.626554,174.6875 343.268523,173.832386 C342.910492,172.957386 342.910492,172.002841 343.268523,171.147727 C343.825459,169.855114 345.098457,169 346.510689,169 C346.968173,169 347.425656,169.099432 347.843359,169.278409 C349.633512,170.014205 350.468917,172.0625 349.732965,173.852273 C349.176028,175.144886 347.90303,176 346.490799,176 C346.033315,176 345.595722,175.900568 345.158129,175.721591 Z M357.1571,175.721591 C355.366566,174.985795 354.530984,172.9375 355.267092,171.147727 C355.824147,169.855114 357.097415,169 358.509947,169 C358.967528,169 359.405214,169.099432 359.8429,169.278409 C361.633434,170.014205 362.469016,172.0625 361.732908,173.852273 C361.175853,175.144886 359.902585,176 358.490053,176 C358.032472,176 357.594786,175.900568 357.1571,175.721591 Z M367.710015,180.987013 C367.98697,181.454545 368.073519,181.991342 367.935041,182.493506 C367.710015,183.376623 366.913767,184 365.996351,184 C365.840563,184 365.667466,183.965368 365.511678,183.930736 C364.438475,183.65368 363.798015,182.580087 364.057661,181.506494 C364.282687,180.623377 365.078935,180 365.996351,180 C366.152139,180 366.325236,180.034632 366.481023,180.069264 C367.000315,180.207792 367.433059,180.536797 367.710015,180.987013 Z M338.926879,180.107463 C338.649411,181.235871 337.660934,182.017076 336.499039,181.999716 C336.30828,181.999716 336.10018,181.982356 335.892079,181.930276 C335.233094,181.774035 334.695501,181.357392 334.348667,180.784508 C334.019175,180.211623 333.915124,179.534578 334.0712,178.892254 C334.348667,177.781206 335.354486,177 336.499039,177 C336.689798,177 336.897899,177.01736 337.105999,177.069441 C338.441311,177.399283 339.256371,178.770733 338.926879,180.107463 Z" id="Combined-Shape" fill="#FFFFFF" fill-rule="nonzero"></path>
            </g>
        </g>
    </g>
</svg>