<?xml version="1.0" encoding="UTF-8"?>
<svg width="707px" height="427px" viewBox="0 0 707 427" version="1.1" xmlns="http://www.w3.org/2000/svg" xmlns:xlink="http://www.w3.org/1999/xlink">
    <!-- Generator: Sketch 54.1 (76490) - https://sketchapp.com -->
    <style> * {font-family:"Courier"}</style>
    <title>MapAPI</title>
    <desc>Created with Sketch.</desc>
    <defs>
        <linearGradient x1="22.5198819%" y1="69.6954057%" x2="85.9659845%" y2="30.6665546%" id="linearGradient-1">
            <stop stop-color="#FBFCFF" offset="0%"></stop>
            <stop stop-color="#EEF1FF" offset="100%"></stop>
        </linearGradient>
        <linearGradient x1="100%" y1="73.0877535%" x2="1.80027174%" y2="28.3169812%" id="linearGradient-2">
            <stop stop-color="#030D36" offset="0%"></stop>
            <stop stop-color="#343C5D" offset="100%"></stop>
        </linearGradient>
        <rect id="path-3" x="0" y="0" width="311" height="222" rx="7"></rect>
        <filter x="-9.0%" y="-11.7%" width="118.0%" height="125.2%" filterUnits="objectBoundingBox" id="filter-5">
            <feOffset dx="0" dy="2" in="SourceAlpha" result="shadowOffsetOuter1"></feOffset>
            <feGaussianBlur stdDeviation="9" in="shadowOffsetOuter1" result="shadowBlurOuter1"></feGaussianBlur>
            <feColorMatrix values="0 0 0 0 0.0117647059   0 0 0 0 0.0509803922   0 0 0 0 0.211764706  0 0 0 0.181463068 0" type="matrix" in="shadowBlurOuter1"></feColorMatrix>
        </filter>
        <linearGradient x1="100%" y1="59.206246%" x2="1.80027174%" y2="41.3538922%" id="linearGradient-6">
            <stop stop-color="#030D36" offset="0%"></stop>
            <stop stop-color="#343C5D" offset="100%"></stop>
        </linearGradient>
        <rect id="path-7" x="0" y="0" width="264" height="119" rx="8"></rect>
        <filter x="-10.0%" y="-20.6%" width="120.1%" height="144.5%" filterUnits="objectBoundingBox" id="filter-9">
            <feOffset dx="0" dy="2" in="SourceAlpha" result="shadowOffsetOuter1"></feOffset>
            <feGaussianBlur stdDeviation="8.5" in="shadowOffsetOuter1" result="shadowBlurOuter1"></feGaussianBlur>
            <feColorMatrix values="0 0 0 0 0.0117647059   0 0 0 0 0.0509803922   0 0 0 0 0.211764706  0 0 0 0.0915100524 0" type="matrix" in="shadowBlurOuter1"></feColorMatrix>
        </filter>
        <linearGradient x1="50%" y1="0%" x2="50%" y2="100%" id="linearGradient-10">
            <stop stop-color="#FFC400" offset="0%"></stop>
            <stop stop-color="#E9B300" offset="100%"></stop>
        </linearGradient>
    </defs>
    <g id="Hub" stroke="none" stroke-width="1" fill="none" fill-rule="evenodd">
        <g id="Product-Framework" transform="translate(-642.000000, -1607.000000)">
            <g id="MapAPI" transform="translate(660.000000, 1607.000000)">
                <path d="M594.334711,118.693218 C646.056969,249.192744 499.252883,416.488201 377.70907,415.065032 C337.490768,414.594111 146.504326,461.732638 49.602338,371.828867 C-47.2996502,281.925096 68.1434992,103.262932 221.305861,37.6064508 C374.468222,-28.0500299 542.612453,-11.8063089 594.334711,118.693218 Z" id="Path-4" fill="url(#linearGradient-1)"></path>
                <path d="M297,151 C306.499781,151 315.999561,151 325.499342,151 L325.499342,151 C351.773574,151 373.111716,172.226132 373.25,198.5 L373.25,198.5 C373.388284,224.773868 394.726426,246 421.000658,246 L432,246" id="Path-10" stroke="#FFC400" stroke-width="4"></path>
                <g id="$-Bearer--h-Bearer-C" transform="translate(0.000000, 66.000000)">
                    <mask id="mask-4" fill="white">
                        <use xlink:href="#path-3"></use>
                    </mask>
                    <g id="Mask">
                        <use fill="black" fill-opacity="1" filter="url(#filter-5)" xlink:href="#path-3"></use>
                        <use fill="url(#linearGradient-2)" fill-rule="evenodd" xlink:href="#path-3"></use>
                    </g>
                    <text id="{-}" mask="url(#mask-4)" font-family="Courier" font-size="14" font-weight="normal" letter-spacing="0.4375" fill="#FFFFFF">
                        <tspan x="12" y="22">{</tspan>
                        <tspan x="12" y="39">   </tspan>
                        <tspan x="12" y="56"></tspan>
                        <tspan x="12" y="73"></tspan>
                        <tspan x="12" y="90"></tspan>
                        <tspan x="12" y="107"></tspan>
                        <tspan x="12" y="124"></tspan>
                        <tspan x="12" y="141"></tspan>
                        <tspan x="12" y="158"></tspan>
                        <tspan x="12" y="175"></tspan>
                        <tspan x="12" y="192"></tspan>
                        <tspan x="12" y="209">}</tspan>
                    </text>
                    <text id="company:-“Richard-He" mask="url(#mask-4)" font-family="Courier" font-size="14" font-weight="normal" letter-spacing="0.4375" fill="#FFFFFF">
                        <tspan x="35" y="40">company: “Richard Hendricks”,</tspan>
                        <tspan x="35" y="57">employees: [</tspan>
                        <tspan x="35" y="74"></tspan>
                        <tspan x="35" y="91"></tspan>
                        <tspan x="35" y="108"></tspan>
                        <tspan x="35" y="125"></tspan>
                        <tspan x="35" y="142"></tspan>
                        <tspan x="35" y="159"></tspan>
                        <tspan x="35" y="176"></tspan>
                        <tspan x="35" y="193">]</tspan>
                    </text>
                    <text id="{-},-{-}-..." mask="url(#mask-4)" font-family="Courier" font-size="14" font-weight="normal" letter-spacing="0.4375" fill="#FFFFFF">
                        <tspan x="27" y="76">   {</tspan>
                        <tspan x="27" y="93"></tspan>
                        <tspan x="27" y="110">	},</tspan>
                        <tspan x="27" y="127">	{</tspan>
                        <tspan x="27" y="144"></tspan>
                        <tspan x="27" y="161">	}</tspan>
                        <tspan x="27" y="178">	...</tspan>
                    </text>
                    <text id="name:-&quot;Dinesh-Chugta" mask="url(#mask-4)" font-family="Courier" font-size="14" font-weight="normal" letter-spacing="0.4375" fill="#FFFFFF">
                        <tspan x="25" y="143">	   name: "Dinesh Chugtai”</tspan>
                    </text>
                    <text id="name:-&quot;Jared-Dunn&quot;" mask="url(#mask-4)" font-family="Courier" font-size="14" font-weight="normal" letter-spacing="0.4375" fill="#FFFFFF">
                        <tspan x="25" y="92">	   name: "Jared Dunn"</tspan>
                    </text>
                </g>
                <g id="$-Bearer--h-Bearer-C" transform="translate(408.000000, 198.000000)">
                    <mask id="mask-8" fill="white">
                        <use xlink:href="#path-7"></use>
                    </mask>
                    <g id="Mask">
                        <use fill="black" fill-opacity="1" filter="url(#filter-9)" xlink:href="#path-7"></use>
                        <use fill="url(#linearGradient-6)" fill-rule="evenodd" xlink:href="#path-7"></use>
                    </g>
                    <text id="{-}" mask="url(#mask-8)" font-family="Courier" font-size="14" font-weight="normal" letter-spacing="0.4375" fill="#FFFFFF">
                        <tspan x="17" y="27">{</tspan>
                        <tspan x="17" y="44">   </tspan>
                        <tspan x="17" y="61"></tspan>
                        <tspan x="17" y="78"></tspan>
                        <tspan x="17" y="95">}</tspan>
                    </text>
                    <text id="firstName:-&quot;Richard&quot;" mask="url(#mask-8)" font-family="Courier" font-size="14" font-weight="normal" letter-spacing="0.4375" fill="#FFFFFF">
                        <tspan x="40" y="47">firstName: "Richard",</tspan>
                        <tspan x="40" y="64">lastName: "Hendricks",</tspan>
                        <tspan x="40" y="81">nbEmployees: 3</tspan>
                    </text>
                </g>
                <circle id="Oval" fill="url(#linearGradient-10)" cx="365.5" cy="183.5" r="33.5"></circle>
                <path d="M353,183.493976 C353.182927,183.361446 353.353659,183.192771 353.5,183 L353.902439,183.409639 C353.963415,183.481928 354,183.566265 354,183.662651 C354,183.746988 353.963415,183.843373 353.890244,183.903614 C353.829268,183.963855 353.756098,183.987952 353.682927,184 C353.670732,184 353.658537,184 353.646341,184 C353.54878,184 353.463415,183.963855 353.390244,183.891566 L353,183.493976 Z M361,176.294574 C361.213474,176.232558 361.415713,176.139535 361.606717,176 L361.977488,177.395349 C362.044901,177.627907 361.955017,177.891473 361.786484,177.968992 C361.752778,177.984496 361.707836,178 361.67413,178 C361.539304,178 361.415713,177.875969 361.370771,177.705426 L361,176.294574 Z M370.423081,176 C370.487183,176.062069 370.551285,176.124138 370.615387,176.206897 C370.743592,176.310345 370.871796,176.372414 371,176.434483 L370.59402,178.606897 C370.551285,178.834483 370.444449,179 370.316244,179 L370.305561,179 C370.27351,179 370.230775,178.97931 370.198724,178.958621 C370.038469,178.855172 369.963683,178.503448 370.017101,178.193103 L370.423081,176 Z M377.279199,185 C377.221993,184.989247 377.164786,184.967742 377.119021,184.924731 C376.981726,184.817204 376.958843,184.612903 377.073256,184.483871 L377.496584,184 C377.633879,184.172043 377.805498,184.311828 378,184.419355 L377.599555,184.88172 C377.530907,184.956989 377.439377,185 377.336406,185 C377.313523,185 377.302082,185 377.279199,185 Z M377.102766,188.347962 C378.427269,188.818182 379.467949,189.965517 379.827457,191.319749 C380.205886,192.655172 379.959907,194.141066 379.108441,195.231975 C378.294818,196.341693 376.932473,197 375.551207,197 L355.645831,196.905956 C354.661916,196.887147 353.696921,196.642633 352.864377,196.153605 C352.031833,195.664577 351.312817,194.987461 350.820859,194.159875 C349.780179,192.523511 349.742336,190.360502 350.631645,188.648903 C350.858702,188.216301 351.123603,187.821317 351.464189,187.46395 C351.785854,187.106583 352.164283,186.786834 352.561634,186.523511 C353.375256,186.015674 354.321329,185.677116 355.286324,185.62069 C356.251318,185.545455 357.235234,185.733542 358.124543,186.128527 C358.559736,186.316614 358.99493,186.579937 359.373359,186.880878 C359.77071,187.181818 360.111296,187.520376 360.432961,187.915361 C360.508647,188.009404 360.660018,188.047022 360.773547,187.971787 C360.905997,187.896552 360.94384,187.746082 360.868154,187.61442 C360.584332,187.144201 360.224825,186.730408 359.827474,186.354232 C359.411202,185.978056 358.957087,185.658307 358.465129,185.413793 C358.21915,185.282132 357.95425,185.169279 357.689349,185.075235 C358.597579,181.501567 361.814227,179 365.560676,179 C370.026141,179 373.659061,182.611285 373.659061,187.050157 L373.659061,187.896552 C373.356317,188.047022 373.072496,188.216301 372.807595,188.423197 C372.750831,188.479624 372.731909,188.554859 372.769752,188.630094 C372.807595,188.705329 372.902202,188.724138 372.977888,188.68652 C373.621218,188.347962 374.321312,188.122257 375.021406,188.065831 C375.7215,188.009404 376.440515,188.103448 377.102766,188.347962 Z M359.158129,175.721591 C358.302834,175.363636 357.626554,174.6875 357.268523,173.832386 C356.910492,172.957386 356.910492,172.002841 357.268523,171.147727 C357.825459,169.855114 359.098457,169 360.510689,169 C360.968173,169 361.425656,169.099432 361.843359,169.278409 C363.633512,170.014205 364.468917,172.0625 363.732965,173.852273 C363.176028,175.144886 361.90303,176 360.490799,176 C360.033315,176 359.595722,175.900568 359.158129,175.721591 Z M371.1571,175.721591 C369.366566,174.985795 368.530984,172.9375 369.267092,171.147727 C369.824147,169.855114 371.097415,169 372.509947,169 C372.967528,169 373.405214,169.099432 373.8429,169.278409 C375.633434,170.014205 376.469016,172.0625 375.732908,173.852273 C375.175853,175.144886 373.902585,176 372.490053,176 C372.032472,176 371.594786,175.900568 371.1571,175.721591 Z M381.710015,180.987013 C381.98697,181.454545 382.073519,181.991342 381.935041,182.493506 C381.710015,183.376623 380.913767,184 379.996351,184 C379.840563,184 379.667466,183.965368 379.511678,183.930736 C378.438475,183.65368 377.798015,182.580087 378.057661,181.506494 C378.282687,180.623377 379.078935,180 379.996351,180 C380.152139,180 380.325236,180.034632 380.481023,180.069264 C381.000315,180.207792 381.433059,180.536797 381.710015,180.987013 Z M352.926879,180.107463 C352.649411,181.235871 351.660934,182.017076 350.499039,181.999716 C350.30828,181.999716 350.10018,181.982356 349.892079,181.930276 C349.233094,181.774035 348.695501,181.357392 348.348667,180.784508 C348.019175,180.211623 347.915124,179.534578 348.0712,178.892254 C348.348667,177.781206 349.354486,177 350.499039,177 C350.689798,177 350.897899,177.01736 351.105999,177.069441 C352.441311,177.399283 353.256371,178.770733 352.926879,180.107463 Z" id="Combined-Shape" fill="#FFFFFF" fill-rule="nonzero"></path>
            </g>
        </g>
    </g>
</svg>