<?xml version="1.0" encoding="UTF-8"?>
<svg width="380px" height="223px" viewBox="0 0 380 223" version="1.1" xmlns="http://www.w3.org/2000/svg" xmlns:xlink="http://www.w3.org/1999/xlink">
    <!-- Generator: Sketch 53.2 (72643) - https://sketchapp.com -->
    <title>OauthApi@2x</title>
    <desc>Created with Sketch.</desc>
    <defs>
        <linearGradient x1="100%" y1="51.8267092%" x2="1.80027174%" y2="48.2844337%" id="linearGradient-1">
            <stop stop-color="#F9FAFD" offset="0%"></stop>
            <stop stop-color="#FFFFFF" offset="100%"></stop>
        </linearGradient>
        <rect id="path-2" x="0" y="40" width="254" height="51" rx="8"></rect>
        <filter x="-10.4%" y="-48.0%" width="120.9%" height="203.9%" filterUnits="objectBoundingBox" id="filter-3">
            <feOffset dx="0" dy="2" in="SourceAlpha" result="shadowOffsetOuter1"></feOffset>
            <feGaussianBlur stdDeviation="8.5" in="shadowOffsetOuter1" result="shadowBlurOuter1"></feGaussianBlur>
            <feComposite in="shadowBlurOuter1" in2="SourceAlpha" operator="out" result="shadowBlurOuter1"></feComposite>
            <feColorMatrix values="0 0 0 0 0.0117647059   0 0 0 0 0.0509803922   0 0 0 0 0.211764706  0 0 0 0.0915100524 0" type="matrix" in="shadowBlurOuter1"></feColorMatrix>
        </filter>
        <rect id="path-4" x="0" y="112" width="254" height="51" rx="8"></rect>
        <filter x="-10.4%" y="-48.0%" width="120.9%" height="203.9%" filterUnits="objectBoundingBox" id="filter-5">
            <feOffset dx="0" dy="2" in="SourceAlpha" result="shadowOffsetOuter1"></feOffset>
            <feGaussianBlur stdDeviation="8.5" in="shadowOffsetOuter1" result="shadowBlurOuter1"></feGaussianBlur>
            <feComposite in="shadowBlurOuter1" in2="SourceAlpha" operator="out" result="shadowBlurOuter1"></feComposite>
            <feColorMatrix values="0 0 0 0 0.0117647059   0 0 0 0 0.0509803922   0 0 0 0 0.211764706  0 0 0 0.0915100524 0" type="matrix" in="shadowBlurOuter1"></feColorMatrix>
        </filter>
        <linearGradient x1="50%" y1="0%" x2="50%" y2="100%" id="linearGradient-6">
            <stop stop-color="#343C5D" offset="0%"></stop>
            <stop stop-color="#030D36" offset="100%"></stop>
        </linearGradient>
        <linearGradient x1="50%" y1="0%" x2="50%" y2="100%" id="linearGradient-7">
            <stop stop-color="#343C5D" offset="0%"></stop>
            <stop stop-color="#030D36" offset="100%"></stop>
        </linearGradient>
    </defs>
    <g id="Hub" stroke="none" stroke-width="1" fill="none" fill-rule="evenodd">
        <g id="Product-Platform" transform="translate(-838.000000, -2242.000000)">
            <g id="OauthApi" transform="translate(855.000000, 2242.000000)">
                <path d="M46,0 L250,0 L250,106.652174 C250,151.494565 197.178571,223 148,223 C98.8214286,223 46,151.494565 46,106.652174 L46,0 Z M240.285714,106.652174 L240.285714,9.69565217 L55.7142857,9.69565217 L55.7142857,106.652174 C55.7142857,147.797613 106.104229,213.304348 148,213.304348 C189.895771,213.304348 240.285714,147.797613 240.285714,106.652174 Z M145.25,195 C111.53165,195 73.9999998,145.528094 74,112 L74,33.8823529 C74,31.1859075 76.126651,29.0000001 78.7500002,29 L126.25,29 C128.873349,29 131,31.1859075 131,33.8823529 C131,36.5787984 128.873349,38.764706 126.25,38.7647059 L83.5000004,38.7647059 L83.5000004,112 C83.5000004,140.255153 117.21835,185.235294 145.25,185.235294 C147.873349,185.235294 150,187.421202 150,190.117647 C150,192.814092 147.873349,195 145.25,195 Z" id="Combined-Shape" fill="#F1B7B7" fill-rule="nonzero" opacity="0.225423177"></path>
                <g id="Rectangle">
                    <use fill="black" fill-opacity="1" filter="url(#filter-3)" xlink:href="#path-2"></use>
                    <rect stroke="#E6EAFA" stroke-width="1" stroke-linejoin="square" fill="url(#linearGradient-1)" fill-rule="evenodd" x="0.5" y="40.5" width="253" height="50" rx="8"></rect>
                </g>
                <g id="Rectangle">
                    <use fill="black" fill-opacity="1" filter="url(#filter-5)" xlink:href="#path-4"></use>
                    <rect stroke="#E6EAFA" stroke-width="1" stroke-linejoin="square" fill="url(#linearGradient-1)" fill-rule="evenodd" x="0.5" y="112.5" width="253" height="50" rx="8"></rect>
                </g>
                <text id="Client-API" font-family="ProximaNova-Semibold, Proxima Nova" font-size="16" font-weight="500" letter-spacing="0.1333333" fill="#C2C9EA">
                    <tspan x="20" y="72">Client API</tspan>
                </text>
                <text id="Client-Secret" font-family="ProximaNova-Semibold, Proxima Nova" font-size="16" font-weight="500" letter-spacing="0.1333333" fill="#C2C9EA">
                    <tspan x="20" y="144">Client Secret</tspan>
                </text>
                <circle id="Oval" fill="url(#linearGradient-6)" cx="241.5" cy="115.5" r="87.5"></circle>
                <path d="M214.428571,117.129088 C214.84669,116.826162 215.236934,116.44062 215.571429,116 L216.491289,116.936317 C216.630662,117.101549 216.714286,117.29432 216.714286,117.51463 C216.714286,117.707401 216.630662,117.927711 216.463415,118.065404 C216.324042,118.203098 216.156794,118.258176 215.989547,118.285714 C215.961672,118.285714 215.933798,118.285714 215.905923,118.285714 C215.682927,118.285714 215.487805,118.203098 215.320557,118.037866 L214.428571,117.129088 Z M232.714286,100.673311 C233.202227,100.531561 233.664487,100.318937 234.101067,100 L234.948544,103.189369 C235.10263,103.72093 234.897181,104.323367 234.511965,104.500554 C234.434921,104.535991 234.332197,104.571429 234.255153,104.571429 C233.94698,104.571429 233.664487,104.287929 233.561763,103.898117 L232.714286,100.673311 Z M254.252757,100 C254.399276,100.141872 254.545795,100.283744 254.692314,100.472906 C254.985352,100.70936 255.27839,100.851232 255.571429,100.993103 L254.643475,105.958621 C254.545795,106.478818 254.301597,106.857143 254.008559,106.857143 L253.984139,106.857143 C253.910879,106.857143 253.8132,106.809852 253.73994,106.762562 C253.373643,106.526108 253.202704,105.722167 253.324803,105.012808 L254.252757,100 Z M269.923884,120.571429 C269.793126,120.546851 269.662369,120.497696 269.557763,120.399386 C269.243945,120.15361 269.191642,119.686636 269.453157,119.391705 L270.420762,118.285714 C270.73458,118.678955 271.126853,118.998464 271.571429,119.24424 L270.656126,120.301075 C270.499217,120.473118 270.290005,120.571429 270.054641,120.571429 C270.002338,120.571429 269.976187,120.571429 269.923884,120.571429 Z M269.520609,128.223914 C272.548042,129.298701 274.92674,131.921182 275.748472,135.01657 C276.613453,138.068966 276.051215,141.465293 274.105008,143.9588 C272.245299,146.495298 269.131367,148 265.974187,148 L220.476186,147.785043 C218.227236,147.742051 216.021534,147.183162 214.118576,146.065383 C212.215618,144.947604 210.572154,143.39991 209.447679,141.508285 C207.068981,137.768025 206.982483,132.824004 209.015188,128.911778 C209.534177,127.922974 210.139663,127.020152 210.918146,126.203314 C211.65338,125.386476 212.518361,124.65562 213.426591,124.053739 C215.2863,122.892969 217.448753,122.119122 219.654454,121.990148 C221.860156,121.818182 224.109106,122.248097 226.141812,123.150918 C227.13654,123.580833 228.131268,124.182714 228.996249,124.870578 C229.904479,125.558442 230.682962,126.332288 231.418196,127.23511 C231.591192,127.450067 231.937185,127.53605 232.196679,127.364084 C232.499422,127.192118 232.58592,126.848186 232.412924,126.547246 C231.764188,125.472459 230.942456,124.526646 230.034226,123.666816 C229.082747,122.806986 228.04477,122.076131 226.920295,121.517241 C226.358057,121.216301 225.75257,120.958352 225.147084,120.743395 C227.223038,112.575011 234.575377,106.857143 243.138688,106.857143 C253.345464,106.857143 261.649282,115.111509 261.649282,125.257501 L261.649282,127.192118 C260.957297,127.53605 260.308561,127.922974 259.703075,128.39588 C259.573327,128.524854 259.530078,128.69682 259.616576,128.868786 C259.703075,129.040752 259.91932,129.083744 260.092316,128.997761 C261.562784,128.223914 263.162999,127.708016 264.763213,127.579042 C266.363428,127.450067 268.006892,127.665025 269.520609,128.223914 Z M228.504295,99.3636364 C226.549334,98.5454545 225.003551,97 224.185195,95.0454545 C223.36684,93.0454545 223.36684,90.8636364 224.185195,88.9090909 C225.458193,85.9545455 228.367902,84 231.595861,84 C232.641538,84 233.687214,84.2272727 234.641963,84.6363636 C238.733741,86.3181818 240.643238,91 238.961062,95.0909091 C237.688065,98.0454545 234.778355,100 231.550397,100 C230.50472,100 229.504507,99.7727273 228.504295,99.3636364 Z M255.930514,99.3636364 C251.837865,97.6818182 249.927963,93 251.610496,88.9090909 C252.883764,85.9545455 255.794092,84 259.022737,84 C260.068636,84 261.069061,84.2272727 262.069486,84.6363636 C266.162135,86.3181818 268.072037,91 266.389504,95.0909091 C265.116236,98.0454545 262.205908,100 258.977263,100 C257.931364,100 256.930939,99.7727273 255.930514,99.3636364 Z M280.051462,111.398887 C280.684503,112.467532 280.882329,113.694496 280.565808,114.842301 C280.051462,116.860853 278.231467,118.285714 276.134517,118.285714 C275.778431,118.285714 275.38278,118.206555 275.026694,118.127396 C272.573657,117.494125 271.109748,115.040198 271.703225,112.586271 C272.217571,110.567718 274.037566,109.142857 276.134517,109.142857 C276.490602,109.142857 276.886253,109.222016 277.242339,109.301175 C278.429293,109.617811 279.41842,110.369821 280.051462,111.398887 Z M214.261437,109.388486 C213.627226,111.967705 211.367849,113.753318 208.712089,113.713637 C208.276069,113.713637 207.800411,113.673957 207.324753,113.554916 C205.818501,113.197794 204.589717,112.245467 203.796953,110.936017 C203.043827,109.626568 202.805998,108.079036 203.162742,106.610866 C203.796953,104.071327 206.095969,102.285714 208.712089,102.285714 C209.14811,102.285714 209.623768,102.325395 210.099426,102.444435 C213.151567,103.198361 215.014563,106.333104 214.261437,109.388486 Z" id="Combined-Shape" fill="#FFFFFF" fill-rule="nonzero"></path>
                <ellipse id="Oval" fill="url(#linearGradient-7)" cx="306.5" cy="167.5" rx="56.5" ry="55.5"></ellipse>
                <path d="M286,148 L329,148 L329,170.478261 C329,179.929348 317.866071,195 307.5,195 C297.133929,195 286,179.929348 286,170.478261 L286,148 Z M326.952381,170.478261 L326.952381,150.043478 L288.047619,150.043478 L288.047619,170.478261 C288.047619,179.15017 298.669029,192.956522 307.5,192.956522 C316.330971,192.956522 326.952381,179.15017 326.952381,170.478261 Z M307,189 C299.9014,189 292,178.569176 292,171.5 L292,155.029412 C292,154.460884 292.447716,154 293,154 L303,154 C303.552284,154 304,154.460884 304,155.029412 C304,155.597939 303.552284,156.058824 303,156.058824 L294,156.058824 L294,171.5 C294,177.457412 301.0986,186.941176 307,186.941176 C307.552284,186.941176 308,187.402061 308,187.970588 C308,188.539116 307.552284,189 307,189 Z" id="Combined-Shape" fill="#FFFFFF" fill-rule="nonzero"></path>
            </g>
        </g>
    </g>
</svg>