<?xml version="1.0" encoding="UTF-8"?>
<svg width="223px" height="226px" viewBox="0 0 223 226" version="1.1" xmlns="http://www.w3.org/2000/svg" xmlns:xlink="http://www.w3.org/1999/xlink">
    <style> * {font-family:'ProximaNova-Regular', Courier}</style>
    <defs>
        <linearGradient x1="50%" y1="0%" x2="50%" y2="100%" id="linearGradient-1">
            <stop stop-color="#343C5D" offset="0%"></stop>
            <stop stop-color="#030D36" offset="100%"></stop>
        </linearGradient>
        <path d="M116.200002,131.239999 L116.200002,131.239999 C116.200002,133.846784 114.086787,135.959999 111.480002,135.959999 C108.873216,135.959999 106.760001,133.846784 106.760001,131.239999 C106.760001,128.633214 108.873216,126.519999 111.480002,126.519999 L111.480001,126.519999 C114.086787,126.519999 116.200002,128.633214 116.200002,131.239999 L116.200002,131.239999 Z M87.8800009,126.519999 L87.8800007,126.519999 C85.2732154,126.519999 83.1600005,128.633214 83.1600005,131.239999 C83.1600006,133.846784 85.2732154,135.959999 87.8800007,135.959999 C90.4867859,135.959999 92.6000008,133.846784 92.6000008,131.239999 L92.6000008,131.239999 C92.6000008,128.633214 90.4867859,126.519999 87.8800007,126.519999 L87.8800009,126.519999 Z M135.080002,126.519999 L135.080002,126.519999 C132.473217,126.519999 130.360002,128.633214 130.360002,131.239999 C130.360002,133.846784 132.473217,135.959999 135.080002,135.959999 C137.686787,135.959999 139.800002,133.846784 139.800002,131.239999 L139.800002,131.239999 C139.800002,128.633214 137.686787,126.519999 135.080002,126.519999 L135.080002,126.519999 Z M153.960003,100.559998 L153.960003,161.92 L153.960003,161.92 C153.960003,165.830175 150.790178,169 146.880003,169 L76.0800005,169 L76.0800002,169 C72.1698247,169 69,165.830175 69,161.92 C69,161.92 69,161.92 69,161.92 L69,100.559998 L69,100.559997 C69.0000006,96.6498216 72.1698247,93.479997 76.0800002,93.479997 L83.1600004,93.479997 L83.1600004,79.3199966 L83.1600004,79.3200008 C83.1599981,63.6792892 95.8392896,51 111.480001,51 C127.120713,50.9999976 139.800002,63.6792892 139.800002,79.3200008 C139.800002,79.3200008 139.800002,79.3200008 139.800002,79.3200008 L139.800002,93.4800013 L146.880002,93.4800013 L146.880002,93.4800013 C150.790178,93.4800011 153.960002,96.6498259 153.960002,100.560001 C153.960002,100.560001 153.960002,100.560001 153.960002,100.560001 L153.960003,100.559998 Z M87.8800009,93.4799977 L135.080002,93.4799977 L135.080002,79.3199973 L135.080002,79.3199973 C135.080002,66.2860945 124.513904,55.7199966 111.480002,55.7199966 C98.4460988,55.7199966 87.8800009,66.2860945 87.8800009,79.3199973 L87.8800009,93.4799977 Z M149.240003,100.559998 L149.240003,100.560002 C149.238445,99.2572586 148.182751,98.2015598 146.880007,98.1999974 L76.0800052,98.1999974 L76.0800052,98.1999974 C74.7772616,98.2015579 73.7215675,99.2572539 73.7200051,100.559998 L73.7200051,161.919999 L73.7200051,161.919995 C73.7215633,163.222739 74.7772568,164.278438 76.0800005,164.28 L146.880003,164.28 L146.880003,164.28 C148.182746,164.278439 149.23844,163.222743 149.240003,161.92 L149.240003,100.559998 Z" id="path-2"></path>
        <filter x="-93.0%" y="-65.3%" width="286.0%" height="233.9%" filterUnits="objectBoundingBox" id="filter-3">
            <feOffset dx="0" dy="0" in="SourceAlpha" result="shadowOffsetOuter1"></feOffset>
            <feGaussianBlur stdDeviation="2" in="shadowOffsetOuter1" result="shadowBlurOuter1"></feGaussianBlur>
            <feColorMatrix values="0 0 0 0 1   0 0 0 0 0.815686275   0 0 0 0 0.2  0 0 0 1 0" type="matrix" in="shadowBlurOuter1" result="shadowMatrixOuter1"></feColorMatrix>
            <feOffset dx="0" dy="2" in="SourceAlpha" result="shadowOffsetOuter2"></feOffset>
            <feGaussianBlur stdDeviation="26" in="shadowOffsetOuter2" result="shadowBlurOuter2"></feGaussianBlur>
            <feColorMatrix values="0 0 0 0 1   0 0 0 0 0.815686275   0 0 0 0 0.2  0 0 0 1 0" type="matrix" in="shadowBlurOuter2" result="shadowMatrixOuter2"></feColorMatrix>
            <feMerge>
                <feMergeNode in="shadowMatrixOuter1"></feMergeNode>
                <feMergeNode in="shadowMatrixOuter2"></feMergeNode>
            </feMerge>
        </filter>
    </defs>
    <g id="Hub" stroke="none" stroke-width="1" fill="none" fill-rule="evenodd">
        <g id="Product-Platform" transform="translate(-889.000000, -2048.000000)">
            <g id="OauthApi" transform="translate(889.000000, 2048.000000)">
                <ellipse id="Oval" fill="url(#linearGradient-1)" cx="111.22905" cy="110" rx="111.22905" ry="110"></ellipse>
                <g id="Shape" fill-rule="nonzero">
                    <use fill="black" fill-opacity="1" filter="url(#filter-3)" xlink:href="#path-2"></use>
                    <use fill="#FFC400" xlink:href="#path-2"></use>
                </g>
                <ellipse id="Oval" fill="#0FE49B" cx="178.5" cy="184" rx="42.5" ry="42"></ellipse>
                <path d="M174.672225,173.369797 L174.977488,175.093023 C175.044901,175.44186 174.955017,175.837209 174.786484,175.953488 C174.752778,175.976744 174.707836,176 174.67413,176 C174.539304,176 174.415713,175.813953 174.370771,175.55814 L174.043573,173.690563 C173.55406,173.891597 173.029058,174 172.48817,174 C171.899976,174 171.337357,173.857955 170.774737,173.602273 C169.675072,173.090909 168.805569,172.125 168.345244,170.903409 C167.884919,169.653409 167.884919,168.289773 168.345244,167.068182 C169.061305,165.221591 170.698016,164 172.513743,164 C173.101936,164 173.69013,164.142045 174.227175,164.397727 C176.528801,165.448864 177.602893,168.375 176.656669,170.931818 C176.248519,171.984362 175.541258,172.833848 174.672225,173.369797 Z M163,183.493976 C163.182927,183.361446 163.353659,183.192771 163.5,183 L163.902439,183.409639 C163.963415,183.481928 164,183.566265 164,183.662651 C164,183.746988 163.963415,183.843373 163.890244,183.903614 C163.829268,183.963855 163.756098,183.987952 163.682927,184 C163.670732,184 163.658537,184 163.646341,184 C163.54878,184 163.463415,183.963855 163.390244,183.891566 L163,183.493976 Z M186.423081,174 C186.487183,174.082759 186.551285,174.165517 186.615387,174.275862 C186.743592,174.413793 186.871796,174.496552 187,174.57931 L186.59402,177.475862 C186.551285,177.77931 186.444449,178 186.316244,178 L186.305561,178 C186.27351,178 186.230775,177.972414 186.198724,177.944828 C186.038469,177.806897 185.963683,177.337931 186.017101,176.924138 L186.423081,174 Z M195.279199,186 C195.221993,185.989247 195.164786,185.967742 195.119021,185.924731 C194.981726,185.817204 194.958843,185.612903 195.073256,185.483871 L195.496584,185 C195.633879,185.172043 195.805498,185.311828 196,185.419355 L195.599555,185.88172 C195.530907,185.956989 195.439377,186 195.336406,186 C195.313523,186 195.302082,186 195.279199,186 Z M196.040447,190.46395 C197.8506,191.090909 199.272863,192.62069 199.764191,194.426332 C200.281377,196.206897 199.945206,198.188088 198.781536,199.642633 C197.669585,201.122257 195.807713,202 193.919983,202 L166.71597,201.874608 C165.371285,201.84953 164.052459,201.523511 162.914649,200.871473 C161.776838,200.219436 160.794184,199.316614 160.121841,198.213166 C158.699578,196.031348 158.647859,193.147335 159.863248,190.865204 C160.17356,190.288401 160.53559,189.761755 161.001058,189.285266 C161.440667,188.808777 161.957853,188.382445 162.500899,188.031348 C163.61285,187.354232 164.905817,186.902821 166.224642,186.827586 C167.543468,186.727273 168.888153,186.978056 170.103542,187.504702 C170.698306,187.755486 171.293071,188.106583 171.810257,188.507837 C172.353303,188.909091 172.818771,189.360502 173.25838,189.887147 C173.361817,190.012539 173.568692,190.062696 173.723848,189.962382 C173.904863,189.862069 173.956581,189.661442 173.853144,189.485893 C173.465254,188.858934 172.973927,188.30721 172.430881,187.805643 C171.861976,187.304075 171.241352,186.877743 170.56901,186.551724 C170.232838,186.376176 169.870808,186.225705 169.508777,186.100313 C170.750025,181.335423 175.146111,178 180.266257,178 C186.369059,178 191.33405,182.815047 191.33405,188.733542 L191.33405,189.862069 C190.920301,190.062696 190.532411,190.288401 190.17038,190.564263 C190.092802,190.639498 190.066943,190.739812 190.118661,190.840125 C190.17038,190.940439 190.299677,190.965517 190.403114,190.915361 C191.282331,190.46395 192.239126,190.163009 193.195921,190.087774 C194.152716,190.012539 195.135371,190.137931 196.040447,190.46395 Z M187.773414,173.602273 C185.471299,172.551136 184.396979,169.625 185.343404,167.068182 C186.059617,165.221591 187.696677,164 189.51279,164 C190.101108,164 190.663847,164.142045 191.226586,164.397727 C193.528701,165.448864 194.603021,168.375 193.656596,170.931818 C192.940383,172.778409 191.303323,174 189.48721,174 C188.898892,174 188.336153,173.857955 187.773414,173.602273 Z M201.637518,180.233766 C201.983713,180.818182 202.091899,181.489177 201.918801,182.116883 C201.637518,183.220779 200.642209,184 199.495439,184 C199.300704,184 199.084333,183.95671 198.889598,183.91342 C197.548094,183.5671 196.747519,182.225108 197.072076,180.883117 C197.353359,179.779221 198.348669,179 199.495439,179 C199.690173,179 199.906545,179.04329 200.101279,179.08658 C200.750394,179.25974 201.291324,179.670996 201.637518,180.233766 Z M162.89763,179.350448 C162.509176,180.930219 161.125307,182.023907 159.498655,181.999603 C159.231592,181.999603 158.940252,181.975299 158.648911,181.902386 C157.726332,181.683649 156.973702,181.100348 156.488134,180.298311 C156.026844,179.496273 155.881174,178.54841 156.09968,177.649155 C156.488134,176.093688 157.896281,175 159.498655,175 C159.765717,175 160.057058,175.024304 160.348399,175.097217 C162.217835,175.558996 163.35892,177.479026 162.89763,179.350448 Z" id="Combined-Shape" fill="#FFFFFF" fill-rule="nonzero"></path>
                <g id="Password-Lock" transform="translate(21.000000, 84.000000)"></g>
            </g>
        </g>
    </g>
</svg>