<?xml version="1.0" encoding="UTF-8"?>
<svg width="40px" height="40px" viewBox="0 0 40 40" version="1.1" xmlns="http://www.w3.org/2000/svg" xmlns:xlink="http://www.w3.org/1999/xlink">
    <style> * {font-family:'ProximaNova-Regular', Courier}</style>
    <g id="Dashboard" stroke="none" stroke-width="1" fill="none" fill-rule="evenodd">
        <g id="error-auth" transform="translate(-620.000000, -172.000000)" fill="#DC4C4C">
            <g id="Alert-Sign" transform="translate(620.000000, 172.000000)">
                <path d="M20,8.74227216e-07 C31.045696,8.74227216e-07 40,8.95430487 40,20 C40,31.045696 31.045696,39.9999995 20,40 C8.954304,40 4.82822396e-07,31.045696 -3.55271368e-15,20 C-3.55271368e-15,8.954304 8.954304,4.82822413e-07 20.0000009,-7.10542736e-15 Z M20.0000009,38.4 L20.0004806,38.399963 C30.1578406,38.388283 38.3889106,30.156811 38.4000006,19.999483 L38.4000001,20 C38.4000001,9.837968 30.1620321,1.60000044 20.0000001,1.6 C9.83796807,1.6 1.60000051,9.837968 1.60000007,20 C1.60000007,30.162032 9.83796807,38.3999996 20.0000009,38.4 Z M19.2000009,12.8 L20.8000009,12.8 L20.8000009,22.4 L19.2000009,22.4 L19.2000009,12.8 Z M19.2000009,25.6 L20.8000009,25.6 L20.8000009,27.2 L19.2000009,27.2 L19.2000009,25.6 Z" id="Combined-Shape"></path>
            </g>
        </g>
    </g>
</svg>