<?xml version="1.0" encoding="UTF-8"?>
<svg width="73px" height="64px" viewBox="0 0 73 64" version="1.1" xmlns="http://www.w3.org/2000/svg" xmlns:xlink="http://www.w3.org/1999/xlink">
    <!-- Generator: Sketch 53.2 (72643) - https://sketchapp.com -->
    <title>templates</title>
    <desc>Created with Sketch.</desc>
    <g id="Hub" stroke="none" stroke-width="1" fill="none" fill-rule="evenodd">
        <g id="Product-Framework" transform="translate(-252.000000, -2784.000000)" fill="#D133B5" fill-rule="nonzero">
            <g id="Prototype" transform="translate(252.000000, 2784.000000)">
                <path d="M68.3636362,5.1787248e-07 L53.8181821,5.1787248e-07 L53.8181819,5.1787248e-07 C51.4082125,6.23215603e-07 49.4545456,1.95366737 49.4545456,4.36363675 C49.4545456,4.36363675 49.4545456,4.36363675 49.4545456,4.36363675 L49.4545456,17.6 L49.4545449,17.6000002 C46.5982745,18.1843289 44.3661378,20.4164568 43.7818178,23.2727273 L37.8181816,23.2727273 L37.8181815,23.2727273 C36.2123983,23.2748108 34.9111736,24.5760349 34.9090907,26.1818181 L34.9090907,37.8181814 L28.9454545,37.8181814 L28.9454546,37.8181821 C28.3611986,34.9618738 26.1290387,32.7297168 23.2727275,32.145455 L23.2727275,18.9090918 L23.2727275,18.9090918 C23.2727275,16.4991224 21.3190607,14.5454555 18.9090913,14.5454555 C18.909091,14.5454555 18.9090908,14.5454555 18.9090905,14.5454555 L4.36363643,14.5454555 L4.36363624,14.5454555 C1.95366685,14.5454556 0,16.4991224 0,18.9090918 L0,59.6363633 L4.13407989e-14,59.6363638 C3.63895303e-07,62.0463331 1.95366685,64 4.36363624,64 L18.9090904,64 L18.9090902,64 C21.3190596,63.9999998 23.2727265,62.0463331 23.2727265,59.6363638 L23.2727265,46.4000005 L23.2727265,46.4000005 C26.128997,45.8156747 28.3611337,43.5835438 28.9454537,40.7272734 L34.9090898,40.7272734 L34.9090897,40.7272734 C36.514873,40.72519 37.8160976,39.4239658 37.8181805,37.8181826 L37.8181805,26.1818193 L43.7818167,26.1818193 L43.7818166,26.1818187 C44.3662152,29.0380514 46.5983111,31.2701386 49.4545437,31.8545458 L49.4545437,45.0909091 L49.4545437,45.0909084 C49.4545434,47.5008778 51.4082106,49.4545447 53.81818,49.4545447 C53.8181801,49.4545447 53.8181803,49.4545447 53.8181805,49.4545447 L68.3636346,49.4545447 L68.3636346,49.4545447 C70.773604,49.4545451 72.7272708,47.5008778 72.7272708,45.0909084 C72.7272708,45.0909082 72.7272708,45.090908 72.7272708,45.0909078 L72.7272708,4.36363624 L72.7272708,4.36363624 C72.7272708,1.95366685 70.773604,0 68.3636346,0 L68.3636362,5.1787248e-07 Z M18.9090922,61.0909078 L4.36363805,61.0909078 L4.36363803,61.0909078 C3.56071441,61.089946 2.91005552,60.439286 2.90909261,59.6363624 L2.90909261,18.9090909 L2.90909261,18.9090935 C2.91005296,18.1061699 3.5607115,17.4555081 4.36363511,17.4545452 L18.9090892,17.4545452 L18.9090893,17.4545452 C19.7120129,17.455507 20.3626718,18.106167 20.3636347,18.9090906 L20.3636347,32.1454538 L20.3636346,32.1454538 C16.4273438,32.9447527 13.8843329,36.7837083 14.6836056,40.71997 C15.2647693,43.582015 17.5015779,45.8188207 20.3636346,46.3999989 L20.3636346,59.6363621 L20.3636346,59.6363595 C20.3626742,60.4392831 19.7120157,61.0899449 18.9090921,61.0909078 L18.9090922,61.0909078 Z M21.818183,43.6363629 L21.8181828,43.6363629 C19.4082134,43.6363628 17.4545466,41.682696 17.4545466,39.2727266 C17.4545467,36.8627573 19.4082134,34.9090904 21.8181828,34.9090904 C24.2281522,34.9090905 26.181819,36.8627573 26.181819,39.2727266 L26.1818192,39.2725535 C26.1791892,41.6813942 24.2271953,43.6335425 21.8183575,43.6363643 L21.818183,43.6363629 Z M46.545455,24.7272725 L46.545455,24.7272732 C46.5454546,22.3173038 48.4991219,20.3636369 50.9090912,20.3636369 C53.3190606,20.3636366 55.2727275,22.3173038 55.2727275,24.7272732 C55.2727278,27.1372426 53.3190606,29.0909094 50.9090912,29.0909094 L50.9090914,29.0909094 C48.5002508,29.0881845 46.5481897,27.1361138 46.5454552,24.7272732 L46.545455,24.7272725 Z M69.8181816,45.0909083 L69.8181816,45.0909057 C69.8172213,45.8938293 69.1665627,46.5444911 68.3636391,46.545454 L53.818185,46.545454 L53.818185,46.545454 C53.0152613,46.5444922 52.3646025,45.8938322 52.3636395,45.0909086 L52.3636395,31.8545453 L52.3636401,31.8545452 C56.2999309,31.0552463 58.8429417,27.2162908 58.043669,23.2800291 C57.4625054,20.4179841 55.2256967,18.1811783 52.3636401,17.6000002 L52.3636401,4.36363693 L52.3636401,4.36363953 C52.3646004,3.56071592 53.015259,2.91005412 53.8181826,2.90909121 L68.3636367,2.90909121 L68.3636368,2.90909121 C69.1665604,2.91005302 69.8172193,3.56071301 69.8181822,4.36363662 L69.8181816,45.0909083 Z" id="templates"></path>
            </g>
        </g>
    </g>
</svg>