<?xml version="1.0" encoding="UTF-8"?>
<svg width="64px" height="64px" viewBox="0 0 64 64" version="1.1" xmlns="http://www.w3.org/2000/svg" xmlns:xlink="http://www.w3.org/1999/xlink">
    <!-- Generator: Sketch 53.2 (72643) - https://sketchapp.com -->
    <title>typescriptOpen@2x</title>
    <desc>Created with Sketch.</desc>
    <g id="Hub" stroke="none" stroke-width="1" fill="none" fill-rule="evenodd">
        <g id="Product-Framework" transform="translate(-772.000000, -2784.000000)" fill="#00C682">
            <path d="M813.142856,2814.47605 L794.857143,2814.47603 C794.894757,2810.90957 795.147433,2807.34812 795.613903,2803.80952 L795.613901,2803.80954 C798.393374,2804.1714 801.194867,2804.35658 803.999921,2804.36388 C806.804975,2804.35658 809.606468,2804.17139 812.385935,2803.80953 C812.852465,2807.34818 813.105193,2810.90965 813.142857,2814.47619 L813.142856,2814.47605 Z M772,2815.2381 C772.217074,2809.26121 774.053554,2803.4611 777.307281,2798.47619 C782.386543,2800.96541 787.779266,2802.73193 793.333333,2803.72589 C792.853913,2807.54467 792.594188,2811.38859 792.555479,2815.2381 L792.555479,2815.23804 L772,2815.2381 Z M794.857143,2817.52381 L813.142857,2817.52381 C813.105157,2821.09017 812.855995,2824.65153 812.396591,2828.19041 C809.613611,2827.82455 806.808533,2827.63743 803.999865,2827.63027 C801.191252,2827.63746 798.386252,2827.82461 795.603357,2828.19048 C795.143969,2824.6516 794.894825,2821.09024 794.857143,2817.52381 Z M793.333331,2828.47422 C787.764577,2829.42972 782.358042,2831.12895 777.266933,2833.52381 C774.039116,2828.76039 772.217244,2823.22587 772,2817.52381 L792.565899,2817.52382 C792.604628,2821.18528 792.860867,2824.84153 793.333333,2828.47422 Z M811.619047,2830.98555 C811.142518,2833.97582 810.418371,2836.92492 809.453483,2839.8048 C807.485904,2845.46575 805.106682,2848 803.620223,2848 C802.133764,2848 799.753759,2845.46575 797.786963,2839.8048 C796.82128,2836.92497 796.096347,2833.9759 795.619048,2830.98555 C800.9289,2830.3064 806.309196,2830.3064 811.619046,2830.98555 Z M795.61905,2801.01462 C796.096172,2798.03844 796.817268,2795.10329 797.775581,2792.23666 C799.746603,2786.54707 802.129988,2784 803.619048,2784 C805.108107,2784 807.492277,2786.54707 809.462515,2792.23666 C810.420829,2795.1033 811.141926,2798.03845 811.619047,2801.01463 C806.309036,2801.69354 800.929059,2801.69354 795.619048,2801.01463 Z M835.999988,2817.52422 L836,2817.52424 C835.782653,2823.22615 833.960716,2828.76052 830.732912,2833.52381 C825.641851,2831.12888 820.235369,2829.42958 814.666667,2828.47401 C815.139194,2824.8414 815.395497,2821.18523 815.434294,2817.52381 L815.43429,2817.52422 L835.999988,2817.52422 Z M793.684775,2800.7619 L793.684764,2800.7619 C788.554458,2799.84143 783.568229,2798.23705 778.85715,2795.99095 C783.939551,2789.48492 791.302422,2785.19315 799.428571,2784 C796.297833,2789.08493 794.335266,2794.81226 793.684775,2800.7619 Z M814.315306,2831.23812 C819.446362,2832.15736 824.432737,2833.7601 829.142855,2836.00406 C824.072596,2842.5123 816.706188,2846.80792 808.571429,2848 C811.707883,2842.91485 813.670655,2837.18702 814.315302,2831.2381 L814.3153,2831.23812 Z M793.684415,2831.2381 C794.329145,2837.18704 796.292014,2842.91487 799.428571,2848 C791.293812,2846.80791 783.927403,2842.5123 778.857145,2836.00406 C783.567163,2833.76011 788.553462,2832.15735 793.684418,2831.2381 Z M814.316,2800.7619 C813.665274,2794.81219 811.702426,2789.08486 808.571429,2784 C816.69758,2785.19315 824.060454,2789.48492 829.142856,2795.99094 C824.431999,2798.23699 819.44605,2799.84136 814.315997,2800.7619 Z M814.666667,2803.72583 C820.220702,2802.73189 825.61345,2800.9654 830.692737,2798.47619 C833.946471,2803.46111 835.782945,2809.26125 836,2815.2381 L815.444526,2815.23808 C815.405816,2811.38856 815.146089,2807.54464 814.666669,2803.72585 L814.666667,2803.72582 Z" id="typescriptOpen"></path>
        </g>
    </g>
</svg>