<?xml version="1.0" standalone="no"?>
<!DOCTYPE svg PUBLIC "-//W3C//DTD SVG 20010904//EN"
 "http://www.w3.org/TR/2001/REC-SVG-20010904/DTD/svg10.dtd">
<svg version="1.0" xmlns="http://www.w3.org/2000/svg"
 width="260.000000pt" height="260.000000pt" viewBox="0 0 260.000000 260.000000"
 preserveAspectRatio="xMidYMid meet">
<metadata>
Created by potrace 1.11, written by Peter Selinger 2001-2013
</metadata>
<g transform="translate(0.000000,260.000000) scale(0.100000,-0.100000)"
fill="#000000" stroke="none">
<path d="M447 2584 c-190 -46 -349 -190 -417 -379 -23 -62 -25 -132 -25 -925
l0 -815 23 -65 c64 -177 195 -308 372 -371 l65 -24 810 -2 c888 -3 869 -4 996
57 159 75 278 226 314 397 22 102 21 1599 -1 1693 -50 213 -226 389 -435 435
-94 20 -1617 20 -1702 -1z"/>
</g>
</svg>
