<?xml version="1.0" encoding="UTF-8"?>
<svg width="35px" height="32px" viewBox="0 0 35 32" version="1.1" xmlns="http://www.w3.org/2000/svg" xmlns:xlink="http://www.w3.org/1999/xlink">
    <!-- Generator: sketchtool 53.1 (72631) - https://sketchapp.com -->
    <title>D2727667-1A94-43E0-ABA8-F53BFBB63EAD</title>
    <desc>Created with sketchtool.</desc>
    <g id="Hub" stroke="none" stroke-width="1" fill="none" fill-rule="evenodd">
        <g id="home" transform="translate(-446.000000, -745.000000)" fill="#0F82E2">
            <g id="Logos/Colorized/Dropbox" transform="translate(443.000000, 745.000000)">
                <path d="M20.0666629,18.5125648 L13.0405311,24.4236604 L3,17.8158823 L9.94293179,12.2122782 L20.0666629,18.5125577 L30.1901806,12.2113111 L37.1331124,17.8159889 L27.0925813,24.423767 L20.0664495,18.5126714 L20.0666629,18.5125648 Z M13.0407444,0 L3.00021333,6.60777809 L9.94314512,12.2113822 L20.0668762,5.91109558 L13.0407444,0 Z M20.0872495,19.7843156 L13.0408511,25.6782023 L10.0253851,23.6935058 L10.0253851,25.9179605 L20.0872495,32 L30.149114,25.9179605 L30.149114,23.6935058 L27.133648,25.6782023 L20.0872495,19.7843156 Z M37.1332902,6.60792742 L27.0927591,0.0001493333 L20.0666273,5.91124491 L30.1903584,12.2115315 L37.1332902,6.60792742 Z" id="Shape"></path>
            </g>
        </g>
    </g>
</svg>