<?xml version="1.0" encoding="UTF-8"?>
<svg width="33px" height="32px" viewBox="0 0 33 32" version="1.1" xmlns="http://www.w3.org/2000/svg" xmlns:xlink="http://www.w3.org/1999/xlink">
    <!-- Generator: sketchtool 53.1 (72631) - https://sketchapp.com -->
    <title>2BF124A2-757D-4762-95BA-C4F5B946DD2D</title>
    <desc>Created with sketchtool.</desc>
    <g id="Hub" stroke="none" stroke-width="1" fill="none" fill-rule="evenodd">
        <g id="home" transform="translate(-807.000000, -745.000000)" fill="#3E75C3">
            <g id="Logos/Colorized/Github" transform="translate(803.000000, 745.000000)">
                <path d="M20.3394036,2.72340414e-05 C11.3164253,2.72340414e-05 4,7.34443546 4,16.4062223 C4,23.6532008 8.68153174,29.8021027 15.1758294,31.9717026 C15.9928506,32.1224253 16.2910634,31.615915 16.2910634,31.1811801 C16.2910634,30.7915563 16.2767655,29.7600806 16.2685953,28.3912704 C11.7228933,29.3827597 10.7639146,26.1919513 10.7639146,26.1919513 C10.0214466,24.2971497 8.95012747,23.7926936 8.95012747,23.7926936 C7.46621263,22.7745421 9.06246789,22.7950493 9.06246789,22.7950493 C10.7016168,22.9109111 11.5645955,24.4858067 11.5645955,24.4858067 C13.0229784,26.9927275 15.3892762,26.2688467 16.3206804,25.848462 C16.4687655,24.7882748 16.891574,24.0654221 17.3582974,23.655291 C13.7297018,23.2410599 9.91523382,21.8343141 9.91523382,15.5480573 C9.91523382,13.7568131 10.5514891,12.2926497 11.5972763,11.1453136 C11.4287657,10.7300571 10.8680848,9.06287625 11.7565954,6.80408485 C11.7565954,6.80408485 13.1291911,6.36319567 16.2502123,8.4856167 C17.5543825,8.12162624 18.9514888,7.94014404 20.3414462,7.9329665 C21.729361,7.94014404 23.1274886,8.12162624 24.4326801,8.4856167 C27.5516587,6.36319295 28.9211905,6.80408485 28.9211905,6.80408485 C29.812765,9.06287625 29.2520841,10.7300558 29.0835735,11.1453136 C30.1314033,12.2926497 30.7635734,13.7568131 30.7635734,15.5480573 C30.7635734,21.8497013 26.9429778,23.2369761 23.3031482,23.6429676 C23.8893609,24.1494779 24.4122545,25.1501948 24.4122545,26.6810066 C24.4122545,28.8741776 24.391829,30.6428652 24.391829,31.1811597 C24.391829,31.6199988 24.6859567,32.1306132 25.5152332,31.9696328 C32.0034032,29.795941 36.6808498,23.6511991 36.6808498,16.4061951 C36.6808498,7.34434014 29.3644246,0 20.3394036,0" id="Path"></path>
            </g>
        </g>
    </g>
</svg>