<?xml version="1.0" encoding="UTF-8"?>
<svg width="32px" height="32px" viewBox="0 0 32 32" version="1.1" xmlns="http://www.w3.org/2000/svg" xmlns:xlink="http://www.w3.org/1999/xlink">
    <!-- Generator: sketchtool 53.1 (72631) - https://sketchapp.com -->
    <title>665AB6D7-DCE6-461C-B6E3-6436364FD72D</title>
    <desc>Created with sketchtool.</desc>
    <g id="Hub" stroke="none" stroke-width="1" fill="none" fill-rule="evenodd">
        <g id="home" transform="translate(-567.000000, -745.000000)" fill="#CF272D">
            <g id="Logos/Colorized/Twilio" transform="translate(563.000000, 745.000000)">
                <g id="twilio" transform="translate(4.000000, 0.000000)">
                    <path d="M15.9825,27.788 C9.481875,27.788 4.212,22.518125 4.212,16.017625 C4.212,9.517 9.481875,4.24725 15.9825,4.24725 C22.483,4.24725 27.75275,9.517 27.75275,16.017625 C27.75275,22.518125 22.483,27.788 15.9825,27.788 L15.9825,27.788 Z M15.9825,0.035125 C7.155625,0.035125 0,7.190875 0,16.017625 C0,24.8445 7.155625,32 15.9825,32 C24.80925,32 31.964875,24.8445 31.964875,16.017625 C31.964875,7.190875 24.80925,0.035125 15.982375,0.035125 L15.9825,0.035125 Z" id="Shape" fill-rule="nonzero"></path>
                    <path d="M16.6395,12.037125 C16.6395,10.201875 18.127375,8.714 19.96275,8.714 C21.798125,8.714 23.285875,10.201875 23.285875,12.037125 C23.285875,13.872625 21.798125,15.360375 19.96275,15.360375 C18.127375,15.360375 16.6395,13.872625 16.6395,12.037125 M16.6395,19.997875 C16.6395,18.162625 18.127375,16.674625 19.96275,16.674625 C21.798125,16.674625 23.285875,18.162625 23.285875,19.997875 C23.285875,21.83325 21.798125,23.321125 19.96275,23.321125 C18.127375,23.321125 16.6395,21.83325 16.6395,19.997875 M8.678875,19.997875 C8.678875,18.162625 10.166875,16.674625 12.002125,16.674625 C13.8375,16.674625 15.325375,18.162625 15.325375,19.997875 C15.325375,21.83325 13.8375,23.321125 12.002125,23.321125 C10.166875,23.321125 8.678875,21.83325 8.678875,19.997875 M8.678875,12.03725 C8.678875,10.201875 10.166875,8.714125 12.002125,8.714125 C13.8375,8.714125 15.325375,10.201875 15.325375,12.03725 C15.325375,13.87275 13.8375,15.3605 12.002125,15.3605 C10.166875,15.3605 8.678875,13.87275 8.678875,12.03725" id="Shape" fill-rule="nonzero"></path>
                </g>
            </g>
        </g>
    </g>
</svg>