<?xml version="1.0" encoding="UTF-8"?>
<svg width="45px" height="32px" viewBox="0 0 45 32" version="1.1" xmlns="http://www.w3.org/2000/svg" xmlns:xlink="http://www.w3.org/1999/xlink">
    <!-- Generator: sketchtool 53.1 (72631) - https://sketchapp.com -->
    <title>697A733B-C40F-4877-89C9-7FE4209948CD</title>
    <desc>Created with sketchtool.</desc>
    <g id="Hub" stroke="none" stroke-width="1" fill="none" fill-rule="evenodd">
        <g id="home" transform="translate(-923.000000, -745.000000)" fill="#03363D">
            <g id="Logos/Colorized/Zendesk" transform="translate(923.000000, 745.000000)">
                <g id="Zendesk_logo_RGB" transform="translate(0.000000, 0.000000)">
                    <g id="Group" transform="translate(9.846154, 0.000000)" fill-rule="nonzero">
                        <polygon id="Path" points="11.5446154 4.98461538 11.5446154 18.88 0.0369230769 18.88"></polygon>
                        <path d="M11.5446154,0 C11.5446154,3.17538462 8.97230769,5.74769231 5.79692308,5.74769231 C2.62153846,5.74769231 0.0369230769,3.17538462 0.0369230769,0 L11.5446154,0 Z" id="Path"></path>
                        <path d="M13.44,18.88 C13.44,15.7046154 16.0123077,13.1323077 19.1876923,13.1323077 C22.3630769,13.1323077 24.9353846,15.7046154 24.9353846,18.88 L13.44,18.88 Z" id="Path"></path>
                        <polygon id="Path" points="13.44 13.8953846 13.44 0 24.9476923 0"></polygon>
                    </g>
                    <g id="Group" transform="translate(0.000000, 23.261538)" fill-rule="nonzero">
                        <path d="M29.7230769,7.49538462 C30.4615385,7.49538462 30.9907692,7.18769231 31.3107692,6.88 L32.0984615,7.72923077 C31.5815385,8.27076923 30.8553846,8.66461538 29.7230769,8.66461538 C27.7907692,8.66461538 26.5476923,7.38461538 26.5476923,5.64923077 C26.5476923,3.92615385 27.8646154,2.63384615 29.5507692,2.63384615 C31.4707692,2.63384615 32.5538462,4.08615385 32.4553846,6.11692308 L27.9384615,6.11692308 C28.0984615,6.96615385 28.6892308,7.49538462 29.7230769,7.49538462 L29.7230769,7.49538462 Z M31.1015385,5.15692308 C30.9784615,4.36923077 30.5107692,3.79076923 29.5753846,3.79076923 C28.7015385,3.79076923 28.0984615,4.28307692 27.9384615,5.15692308 L31.1015385,5.15692308 Z" id="Shape"></path>
                        <polygon id="Path" points="0 7.43384615 3.48307692 3.88923077 0.0861538462 3.88923077 0.0861538462 2.78153846 5.09538462 2.78153846 5.09538462 3.91384615 1.61230769 7.45846154 5.14461538 7.45846154 5.14461538 8.56615385 0 8.56615385"></polygon>
                        <path d="M9.05846154,7.49538462 C9.79692308,7.49538462 10.3261538,7.18769231 10.6461538,6.88 L11.4338462,7.72923077 C10.9169231,8.27076923 10.1907692,8.66461538 9.05846154,8.66461538 C7.12615385,8.66461538 5.88307692,7.38461538 5.88307692,5.64923077 C5.88307692,3.92615385 7.2,2.63384615 8.88615385,2.63384615 C10.8061538,2.63384615 11.8892308,4.08615385 11.7907692,6.11692308 L7.27384615,6.11692308 C7.43384615,6.96615385 8.02461538,7.49538462 9.05846154,7.49538462 L9.05846154,7.49538462 Z M10.4369231,5.15692308 C10.3138462,4.36923077 9.84615385,3.79076923 8.91076923,3.79076923 C8.03692308,3.79076923 7.43384615,4.28307692 7.27384615,5.15692308 L10.4369231,5.15692308 Z" id="Shape"></path>
                        <path d="M19.3230769,5.66153846 C19.3230769,3.81538462 20.7015385,2.65846154 22.2276923,2.65846154 C22.9907692,2.65846154 23.7292308,2.99076923 24.16,3.53230769 L24.16,0.123076923 L25.3907692,0.123076923 L25.3907692,8.56615385 L24.16,8.56615385 L24.16,7.75384615 C23.7169231,8.32 22.9907692,8.66461538 22.2153846,8.66461538 C20.7384615,8.66461538 19.3230769,7.49538462 19.3230769,5.66153846 M24.2215385,5.64923077 C24.2215385,4.61538462 23.4461538,3.77846154 22.3876923,3.77846154 C21.3538462,3.77846154 20.5538462,4.60307692 20.5538462,5.64923077 C20.5538462,6.69538462 21.3538462,7.53230769 22.3876923,7.53230769 C23.4461538,7.53230769 24.2215385,6.68307692 24.2215385,5.64923077" id="Shape"></path>
                        <path d="M33.2676923,7.32307692 L34.3876923,6.74461538 C34.7076923,7.27384615 35.2123077,7.59384615 35.8769231,7.59384615 C36.5784615,7.59384615 36.9353846,7.23692308 36.9353846,6.83076923 C36.9353846,6.36307692 36.2584615,6.26461538 35.5323077,6.11692308 C34.5476923,5.90769231 33.5261538,5.58769231 33.5261538,4.39384615 C33.5261538,3.48307692 34.4,2.63384615 35.7661538,2.64615385 C36.8492308,2.64615385 37.6492308,3.07692308 38.1046154,3.76615385 L37.0707692,4.33230769 C36.8,3.92615385 36.3569231,3.66769231 35.7661538,3.66769231 C35.1015385,3.66769231 34.7692308,3.98769231 34.7692308,4.35692308 C34.7692308,4.77538462 35.2984615,4.88615385 36.1353846,5.07076923 C37.0830769,5.28 38.1661538,5.58769231 38.1661538,6.79384615 C38.1661538,7.59384615 37.4646154,8.66461538 35.8153846,8.65230769 C34.6092308,8.66461538 33.76,8.18461538 33.2676923,7.32307692" id="Path"></path>
                        <polygon id="Path" points="41.5015385 5.98153846 40.5292308 7.05230769 40.5292308 8.55384615 39.2984615 8.55384615 39.2984615 0.110769231 40.5292308 0.110769231 40.5292308 5.63692308 43.1384615 2.76923077 44.64 2.76923077 42.3753846 5.24307692 44.7015385 8.55384615 43.2984615 8.55384615"></polygon>
                        <path d="M15.6061538,2.64615385 C14.1415385,2.64615385 12.9230769,3.59384615 12.9230769,5.16923077 L12.9230769,8.55384615 L14.1784615,8.55384615 L14.1784615,5.32923077 C14.1784615,4.38153846 14.72,3.81538462 15.6553846,3.81538462 C16.5907692,3.81538462 17.0461538,4.38153846 17.0461538,5.32923077 L17.0461538,8.55384615 L18.3015385,8.55384615 L18.3015385,5.16923077 C18.2892308,3.59384615 17.0707692,2.64615385 15.6061538,2.64615385" id="Path"></path>
                    </g>
                </g>
            </g>
        </g>
    </g>
</svg>