<svg xmlns="http://www.w3.org/2000/svg" width="574" height="661" viewBox="0 0 574 661">
    <g fill="none" fill-rule="nonzero">
        <path fill="#FBFCFF" d="M199.434 588.536C140.508 478.545 46.277 433.156 19.662 356.76-3.001 291.708-24.752 223.51 74.455 111.958 173.663.407 328.32-11.542 387.753 8.79c59.433 20.333 63.76 188.618 69.042 233.972 11.077 95.113 95.933 273.914 113.457 323.258 38.819 109.31-311.893 132.507-370.818 22.516z"/>
        <path fill="#E7ECFF" d="M243.68 460.132c-34.983-65.806-90.604-93.133-106.47-138.804-13.51-38.89-26.492-79.656 31.673-146.004 58.166-66.347 149.24-73.099 184.3-60.814 35.06 12.284 38.025 112.754 41.248 139.842 6.76 56.807 57.187 163.753 67.63 193.253 23.137 65.35-183.399 78.332-218.381 12.527z"/>
    </g>
</svg>
