<svg xmlns="http://www.w3.org/2000/svg" xmlns:xlink="http://www.w3.org/1999/xlink" width="574" height="661" viewBox="0 0 574 661">
    <defs>
        <path id="a" d="M1.524 40.602L70.419.192c.933-.545 2.096.135 2.096 1.226v52.75c0 1.1-.581 2.12-1.515 2.667L2.097 97.245C1.163 97.79 0 97.11 0 96.019v-52.75c0-1.1.581-2.12 1.524-2.667"/>
        <path id="c" d="M47.989 40.692c-.439 0-.877-.044-1.298-.141a5.966 5.966 0 0 1-1.324-.484c-.072-.035-.135-.07-.206-.106L1.137 15.204l-.09-.052a2.032 2.032 0 0 1-.367-.29 1.679 1.679 0 0 1-.304-.37 2.839 2.839 0 0 1-.17-.326 1.32 1.32 0 0 1-.08-.247 1.158 1.158 0 0 1-.045-.167c-.01-.035-.018-.07-.027-.106 0-.026-.01-.044-.01-.062 0-.017-.008-.035-.008-.052 0-.018-.01-.036-.01-.053v-.044c-.008-.018-.008-.035-.008-.053 0-.018 0-.035-.01-.053v-.053c0-.017 0-.035-.008-.052v-.053-.053-.053-.053-.053-.052-.053-.053-.062c0-.017.009-.035.009-.053v-.052c.063-.82.322-1.48.322-1.48-.036.511.197 1.04.716 1.33l44.114 24.8a5.776 5.776 0 0 0 5.674-.009l49.26-27.978 1.261.211c.824.132 1.647.247 2.47.344L50.836 39.944a3.86 3.86 0 0 1-.331.167c-.376.185-.77.326-1.164.422-.411.097-.832.15-1.253.159h-.098m68.376-39.583c-.51-.044-1.029-.105-1.557-.167L116.464 0c-.045.37-.072.74-.099 1.11"/>
    </defs>
    <g fill="none" fill-rule="evenodd">
        <g fill-rule="nonzero">
            <path fill="#FBFCFF" d="M199.434 588.536C140.508 478.545 46.277 433.156 19.662 356.76-3.001 291.708-24.752 223.51 74.455 111.958 173.663.407 328.32-11.542 387.753 8.79c59.433 20.333 63.76 188.618 69.042 233.972 11.077 95.113 95.933 273.914 113.457 323.258 38.819 109.31-311.893 132.507-370.818 22.516z"/>
            <path fill="#E7ECFF" d="M243.68 460.132c-34.983-65.806-90.604-93.133-106.47-138.804-13.51-38.89-26.492-79.656 31.673-146.004 58.166-66.347 149.24-73.099 184.3-60.814 35.06 12.284 38.025 112.754 41.248 139.842 6.76 56.807 57.187 163.753 67.63 193.253 23.137 65.35-183.399 78.332-218.381 12.527z"/>
        </g>
        <g transform="translate(195 171)">
            <mask id="b" fill="#fff">
                <use xlink:href="#a"/>
            </mask>
            <path d="M1.524 40.602L70.419.192c.933-.545 2.096.135 2.096 1.226v52.75c0 1.1-.581 2.12-1.515 2.667L2.097 97.245C1.163 97.79 0 97.11 0 96.019v-52.75c0-1.1.581-2.12 1.524-2.667" mask="url(#b)"/>
        </g>
        <path fill="#030D36" d="M198.534 213.42l69.355-40.228c.94-.544 2.111.133 2.111 1.22v52.513a3.07 3.07 0 0 1-1.525 2.655l-69.364 40.228a1.406 1.406 0 0 1-2.111-1.22v-52.513a3.07 3.07 0 0 1 1.534-2.655"/>
        <path fill="#D3D9E5" d="M200 216.465L267 178v48.535L200 265v-48.535"/>
        <g transform="translate(198 259)">
            <mask id="d" fill="#fff">
                <use xlink:href="#c"/>
            </mask>
            <path d="M47.989 40.692c-.439 0-.877-.044-1.298-.141a5.966 5.966 0 0 1-1.324-.484c-.072-.035-.135-.07-.206-.106L1.137 15.204l-.09-.052a2.032 2.032 0 0 1-.367-.29 1.679 1.679 0 0 1-.304-.37 2.839 2.839 0 0 1-.17-.326 1.32 1.32 0 0 1-.08-.247 1.158 1.158 0 0 1-.045-.167c-.01-.035-.018-.07-.027-.106 0-.026-.01-.044-.01-.062 0-.017-.008-.035-.008-.052 0-.018-.01-.036-.01-.053v-.044c-.008-.018-.008-.035-.008-.053 0-.018 0-.035-.01-.053v-.053c0-.017 0-.035-.008-.052v-.053-.053-.053-.053-.053-.052-.053-.053-.062c0-.017.009-.035.009-.053v-.052c.063-.82.322-1.48.322-1.48-.036.511.197 1.04.716 1.33l44.114 24.8a5.776 5.776 0 0 0 5.674-.009l49.26-27.978 1.261.211c.824.132 1.647.247 2.47.344L50.836 39.944a3.86 3.86 0 0 1-.331.167c-.376.185-.77.326-1.164.422-.411.097-.832.15-1.253.159h-.098m68.376-39.583c-.51-.044-1.029-.105-1.557-.167L116.464 0c-.045.37-.072.74-.099 1.11" mask="url(#d)"/>
        </g>
        <path fill="#030D36" d="M272.753 228.751l44.518 25.27c.966.547.975 1.928.009 2.484l-69.31 39.734a5.795 5.795 0 0 1-5.726.009l-44.518-25.261a1.438 1.438 0 0 1-.01-2.493l69.32-39.725a5.756 5.756 0 0 1 5.717-.018"/>
        <path fill="#50597E" d="M278.077 262l11.914 6.358.009.625-18.554 10.008-1.532.009L258 272.634v-.626L276.545 262h1.532M269.64 232.36l-3.4 1.96v.352l1.688.968h.44l3.392-1.96v-.352l-1.688-.968h-.432M262.64 237.356l-3.4 1.96v.352l1.688.976h.44l3.392-1.96v-.352l-1.688-.976h-.432M256.636 238.356l-3.4 1.96v.352l1.688.976h.44l3.4-1.968v-.344l-1.688-.976h-.44M251.64 242.36l-3.4 1.96v.352l1.688.968h.44l3.392-1.96v-.352l-1.688-.968h-.432M244.64 245.356l-3.4 1.96v.352l1.688.976.44-.008 3.392-1.96v-.352l-1.688-.968h-.432M241.64 249.36l-3.4 1.96v.352l1.688.968h.44l3.392-1.96v-.352l-1.688-.968h-.432M234.64 252.36l-3.4 1.96v.352l1.688.968h.44l3.392-1.96v-.352l-1.688-.968h-.432M229.636 255.36l-3.4 1.96v.352l1.688.968h.44l3.4-1.96-.008-.352-1.68-.968h-.44M223.632 257.356l-3.392 1.968v.344l1.688.976h.432l3.4-1.968v-.344l-1.688-.976h-.44M216.636 262.36l-3.4 1.96v.352l1.688.968h.44l3.4-1.96v-.352l-1.688-.968h-.44"/>
        <path fill="#50597E" d="M212.636 264.36l-3.4 1.96v.352l1.688.968h.44l3.4-1.96v-.352l-1.688-.968h-.44M275.768 238.6l-2.304-1.352h-.968l-2.248 1.296-.016.824 2.24 1.368.984.016 2.304-1.328.008-.824M268.764 239.592l-2.296-1.344h-.968l-2.248 1.296-.016.824 2.24 1.368.984.016 2.304-1.328v-.832M264.764 243.596l-2.304-1.344-.968-.008-2.248 1.304-.008.824 2.232 1.368.984.016 2.312-1.328v-.832M258.768 246.6l-2.304-1.352h-.968l-2.248 1.296-.016.824 2.24 1.376.984.008 2.304-1.328.008-.824M253.764 250.596l-2.296-1.344-.968-.008-2.248 1.304-.016.816 2.24 1.376.984.016 2.304-1.328v-.832M246.764 253.6l-2.304-1.344-.968-.008-2.248 1.296-.008.824 2.232 1.376.984.008 2.304-1.328.008-.824M243.764 256.6l-2.296-1.352h-.968l-2.248 1.296-.016.824 2.24 1.376.984.008 2.304-1.328v-.824M236.764 258.6l-2.304-1.352h-.968l-2.248 1.296-.008.824 2.232 1.376.984.008 2.304-1.328.008-.824M229.764 263.592l-2.304-1.344h-.968l-2.248 1.296-.008.824 2.24 1.368.984.016 2.304-1.328v-.832M225.764 265.592l-2.304-1.344h-.968l-2.248 1.296-.008.824 2.232 1.368.984.016 2.312-1.328v-.832M218.764 270.6l-2.304-1.352h-.968l-2.248 1.296-.008.824 2.232 1.368.984.016 2.304-1.328.008-.824M281.764 239.596l-2.304-1.344-.968-.008-2.248 1.304-.008.816 2.232 1.376.984.016 2.304-1.328.008-.832M275.764 243.6l-2.296-1.352h-.968l-2.248 1.296-.016.824 2.24 1.376.984.008 2.304-1.328v-.824M271.764 246.6l-2.304-1.352h-.968l-2.248 1.296-.008.824 2.232 1.376.984.008 2.312-1.328v-.824M264.764 250.596l-2.304-1.344-.968-.008-2.248 1.304-.008.824 2.232 1.368.984.016 2.304-1.328.008-.832M258.764 253.6l-2.296-1.352h-.968l-2.248 1.296-.016.824 2.24 1.376.984.008 2.304-1.328v-.824M253.764 256.592l-2.304-1.344h-.968l-2.248 1.296-.008.824 2.232 1.368.984.016 2.312-1.328v-.832"/>
        <path fill="#50597E" d="M246.764 258.596l-2.296-1.344-.968-.008-2.248 1.304-.016.824 2.24 1.368.984.016 2.304-1.328v-.832M243.764 263.592l-2.304-1.344h-.968l-2.248 1.296-.008.824 2.232 1.368.984.016 2.304-1.328.008-.832M236.764 265.596l-2.296-1.344-.968-.008-2.248 1.296-.016.824 2.24 1.376.984.016 2.304-1.328v-.832M229.764 270.6l-2.304-1.352h-.968l-2.248 1.296-.008.824 2.232 1.376.984.008 2.312-1.328v-.824M225.764 272.596l-2.304-1.344-.968-.008-2.248 1.304-.008.824 2.232 1.368.984.016 2.304-1.328.008-.832M286.764 243.6l-2.304-1.352h-.968l-2.248 1.296-.008.824 2.232 1.376.984.008 2.304-1.328.008-.824M281.768 246.6l-2.304-1.352h-.968l-2.248 1.296-.016.824 2.24 1.368.984.016 2.304-1.328.008-.824M275.764 250.592l-2.304-1.344h-.968l-2.248 1.296-.008.824 2.232 1.368.984.016 2.312-1.328v-.832M268.764 253.6l-2.304-1.352h-.968l-2.248 1.296-.008.824 2.232 1.376.984.008 2.304-1.328.008-.824M264.768 256.592l-2.304-1.344h-.968l-2.248 1.296-.016.824 2.24 1.368.984.016 2.304-1.328.008-.832M260.764 258.596l-2.304-1.344-.968-.008-2.248 1.304-.008.816 2.232 1.376.984.016 2.312-1.328v-.832M253.768 263.6l-2.304-1.352h-.968l-2.248 1.296-.016.824 2.24 1.376.984.008 2.304-1.328.008-.824"/>
        <path fill="#50597E" d="M246.764 265.596l-2.304-1.352h-.968l-2.248 1.296-.008.824 2.232 1.376.984.016 2.304-1.328.008-.832M243.764 270.6l-2.296-1.352h-.968l-2.248 1.296-.016.824 2.24 1.368.984.016 2.304-1.328v-.824M236.764 272.6l-2.304-1.352h-.968l-2.248 1.296-.008.824 2.232 1.368.984.016 2.312-1.328v-.824M229.764 276.6l-2.304-1.352h-.968l-2.248 1.296-.008.824 2.232 1.376.984.008 2.304-1.328.008-.824M293.764 246.592l-2.304-1.344h-.968l-2.248 1.296-.008.824 2.232 1.368.984.016 2.304-1.328.008-.832M286.768 250.596l-2.304-1.344-.968-.008-2.248 1.304-.016.816 2.24 1.376.984.016 2.304-1.328.008-.832M281.764 253.596l-2.304-1.344-.968-.008-2.248 1.296-.008.824 2.232 1.376.984.016 2.312-1.328v-.832M275.764 256.592l-2.304-1.344h-.968l-2.248 1.296-.008.824 2.232 1.368.984.016 2.304-1.328.008-.832M270 259.508l-2.614-1.5-1.098-.008-13.279 7.538-.009.919 2.532 1.534 1.117.009 13.342-7.565.009-.927M253.764 268.6l-2.304-1.352h-.968l-2.248 1.296-.008.824 2.232 1.368.984.016 2.304-1.328.008-.824"/>
        <path fill="#50597E" d="M246.764 272.596l-2.296-1.344-.968-.008-2.248 1.304-.016.816 2.24 1.376.984.016 2.304-1.328v-.832M243.764 276.596l-2.304-1.344-.968-.008-2.248 1.296-.008.824 2.24 1.376.976.016 2.312-1.328v-.832M236.764 278.592l-2.304-1.344h-.968l-2.248 1.296-.008.824 2.232 1.368.984.016 2.304-1.328.008-.832"/>
        <path fill="#202D60" d="M267 178.567l-.976-.567-65.039 37.398-.985 1.683v47.352l.985.567 65.039-37.398.976-1.692v-47.343"/>
        <path fill="#3D59C8" d="M244 202l-37 20.727V225l37-20.678zM247 195l-41 22.751V220l41-22.751V195M247 205l-41 22.751V230l41-22.751V205M235 216l-28 15.774V234l28-15.75zM235 230l-28 15.774V248l28-15.75zM247 214l-41 22.751V239l41-22.751V214M247 219l-41 22.751V244l41-22.751V219M247 228l-41 22.751V253l41-22.751V228"/>
        <path fill="#EBACAC" d="M295.846 263.944c.393.808.009 1.768-.863 2.136l-6.552 2.776c-.863.368-1.888.008-2.28-.8-.385-.816-.01-1.768.862-2.136l6.552-2.776c.863-.368 1.888-.008 2.281.8"/>
        <path fill="#EBACAC" d="M304.222 269.02a46.587 46.587 0 0 1-3.39-.47l-12.368-2.22c-2.914-.527-4.882-3.461-4.388-6.565.494-3.113 3.214-5.2 6.162-4.683l12.368 2.22c15.035 2.698 22.124 6.065 29.319-8.286 1.386-2.774 4.626-3.828 7.24-2.342 2.612 1.486 3.592 4.938 2.206 7.712-8.82 17.605-18.733 16.467-37.149 14.633"/>
        <path fill="#42425A" d="M318.3 427.467l2.83-.84c4.593-1.36 9.544-.482 13.44 2.38l2.939-2.238 3.004 7.109L355 432.613l-3.16 13.218-1.635 1.775-5.953 1.793c-4.961 1.492-10.326.16-14.065-3.502l-13.2-12.926c-1.774-1.737-1.048-4.805 1.313-5.504"/>
        <path fill="#FFFFFE" d="M317.493 429.385l2.738-.793a15.12 15.12 0 0 1 13.002 2.246l2.845-2.112 2.906 6.711L353 434.243l-1.582 6.48a8.28 8.28 0 0 1-5.715 5.98l-2.453.732c-4.8 1.408-9.99.142-13.607-3.316l-12.772-12.194-.871-1.56 1.493-.98"/>
        <path fill="#42425A" d="M336.707 432.867c-2.82-2.554-2.068-5.48 1.683-6.51 3.751-1.02 9.109.22 11.912 2.773 2.81 2.545 2.05 5.48-1.675 6.509-3.734 1.03-9.092-.219-11.92-2.772"/>
        <path fill="#EBACAC" d="M345.996 434c2.213 0 4.004-2.141 4.004-4.778v-18.434c0-2.647-1.79-4.788-4.004-4.788-2.205 0-3.996 2.141-3.996 4.788v18.434c0 2.637 1.79 4.778 3.996 4.778"/>
        <path fill="#FFFFFE" d="M344.518 427.366h.338c4.133-.189 7.324 1.69 7.132-2.365l-2.02-46.803 2.029-70.631c.119-4.065-3.136-7.445-7.269-7.562-4.105-.144-9.6 3.084-9.719 7.14l-.009 71.18.01.269 2.038 47.073c.183 3.938 3.493 1.7 7.47 1.7"/>
        <path fill="#42425A" d="M298.539 446.298l2.458-1.478c3.997-2.416 8.817-2.77 13.097-.966l2.255-2.854 4.386 6.08L334 442.375v13.404c0 .864-.433 1.664-1.14 2.091l-5.165 3.151c-4.307 2.622-9.613 2.64-13.928.038l-15.228-9.184c-2.052-1.237-2.052-4.341 0-5.578"/>
        <path fill="#FFFFFE" d="M298.214 446.535l2.48-1.544c4.034-2.525 8.898-2.894 13.217-1.01l2.276-2.981 4.427 6.35L334 442.437v7.273c0 3.223-1.58 6.195-4.14 7.816l-2.223 1.408c-4.346 2.738-9.7 2.758-14.056.039l-15.367-9.593-1.214-1.418 1.214-1.427"/>
        <path fill="#42425A" d="M318.49 446.541c-3.32-1.944-3.32-5.131 0-7.076 3.32-1.953 8.737-1.953 12.032 0 3.304 1.945 3.304 5.132 0 7.076-3.295 1.945-8.711 1.945-12.032 0"/>
        <path fill="#EBACAC" d="M324.004 446c2.205 0 3.996-2.141 3.996-4.778v-18.444c0-2.637-1.79-4.778-3.996-4.778-2.213 0-4.004 2.141-4.004 4.778v18.444c0 2.637 1.79 4.778 4.004 4.778"/>
        <path fill="#FFFFFE" d="M325.089 440.864l.596-.027c3.945-.332 6.881.098 6.557-3.931l-3.866-53.474 15.621-69.251c.245-4.03-14.499-1.19-18.452-1.45-3.945-.251-7.355 2.811-7.6 6.85L314 383.574l3.953 54.53c.307 3.824 3.445 2.759 7.136 2.759"/>
        <path fill="#FFC400" d="M338.7 228.178l-9.417 5.558C319.203 239.693 313 250.693 313 262.597v66.177c9.221 6.6 34.044-2.598 39-12.945l-1.478-14.485a103.332 103.332 0 0 1-.832-17.346l1.744-47.98c.247-6.826-6.947-11.253-12.735-7.84"/>
        <path fill="#EBACAC" d="M271.776 283.664l-2.28.048-3.224-3.096-.048-2.28 2.28-.048 3.224 3.096.048 2.28"/>
        <path fill="#846708" d="M313 290v-19.176c1.732-2.724 3.121-5.684 4.044-8.86l4.606-7.512c.894-3.05 2.455-6.452 5.348-6.452.342 0 .694.045 1.065.145 3.588.95 5.681 4.48 4.692 7.882l-2.731 9.367C327.112 275.339 321.03 283.828 313 290"/>
        <path fill="#EBACAC" d="M336.004 242c-1.992 0-3.608-1.914-3.608-4.273V218h7.208v19.727c0 2.36-1.616 4.273-3.6 4.273"/>
        <path fill="#EBACAC" d="M344 230c-13.253 0-24-10.97-24-24.507V195h24v35"/>
        <path fill="#030D36" d="M352.824 213.175a54.81 54.81 0 0 1-.046-2.731c.055-3.53.353-7.08-.171-10.601-.661-4.403-2.905-8.922-6.995-10.754-2.443-1.097-5.23-1.097-7.917-1.088l-16.396.108c-2.388.018-5.03.09-7.085 1.474-3.863 2.596-1.963 7.546.353 10.502 1.249 1.59 2.832 3.073 4.67 3.953 1.782.836 4.795.135 5.944 1.923 1.593 2.461-1.42 10.332 2.045 11.284 2.678.746 2.325-2.013 2.75-3.549.263-.961.996-1.931 2-1.976 1.267-.054 2.1 1.32 2.335 2.551.47 2.435-.254 4.923-.561 7.385-.308 2.462-.064 5.274 1.819 6.909.67.593 1.502.97 2.343 1.276 2.48.898 7.013 1.985 9.293.197 3.239-2.524 5.311-5.112 5.691-9.307.226-2.516.027-5.04-.072-7.556"/>
        <path fill="#EBACAC" d="M286.04 292c-1.147 0-2.294-.045-3.44-.125l-19.474-.973c-2.978-.152-5.262-2.696-5.12-5.677.151-2.99 2.72-5.312 5.653-5.142l19.607.982c15.475 1.125 29.749-7.668 35.686-21.906l3.689-8.837a5.376 5.376 0 0 1 7.048-2.902 5.422 5.422 0 0 1 2.889 7.088l-3.68 8.838C321.61 280.815 304.66 292 286.039 292"/>
        <path fill="#FFC400" d="M312 269.31a35.44 35.44 0 0 0 5.883-9.448l3.768-8.944c1.371-3.25 5.12-4.783 8.408-3.42 3.268 1.362 4.812 5.108 3.44 8.357l-3.767 8.934A48.061 48.061 0 0 1 322.287 277L312 269.31"/>
        <path fill="#030D36" d="M331.975 225.412c-.79-.906-1.82-1.727-2.116-2.855l.047-2.12.306-1.804-.02-1.846-1.563-1.41-2.222-.377-.257.06-.076.24c0 .931.38 1.829.114 2.752-.305 1.034-2.403 2.505-3.356 1.222l-.286-.461-1.66-.727-.695.128-.191.539.21.573c.448 1.051.505 2.333.476 3.445-.066 2.556 2.785 5.112 5.063 6.334 1.831.975 4.272 1.283 6.074.265l.896-.769c.658-.992.057-2.283-.744-3.189"/>
    </g>
</svg>
