<?xml version="1.0" encoding="UTF-8"?>
<svg width="32px" height="32px" viewBox="0 0 32 32" version="1.1" xmlns="http://www.w3.org/2000/svg" xmlns:xlink="http://www.w3.org/1999/xlink">
    <!-- Generator: sketchtool 53 (72520) - https://sketchapp.com -->
    <title>B94835DC-30FF-486A-8633-4925ED8B9B23</title>
    <desc>Created with sketchtool.</desc>
    <defs>
        <path d="M22.8571425,7.61904768 C23.6987196,7.61904768 24.380952,8.30128005 24.380952,9.14285718 L24.380952,22.8571426 C24.380952,23.6987197 23.6987196,24.3809521 22.8571426,24.3809521 L9.14285715,24.3809521 C8.30128002,24.3809521 7.61904778,23.6987197 7.61904765,22.8571424 L7.61904765,9.14285695 C7.61904765,8.30127982 8.30128002,7.61904749 9.14285721,7.61904745 L22.8571426,7.61904745 Z M22.8571426,22.8571424 L22.8571426,9.14285695 L9.14285721,9.14285695 L9.14285721,22.8571424 L22.8571426,22.8571424 Z M31.2380948,16.7619044 L28.9523802,16.7619051 L28.9523802,22.8571431 L31.2380944,22.8571431 C31.6588822,22.8571431 31.9999992,23.19826 31.9999992,23.6190478 C31.9999992,24.0398356 31.6588822,24.3809526 31.2380945,24.3809525 L28.9523802,24.3809525 L28.9523802,26.6666668 C28.9523802,27.9290317 27.9290309,28.9523811 26.6666661,28.952381 L24.3809519,28.952381 L24.3809519,31.2380953 C24.3809519,31.6588831 24.0398349,31.9999999 23.6190471,32 C23.1982593,32 22.8571424,31.6588831 22.8571424,31.2380951 L22.8571424,28.9523809 L16.7619044,28.9523809 L16.7619044,31.2380951 C16.7619044,31.6588829 16.4207875,31.9999998 15.9999997,31.9999999 C15.5792119,31.9999999 15.238095,31.6588829 15.2380949,31.238095 L15.2380949,28.9523808 L9.14285695,28.9523808 L9.14285695,31.238095 C9.14285695,31.6588828 8.80174,31.9999997 8.3809522,31.9999998 C7.9601644,31.9999998 7.61904752,31.6588828 7.61904745,31.2380949 L7.61904745,28.9523807 L5.33333322,28.9523807 C4.07096829,28.9523807 3.04761917,27.9290314 3.04761898,26.6666661 L3.04761898,24.3809519 L0.761904745,24.3809519 C0.341116945,24.3809519 1.83923055e-08,24.0398349 -9.8943076e-13,23.6190471 C-9.8943076e-13,23.1982593 0.341116945,22.8571424 0.761904779,22.8571424 L3.04761902,22.8571424 L3.04761902,16.7619044 L0.761904779,16.7619044 C0.341116978,16.7619044 5.16962285e-08,16.4207875 3.33029335e-08,15.9999997 C3.33029335e-08,15.5792119 0.341116978,15.2380949 0.761904812,15.2380949 L3.04761905,15.2380949 L3.04761905,9.14285695 L0.761904812,9.14285695 C0.341117012,9.14285695 8.50001515e-08,8.80174 6.66068565e-08,8.3809522 C6.66068565e-08,7.9601644 0.341117012,7.61904747 0.761904845,7.61904745 L3.04761908,7.61904745 L3.04761908,5.33333322 C3.04761908,4.07096829 4.07096839,3.04761904 5.33333342,3.04761898 L7.61904765,3.04761898 L7.61904765,0.761904745 C7.61904765,0.341116945 7.9601646,-1.13686838e-13 8.3809524,-1.13686838e-13 C8.8017402,-1.13686838e-13 9.14285715,0.341116945 9.14285715,0.761904745 L9.14285715,3.04761898 L15.2380951,3.04761898 L15.2380951,0.761904745 C15.2380951,0.341116945 15.5792121,-1.13686838e-13 15.9999999,-1.13686838e-13 C16.4207877,-1.13686838e-13 16.7619046,0.341116945 16.7619046,0.761904745 L16.7619046,3.04761898 L22.8571426,3.04761898 L22.8571426,0.761904745 C22.8571426,0.341116945 23.1982595,-1.13686838e-13 23.6190473,-1.13686838e-13 C24.0398351,-1.13686838e-13 24.3809521,0.341116945 24.3809521,0.761904745 L24.3809521,3.04761898 L26.6666663,3.04761898 C27.9290312,3.04761898 28.9523805,4.07096829 28.9523805,5.33333322 L28.9523805,7.61904745 L31.2380948,7.61904745 C31.6588826,7.61904745 31.9999995,7.9601644 31.9999995,8.3809522 C31.9999995,8.80174 31.6588826,9.14285696 31.2380948,9.14285695 L28.9523806,9.14285695 L28.9523806,15.2380949 L31.2380948,15.2380949 C31.6588826,15.2380949 31.9999996,15.5792119 31.9999995,15.9999997 C31.9999995,16.4207875 31.6588826,16.7619044 31.2380948,16.7619044 Z M27.4285711,26.6666661 L27.428571,5.33333333 C27.428571,4.91254553 27.0874541,4.57142857 26.6666663,4.57142859 L5.33333345,4.57142859 C4.91254565,4.57142859 4.57142864,4.91254553 4.57142871,5.33333322 L4.57142871,26.6666661 C4.57142871,27.0874539 4.91254565,27.4285708 5.33333348,27.4285708 L26.6666664,27.4285708 C27.0874542,27.4285708 27.4285711,27.0874539 27.4285711,26.6666661 Z M18.2857142,18.2857139 L21.3333331,18.2857139 L21.3333331,21.3333329 L18.2857142,21.3333329 L18.2857142,18.2857139 Z" id="path-1"></path>
    </defs>
    <g id="Hub" stroke="none" stroke-width="1" fill="none" fill-rule="evenodd">
        <g id="home" transform="translate(-971.000000, -1046.000000)">
            <g id="Icons/Shippet" transform="translate(971.000000, 1046.000000)">
                <g id="Colors/@secondary">
                    <mask id="mask-2" fill="white">
                        <use xlink:href="#path-1"></use>
                    </mask>
                    <g id="Mask" fill-rule="nonzero"></g>
                    <g mask="url(#mask-2)" fill="#0931D5" id="Rectangle">
                        <g transform="translate(-16.000000, -16.000000)">
                            <rect x="0" y="0" width="64" height="64"></rect>
                        </g>
                    </g>
                </g>
            </g>
        </g>
    </g>
</svg>