<?xml version="1.0" encoding="UTF-8"?>
<svg width="32px" height="32px" viewBox="0 0 32 32" version="1.1" xmlns="http://www.w3.org/2000/svg" xmlns:xlink="http://www.w3.org/1999/xlink">
    <!-- Generator: sketchtool 53 (72520) - https://sketchapp.com -->
    <title>43AF9A06-5A60-4261-9F46-7F577EB6F411</title>
    <desc>Created with sketchtool.</desc>
    <defs>
        <path d="M30.7200004,5.12000003 L30.7200004,5.12000003 C31.4269252,5.12000006 32.0000004,4.54692483 32.0000004,3.84000002 L32.0000004,1.28000001 L32.0000004,1.28000001 C32.0000004,0.573075203 31.4269252,0 30.7200004,0 L28.1600003,0 L28.1600003,0 C27.4530755,3.09006082e-08 26.8800003,0.573075203 26.8800003,1.28000001 C26.8800003,1.28000001 26.8800003,1.28000001 26.8800003,1.28000001 L26.8800003,2.56000002 L5.12000014,2.56000002 L5.12000014,1.28000001 L5.12000014,1.28000001 C5.12000014,0.573075203 4.54692494,4.54747354e-15 3.84000014,4.54747354e-15 L1.28000012,4.54747354e-15 L1.28000006,4.54747354e-15 C0.573075259,3.09006127e-08 5.59514837e-08,0.573075203 5.59514837e-08,1.28000001 C5.59514837e-08,1.28000001 5.59514837e-08,1.28000001 5.59514837e-08,1.28000001 L5.59514837e-08,3.84000002 L5.59515019e-08,3.83999983 C-5.07911547e-08,4.54692463 0.573075259,5.11999984 1.28000006,5.11999984 L2.56000007,5.11999984 L2.56000007,26.88 L1.28000006,26.88 L1.28000001,26.88 C0.573075203,26.88 9.09494702e-13,27.4530752 9.09494702e-13,28.16 C9.09494702e-13,28.16 9.09494702e-13,28.16 9.09494702e-13,28.16 L9.09494702e-13,30.72 L9.27684654e-13,30.7199998 C-1.06741729e-07,31.4269246 0.573075203,31.9999998 1.28000001,31.9999998 L3.84000002,31.9999998 L3.83999997,31.9999998 C4.54692477,31.9999998 5.11999997,31.4269246 5.11999997,30.7199998 L5.11999997,29.4399998 L26.8800001,29.4399998 L26.8800001,30.7199998 L26.8800001,30.72 C26.8800002,31.4269248 27.4530753,32 28.1600001,32 L30.7200001,32 L30.7200001,32 C31.4269249,32 32.0000001,31.4269248 32.0000001,30.72 L32.0000001,28.16 L32.0000001,28.16 C32.0000001,27.4530752 31.4269249,26.88 30.7200001,26.88 L29.4400001,26.88 L29.4400001,5.11999984 L30.7200004,5.12000003 Z M1.28000023,3.84000002 L1.28000023,1.28000001 L3.84000025,1.28000001 L3.84000025,3.84000002 L1.28000023,3.84000002 Z M3.84000025,30.7200002 L1.28000023,30.7200002 L1.28000023,28.1600002 L3.84000025,28.1600002 L3.84000025,30.7200002 Z M26.8800004,28.1600002 L5.12000025,28.1600002 L5.12000025,28.1600002 C5.12000025,27.4530754 4.54692505,26.8800002 3.84000025,26.8800002 L3.84000025,5.12000003 L3.84000019,5.12000003 C4.546925,5.12000006 5.1200002,4.54692483 5.1200002,3.84000002 L26.8800003,3.84000002 L26.8800003,3.84000022 C26.8800004,4.54692502 27.4530755,5.12000022 28.1600003,5.12000022 L28.1600003,26.8800004 L28.1600004,26.8800004 C27.4530756,26.8800002 26.8800004,27.4530756 26.8800004,28.1600004 C26.8800004,28.1600004 26.8800004,28.1600005 26.8800004,28.1600006 L26.8800004,28.1600002 Z M30.7200004,28.1600002 L30.7200004,30.7200002 L28.1600004,30.7200002 L28.1600004,28.1600002 L30.7200004,28.1600002 Z M28.1600004,3.84000002 L28.1600004,1.28000001 L30.7200004,1.28000001 L30.7200004,3.84000002 L28.1600004,3.84000002 Z M23.0400004,12.8000001 L19.2000003,12.8000001 L19.2000003,8.96000005 L19.2000003,8.96000005 C19.2000003,8.25307525 18.6269251,7.68000005 17.9200003,7.68000005 L8.96000028,7.68000005 L8.96000022,7.68000005 C8.25307542,7.68000008 7.68000021,8.25307525 7.68000021,8.96000005 C7.68000021,8.96000005 7.68000021,8.96000005 7.68000021,8.96000005 L7.68000021,17.9200001 L7.68000021,17.9200003 C7.68000032,18.6269251 8.25307542,19.2000003 8.96000022,19.2000003 L12.8000002,19.2000003 L12.8000002,23.0400003 L12.8000002,23.0400005 C12.8000004,23.7469253 13.3730754,24.3200005 14.0800003,24.3200005 L23.0400003,24.3200005 L23.0400003,24.3200005 C23.7469251,24.3200006 24.3200003,23.7469253 24.3200003,23.0400005 L24.3200003,14.0800005 L24.3200003,14.0800005 C24.3200003,13.3730757 23.7469251,12.8000005 23.0400003,12.8000005 C23.0400001,12.8000005 23.04,12.8000005 23.0399999,12.8000005 L23.0400004,12.8000001 Z M8.96000028,8.96000005 L17.9200003,8.96000005 L17.9200003,17.9200001 L8.96000028,17.9200001 L8.96000028,8.96000005 Z M23.0400004,23.0400001 L14.0800003,23.0400001 L14.0800003,19.2000001 L17.9200003,19.2000001 L17.9200003,19.2000001 C18.6269251,19.2000001 19.2000003,18.6269249 19.2000003,17.9200001 L19.2000003,14.0800001 L23.0400004,14.0800001 L23.0400004,23.0400001 Z" id="path-1"></path>
    </defs>
    <g id="Hub" stroke="none" stroke-width="1" fill="none" fill-rule="evenodd">
        <g id="home" transform="translate(-604.000000, -1046.000000)">
            <g id="Icons/DesignLayout" transform="translate(604.000000, 1046.000000)">
                <g id="Colors/@secondary">
                    <mask id="mask-2" fill="white">
                        <use xlink:href="#path-1"></use>
                    </mask>
                    <g id="Mask" fill-rule="nonzero"></g>
                    <g mask="url(#mask-2)" fill="#E4611F" id="Rectangle">
                        <g transform="translate(-16.000000, -16.000000)">
                            <rect x="0" y="0" width="64" height="64"></rect>
                        </g>
                    </g>
                </g>
            </g>
        </g>
    </g>
</svg>