<?xml version="1.0" encoding="UTF-8"?>
<svg width="32px" height="32px" viewBox="0 0 32 32" version="1.1" xmlns="http://www.w3.org/2000/svg" xmlns:xlink="http://www.w3.org/1999/xlink">
    <defs>
        <path d="M31.9611248,15.3634313 L31.9611255,15.3634476 C31.6224525,6.54639336 24.2002621,-0.326743424 15.3831822,0.0120024328 C7.04112722,0.332430162 0.35218269,7.0214182 0.0317370442,15.3634476 L0,15.3634476 L0,16.6431826 L0.0321213487,16.6431826 L0.0321212415,16.6431799 C0.370255384,25.2052086 7.39985001,31.9774767 15.9685333,31.9962888 C15.9778754,31.9962888 15.9872174,32 15.9969434,32 C16.0066694,32 16.0156276,31.9962888 16.0253535,31.9962888 L16.025354,31.9962888 C24.5942676,31.9771412 31.62366,25.2041848 31.9611262,16.6419002 L31.9933755,16.6419002 L31.9933755,15.3634449 L31.9611248,15.3634313 Z M27.3905513,6.72893127 L27.3905498,6.72893185 C25.3475808,7.53496399 23.2279941,8.13126547 21.0644357,8.50865933 L21.0644355,8.50865755 C20.7057629,6.00622532 19.801122,3.61328723 18.4146162,1.49942094 L18.4146162,1.49942094 C21.9440231,2.09018632 25.1360533,3.94990875 27.3905497,6.7289301 L27.3905513,6.72893127 Z M11.5293876,15.3634313 L11.5293865,15.3635203 C11.5516727,13.5494959 11.6985445,11.7391444 11.9689627,9.94525025 L11.9689626,9.94525023 C13.3103168,10.1396253 14.6637134,10.239222 16.0190679,10.2433005 L16.0190694,10.2433005 C17.3594895,10.2396356 18.6979899,10.1414937 20.0246144,9.94960516 L20.0246157,9.94961377 C20.2944645,11.7418826 20.4411247,13.5505321 20.4635635,15.3628545 L11.5293876,15.3634313 Z M20.4641135,16.6431663 L20.4641148,16.6430496 C20.44196,18.4564235 20.2953036,20.2661351 20.0251823,22.0594022 L20.0251847,22.0594026 C17.3540706,21.6663435 14.6396886,21.6678088 11.9689969,22.063753 L11.9689966,22.0637512 C11.6983621,20.2690636 11.5514856,18.457893 11.5294076,16.6430496 L20.4641135,16.6431663 Z M15.9966866,1.28634626 C17.2586333,1.28634626 18.9088516,4.04071992 19.809657,8.70292252 L19.8096594,8.70292219 C18.560139,8.87396005 17.3005982,8.9614325 16.0394321,8.96475597 L16.0394311,8.96475597 C14.7500085,8.96148986 13.4622624,8.87170669 12.1848693,8.69601162 C13.0863133,4.03700835 14.7349972,1.28634593 15.996688,1.28634593 L15.9966866,1.28634626 Z M13.5790112,1.49878228 L13.5790117,1.4987815 C12.1941721,3.60978117 11.2904232,5.99945595 10.9317519,8.49854806 L10.9317485,8.49854747 C8.76912433,8.11963074 6.64961441,7.52623297 4.60462347,6.72713828 L4.60462395,6.72713769 C6.85885157,3.9487562 10.0504595,2.08965957 13.5792648,1.49942019 L13.5790112,1.49878228 Z M3.87567646,7.6999942 L3.87567903,7.6999953 C6.07225459,8.64031003 8.36948131,9.32547631 10.7222613,9.74206845 L10.7222596,9.74207991 C10.4374174,11.6028914 10.2813026,13.4811329 10.255027,15.3634311 L1.30878333,15.3634357 L1.30878333,15.3634357 C1.42714026,12.6184809 2.31678324,9.96245485 3.8756758,7.69999853 L3.87567646,7.6999942 Z M1.30878398,16.6418866 L10.2541317,16.6418866 L10.2541296,16.6417401 C10.2806502,18.5246143 10.436712,20.4034316 10.7212099,22.264883 L10.721208,22.2648833 C8.36973329,22.6818504 6.07364554,23.3663474 3.87770985,24.3050368 L3.87770998,24.305037 C2.3182121,22.0428623 1.42786206,19.3869514 1.30878272,16.6418942 L1.30878398,16.6418866 Z M4.60768488,25.2788182 L4.60768442,25.2788183 C6.65171556,24.4804134 8.77020169,23.8876184 10.9317509,23.5092008 L10.9317503,23.5091969 C11.2908952,26.0056784 12.1933771,28.39296 13.5755549,30.5026928 L13.5755549,30.5026928 C10.0499091,29.9114601 6.86116781,28.0539964 4.60768243,25.2788142 L4.60768488,25.2788182 Z M15.9966866,30.7202514 C14.7347399,30.7202514 13.0860573,27.969589 12.1846119,23.3130172 L12.1846099,23.3130175 C13.4620068,23.1373304 14.7497491,23.0475467 16.0391717,23.0442732 L16.0391724,23.0442732 C17.3003845,23.0466451 18.56002,23.1334764 19.8096301,23.3041835 C18.9091061,27.9658742 17.2588878,30.7202479 15.9966852,30.7202479 L15.9966866,30.7202514 Z M18.4180732,30.5026965 L18.4180732,30.5026965 C19.8018506,28.3897388 20.7048828,25.9987587 21.0634134,23.4985788 L21.0634136,23.4985788 C23.226025,23.8762159 25.3447543,24.4722089 27.3870834,25.2774105 L27.3870839,25.2774099 C25.1334577,28.0531167 21.9444221,29.9110744 18.4183298,30.5026959 L18.4180732,30.5026965 Z M28.1144974,24.3051958 L28.1144952,24.3051949 C25.9200184,23.3622708 23.6240331,22.6757979 21.2721361,22.2594105 L21.2721377,22.2593997 C21.5561391,20.3996248 21.7119929,18.522535 21.7385986,16.6414014 L30.6839468,16.641389 L30.6839468,16.641389 C30.5649957,19.3867533 29.6745469,22.0429713 28.1147636,24.3053125 L28.1144974,24.3051958 Z M21.7386016,15.3634313 L21.7386023,15.3634794 C21.7120372,13.4831008 21.5562695,11.6067661 21.2724012,9.74774626 L21.2724026,9.74774601 C23.6254514,9.33198058 25.922371,8.64487038 28.1171933,7.70017 L28.1171933,7.70017008 C29.6763201,9.96247283 30.5661454,12.6184605 30.6845849,15.3634794 L21.7386016,15.3634313 Z" id="path-1"></path>
    </defs>
    <g id="Hub" stroke="none" stroke-width="1" fill="none" fill-rule="evenodd">
        <g id="home-v4" transform="translate(-604.000000, -1767.000000)">
            <g id="Group-12" transform="translate(215.000000, 1024.000000)">
                <g id="Group-3" transform="translate(0.285709, 729.000688)">
                    <g id="Icons/WebEarth" transform="translate(388.714291, 13.999312)">
                        <g id="Colors/@secondary">
                            <mask id="mask-2" fill="white">
                                <use xlink:href="#path-1"></use>
                            </mask>
                            <g id="Mask"></g>
                            <g id="Colors/@complementary" mask="url(#mask-2)" fill="#FFD033">
                                <g transform="translate(-16.000000, -16.000000)" id="Rectangle">
                                    <rect x="0" y="0" width="64" height="64"></rect>
                                </g>
                            </g>
                        </g>
                    </g>
                </g>
            </g>
        </g>
    </g>
</svg>