<?xml version="1.0" encoding="UTF-8"?>
<svg width="42px" height="48px" viewBox="0 0 42 48" version="1.1" xmlns="http://www.w3.org/2000/svg" xmlns:xlink="http://www.w3.org/1999/xlink">
    <!-- Generator: sketchtool 53.2 (72643) - https://sketchapp.com -->
    <title>B75B7C57-C605-4D99-9F95-A1D2FB935B5C</title>
    <desc>Created with sketchtool.</desc>
    <defs>
        <path d="M29.999998,0 L29.999998,26.9999982 L29.999998,26.9999982 C29.999998,31.9705579 25.9705582,35.9999976 20.9999986,35.9999976 C16.0294389,35.9999976 11.9999992,31.9705579 11.9999992,26.9999982 L11.9999992,0 L0,0 L0,26.9999982 L2.41584514e-13,27.0000014 C1.75124612e-06,38.5979806 9.40201936,48 20.9999986,48 C32.5979778,47.9999982 41.9999971,38.5979806 41.9999971,27.0000014 L41.9999971,0 L29.999998,0 Z M1.99999988,1.99999988 L9.9999994,1.99999988 L9.9999994,5.99999964 L1.99999988,5.99999964 L1.99999988,1.99999988 Z M39.999998,26.9999986 L39.999998,26.9999986 C39.999998,37.493418 31.4934184,45.9999976 20.9999989,45.9999976 C10.5065795,45.9999976 1.99999988,37.493418 1.99999988,26.9999986 L1.99999988,7.99999952 L9.99999948,7.99999952 L9.99999948,26.9999986 L9.99999948,27.0000002 C10.0000004,33.0751399 14.9248592,37.9999997 20.9999989,37.9999997 C27.0751386,37.9999988 31.9999984,33.0751399 31.9999984,27.0000002 L31.9999984,8.00000118 L39.999998,7.99999952 L39.999998,26.9999986 Z M31.9999981,5.99999964 L31.9999981,1.99999988 L39.9999976,1.99999988 L39.9999976,5.99999964 L31.9999981,5.99999964 Z" id="path-1"></path>
    </defs>
    <g id="Hub" stroke="none" stroke-width="1" fill="none" fill-rule="evenodd">
        <g id="home" transform="translate(-252.000000, -3778.000000)">
            <g id="Icons/Magnet" transform="translate(252.000000, 3778.000000)">
                <g id="Colors/@secondary">
                    <mask id="mask-2" fill="white">
                        <use xlink:href="#path-1"></use>
                    </mask>
                    <g id="Mask" fill-rule="nonzero"></g>
                    <g mask="url(#mask-2)" fill="#FFD033" id="Rectangle">
                        <g transform="translate(-22.500000, -24.000000)">
                            <rect x="0" y="0" width="96" height="96"></rect>
                        </g>
                    </g>
                </g>
            </g>
        </g>
    </g>
</svg>