<?xml version="1.0" encoding="UTF-8"?>
<svg width="32px" height="30px" viewBox="0 0 32 30" version="1.1" xmlns="http://www.w3.org/2000/svg" xmlns:xlink="http://www.w3.org/1999/xlink">
    <defs>
        <path d="M29.3821786,5.22378423e-11 L29.3822287,1.36239266e-07 C30.4175629,0.00128585075 31.2565645,0.959968877 31.2576369,2.1429148 L31.2576368,2.14285224 L31.2576368,27.8571425 C31.2565365,29.0401127 30.4174803,29.9987746 29.3821285,30 L1.87540819,30 C0.840073994,29.9987143 0.00107243826,29.0400313 -4.4408921e-14,27.8570853 L5.73846006e-08,27.8571478 L5.73846006e-08,2.14285752 C0.0011003262,0.959911597 0.840127814,0.00125976594 1.87545822,5.22378423e-11 L29.3821786,5.22378423e-11 Z M1.25030548,2.14285752 L1.25030548,5.71428683 L10.0024438,5.71428683 L10.0024438,1.42857179 L1.87545822,1.42857179 C1.53019637,1.42857179 1.25030543,1.74836899 1.25030548,2.14285752 Z M30.0073313,27.8571478 L30.0073313,7.1428584 L1.25030546,7.1428584 L1.25030546,27.8571478 C1.25030546,28.2516364 1.53019634,28.5714336 1.87545822,28.5714336 L29.3821786,28.5714336 C29.7274404,28.5714336 30.0073313,28.2516364 30.0073313,27.8571478 Z M30.0073313,5.71428672 L30.0073313,2.14285752 C30.0073313,1.74836888 29.7274404,1.42857166 29.3821786,1.42857168 L11.2527492,1.42857168 L11.2527492,5.71428672 L30.0073313,5.71428672 Z M2.50061095,2.85714336 L3.75091643,2.85714336 L3.75091643,4.28571504 L2.50061095,4.28571504 L2.50061095,2.85714336 Z M5.0012219,2.85714336 L6.25152737,2.85714336 L6.25152737,4.28571504 L5.0012219,4.28571504 L5.0012219,2.85714336 Z M7.50183284,2.85714336 L8.75213831,2.85714336 L8.75213831,4.28571504 L7.50183284,4.28571504 L7.50183284,2.85714336 Z M3.75091643,10.0000018 L20.6300403,10.0000018 L20.6300403,11.4285734 L3.75091643,11.4285734 L3.75091643,10.0000018 Z M3.75091643,12.8571451 L12.5668936,12.8571451 L12.5668936,14.2857168 L3.75091643,14.2857168 L3.75091643,12.8571451 Z M3.75091643,15.7142885 L11.2527492,15.7142885 L24.4818407,15.7142885 L24.4818407,17.1428602 L3.75091643,17.1428602 L3.75091643,15.7142885 Z M3.75091643,18.5714318 L11.2527492,18.5714318 L20.0646514,18.5714318 L20.0646514,20.0000035 L3.75091643,20.0000035 L3.75091643,18.5714318 Z M3.75091643,21.4285752 L11.2527492,21.4285752 L20.0646514,21.4285752 L20.0646514,22.8571469 L3.75091643,22.8571469 L3.75091643,21.4285752 Z M3.75091643,24.2857186 L11.2527492,24.2857186 L8.75213831,24.2857186 L8.75213831,25.7142902 L3.75091643,25.7142902 L3.75091643,24.2857186 Z" id="path-1"></path>
    </defs>
    <g id="Hub" stroke="none" stroke-width="1" fill="none" fill-rule="evenodd">
        <g id="home-v4" transform="translate(-974.000000, -1767.000000)">
            <g id="Group-12" transform="translate(215.000000, 1024.000000)">
                <g id="Group-3" transform="translate(0.285709, 729.000688)">
                    <g id="Icons/Monitor" transform="translate(758.714291, 13.999312)">
                        <g id="Colors/@secondary">
                            <mask id="mask-2" fill="white">
                                <use xlink:href="#path-1"></use>
                            </mask>
                            <use id="Mask" fill="#030D36" fill-rule="nonzero" xlink:href="#path-1"></use>
                            <g id="Colors/@link-80" mask="url(#mask-2)" fill="#1339D7">
                                <g transform="translate(-9.846154, -15.000000)" id="Rectangle">
                                    <rect x="0" y="0" width="53" height="60"></rect>
                                </g>
                            </g>
                        </g>
                    </g>
                </g>
            </g>
        </g>
    </g>
</svg>