<?xml version="1.0" encoding="UTF-8"?>
<svg width="32px" height="32px" viewBox="0 0 32 32" version="1.1" xmlns="http://www.w3.org/2000/svg" xmlns:xlink="http://www.w3.org/1999/xlink">
    <defs>
        <path d="M31.3333332,30.6666667 C31.7015225,30.6666667 31.9999999,30.965144 31.9999999,31.3333333 C31.9999999,31.7015227 31.7015225,32 31.3333332,32 L0.666666665,32 C0.298477332,32 5.55944329e-08,31.7015227 -6.43041176e-13,31.3333332 L-6.43041176e-13,0.666666665 C-6.43041176e-13,0.298477332 0.298477332,8.17124146e-14 0.666666665,8.17124146e-14 C1.034856,8.17124146e-14 1.33333333,0.298477332 1.33333333,0.666666665 L1.33333333,30.6666666 L1.588,30.6666666 L8.06933331,17.7026666 C8.23391464,17.3731367 8.63447064,17.2394186 8.96399997,17.4039999 C9.29352984,17.5685813 9.42724797,17.9691373 9.26266662,18.2986666 L3.07866664,30.6666666 L31.3333332,30.6666666 Z M10.6666665,15.9999997 C9.19390651,15.9999997 7.99999962,14.806093 7.99999985,13.3333333 C7.99999985,11.8605733 9.19390651,10.6666666 10.6666665,10.6666667 C12.1394265,10.6666667 13.3333332,11.8605733 13.3333332,13.3333333 C13.3333332,14.8060933 12.1394265,16 10.6666666,16 Z M10.6666666,12.0000001 C9.93028656,12.0000001 9.33333312,12.5969535 9.33333323,13.3333333 C9.33333323,14.0697133 9.93028656,14.6666667 10.6666666,14.6666666 C11.4030466,14.6666666 11.9999999,14.0697133 11.9999999,13.3333333 C11.9999999,12.5969533 11.4030466,12 10.6666666,12 Z M26.6666665,13.333333 C25.1939065,13.333333 23.9999996,12.1394264 23.9999998,10.6666667 C23.9999998,9.19390666 25.1939065,7.99999994 26.6666665,8 C28.1394264,8 29.3333332,9.19390666 29.3333331,10.6666667 C29.3333331,12.1394267 28.1394264,13.3333334 26.6666666,13.3333333 Z M26.6666665,9.33333347 C25.9302865,9.33333347 25.3333331,9.9302868 25.3333332,10.6666667 C25.3333332,11.4030467 25.9302865,12 26.6666665,12 C27.4030465,12 27.9999999,11.4030467 27.9999998,10.6666667 C27.9999998,9.93028666 27.4030465,9.3333333 26.6666666,9.33333333 Z M19.9999998,22.6666663 C18.5272398,22.6666663 17.3333329,21.4727597 17.3333331,20 C17.3333331,18.52724 18.5272398,17.3333332 19.9999998,17.3333333 C21.4727598,17.3333333 22.6666665,18.52724 22.6666665,20 C22.6666665,21.47276 21.4727598,22.6666667 19.9999999,22.6666666 Z M19.9999999,18.6666668 C19.2636199,18.6666668 18.6666664,19.2636201 18.6666665,20 C18.6666665,20.73638 19.2636199,21.3333333 19.9999999,21.3333333 C20.7363799,21.3333333 21.3333332,20.73638 21.3333332,20 C21.3333332,19.26362 20.7363799,18.6666666 19.9999999,18.6666666 Z M15.8047999,16.1952 C16.0651493,16.4555493 16.0651493,16.87766 15.8047999,17.1380093 C15.5444506,17.3983586 15.1223399,17.3983586 14.8619906,17.1380093 C14.6016413,16.87766 14.6016413,16.4555493 14.8619906,16.1952 C15.1223399,15.9348506 15.5444506,15.9348506 15.8047999,16.1952 Z M23.8047999,14.8618666 C24.0651492,15.122216 24.0651492,15.5443266 23.8047999,15.804676 C23.5444506,16.0650253 23.1223399,16.0650253 22.8619906,15.804676 C22.6016412,15.5443266 22.6016412,15.122216 22.8619906,14.8618666 C23.1223399,14.6015173 23.5444506,14.6015173 23.8047999,14.8618666 Z" id="path-1"></path>
    </defs>
    <g id="Hub" stroke="none" stroke-width="1" fill="none" fill-rule="evenodd">
        <g id="home" transform="translate(-235.000000, -1046.000000)">
            <g id="Icons/Graph" transform="translate(235.000000, 1046.000000)">
                <g id="Colors/@secondary">
                    <mask id="mask-2" fill="white">
                        <use xlink:href="#path-1"></use>
                    </mask>
                    <g id="Mask"></g>
                    <g mask="url(#mask-2)" fill="#FFD033" id="Rectangle">
                        <g transform="translate(-16.000000, -16.000000)">
                            <rect x="0" y="0" width="64" height="64"></rect>
                        </g>
                    </g>
                </g>
            </g>
        </g>
    </g>
</svg>