<?xml version="1.0" encoding="UTF-8"?>
<svg width="24px" height="24px" viewBox="0 0 24 24" version="1.1" xmlns="http://www.w3.org/2000/svg" xmlns:xlink="http://www.w3.org/1999/xlink">
    <!-- Generator: sketchtool 53.2 (72643) - https://sketchapp.com -->
    <title>FF2E9095-53FF-405C-8B18-29631F036077</title>
    <desc>Created with sketchtool.</desc>
    <g id="Hub" stroke="none" stroke-width="1" fill="none" fill-rule="evenodd">
        <g id="pricing-2" transform="translate(-965.000000, -870.000000)" fill="#00C682">
            <g id="Tick-Sign" transform="translate(965.000000, 825.000000)">
                <path d="M12.0000005,45 L12,45 C5.3725824,45.0000003 0,50.3725824 0,57 C2.8969344e-07,63.6274176 5.3725824,69 12,69 C18.6274176,68.9999997 24,63.6274176 24,57 L24,57.0000005 C24,50.3725829 18.6274176,45.0000005 12,45.0000005 L12.0000005,45 Z M17.1497285,54.449088 L11.7290885,60.209088 L11.7290885,60.209088 C11.5500159,60.3992918 11.2517151,60.4113648 11.0578565,60.236256 L7.83840052,57.332352 L7.83840054,57.332352 C7.6388991,57.1577808 7.61868918,56.8545341 7.79326038,56.6550317 C7.96783158,56.4555303 8.2710783,56.4353203 8.4705807,56.6098915 C8.47430493,56.6131504 8.47797853,56.6164666 8.48160016,56.6198391 L11.3520002,59.2087671 L16.4505602,53.7909111 L16.4505602,53.790911 C16.6322843,53.5977878 16.936157,53.5885469 17.1292802,53.770271 C17.3224034,53.9519952 17.3316443,54.2558678 17.1499202,54.448991 L17.1497285,54.449088 Z" id="Shape"></path>
            </g>
        </g>
    </g>
</svg>