<?xml version="1.0" encoding="UTF-8"?>
<svg width="32px" height="32px" viewBox="0 0 32 32" version="1.1" xmlns="http://www.w3.org/2000/svg" xmlns:xlink="http://www.w3.org/1999/xlink">
    <defs>
        <path d="M29.5626535,2.5893624e-07 L23.2727274,2.5893624e-07 L23.2727273,2.5893624e-07 C22.2305784,3.11607802e-07 21.3857495,0.976833685 21.3857495,2.18181838 C21.3857495,2.18181838 21.3857495,2.18181838 21.3857495,2.18181838 L21.3857495,8.8 L21.3857492,8.80000008 C20.1506052,9.09216443 19.1853569,10.2082284 18.932678,11.6363636 L16.3538083,11.6363636 L16.3538082,11.6363636 C15.6594155,11.6374054 15.0967237,12.2880174 15.095823,13.090909 L15.095823,18.9090907 L12.5169533,18.9090907 L12.5169534,18.9090911 C12.2643021,17.4809369 11.2990438,16.3648584 10.0638822,16.0727275 L10.0638822,9.45454588 L10.0638822,9.45454588 C10.0638822,8.24956118 9.21905326,7.27272776 8.17690434,7.27272776 C8.17690423,7.27272776 8.17690413,7.27272776 8.17690402,7.27272776 L1.88697791,7.27272776 L1.88697783,7.27272776 C0.844828909,7.27272781 0,8.24956118 0,9.45454588 L0,29.8181816 L1.78771022e-14,29.8181819 C1.57360131e-07,31.0231666 0.844828909,32 1.88697783,32 L8.17690394,32 L8.17690388,32 C9.2190528,31.9999999 10.0638817,31.0231666 10.0638817,29.8181819 L10.0638817,23.2000003 L10.0638817,23.2000002 C11.2990257,22.9078373 12.264274,21.7917719 12.5169529,20.3636367 L15.0958226,20.3636367 L15.0958226,20.3636367 C15.7902153,20.362595 16.3529071,19.7119829 16.3538078,18.9090913 L16.3538078,13.0909096 L18.9326775,13.0909096 L18.9326775,13.0909094 C19.1853903,14.5190257 20.150621,15.6350693 21.3857486,15.9272729 L21.3857486,22.5454545 L21.3857486,22.5454542 C21.3857485,23.7504389 22.2305776,24.7272723 23.2727265,24.7272723 C23.2727266,24.7272723 23.2727266,24.7272723 23.2727267,24.7272723 L29.5626528,24.7272723 L29.5626528,24.7272723 C30.6048017,24.7272725 31.4496306,23.7504389 31.4496306,22.5454542 C31.4496306,22.5454541 31.4496306,22.545454 31.4496306,22.5454539 L31.4496306,2.18181812 L31.4496306,2.18181812 C31.4496306,0.976833426 30.6048017,0 29.5626528,0 L29.5626535,2.5893624e-07 Z M8.17690472,30.5454539 L1.88697862,30.5454539 L1.88697861,30.5454539 C1.5397684,30.544973 1.25840239,30.219643 1.257986,29.8181812 L1.257986,9.45454544 L1.25798599,9.45454674 C1.25840128,9.05308493 1.53976714,8.72775403 1.88697735,8.72727258 L8.17690345,8.72727258 L8.17690348,8.72727258 C8.52411369,8.72775349 8.8054797,9.05308348 8.80589609,9.45454528 L8.80589609,16.0727269 L8.80589603,16.0727269 C7.10371623,16.4723764 6.00403587,18.3918541 6.34966731,20.359985 C6.6009813,21.7910075 7.56824991,22.9094104 8.80589603,23.1999994 L8.80589603,29.8181811 L8.80589603,29.8181798 C8.80548075,30.2196416 8.52411489,30.5449725 8.17690468,30.5454539 L8.17690472,30.5454539 Z M9.43488994,21.8181814 L9.43488986,21.8181814 C8.39274094,21.8181814 7.54791203,20.841348 7.54791203,19.6363633 C7.54791207,18.4313786 8.39274094,17.4545452 9.43488986,17.4545452 C10.4770388,17.4545453 11.3218677,18.4313786 11.3218677,19.6363633 L11.3218678,19.6362768 C11.3207305,20.8406971 10.476625,21.8167713 9.43496542,21.8181822 L9.43488994,21.8181814 Z M20.1277643,12.3636363 L20.1277643,12.3636366 C20.1277642,11.1586519 20.9725932,10.1818185 22.0147422,10.1818185 C23.0568911,10.1818183 23.90172,11.1586519 23.90172,12.3636366 C23.9017201,13.5686213 23.0568911,14.5454547 22.0147422,14.5454547 L22.0147422,14.5454547 C20.9730814,14.5440922 20.1289469,13.5680569 20.1277644,12.3636366 L20.1277643,12.3636363 Z M30.1916461,22.5454541 L30.1916461,22.5454528 C30.1912308,22.9469146 29.909865,23.2722455 29.5626547,23.272727 L23.2727286,23.272727 L23.2727286,23.272727 C22.9255184,23.2722461 22.6441524,22.9469161 22.643736,22.5454543 L22.643736,15.9272727 L22.6437362,15.9272726 C24.3459161,15.5276232 25.4455964,13.6081454 25.099965,11.6400146 C24.848651,10.208992 23.8813824,9.09058917 22.6437362,8.80000009 L22.6437362,2.18181846 L22.6437362,2.18181976 C22.6441515,1.78035796 22.9255174,1.45502706 23.2727276,1.4545456 L29.5626537,1.4545456 L29.5626537,1.4545456 C29.9098639,1.45502651 30.19123,1.7803565 30.1916463,2.18181831 L30.1916461,22.5454541 Z" id="path-1"></path>
    </defs>
    <g id="Hub" stroke="none" stroke-width="1" fill="none" fill-rule="evenodd">
        <g id="home-v4" transform="translate(-604.000000, -2044.000000)">
            <g id="Group-12" transform="translate(215.000000, 1024.000000)">
                <g id="Group-3" transform="translate(0.285709, 729.000688)">
                    <g id="Icons/Scale" transform="translate(388.714291, 290.999312)">
                        <g id="Colors/@secondary">
                            <mask id="mask-2" fill="white">
                                <use xlink:href="#path-1"></use>
                            </mask>
                            <use id="Mask" fill="#030D36" fill-rule="nonzero" xlink:href="#path-1"></use>
                            <g id="Colors/@complementary2" mask="url(#mask-2)" fill="#C600A3">
                                <g transform="translate(-11.243243, -16.000000)" id="Rectangle">
                                    <rect x="0" y="0" width="55" height="64"></rect>
                                </g>
                            </g>
                        </g>
                    </g>
                </g>
            </g>
        </g>
    </g>
</svg>