<?xml version="1.0" encoding="UTF-8"?>
<svg width="36px" height="30px" viewBox="0 0 24 20" version="1.1" xmlns="http://www.w3.org/2000/svg" xmlns:xlink="http://www.w3.org/1999/xlink">
    <g stroke="none" stroke-width="1" fill="none" fill-rule="evenodd">
        <g transform="translate(-209.000000, -366.000000)" fill="#00C682" fill-rule="nonzero">
            <g transform="translate(209.000000, 366.000000)">
                <path d="M20.7504059,18.053 L20.7504216,18.0530072 C20.9195896,18.1377842 21.0264066,18.3107942 21.0264066,18.5000162 L21.0264066,18.4999994 L21.0264066,19.4999994 C21.0264066,19.7761414 20.8025486,19.9999994 20.5264066,19.9999994 L15.5264066,19.9999994 C15.2502646,19.9999994 15.0264066,19.7761414 15.0264066,19.4999994 C15.0264066,19.2238574 15.2502646,18.9999994 15.5264066,18.9999994 L20.0264066,18.9999994 L20.0264066,18.8089994 L18.3034066,17.9539994 C18.2554032,17.9296917 18.2115314,17.897969 18.1734066,17.8599994 C17.2444066,16.9309994 17.3994066,12.9269994 18.1734066,12.1529994 C18.3594936,11.9912296 18.6357306,11.9892706 18.8240936,12.1483846 C19.0350461,12.3265796 19.0616011,12.6420466 18.8834061,12.8529996 C18.4457138,14.2326296 18.4303918,15.7115996 18.8394059,17.1 L20.7504059,18.053 Z M19.5263998,4.00000363 C21.6503998,4.00000363 24.0263998,5.71100363 24.0263998,8.00000363 C24.0254598,9.04673363 23.6142458,10.0513906 22.8810098,10.7983936 C21.3335098,12.3749515 18.8009598,12.3985015 17.2244001,10.8510019 C17.0460366,10.6611479 17.0433226,10.3661599 17.2181626,10.1730569 C17.4035036,9.9683542 17.7196976,9.9526592 17.9243996,10.1380012 C18.4272396,10.6334332 19.0892016,10.9349101 19.7930296,10.9890322 C21.4389496,11.1156022 22.8758336,9.88392219 23.0023995,8.23800366 L22.5263995,8.00000366 L22.5263995,7.59400366 L22.8713995,7.21600366 C22.2852795,5.88710866 20.9786495,5.02149346 19.5263997,5.00000367 L18.5263997,5.00000367 C18.2502577,5.00000367 18.0263997,4.77614567 18.0263997,4.50000359 C18.0263997,3.29000359 13.7743997,1.00000359 11.5263997,1.00000359 C10.7743997,1.00000359 9.02639966,1.13400359 9.02639967,2.37100359 C9.13749967,3.27822859 9.89383667,3.96873979 10.8073996,3.99700359 C10.9123996,3.99700359 11.0643996,3.99000359 11.2513996,3.98200359 C12.5253996,3.93300359 15.1793996,3.82000359 16.3913996,4.98200359 C16.8083746,5.37532359 17.0391221,5.92693659 17.0264025,6.50000717 C17.0264025,8.02500717 15.1364025,11.0000072 13.5264025,11.0000072 C12.7315825,10.9082092 11.9508565,10.7201642 11.2014027,10.4400072 C10.6569227,10.2449132 10.0964687,10.0976881 9.52640248,10.0000072 C9.36599648,9.99093824 9.20520548,9.99093816 9.04479948,10.000007 C6.69250948,10.132997 4.89340948,12.147717 5.02639959,14.5000089 C5.02639959,16.7320089 7.06239959,19.0000089 8.52639959,19.0000089 L13.0253996,19.0000089 L13.0253996,18.8790069 L9.88739959,17.9790069 C9.87739959,17.9770069 9.87139959,17.9660069 9.86139959,17.9660069 C9.82912179,17.9537172 9.79827429,17.9379582 9.76939967,17.919007 C9.71344867,17.8915426 9.66632857,17.8489267 9.63339965,17.796007 C9.59110415,17.749415 9.56269865,17.6919109 9.55139965,17.630007 C9.5411787,17.5974842 9.53447375,17.5639593 9.53139976,17.5300072 C9.53039976,17.5190072 9.52539976,17.5110072 9.52539976,17.5000072 C9.53755382,17.454971 9.54426823,17.4086408 9.54539944,17.3620084 C9.54839944,17.3520084 9.55939944,17.3450084 9.55939944,17.3350084 C9.57129844,17.30419 9.58638014,17.2746971 9.6043994,17.2470084 C9.6199191,17.2178895 9.6383464,17.1904162 9.65939933,17.1650085 C9.70657633,17.1209676 9.75857193,17.0823903 9.81439933,17.0500085 C9.87445233,17.0278702 9.93686853,17.0127694 10.0003993,17.0050086 C10.0093993,17.0000086 10.0173993,17.0000086 10.0263993,17.0000086 C11.1309693,17.0000086 12.0263995,16.1045786 12.0263993,15.0000086 C12.0263993,13.8954386 11.1309693,13.0000084 10.0263993,13.0000086 C8.92182931,13.0000086 8.02639914,13.8954386 8.02639931,15.0000083 C8.02639931,15.2761503 7.80254131,15.5000083 7.52639931,15.5000083 C7.25025731,15.5000083 7.02639935,15.2761503 7.02639931,15.0000082 C7.02447931,14.0102282 7.51086831,13.0832022 8.32638931,12.5223282 C9.69153931,11.5834402 11.5593423,11.9290002 12.4982293,13.2941602 C13.4371173,14.6593102 13.0915573,16.5271132 11.7263973,17.4660003 L13.6644073,18.0200023 C13.8785323,18.0814923 14.0261462,18.2772283 14.0264013,18.5000009 L14.0264013,19.5000009 C14.0264013,19.7761429 13.8025433,20.0000009 13.5264013,20.0000009 L8.52640129,20.0000009 C6.72640129,20.0000009 4.77340129,17.9610009 4.19940129,15.7520009 C3.02550129,16.2604739 1.65836529,15.9699879 0.792631294,15.0281239 C-0.330473706,13.8062539 -0.250413706,11.9052739 0.971456294,10.7821739 C2.19332629,9.6590689 4.09430629,9.7391289 5.21740619,10.9609988 C6.27225619,9.67492579 7.86379619,8.95062649 9.52640588,8.99999878 C10.2007559,9.08459378 10.8629149,9.24769978 11.499406,9.48599982 C12.156406,9.72398182 12.835397,9.89615882 13.5264069,9.99999896 C14.4574069,9.99999896 16.0264069,7.61399896 16.0264069,6.49999896 C16.0383889,6.19952896 15.9185909,5.90880196 15.6984058,5.70399892 C14.7924058,4.83799892 12.3414058,4.94199892 11.2924058,4.98399892 C11.0894058,4.99299892 10.9234058,4.99999892 10.8074058,4.99999892 C9.34295584,4.96752892 8.14105284,3.83130892 8.02640593,2.371 C8.02640593,0.887 9.33540593,-8.8817842e-14 11.5264059,-8.8817842e-14 C13.6484059,-8.8817842e-14 18.2534059,1.97 18.9404059,4 L19.5264059,4 Z M3.0264059,15.0000001 C3.3843989,14.9936851 3.7339099,14.8899721 4.03740581,14.7000001 C4.03440581,14.6330001 4.02640581,14.5660001 4.02640581,14.5000001 C4.02223781,13.5822901 4.23429681,12.6764921 4.64540587,11.856 C4.26704587,11.313498 3.64493387,10.9931439 2.98355587,11.00023 C1.87904787,11.01206 0.993261971,11.91703 1.00509587,13.02154 C1.01692587,14.126048 1.92189587,15.0118339 3.02640593,15 Z M20.8800059,6.14645 C21.0752679,6.341712 21.0752679,6.658295 20.8800059,6.853557 C20.6847439,7.048819 20.3681609,7.048819 20.1728989,6.853557 C19.9776369,6.658295 19.9776369,6.341712 20.1728989,6.14645 C20.3681609,5.951188 20.6847439,5.951188 20.8800059,6.14645 Z" ></path>
            </g>
        </g>
    </g>
</svg>