<?xml version="1.0" encoding="UTF-8"?>
<svg width="40px" height="40px" viewBox="0 0 40 40" version="1.1" xmlns="http://www.w3.org/2000/svg" xmlns:xlink="http://www.w3.org/1999/xlink">
    <!-- Generator: sketchtool 53.2 (72643) - https://sketchapp.com -->
    <title>AA9BD2B8-C0B4-4C6A-A770-5D4411197CBD</title>
    <desc>Created with sketchtool.</desc>
    <defs>
        <path d="M39.9514064,19.2042892 L39.9514072,19.2043095 C39.528066,8.1829917 30.2503279,-0.408429279 19.228978,0.0150030409 C8.8014091,0.415537703 0.440228366,8.77677275 0.0396713057,19.2043095 L0,19.2043095 L0,20.8039783 L0.0401516862,20.8039783 L0.0401515523,20.8039749 C0.462819235,31.5065107 9.2498126,39.9718458 19.9606668,39.995361 C19.9723444,39.995361 19.984022,40 19.9961795,40 C20.0083369,40 20.0195346,39.995361 20.0316921,39.995361 L20.0316926,39.995361 C30.7428348,39.9714266 39.5295754,31.505231 39.9514081,20.8023752 L39.9917197,20.8023752 L39.9917197,19.2043061 L39.9514064,19.2042892 Z M34.2381883,8.41116403 L34.2381864,8.41116476 C31.6844753,9.41870491 29.0349919,10.1640817 26.330544,10.6358241 L26.3305436,10.6358218 C25.8822029,7.50778161 24.7514018,4.51660905 23.0182695,1.87427625 L23.0182695,1.87427625 C27.4300281,2.61273296 31.4200659,4.93738595 34.2381863,8.41116257 L34.2381883,8.41116403 Z M14.4117345,19.2042896 L14.4117332,19.2044008 C14.4395909,16.9368703 14.6231806,14.6739309 14.9612034,12.4315632 L14.9612032,12.4315631 C16.6378961,12.674532 18.3296419,12.7990279 20.0238351,12.804126 L20.023837,12.804126 C21.6993622,12.7995448 23.3724878,12.6768675 25.0307685,12.4370068 L25.0307701,12.4370176 C25.3680811,14.6773537 25.5514063,16.9381656 25.5794549,19.2035685 L14.4117345,19.2042896 Z M25.5801412,20.8039575 L25.5801427,20.8038116 C25.5524493,23.0705289 25.3691288,25.3326685 25.0314772,27.5742524 L25.0314802,27.5742528 C21.6925877,27.082929 18.2996105,27.0847606 14.9612459,27.5796908 L14.9612456,27.5796886 C14.6229524,25.3363291 14.4393569,23.0723658 14.4117594,20.8038116 L25.5801412,20.8039575 Z M19.9958576,1.60793287 C21.573291,1.60793287 23.6360639,5.05089994 24.7620707,10.8786532 L24.7620738,10.8786528 C23.2001732,11.0924501 21.6257472,11.2017907 20.0492896,11.205945 L20.0492883,11.205945 C18.4375101,11.2018624 16.8278274,11.0896334 15.231086,10.8700146 C16.3578911,5.04626048 18.418746,1.60793245 19.9958594,1.60793245 L19.9958576,1.60793287 Z M16.9737632,1.87347778 L16.9737639,1.8734768 C15.2427144,4.51222632 14.1130284,7.49931969 13.6646892,10.6231847 L13.6646851,10.623184 C10.961405,10.1495381 8.3120177,9.40779091 5.75577915,8.40892258 L5.75577974,8.40892184 C8.57356412,4.93594509 12.5630738,2.61207437 16.9740802,1.87427517 L16.9737632,1.87347778 Z M4.8445955,9.62499261 L4.84459872,9.62499399 C7.59031814,10.8003874 10.4618515,11.6568453 13.4028265,12.1775855 L13.4028243,12.1775998 C13.0467716,14.5036142 12.851628,16.8514161 12.8187836,19.204289 L1.63597912,19.2042947 L1.63597912,19.2042947 C1.78392528,15.7731011 2.895979,12.4530685 4.84459468,9.62499803 L4.8445955,9.62499261 Z M1.63597995,20.8023591 L12.8176643,20.8023591 L12.8176618,20.802176 C12.8508125,23.1557686 13.0458897,25.5042902 13.4015121,27.8311043 L13.4015097,27.8311048 C10.4621664,28.3523136 7.59205677,29.2079348 4.84713721,30.3812966 L4.84713738,30.3812969 C2.89776507,27.5535785 1.78482755,24.23369 1.63597837,20.8023686 L1.63597995,20.8023591 Z M5.75960585,31.5985231 L5.75960527,31.5985234 C8.31464424,30.6005172 10.9627519,29.8595234 13.6646885,29.3865014 L13.6646878,29.3864965 C14.1136189,32.5070984 15.2417213,35.4912005 16.9694436,38.1283665 L16.9694436,38.1283665 C12.5623863,37.3893256 8.57645955,35.0674959 5.75960279,31.5985182 L5.75960585,31.5985231 Z M19.9958575,38.4003145 C18.4184242,38.4003145 16.357571,34.9619865 15.2307643,29.1412718 L15.2307618,29.1412722 C16.8275079,28.9216632 18.4371857,28.8094337 20.048964,28.8053417 L20.0489648,28.8053417 C21.62548,28.8083067 23.2000243,28.9168458 24.7620368,29.1302296 C23.6363819,34.957343 21.5736091,38.40031 19.9958558,38.40031 L19.9958575,38.4003145 Z M23.0225921,38.1283706 L23.0225921,38.1283706 C24.7523138,35.4871736 25.881104,32.4984486 26.3292672,29.3732238 L26.3292675,29.3732238 C29.0325316,29.8452701 31.6809431,30.5902614 34.2338544,31.5967633 L34.233855,31.5967626 C31.4168224,35.066396 27.430528,37.3888431 23.0229129,38.1283699 L23.0225921,38.1283706 Z M35.1431226,30.3814955 L35.1431199,30.3814944 C32.4000239,29.2028393 29.5300421,28.3447482 26.5901709,27.824264 L26.5901729,27.8242504 C26.9451746,25.4995319 27.1399919,23.1531698 27.173249,20.8017527 L38.3549345,20.8017373 L38.3549345,20.8017373 C38.2062456,24.2334426 37.0931845,27.553715 35.1434554,30.3816414 L35.1431226,30.3814955 Z M27.1732527,19.2042894 L27.1732536,19.2043495 C27.1400472,16.8538762 26.9453376,14.5084578 26.5905023,12.1846829 L26.590504,12.1846826 C29.531815,11.6649758 32.4029645,10.8060881 35.1464924,9.62521255 L35.1464925,9.62521266 C37.0954009,12.4530912 38.2076826,15.7730758 38.355732,19.2043495 L27.1732527,19.2042894 Z" id="path-1"></path>
    </defs>
    <g id="Hub" stroke="none" stroke-width="1" fill="none" fill-rule="evenodd">
        <g id="home" transform="translate(-609.000000, -4024.000000)">
            <g id="Icons/WebEarth" transform="translate(609.000000, 4024.000000)">
                <g id="Colors/@secondary">
                    <mask id="mask-2" fill="white">
                        <use xlink:href="#path-1"></use>
                    </mask>
                    <g id="Mask"></g>
                    <g mask="url(#mask-2)" fill="#FFD033" id="Rectangle">
                        <g transform="translate(-20.000000, -20.000000)">
                            <rect x="0" y="0" width="80" height="80"></rect>
                        </g>
                    </g>
                </g>
            </g>
        </g>
    </g>
</svg>