<?xml version="1.0" encoding="UTF-8"?>
<svg width="40px" height="40px" viewBox="0 0 40 40" version="1.1" xmlns="http://www.w3.org/2000/svg" xmlns:xlink="http://www.w3.org/1999/xlink">
    <defs>
        <path d="M38.4000005,6.40000004 L38.4000004,6.40000004 C39.2836564,6.40000008 40.0000005,5.68365603 40.0000005,4.80000003 L40.0000005,1.60000001 L40.0000005,1.60000001 C40.0000005,0.716344004 39.2836564,0 38.4000004,0 L35.2000004,0 L35.2000004,0 C34.3163443,3.86257602e-08 33.6000003,0.716344004 33.6000003,1.60000001 C33.6000003,1.60000001 33.6000003,1.60000001 33.6000003,1.60000001 L33.6000003,3.20000002 L6.40000018,3.20000002 L6.40000018,1.60000001 L6.40000018,1.60000001 C6.40000018,0.716344004 5.68365617,5.68434192e-15 4.80000017,5.68434192e-15 L1.60000015,5.68434192e-15 L1.60000008,5.68434192e-15 C0.716344074,3.86257659e-08 6.99391273e-08,0.716344004 6.99391273e-08,1.60000001 C6.99391273e-08,1.60000001 6.99391273e-08,1.60000001 6.99391273e-08,1.60000001 L6.99391273e-08,4.80000003 L6.993915e-08,4.79999979 C-6.34891708e-08,5.68365579 0.716344074,6.3999998 1.60000008,6.3999998 L3.20000009,6.3999998 L3.20000009,33.6 L1.60000008,33.6 L1.60000001,33.6 C0.716344004,33.6 9.09494702e-13,34.316344 9.09494702e-13,35.2 C9.09494702e-13,35.2 9.09494702e-13,35.2 9.09494702e-13,35.2 L9.09494702e-13,38.4 L9.32232142e-13,38.3999997 C-1.33427389e-07,39.2836558 0.716344004,39.9999998 1.60000001,39.9999998 L4.80000003,39.9999998 L4.79999996,39.9999998 C5.68365596,39.9999998 6.39999997,39.2836558 6.39999997,38.3999997 L6.39999997,36.7999997 L33.6000001,36.7999997 L33.6000001,38.3999997 L33.6000001,38.4 C33.6000003,39.283656 34.3163441,40 35.2000001,40 L38.4000002,40 L38.4000001,40 C39.2836561,40 40.0000001,39.283656 40.0000001,38.4 L40.0000001,35.2 L40.0000001,35.2 C40.0000001,34.316344 39.2836561,33.6 38.4000001,33.6 L36.8000001,33.6 L36.8000001,6.3999998 L38.4000005,6.40000004 Z M1.60000029,4.80000003 L1.60000029,1.60000001 L4.80000031,1.60000001 L4.80000031,4.80000003 L1.60000029,4.80000003 Z M4.80000031,38.4000002 L1.60000029,38.4000002 L1.60000029,35.2000002 L4.80000031,35.2000002 L4.80000031,38.4000002 Z M33.6000005,35.2000002 L6.40000032,35.2000002 L6.40000032,35.2000002 C6.40000032,34.3163442 5.68365631,33.6000002 4.80000031,33.6000002 L4.80000031,6.40000004 L4.80000024,6.40000004 C5.68365624,6.40000008 6.40000025,5.68365603 6.40000025,4.80000003 L33.6000004,4.80000003 L33.6000004,4.80000027 C33.6000005,5.68365628 34.3163444,6.40000028 35.2000004,6.40000028 L35.2000004,33.6000004 L35.2000005,33.6000004 C34.3163445,33.6000003 33.6000005,34.3163444 33.6000005,35.2000005 C33.6000005,35.2000005 33.6000005,35.2000006 33.6000005,35.2000007 L33.6000005,35.2000002 Z M38.4000005,35.2000002 L38.4000005,38.4000002 L35.2000005,38.4000002 L35.2000005,35.2000002 L38.4000005,35.2000002 Z M35.2000005,4.80000003 L35.2000005,1.60000001 L38.4000005,1.60000001 L38.4000005,4.80000003 L35.2000005,4.80000003 Z M28.8000005,16.0000001 L24.0000004,16.0000001 L24.0000004,11.2000001 L24.0000004,11.2000001 C24.0000004,10.3163441 23.2836564,9.60000006 22.4000004,9.60000006 L11.2000003,9.60000006 L11.2000003,9.60000006 C10.3163443,9.6000001 9.60000027,10.3163441 9.60000027,11.2000001 C9.60000027,11.2000001 9.60000027,11.2000001 9.60000027,11.2000001 L9.60000027,22.4000001 L9.60000027,22.4000004 C9.6000004,23.2836564 10.3163443,24.0000004 11.2000003,24.0000004 L16.0000003,24.0000004 L16.0000003,28.8000004 L16.0000003,28.8000007 C16.0000004,29.6836567 16.7163443,30.4000007 17.6000003,30.4000007 L28.8000004,30.4000007 L28.8000003,30.4000007 C29.6836563,30.4000007 30.4000003,29.6836567 30.4000003,28.8000007 L30.4000003,17.6000006 L30.4000003,17.6000006 C30.4000003,16.7163446 29.6836563,16.0000006 28.8000003,16.0000006 C28.8000002,16.0000006 28.8,16.0000006 28.7999998,16.0000006 L28.8000005,16.0000001 Z M11.2000003,11.2000001 L22.4000004,11.2000001 L22.4000004,22.4000001 L11.2000003,22.4000001 L11.2000003,11.2000001 Z M28.8000005,28.8000002 L17.6000004,28.8000002 L17.6000004,24.0000001 L22.4000004,24.0000001 L22.4000003,24.0000001 C23.2836564,24.0000002 24.0000004,23.2836561 24.0000004,22.4000001 L24.0000004,17.6000001 L28.8000005,17.6000001 L28.8000005,28.8000002 Z" id="path-1"></path>
    </defs>
    <g id="Hub" stroke="none" stroke-width="1" fill="none" fill-rule="evenodd">
        <g id="home-v4" transform="translate(-256.000000, -3391.000000)">
            <g id="Icons/DesignLayout" transform="translate(256.000000, 3391.000000)">
                <g id="Colors/@secondary">
                    <mask id="mask-2" fill="white">
                        <use xlink:href="#path-1"></use>
                    </mask>
                    <g id="Mask" fill-rule="nonzero"></g>
                    <g id="Colors/@primary-80" mask="url(#mask-2)" fill="#FFD033">
                        <g transform="translate(-20.000000, -20.000000)" id="Rectangle">
                            <rect x="0" y="0" width="80" height="80"></rect>
                        </g>
                    </g>
                </g>
            </g>
        </g>
    </g>
</svg>