<?xml version="1.0" encoding="UTF-8"?>
<svg width="59px" height="49px" viewBox="0 0 59 49" version="1.1" xmlns="http://www.w3.org/2000/svg" xmlns:xlink="http://www.w3.org/1999/xlink">
    <!-- Generator: sketchtool 53.2 (72643) - https://sketchapp.com -->
    <title>E2FED5AC-BF74-4F2C-884A-E842B616C57E</title>
    <desc>Created with sketchtool.</desc>
    <defs>
        <path d="M19.8333248,32.6666771 C20.4776561,32.6666771 20.9999915,33.1890125 20.9999914,33.8333438 C20.9999914,34.4776752 20.4776561,35.0000106 19.8333248,35.0000105 L16.3333248,35.0000105 L16.3333248,38.5000107 C16.3333248,39.1443421 15.8109895,39.6666773 15.1666581,39.6666774 C14.5223268,39.6666774 13.9999915,39.1443421 13.9999914,38.5000105 L13.9999914,35.0000104 L10.4999914,35.0000104 C9.85566008,35.0000104 9.33332477,34.477675 9.33332475,33.8333436 C9.33332475,33.1890123 9.85566008,32.6666769 10.4999915,32.6666769 L13.9999915,32.6666769 L13.9999915,29.1666767 C13.9999915,28.5223454 14.5223268,28.00001 15.1666582,28.00001 C15.8109895,28.00001 16.3333248,28.5223454 16.3333248,29.1666767 L16.3333248,32.6666769 L19.8333249,32.6666769 Z M45.9832261,28.6834445 C46.8944487,29.5946672 46.8944487,31.0720545 45.9832261,31.9832678 C45.0720034,32.8944905 43.5946161,32.8944905 42.6834028,31.9832678 C41.7721802,31.0720452 41.7721802,29.5946578 42.6834028,28.6834445 C43.5946255,27.7722219 45.0720128,27.7722219 45.9832261,28.6834445 Z M50.6498925,35.6834441 C51.5611151,36.5946668 51.5611151,38.0720541 50.6498925,38.9832674 C49.7386698,39.89449 48.2612825,39.89449 47.3500692,38.9832674 C46.4388465,38.0720447 46.4388465,36.5946574 47.3500692,35.6834441 C48.2612918,34.7722215 49.7386792,34.7722215 50.6498925,35.6834441 Z M36.6498933,28.6834445 C37.561116,29.5946672 37.561116,31.0720545 36.6498933,31.9832678 C35.7386707,32.8944905 34.2612833,32.8944905 33.35007,31.9832678 C32.4388474,31.0720452 32.4388474,29.5946578 33.35007,28.6834445 C34.2612927,27.7722219 35.73868,27.7722219 36.6498933,28.6834445 Z M41.3165597,35.6834441 C42.2277824,36.5946668 42.2277824,38.0720541 41.3165597,38.9832674 C40.405337,39.89449 38.9279497,39.89449 38.0167364,38.9832674 C37.1055138,38.0720447 37.1055138,36.5946574 38.0167364,35.6834441 C38.9279591,34.7722215 40.4053464,34.7722215 41.3165597,35.6834441 Z M50.1666573,18.6666774 L50.1666896,18.666658 C54.6747595,18.6720713 58.3279409,22.3252547 58.3333328,26.8333481 L58.3333327,26.8333329 L58.3333327,40.8333332 C58.3279194,45.3414266 54.6747361,48.9946079 50.1666424,49 L8.16664317,49 C3.65857325,48.9945867 0.00539191895,45.3414033 -1.76181238e-08,40.8333098 L-9.90831576e-13,40.8333246 L-9.90831576e-13,26.8333243 C0.0053899999,22.3252309 3.65857327,18.6720575 8.16666664,18.6666575 L25.6665497,18.6666575 L25.6665497,16.3333241 C25.6691163,13.7570627 27.7569596,11.6692298 30.3332164,11.6666573 C31.6218814,11.6666573 32.6665498,10.621989 32.6665497,9.33332395 C32.6665497,8.04465892 31.6218814,6.99999051 30.3332165,6.99999057 C27.7569436,6.99737724 25.6691589,4.9094872 25.6666433,2.33323048 L25.6666434,2.33333338 L25.6666434,1.16666669 C25.6666434,0.522335343 26.1889787,0 26.83331,0 C27.4776413,0 27.9999767,0.522335343 27.9999767,1.16666669 L27.9999767,2.33333338 C28.0016473,3.6213054 29.045338,4.66499559 30.3333101,4.66666676 C32.91064,4.66666676 34.9999768,6.75600346 34.9999766,9.33333351 C34.9999766,11.9106636 32.91064,14.0000004 30.3333103,14.0000003 C29.0453406,14.0016896 28.0016549,15.045385 27.999991,16.333357 L27.999991,16.333344 L27.999991,18.6666774 L50.1666573,18.6666774 Z M55.9999913,40.8333456 L56.0000609,26.8333456 C55.9963276,23.6132054 53.3867976,21.0036988 50.1666577,21.0000119 L8.16665782,21.0000119 C4.94654117,21.0037686 2.33708167,23.6132987 2.33339451,26.8334156 L2.3333946,26.8333396 L2.3333946,40.8333404 C2.33712793,44.0534573 4.94661126,46.6629451 8.16672825,46.6666741 L50.1667281,46.6666741 C53.3868448,46.6629174 55.996304,44.0533873 55.9999914,40.8332704 L55.9999913,40.8333456 Z" id="path-1"></path>
    </defs>
    <g id="Hub" stroke="none" stroke-width="1" fill="none" fill-rule="evenodd">
        <g id="home" transform="translate(-967.000000, -3823.000000)">
            <g id="Icons/RemotePlaying" transform="translate(967.000000, 3823.000000)">
                <g id="Colors/@secondary">
                    <mask id="mask-2" fill="white">
                        <use xlink:href="#path-1"></use>
                    </mask>
                    <g id="Mask"></g>
                    <g mask="url(#mask-2)" fill="#FFD033" id="Rectangle">
                        <g transform="translate(-15.312500, -24.500000)">
                            <rect x="0" y="0" width="98" height="98"></rect>
                        </g>
                    </g>
                </g>
            </g>
        </g>
    </g>
</svg>