<?xml version="1.0" encoding="UTF-8"?>
<svg width="32px" height="32px" viewBox="0 0 32 32" version="1.1" xmlns="http://www.w3.org/2000/svg" xmlns:xlink="http://www.w3.org/1999/xlink">
    <defs>
        <path d="M31.0726446,13.5068168 L31.0723961,13.506743 C31.6215264,13.6640013 32.0000007,14.1660737 32.0000007,14.7372789 L32.0000007,14.7375335 L32.0000007,17.2624619 C32.0000007,17.8335724 31.6216493,18.3355846 31.0726405,18.4929261 L28.4427521,19.2460782 C28.2383028,19.3062472 28.0783349,19.4660206 28.01792,19.6703983 C27.7837146,20.4432496 27.4750681,21.1915403 27.0963199,21.9047666 C26.9946698,22.0913087 26.9951524,22.316805 27.0975999,22.5029107 L28.4179201,24.883711 C28.6948584,25.3830647 28.6075483,26.0054622 28.2039041,26.4093432 L26.4093439,28.2037755 C26.0054705,28.607796 25.3827607,28.6952777 24.8831997,28.4181756 L22.5034233,27.0977274 C22.4123193,27.0471273 22.3097799,27.0206882 22.2055673,27.0209274 C22.100798,27.02126 21.997702,27.0472316 21.9052793,27.0965753 C21.1920504,27.4753261 20.4437571,27.7839726 19.670911,28.0181755 C19.4663951,28.07805 19.3064656,28.2379797 19.246591,28.4424955 L18.4930548,31.0725119 C18.3357607,31.6215718 17.833737,31.999983 17.2625906,32 L14.7375342,32 C14.16653,32.0000499 13.6645485,31.6218815 13.5070662,31.0730226 L12.7531461,28.4430062 C12.6930475,28.2383521 12.5330603,28.0782684 12.328442,28.0180462 C11.5557955,27.7839661 10.8077442,27.4753146 10.0948424,27.0964477 C10.0023662,27.0471227 9.89923405,27.0211529 9.79442633,27.0207997 C9.69024583,27.0208195 9.58777094,27.047242 9.49657036,27.0975996 L7.116538,28.4176638 C6.61694624,28.6948312 5.99416087,28.6073458 5.59026579,28.2032638 L3.79583351,26.4088316 C3.39218929,26.0049505 3.3048792,25.382553 3.58181754,24.8831992 L4.90222734,22.5038324 C5.00461725,22.3179982 5.00534083,22.092818 4.90414734,21.9063284 C4.52552456,21.1928178 4.21688452,20.4443236 3.98255042,19.6713222 C3.92277313,19.4666118 3.76261055,19.3065943 3.55784634,19.2470021 L0.927573933,18.49321 C0.378458969,18.3359415 -5.56257341e-08,17.8338768 3.06220871e-08,17.2626831 L3.3782702e-08,17.2625933 L3.3782702e-08,14.737537 C-0.000130526237,14.1663676 0.378182492,13.6642299 0.92723218,13.5068155 L3.55686458,12.7530234 C3.76153917,12.6932346 3.92166131,12.5333062 3.98169662,12.3287034 C4.21577154,11.5562233 4.52442438,10.8083384 4.90329603,10.0956164 C5.0052276,9.90895399 5.00488981,9.68318884 4.90240005,9.4968323 L3.58182385,7.11679993 C3.30433005,6.61713906 3.39172206,5.99405672 3.79596788,5.5900157 L5.59052815,3.79558343 C5.99437461,3.39130689 6.61743007,3.30404543 7.11680038,3.5818234 L9.49657675,4.9029116 C9.58777804,4.95326924 9.69025294,4.97969176 9.79443279,4.97971161 C9.89924048,4.97935846 10.0023728,4.95338853 10.0948488,4.90406362 C10.8077705,4.52522325 11.5558167,4.21657168 12.3284498,3.98246457 C12.533068,3.92224184 12.6930549,3.76215861 12.7531538,3.55750454 L13.5068179,0.927488142 C13.664112,0.378428218 14.1661358,1.69783068e-05 14.7372821,1.49213975e-13 L17.2627225,1.49213975e-13 C17.8338688,1.66400027e-05 18.3358926,0.378428218 18.4931867,0.92748825 L19.2468521,3.55763265 C19.3069917,3.7618554 19.4666205,3.92162861 19.6707882,3.98195271 C20.4436779,4.21591115 21.1919583,4.52456655 21.9050275,4.90355234 C21.9975895,4.9528934 22.1008084,4.97886295 22.2056996,4.97920035 C22.3097508,4.97912675 22.412089,4.95270549 22.5031716,4.90240034 L24.88346,3.58182414 C25.3828303,3.30404618 26.0058857,3.39130763 26.4097322,3.79558415 L28.2041645,5.59052843 C28.6081197,5.99451569 28.6954452,6.61729211 28.4181805,7.1168007 L27.0972203,9.49568106 C26.9947401,9.68172013 26.9940165,9.907132 27.0953003,10.0938252 C27.4739909,10.8072973 27.7826335,11.5558043 28.0169001,12.3288326 C28.0769539,12.5333792 28.2370038,12.6932842 28.4416042,12.7531527 L31.0726446,13.5068168 Z M30.7200045,17.2624653 L30.7199923,14.7375389 L28.0898479,13.9837468 C27.4670242,13.8048271 26.9782254,13.3209973 26.7929518,12.700035 C26.582548,12.006198 26.3055905,11.3343208 25.9659438,10.6937628 C25.6609208,10.1247144 25.6657425,9.43970949 25.9787437,8.87501029 L27.2993199,6.49587392 L25.5048876,4.70144165 L23.1240872,6.02201785 C22.8429313,6.17771772 22.5268212,6.25942097 22.205431,6.25945789 C21.8906162,6.25889725 21.5807359,6.18119612 21.3029031,6.03315397 C20.6628134,5.69339071 19.9913022,5.41646907 19.2977829,5.20627389 C18.6776997,5.02063034 18.19473,4.53216307 18.0161188,3.91001802 L17.2625827,1.28000161 L14.7372703,1.28000161 L13.9834731,3.90989002 C13.8047211,4.53253971 13.3212087,5.02131035 12.7005288,5.20678624 C12.0072295,5.41701859 11.3359296,5.69393896 10.6960501,6.03366422 C10.4183426,6.18124108 10.1087745,6.25870988 9.79428995,6.25932826 C9.47272702,6.25905434 9.15650041,6.17713432 8.87524998,6.02124832 L6.49560162,4.70131211 L4.70078535,6.49536039 L6.02174555,8.87616075 C6.33548903,9.441725 6.33968615,10.1281149 6.03288157,10.6974731 C5.69330264,11.3373196 5.41655251,12.0085748 5.20651379,12.7018243 C5.02073968,13.3221111 4.53202025,13.805187 3.90961768,13.9837445 L1.27998528,14.7375366 L1.27998528,17.262465 L3.91038568,18.0167704 C4.53334514,18.1954558 5.02224121,18.6793804 5.20728189,19.3004826 C5.41761664,19.9943195 5.69453189,20.6662044 6.03416146,21.3067563 C6.33883594,21.8754834 6.33401545,22.5599763 6.02136138,23.1243565 L4.70104118,25.5043888 L6.49547345,27.2986931 L8.87564662,25.9786289 C9.1566745,25.8224163 9.47290495,25.7404729 9.79443068,25.7405489 C10.1089152,25.7411671 10.4184833,25.8186365 10.6961906,25.9662128 C11.3359731,26.3059901 12.0072948,26.582707 12.7006707,26.792449 C13.3212135,26.9781105 13.8046107,27.4668133 13.9834869,28.0893451 L14.737535,30.7200015 L17.2624634,30.7200015 L18.0161313,28.0903691 C18.1947592,27.4679178 18.677935,26.9791932 19.2983075,26.7934729 C19.9920165,26.5835592 20.6636351,26.3066273 21.3036832,25.9665944 C21.5814458,25.8190412 21.8910497,25.7415744 22.2055714,25.7409303 C22.5269961,25.7410122 22.8431357,25.8227121 23.1243554,25.9783703 L25.5043878,27.2989465 L27.2989481,25.5045142 L25.9784999,23.1244819 C25.6650573,22.5591352 25.6605722,21.8732062 25.9665959,21.3038096 C26.3062657,20.6635023 26.5831822,19.991826 26.7934759,19.2981777 C26.9791348,18.6779587 27.4677083,18.1948853 28.0899881,18.0162575 L30.7200045,17.2624653 Z M16.0000023,8.96000008 L16.0002326,8.96000637 C19.8865052,8.96449918 23.0357602,12.1139653 23.0400033,16.0002379 L23.040003,16.0000012 C23.040003,19.8880914 19.8880922,23.0400021 16.000002,23.0400022 C12.1119118,23.0400022 8.96000105,19.8880914 8.96000088,16.0000012 C8.96000088,12.111911 12.1119118,8.96000025 16.0000023,8.96000008 Z M16.000002,21.7600018 C19.1811609,21.7600018 21.7600029,19.1811598 21.7600029,16.0000012 C21.7600029,12.8188423 19.1811609,10.2400004 16.000002,10.2400003 C12.8188431,10.2400003 10.2400013,12.8188423 10.2400011,16.0000012 C10.2400011,19.18116 12.8188431,21.7600019 16.0000023,21.760002 Z" id="path-1"></path>
    </defs>
    <g stroke="none" stroke-width="1" fill="none" fill-rule="evenodd">
        <g transform="translate(-971.000000, -2044.000000)">
            <g transform="translate(215.000000, 1024.000000)">
                <g transform="translate(0.285709, 729.000688)">
                    <g transform="translate(755.714291, 290.999312)">
                        <g>
                            <mask id="mask-2" fill="white">
                                <use xlink:href="#path-1"></use>
                            </mask>
                            <use id="Mask" fill="#030D36" fill-rule="nonzero" xlink:href="#path-1"></use>
                            <g mask="url(#mask-2)" fill="#FFC400">
                                <g transform="translate(-16.000000, -16.000000)" id="Rectangle">
                                    <rect x="0" y="0" width="64" height="64"></rect>
                                </g>
                            </g>
                        </g>
                    </g>
                </g>
            </g>
        </g>
    </g>
</svg>