<?xml version="1.0" encoding="UTF-8"?>
<svg width="21px" height="23px" viewBox="0 0 21 23" version="1.1" xmlns="http://www.w3.org/2000/svg" xmlns:xlink="http://www.w3.org/1999/xlink">
    <!-- Generator: Sketch 53.2 (72643) - https://sketchapp.com -->
    <title>Combined Shape</title>
    <desc>Created with Sketch.</desc>
    <g id="Hub" stroke="none" stroke-width="1" fill="none" fill-rule="evenodd">
        <g id="Integration-landing" transform="translate(-674.000000, -2354.000000)" fill="#FFFFFF" fill-rule="nonzero">
            <g id="Stopwatch-Half" transform="translate(674.000000, 2349.000000)">
                <path d="M10.4999995,7.00000046 C16.2989895,7.00000046 20.9999995,11.7010105 20.9999995,17.5 C20.9999995,23.29899 16.2989895,27.9999997 10.4999995,28 C4.70100954,28 -2.0548541e-07,23.29899 -4.5896741e-07,17.5 C-4.5896741e-07,11.70101 4.70100954,7.00000025 10.5,7 Z M10.5,27 L10.5000997,26.9999972 C15.7442897,26.9938772 19.9939945,22.7440872 19.9999997,17.4998972 L19.9999996,17.5 C19.9999996,12.2533 15.7467096,8.00000023 10.4999996,8 C5.25329958,8 0.999999814,12.25329 0.999999585,17.5 C0.999999585,22.7467 5.25328958,26.9999998 10.5,27 Z M12.644,10.021 L12.6440078,10.0210199 C14.9655378,10.8108499 16.7886538,12.6339699 17.5784878,14.9554999 C18.9837778,19.0860199 16.7745378,23.5736999 12.6439982,24.9789998 C12.5972608,24.9929015 12.5487593,24.9999747 12.4999983,24.9999998 C12.2792233,24.9998308 12.0846919,24.8548848 12.0213813,24.6433828 C11.9421933,24.3788388 12.0924543,24.100188 12.3569993,24.0209998 C14.3580593,23.3289198 15.9305763,21.7563998 16.6226593,19.7553398 C17.8682493,16.1538898 15.9584493,12.2245898 12.357,10.979 C12.0924556,10.899747 11.9422472,10.621044 12.0215,10.3565 C12.100753,10.0919556 12.379456,9.94174719 12.644,10.021 Z M7.49999996,6 C7.22385796,6 6.99999997,5.776142 6.99999996,5.5 C6.99999996,5.223858 7.22385796,5.00000001 7.49999998,5 L13.5,5 C13.776142,5 14,5.223858 14,5.5 C14,5.776142 13.776142,6.00000001 13.5,6 L7.5,6 Z M10.4999959,16.0000031 C11.1228009,16.0070521 11.6764519,16.3982471 11.8911159,16.9829301 C12.1766369,17.7606001 11.7776669,18.6224811 10.999997,18.9080001 L10.999997,24.5000001 C10.999997,24.7761421 10.776139,25 10.499997,25.0000001 C10.223855,25.0000001 9.99999706,24.7761421 9.99999702,24.5 L9.99999702,18.908 C9.41531402,18.69333 9.02411945,18.139685 9.01707002,17.51688 C9.00770002,16.688507 9.67162602,16.0093762 10.5,16 Z M20.7071,7.29289 C21.097624,7.683414 21.097624,8.31658 20.7071,8.7071 C20.316576,9.097624 19.68341,9.097624 19.29289,8.7071 C18.902366,8.316576 18.902366,7.68341 19.29289,7.29289 C19.683414,6.902366 20.31658,6.902366 20.7071,7.29289 Z" id="Combined-Shape"></path>
            </g>
        </g>
    </g>
</svg>