<svg width="31" height="32" xmlns="http://www.w3.org/2000/svg">
  <path d="M20.4565 19.2a8.3469 8.3469 0 0 1-5.1196-1.623v6.775c3.624.331 6.3983 3.3694 6.3996 7.0084V31.36 32h-14.08v-.64c.0015-3.639 2.776-6.6772 6.4-7.008V15.36c-.1-3.1023 2.0713-5.8166 5.12-6.4a7.8964 7.8964 0 0 1 1.4912-.119c1.5513 0 3.456.256 5.248.256a6.592 6.592 0 0 0 4.7808-1.417c0 4.3738-3.9463 11.52-10.24 11.52zm-1.033-8.9843c-2.442.4763-4.1752 2.6577-4.087 5.1443 0 1.0304 2.1504 2.56 5.12 2.56 4.4966 0 7.5814-4.3392 8.5977-7.9078a11.6595 11.6595 0 0 1-3.1372.3648c-.9767 0-1.9572-.0704-2.9056-.1383-.8436-.0614-1.6397-.1177-2.3399-.1177a6.6458 6.6458 0 0 0-1.248.0947zm.9971 20.5043h.0013c-.2974-2.6777-2.4112-4.7916-5.089-5.089-3.1617-.3511-6.0094 1.9273-6.3606 5.089h11.4483zm-7.6441-14.08c-1.3863 0-2.9376-.0896-4.4685-.224a8.9603 8.9603 0 0 1-.4454-.048C2.9575 15.715-.4896 11.2092.1634 6.304.514 3.7594 1.2104 1.326 2.5364 0c0 6.1338 10.24 3.8938 10.24 16.64zM3.028 12.2598a7.68 7.68 0 0 0 5.39 2.8826c1.1073.0947 2.1236.16 3.0388.192-.361-5.7818-3.1603-7.584-5.8675-9.3312a11.432 11.432 0 0 1-3.4035-2.871 17.3416 17.3416 0 0 0-.7552 3.3459 7.5353 7.5353 0 0 0 1.5974 5.7817z" fill="#0931D5" fill-rule="nonzero"/>
</svg>
