<svg width="39" height="32" xmlns="http://www.w3.org/2000/svg">
  <path d="M19.0476 9.1429c10.5198 0 19.0476 10 19.0476 11.4285C38.0952 22 29.5674 32 19.0476 32S0 21.9107 0 20.5714C0 19.2322 8.5278 9.143 19.0476 9.143zm0 21.3333c8.7162 0 16.2789-7.7724 17.4382-9.9048-1.1593-2.1316-8.722-9.9047-17.4382-9.9047-9.012 0-16.2351 7.9597-17.4156 9.9047 1.1805 1.945 8.4037 9.9048 17.4156 9.9048zm0-15.2381c2.9455 0 5.3334 2.3878 5.3334 5.3333 0 2.9456-2.3879 5.3334-5.3334 5.3334s-5.3333-2.3878-5.3333-5.3334c0-2.9455 2.3878-5.3333 5.3333-5.3333zm0 9.1429c2.103-.0025 3.8071-1.7067 3.8095-3.8096 0-2.104-1.7055-3.8095-3.8095-3.8095s-3.8095 1.7056-3.8095 3.8095c0 2.104 1.7056 3.8096 3.8095 3.8096zM10.769 8.3534L9.246 5.715a.762.762 0 1 1 1.3199-.7619l1.5238 2.6384a.7608.7608 0 0 1-.279 1.0402.751.751 0 0 1-.381.1026.7628.7628 0 0 1-.6607-.381zm15.5168.2784a.7608.7608 0 0 1-.2782-1.0402l1.5238-2.6383a.762.762 0 1 1 1.3199.7619l-1.5238 2.6383a.7628.7628 0 0 1-.6607.381.751.751 0 0 1-.381-.1027zm-7.238-2.5366a.762.762 0 0 1-.762-.7619V.762a.762.762 0 0 1 1.5238 0v4.5714a.762.762 0 0 1-.7619.762z" fill="#00C682" fill-rule="nonzero"/>
</svg>
