<svg width="32" height="32" xmlns="http://www.w3.org/2000/svg">
  <path d="M30.068 23.0308h-.6398V20.88v.0003a2.559 2.559 0 0 0-1.5504-2.352l-7.045-3.0195a1.2795 1.2795 0 0 1-.5987-.5246 7.7806 7.7806 0 0 1-.9138-2.467 9.4951 9.4951 0 0 0 2.431-6.4857C21.6898 2.8308 19.188.2101 15.9936 0c-3.2079.181-5.7258 2.8187-5.7577 6.0315a9.495 9.495 0 0 0 2.431 6.4857 7.7806 7.7806 0 0 1-.9186 2.4669 1.2795 1.2795 0 0 1-.5988.5246L4.1097 18.527A2.559 2.559 0 0 0 2.559 20.88v2.1508h-.6398C.8592 23.0308 0 23.89 0 24.95v1.2795c.0045 1.007.7865 1.8393 1.7913 1.9064a4.2581 4.2581 0 0 1 2.3146 3.2244.6397.6397 0 0 0 1.2795 0 4.9107 4.9107 0 0 0-1.5034-3.2116h24.4906a4.9107 4.9107 0 0 0-1.5034 3.2116.6397.6397 0 0 0 1.2795 0 4.2824 4.2824 0 0 1 2.4439-3.2909h.0064a1.9192 1.9192 0 0 0 1.3882-1.8399V24.95c0-1.06-.8593-1.9192-1.9192-1.9192zM15.9936 1.2795c2.4898.2026 4.4235 2.2546 4.4782 4.752 0 3.5404-2.1342 6.7634-4.4782 6.7634-2.344 0-4.4782-3.223-4.4782-6.7634.0302-2.5074 1.977-4.5732 4.4782-4.752zM3.8385 20.88v.0001c0-.5117.3049-.9742.7752-1.176l7.0449-3.0195a2.5449 2.5449 0 0 0 1.1937-1.048 9.3824 9.3824 0 0 0 .9392-2.2122 4.0534 4.0534 0 0 0 4.4027 0c.217.7746.5326 1.5181.9391 2.2123.2764.4678.6952.835 1.195 1.0479l7.045 3.0196c.4703.2016.7753.664.7753 1.1758v2.1508H16.6334v-2.6767c.9993-.3533 1.523-1.4499 1.1697-2.4492-.3533-.9993-1.4499-1.523-2.4492-1.1697-.9994.3533-1.523 1.4498-1.1698 2.4492a1.9192 1.9192 0 0 0 1.1698 1.1697v2.6767H3.8385V20.88zm11.5154-2.3274a.6397.6397 0 1 1 .6397.6397.6397.6397 0 0 1-.6397-.6397zM1.2795 24.95a.6397.6397 0 0 1 .6397-.6397H30.068a.6397.6397 0 0 1 .6397.6397v1.2795a.6397.6397 0 0 1-.6397.6398H1.9192a.6397.6397 0 0 1-.6397-.6398V24.95z" fill="#C600A3" fill-rule="nonzero"/>
</svg>
