<svg width="31" height="32" xmlns="http://www.w3.org/2000/svg">
  <path d="M27.975 10.2812a2.7103 2.7103 0 0 0-.581.0639c-3.6515.8047-8.4627 1.3483-8.4627 1.3483a1.3692 1.3692 0 0 1-.265.0266c-.7358-.0013-1.332-.5975-1.3333-1.3333V2.7734C17.3314 1.24 16.087-.0016 14.5536 0h-.0008c-1.3751-.007-2.561.9647-2.8241 2.3144-.7358 3.8731-2.9455 9.381-5.3184 10.7247A1.9913 1.9913 0 0 0 4.6667 12H2c-1.1046 0-2 .8954-2 2V30c0 1.1046.8954 2 2 2h2.6667c1.1045 0 2-.8954 2-2v-1.3223l4 1.989h14.3466c1.8604.0027 3.4778-1.2758 3.9047-3.0866a74.3711 74.3711 0 0 0 1.7185-14.5254c.052-1.4788-1.1045-2.7198-2.5832-2.7719a2.6792 2.6792 0 0 0-.0783-.0016zM5.3333 30a.6667.6667 0 0 1-.6666.6667H2A.6667.6667 0 0 1 1.3333 30V14A.6677.6677 0 0 1 2 13.3334h2.6666A.6677.6677 0 0 1 5.3333 14l-.0286 14 .0286.0143V30zM27.62 27.2735c-.2828 1.2102-1.364 2.0645-2.6068 2.0598H10.9798l-4.3132-2.1445.0251-12.8053c3.3519-1.4955 5.6807-8.3139 6.3463-11.8203a1.5315 1.5315 0 0 1 1.5148-1.2298c.7966-.001 1.4437.6433 1.4462 1.44v7.6114c.002 1.472 1.1947 2.6648 2.6667 2.6667a2.7419 2.7419 0 0 0 .4605-.04c.5344-.0612 5.0267-.5879 8.555-1.3652a1.3733 1.3733 0 0 1 .2933-.0325c.3592.0007.7026.1484.9501.4088.2559.2636.3927.6204.3788.9876A73.0716 73.0716 0 0 1 27.62 27.2736v-.0001z" fill="#E4611F" fill-rule="nonzero"/>
</svg>
